<svg width="298" height="152" viewBox="0 0 298 152" fill="none" xmlns="http://www.w3.org/2000/svg">
<line x1="203.24" y1="12.7244" x2="207.5" y2="1.01986" stroke="white" stroke-width="2"/>
<line x1="229.864" y1="12.1797" x2="236.092" y2="1.39274" stroke="white" stroke-width="2"/>
<line x1="256.656" y1="11.6463" x2="264.662" y2="2.10466" stroke="white" stroke-width="2"/>
<line x1="283.65" y1="10.7418" x2="293.192" y2="2.7354" stroke="white" stroke-width="2"/>
<line x1="17.7088" y1="12.2739" x2="8.16716" y2="4.26749" stroke="white" stroke-width="2"/>
<line x1="44.4605" y1="12.9319" x2="36.4542" y2="3.39023" stroke="white" stroke-width="2"/>
<line x1="71.0519" y1="13.1797" x2="64.8241" y2="2.39274" stroke="white" stroke-width="2"/>
<line x1="97.5291" y1="13.4084" x2="93.269" y2="1.7039" stroke="white" stroke-width="2"/>
<line x1="123.937" y1="13.6307" x2="121.774" y2="1.36421" stroke="white" stroke-width="2"/>
<line x1="150.324" y1="13.457" x2="150.324" y2="1.00134" stroke="white" stroke-width="2"/>
<line x1="176.742" y1="13.2834" x2="178.905" y2="1.01692" stroke="white" stroke-width="2"/>
<line x1="175.217" y1="34.5213" x2="179.477" y2="22.8167" stroke="white" stroke-width="2"/>
<line x1="201.837" y1="33.9766" x2="208.065" y2="23.1896" stroke="white" stroke-width="2"/>
<line x1="228.628" y1="33.4431" x2="236.635" y2="23.9015" stroke="white" stroke-width="2"/>
<line x1="255.627" y1="32.5425" x2="265.168" y2="24.5362" stroke="white" stroke-width="2"/>
<line x1="282.859" y1="31.2746" x2="293.646" y2="25.0468" stroke="white" stroke-width="2"/>
<line x1="16.4371" y1="34.7287" x2="8.43071" y2="25.1871" stroke="white" stroke-width="2"/>
<line x1="43.0285" y1="34.9766" x2="36.8007" y2="24.1896" stroke="white" stroke-width="2"/>
<line x1="69.5017" y1="35.2053" x2="65.2416" y2="23.5008" stroke="white" stroke-width="2"/>
<line x1="95.9097" y1="35.4276" x2="93.7468" y2="23.1611" stroke="white" stroke-width="2"/>
<line x1="122.297" y1="35.2539" x2="122.297" y2="22.7982" stroke="white" stroke-width="2"/>
<line x1="148.718" y1="35.0803" x2="150.881" y2="22.8138" stroke="white" stroke-width="2"/>
<line x1="147.189" y1="56.322" x2="151.449" y2="44.6175" stroke="white" stroke-width="2"/>
<line x1="173.814" y1="55.7734" x2="180.042" y2="44.9865" stroke="white" stroke-width="2"/>
<line x1="200.605" y1="55.24" x2="208.611" y2="45.6984" stroke="white" stroke-width="2"/>
<line x1="227.603" y1="54.3394" x2="237.145" y2="46.3331" stroke="white" stroke-width="2"/>
<line x1="254.836" y1="53.0715" x2="265.623" y2="46.8436" stroke="white" stroke-width="2"/>
<line x1="282.33" y1="52.2166" x2="294.034" y2="47.9565" stroke="white" stroke-width="2"/>
<line x1="15.0012" y1="56.7734" x2="8.77331" y2="45.9865" stroke="white" stroke-width="2"/>
<line x1="41.4783" y1="57.0061" x2="37.2182" y2="45.3016" stroke="white" stroke-width="2"/>
<line x1="67.8863" y1="57.2244" x2="65.7234" y2="44.958" stroke="white" stroke-width="2"/>
<line x1="94.2734" y1="57.0508" x2="94.2734" y2="44.5951" stroke="white" stroke-width="2"/>
<line x1="120.691" y1="56.8771" x2="122.854" y2="44.6107" stroke="white" stroke-width="2"/>
<line x1="119.166" y1="78.1189" x2="123.426" y2="66.4144" stroke="white" stroke-width="2"/>
<line x1="145.786" y1="77.5703" x2="152.014" y2="66.7834" stroke="white" stroke-width="2"/>
<line x1="172.578" y1="77.0369" x2="180.584" y2="67.4953" stroke="white" stroke-width="2"/>
<line x1="199.576" y1="76.1363" x2="209.118" y2="68.1299" stroke="white" stroke-width="2"/>
<line x1="226.812" y1="74.8683" x2="237.599" y2="68.6405" stroke="white" stroke-width="2"/>
<line x1="254.306" y1="74.0173" x2="266.011" y2="69.7572" stroke="white" stroke-width="2"/>
<line x1="282.08" y1="72.8043" x2="294.347" y2="70.6413" stroke="white" stroke-width="2"/>
<line x1="13.4509" y1="78.803" x2="9.19083" y2="67.0984" stroke="white" stroke-width="2"/>
<line x1="39.8589" y1="79.0213" x2="37.696" y2="66.7548" stroke="white" stroke-width="2"/>
<line x1="66.2461" y1="78.8477" x2="66.2461" y2="66.392" stroke="white" stroke-width="2"/>
<line x1="92.6675" y1="78.674" x2="94.8304" y2="66.4075" stroke="white" stroke-width="2"/>
<line x1="91.1384" y1="99.9158" x2="95.3985" y2="88.2113" stroke="white" stroke-width="2"/>
<line x1="117.763" y1="99.3672" x2="123.991" y2="88.5802" stroke="white" stroke-width="2"/>
<line x1="144.554" y1="98.8338" x2="152.561" y2="89.2922" stroke="white" stroke-width="2"/>
<line x1="171.553" y1="97.9332" x2="181.094" y2="89.9268" stroke="white" stroke-width="2"/>
<line x1="198.785" y1="96.6652" x2="209.572" y2="90.4374" stroke="white" stroke-width="2"/>
<line x1="226.279" y1="95.8142" x2="237.984" y2="91.5541" stroke="white" stroke-width="2"/>
<line x1="254.053" y1="94.6011" x2="266.319" y2="92.4382" stroke="white" stroke-width="2"/>
<line x1="11.8355" y1="100.818" x2="9.6726" y2="88.5517" stroke="white" stroke-width="2"/>
<line x1="38.2227" y1="100.645" x2="38.2227" y2="88.1888" stroke="white" stroke-width="2"/>
<line x1="64.6402" y1="100.471" x2="66.8031" y2="88.2044" stroke="white" stroke-width="2"/>
<line x1="297.68" y1="95.418" x2="285.224" y2="95.418" stroke="white" stroke-width="2"/>
<line x1="63.115" y1="121.713" x2="67.3751" y2="110.008" stroke="white" stroke-width="2"/>
<line x1="89.7355" y1="121.164" x2="95.9634" y2="110.377" stroke="white" stroke-width="2"/>
<line x1="116.527" y1="120.631" x2="124.533" y2="111.089" stroke="white" stroke-width="2"/>
<line x1="143.525" y1="119.73" x2="153.067" y2="111.724" stroke="white" stroke-width="2"/>
<line x1="170.762" y1="118.462" x2="181.549" y2="112.234" stroke="white" stroke-width="2"/>
<line x1="198.256" y1="117.611" x2="209.96" y2="113.351" stroke="white" stroke-width="2"/>
<line x1="226.029" y1="116.398" x2="238.296" y2="114.235" stroke="white" stroke-width="2"/>
<line x1="10.1953" y1="122.445" x2="10.1953" y2="109.99" stroke="white" stroke-width="2"/>
<line x1="36.6168" y1="122.272" x2="38.7797" y2="110.005" stroke="white" stroke-width="2"/>
<line x1="269.652" y1="117.215" x2="257.197" y2="117.215" stroke="white" stroke-width="2"/>
<line x1="297.365" y1="118.368" x2="285.099" y2="116.205" stroke="white" stroke-width="2"/>
<line x1="35.0877" y1="143.51" x2="39.3478" y2="131.805" stroke="white" stroke-width="2"/>
<line x1="61.7121" y1="142.961" x2="67.9399" y2="132.174" stroke="white" stroke-width="2"/>
<line x1="88.5035" y1="142.431" x2="96.5099" y2="132.89" stroke="white" stroke-width="2"/>
<line x1="115.502" y1="141.531" x2="125.043" y2="133.524" stroke="white" stroke-width="2"/>
<line x1="142.734" y1="140.259" x2="153.521" y2="134.031" stroke="white" stroke-width="2"/>
<line x1="170.228" y1="139.408" x2="181.933" y2="135.148" stroke="white" stroke-width="2"/>
<line x1="198.002" y1="138.195" x2="210.269" y2="136.032" stroke="white" stroke-width="2"/>
<line x1="8.58941" y1="144.069" x2="10.7523" y2="131.802" stroke="white" stroke-width="2"/>
<line x1="241.629" y1="139.012" x2="229.173" y2="139.012" stroke="white" stroke-width="2"/>
<line x1="269.338" y1="140.164" x2="257.072" y2="138.002" stroke="white" stroke-width="2"/>
<line x1="296.775" y1="141.287" x2="285.071" y2="137.027" stroke="white" stroke-width="2"/>
</svg>
