<svg width="25" height="24" viewBox="0 0 25 24" fill="none" xmlns="http://www.w3.org/2000/svg">
<g clip-path="url(#clip0_1234_12911)">
<path d="M24.2663 12.2743C24.2663 11.4586 24.2001 10.6384 24.059 9.83594H12.7402V14.4569H19.222C18.953 15.9473 18.0888 17.2657 16.8233 18.1034V21.1018H20.6903C22.9611 19.0118 24.2663 15.9252 24.2663 12.2743Z" fill="#4285F4"/>
<path d="M12.7391 23.9974C15.9756 23.9974 18.705 22.9348 20.6936 21.1005L16.8266 18.1021C15.7507 18.8341 14.3618 19.2486 12.7435 19.2486C9.61291 19.2486 6.95849 17.1365 6.00607 14.2969H2.01562V17.3878C4.05274 21.44 8.20192 23.9974 12.7391 23.9974Z" fill="#34A853"/>
<path d="M6.00277 14.3027C5.50011 12.8123 5.50011 11.1985 6.00277 9.70813V6.61719H2.01674C0.314734 10.008 0.314734 14.0028 2.01674 17.3936L6.00277 14.3027Z" fill="#FBBC04"/>
<path d="M12.7391 4.74966C14.4499 4.7232 16.1034 5.36697 17.3425 6.54867L20.7685 3.12262C18.5991 1.0855 15.7198 -0.034466 12.7391 0.000808666C8.20192 0.000808666 4.05274 2.55822 2.01562 6.61481L6.00166 9.70575C6.94967 6.86173 9.6085 4.74966 12.7391 4.74966Z" fill="#EA4335"/>
</g>
<defs>
<clipPath id="clip0_1234_12911">
<rect width="24" height="24" fill="white" transform="translate(0.5)"/>
</clipPath>
</defs>
</svg>
