<svg width="100" height="20" viewBox="0 0 100 20" fill="none" xmlns="http://www.w3.org/2000/svg">
<g clip-path="url(#clip0_1222_17357)">
<path d="M9.23912 4.64062C10.9935 4.64062 12.3898 5.21315 13.4281 6.35821C14.4843 7.48538 15.0123 9.04194 15.0123 11.0279V19.7769H10.4475V11.6452C10.4475 10.6432 10.1879 9.86495 9.66875 9.31032C9.14961 8.75568 8.45146 8.47835 7.57429 8.47835C6.69711 8.47835 5.99896 8.75568 5.47982 9.31032C4.96068 9.86495 4.7011 10.6432 4.7011 11.6452V19.7769H0.109375L0.109376 4.80165H4.7011V6.78761C5.16654 6.12562 5.79308 5.60677 6.58076 5.23105C7.36842 4.83744 8.25454 4.64062 9.23912 4.64062Z" fill="white"/>
<path d="M31.6522 11.9678C31.6522 12.3981 31.6254 12.8463 31.5716 13.3124H21.1691C21.2408 14.2447 21.5364 14.9617 22.0562 15.4636C22.5937 15.9477 23.2478 16.1897 24.0184 16.1897C25.1652 16.1897 25.9627 15.7057 26.4106 14.7376H31.3028C31.0518 15.7236 30.5949 16.611 29.9318 17.3998C29.2868 18.1886 28.4714 18.8071 27.4858 19.2553C26.5002 19.7035 25.3982 19.9275 24.1796 19.9275C22.7102 19.9275 21.402 19.6138 20.2552 18.9863C19.1084 18.3589 18.2124 17.4626 17.5673 16.2973C16.9221 15.132 16.5996 13.7695 16.5996 12.2098C16.5996 10.6502 16.9131 9.28773 17.5403 8.12246C18.1854 6.95719 19.0814 6.06082 20.2284 5.43338C21.3752 4.80592 22.6923 4.49219 24.1796 4.49219C25.6312 4.49219 26.9213 4.79695 28.0503 5.40648C29.1793 6.01601 30.0573 6.88548 30.6845 8.01489C31.3296 9.1443 31.6522 10.462 31.6522 11.9678ZM26.9483 10.7578C26.9483 9.96896 26.6795 9.34152 26.1418 8.8754C25.6043 8.40929 24.9323 8.17623 24.1258 8.17623C23.3553 8.17623 22.7013 8.40033 22.1636 8.84852C21.644 9.29669 21.3214 9.9331 21.1959 10.7578H26.9483Z" fill="white"/>
<path d="M54.725 4.78906L50.6692 19.7758H45.5927L43.229 10.0532L40.7848 19.7758H35.7351L31.6523 4.78906H36.2454L38.3673 15.5053L40.8922 4.78906H45.7538L48.3055 15.4516L50.4005 4.78906H54.725Z" fill="white"/>
<path d="M65.5275 16.0002V19.8939H63.1829C61.5119 19.8939 60.2093 19.4912 59.275 18.6855C58.3408 17.862 57.8736 16.5283 57.8736 14.6843V8.72299H56.041V4.90984H57.8736V1.25781H62.4821V4.90984H65.5005V8.72299H62.4821V14.7381C62.4821 15.1856 62.5899 15.5079 62.8055 15.7048C63.0211 15.9018 63.3805 16.0002 63.8835 16.0002H65.5275Z" fill="white"/>
<path d="M71.9072 7.4147C72.4434 6.59168 73.1137 5.94759 73.918 5.48241C74.7224 4.99934 75.6161 4.75781 76.5992 4.75781V9.61535H75.339C74.1952 9.61535 73.3372 9.86584 72.7652 10.3668C72.1932 10.8499 71.9072 11.7087 71.9072 12.9431V19.8941H67.3223V4.91884H71.9072V7.4147Z" fill="white"/>
<path d="M77.377 12.1681C77.377 10.6293 77.6637 9.27843 78.2369 8.11542C78.8282 6.95241 79.6256 6.05779 80.6291 5.43155C81.6324 4.80531 82.7524 4.49219 83.9887 4.49219C85.0459 4.49219 85.9687 4.7069 86.7571 5.13632C87.5634 5.56574 88.1816 6.12935 88.6116 6.82716V4.70691H93.2076V19.6829H88.6116V17.5627C88.1637 18.2604 87.5365 18.8241 86.7302 19.2535C85.9418 19.6829 85.019 19.8976 83.9619 19.8976C82.7434 19.8976 81.6324 19.5846 80.6291 18.9583C79.6256 18.3142 78.8282 17.4106 78.2369 16.2476C77.6637 15.0667 77.377 13.7068 77.377 12.1681ZM88.6116 12.1949C88.6116 11.0498 88.289 10.1462 87.6441 9.4842C87.0169 8.82218 86.2464 8.49116 85.3325 8.49116C84.4188 8.49116 83.6394 8.82218 82.9943 9.4842C82.3671 10.1283 82.0536 11.023 82.0536 12.1681C82.0536 13.3131 82.3671 14.2257 82.9943 14.9056C83.6394 15.5676 84.4188 15.8987 85.3325 15.8987C86.2464 15.8987 87.0169 15.5676 87.6441 14.9056C88.289 14.2436 88.6116 13.3401 88.6116 12.1949Z" fill="white"/>
<path d="M99.6125 0.0312505V19.8938H95.0039V0.03125L99.6125 0.0312505Z" fill="white"/>
</g>
<defs>
<clipPath id="clip0_1222_17357">
<rect width="99.6875" height="20" fill="white"/>
</clipPath>
</defs>
</svg>
