<svg width="100" height="21" viewBox="0 0 100 21" fill="none" xmlns="http://www.w3.org/2000/svg">
<g clip-path="url(#clip0_9318_83015)">
<path d="M9.23912 5.34375C10.9935 5.34375 12.3898 5.91628 13.4281 7.06134C14.4843 8.1885 15.0123 9.74507 15.0123 11.731V20.48H10.4475V12.3483C10.4475 11.3464 10.1879 10.5681 9.66875 10.0134C9.14961 9.45881 8.45146 9.18148 7.57429 9.18148C6.69711 9.18148 5.99896 9.45881 5.47982 10.0134C4.96068 10.5681 4.7011 11.3464 4.7011 12.3483V20.48H0.109375L0.109376 5.50477H4.7011V7.49074C5.16654 6.82875 5.79308 6.30989 6.58076 5.93417C7.36842 5.54056 8.25454 5.34375 9.23912 5.34375Z" fill="#25274C"/>
<path d="M31.6502 12.671C31.6502 13.1012 31.6234 13.5494 31.5696 14.0156H21.1672C21.2388 14.9478 21.5345 15.6649 22.0542 16.1667C22.5917 16.6509 23.2459 16.8929 24.0164 16.8929C25.1632 16.8929 25.9607 16.4089 26.4087 15.4407H31.3008C31.0499 16.4267 30.593 17.3141 29.9299 18.103C29.2848 18.8917 28.4694 19.5103 27.4838 19.9584C26.4983 20.4066 25.3963 20.6306 24.1777 20.6306C22.7083 20.6306 21.4001 20.317 20.2533 19.6894C19.1064 19.062 18.2104 18.1657 17.5653 17.0004C16.9201 15.8351 16.5977 14.4726 16.5977 12.913C16.5977 11.3533 16.9112 9.99085 17.5384 8.82558C18.1835 7.66031 19.0795 6.76395 20.2264 6.1365C21.3732 5.50904 22.6904 5.19531 24.1777 5.19531C25.6292 5.19531 26.9194 5.50008 28.0483 6.10961C29.1773 6.71914 30.0554 7.58861 30.6825 8.71802C31.3276 9.84743 31.6502 11.1651 31.6502 12.671ZM26.9463 11.4609C26.9463 10.6721 26.6775 10.0446 26.1399 9.57852C25.6024 9.11242 24.9303 8.87936 24.1239 8.87936C23.3533 8.87936 22.6993 9.10345 22.1617 9.55164C21.6421 9.99982 21.3195 10.6362 21.194 11.4609H26.9463Z" fill="#25274C"/>
<path d="M54.725 5.49219L50.6692 20.4789H45.5927L43.229 10.7563L40.7848 20.4789H35.7351L31.6523 5.49219H36.2454L38.3673 16.2084L40.8922 5.49219H45.7538L48.3055 16.1548L50.4005 5.49219H54.725Z" fill="#25274C"/>
<path d="M65.5255 16.7033V20.597H63.1809C61.51 20.597 60.2073 20.1943 59.2731 19.3886C58.3388 18.5651 57.8717 17.2315 57.8717 15.3875V9.42611H56.0391V5.61296H57.8717V1.96094H62.4801V5.61296H65.4985V9.42611H62.4801V15.4412C62.4801 15.8888 62.588 16.211 62.8036 16.4079C63.0192 16.6049 63.3785 16.7033 63.8815 16.7033H65.5255Z" fill="#25274C"/>
<path d="M71.9091 8.11782C72.4454 7.29481 73.1156 6.65071 73.92 6.18554C74.7244 5.70247 75.6181 5.46094 76.6012 5.46094V10.3185H75.341C74.1971 10.3185 73.3391 10.569 72.7671 11.0699C72.1951 11.553 71.9091 12.4118 71.9091 13.6463V20.5972H67.3242V5.62196H71.9091V8.11782Z" fill="#25274C"/>
<path d="M77.3789 12.8712C77.3789 11.3324 77.6656 9.98156 78.2389 8.81855C78.8302 7.65554 79.6276 6.76091 80.6311 6.13468C81.6344 5.50843 82.7544 5.19531 83.9906 5.19531C85.0479 5.19531 85.9706 5.41003 86.7591 5.83944C87.5654 6.26887 88.1835 6.83248 88.6136 7.53029V5.41003H93.2096V20.386H88.6136V18.2658C88.1656 18.9636 87.5384 19.5272 86.7321 19.9566C85.9438 20.386 85.021 20.6007 83.9638 20.6007C82.7453 20.6007 81.6344 20.2877 80.6311 19.6614C79.6276 19.0173 78.8302 18.1137 78.2389 16.9507C77.6656 15.7698 77.3789 14.4099 77.3789 12.8712ZM88.6136 12.898C88.6136 11.7529 88.291 10.8493 87.646 10.1873C87.0188 9.5253 86.2484 9.19429 85.3345 9.19429C84.4207 9.19429 83.6413 9.5253 82.9962 10.1873C82.3691 10.8315 82.0555 11.7261 82.0555 12.8712C82.0555 14.0163 82.3691 14.9289 82.9962 15.6087C83.6413 16.2707 84.4207 16.6018 85.3345 16.6018C86.2484 16.6018 87.0188 16.2707 87.646 15.6087C88.291 14.9467 88.6136 14.0432 88.6136 12.898Z" fill="#25274C"/>
<path d="M99.6125 0.734375V20.5969H95.0039V0.734375L99.6125 0.734375Z" fill="#25274C"/>
</g>
<defs>
<clipPath id="clip0_9318_83015">
<rect width="99.6875" height="20" fill="white" transform="translate(0 0.703125)"/>
</clipPath>
</defs>
</svg>
