<svg width="58" height="57" viewBox="0 0 58 57" fill="none" xmlns="http://www.w3.org/2000/svg">
<g filter="url(#filter0_dd_7943_1581)">
<g clip-path="url(#clip0_7943_1581)">
<g clip-path="url(#clip1_7943_1581)">
<path d="M53 27C53 13.7452 42.2548 3 29 3C15.7452 3 5 13.7452 5 27C5 40.2548 15.7452 51 29 51C42.2548 51 53 40.2548 53 27Z" fill="white"/>
<path d="M53 27C53 13.7452 42.2548 3 29 3C15.7452 3 5 13.7452 5 27C5 40.2548 15.7452 51 29 51C42.2548 51 53 40.2548 53 27Z" fill="url(#paint0_linear_7943_1581)"/>
<path d="M30.7758 38.3163H18.4297L23.8959 30.5751H30.9048L35.0083 24.4219H40.0414L30.7759 38.3163H30.7758Z" fill="#25274C"/>
<path d="M27.7723 15.5938H39.5729L30.3074 29.4882H17.9609L27.7723 15.5938Z" fill="#25274C"/>
</g>
</g>
</g>
<defs>
<filter id="filter0_dd_7943_1581" x="0.5" y="0" width="57" height="57" filterUnits="userSpaceOnUse" color-interpolation-filters="sRGB">
<feFlood flood-opacity="0" result="BackgroundImageFix"/>
<feColorMatrix in="SourceAlpha" type="matrix" values="0 0 0 0 0 0 0 0 0 0 0 0 0 0 0 0 0 0 127 0" result="hardAlpha"/>
<feOffset dy="1.5"/>
<feGaussianBlur stdDeviation="1.5"/>
<feColorMatrix type="matrix" values="0 0 0 0 0.0627451 0 0 0 0 0.0941176 0 0 0 0 0.156863 0 0 0 0.06 0"/>
<feBlend mode="normal" in2="BackgroundImageFix" result="effect1_dropShadow_7943_1581"/>
<feColorMatrix in="SourceAlpha" type="matrix" values="0 0 0 0 0 0 0 0 0 0 0 0 0 0 0 0 0 0 127 0" result="hardAlpha"/>
<feOffset dy="1.5"/>
<feGaussianBlur stdDeviation="2.25"/>
<feColorMatrix type="matrix" values="0 0 0 0 0.0627451 0 0 0 0 0.0941176 0 0 0 0 0.156863 0 0 0 0.1 0"/>
<feBlend mode="normal" in2="effect1_dropShadow_7943_1581" result="effect2_dropShadow_7943_1581"/>
<feBlend mode="normal" in="SourceGraphic" in2="effect2_dropShadow_7943_1581" result="shape"/>
</filter>
<linearGradient id="paint0_linear_7943_1581" x1="29" y1="3" x2="29" y2="46.392" gradientUnits="userSpaceOnUse">
<stop stop-color="#E1DFF3"/>
<stop offset="1" stop-color="#DBDDEF" stop-opacity="0"/>
</linearGradient>
<clipPath id="clip0_7943_1581">
<rect width="48" height="48" fill="white" transform="translate(5 3)"/>
</clipPath>
<clipPath id="clip1_7943_1581">
<rect width="48" height="48" fill="white" transform="translate(5 3)"/>
</clipPath>
</defs>
</svg>
