<svg width="77" height="16" viewBox="0 0 77 16" fill="none" xmlns="http://www.w3.org/2000/svg">
<path d="M9.85789 4.9672C10.6327 5.80822 11.0188 6.9636 11.0188 8.43056V14.9023H7.64365V8.8883C7.64365 8.14654 7.45063 7.57023 7.06735 7.16213C6.68406 6.75127 6.16566 6.54722 5.51766 6.54722C4.86966 6.54722 4.35402 6.75127 3.96797 7.16213C3.58469 7.57299 3.39166 8.1493 3.39166 8.8883V14.9051H0V3.82562H3.39442V5.29534C3.7391 4.80451 4.20236 4.41847 4.78418 4.13445C5.366 3.85043 6.02227 3.70704 6.75024 3.70704C8.04624 3.70429 9.08304 4.12618 9.85789 4.9672Z" fill="#E2E1FE"/>
<path d="M23.7633 10.1783H16.081C16.1334 10.8677 16.3567 11.3916 16.7455 11.7556C17.1371 12.1196 17.6169 12.3015 18.1849 12.3015C19.0315 12.3015 19.6216 11.9431 19.9525 11.2289H23.5647C23.38 11.9569 23.0463 12.6131 22.561 13.195C22.0785 13.7768 21.4718 14.2345 20.7439 14.5654C20.0159 14.8963 19.2024 15.0618 18.3008 15.0618C17.2143 15.0618 16.2492 14.8301 15.4027 14.3669C14.5561 13.9036 13.8943 13.2418 13.4173 12.3815C12.9403 11.5212 12.7031 10.5147 12.7031 9.36486C12.7031 8.21501 12.9375 7.20854 13.409 6.34821C13.8778 5.48789 14.5368 4.8261 15.3834 4.36285C16.2299 3.89959 17.2033 3.66797 18.3008 3.66797C19.3734 3.66797 20.3247 3.89408 21.1602 4.34354C21.9957 4.79301 22.6465 5.4355 23.1153 6.26825C23.584 7.101 23.8212 8.07438 23.8212 9.18563C23.8239 9.50274 23.8046 9.83363 23.7633 10.1783ZM20.3495 8.29221C20.3495 7.71039 20.151 7.24714 19.7539 6.90246C19.3569 6.55778 18.8605 6.38682 18.2649 6.38682C17.6969 6.38682 17.2171 6.55226 16.8255 6.88316C16.434 7.21405 16.1941 7.68282 16.1003 8.29221H20.3495Z" fill="#E2E1FE"/>
<path d="M41.5138 3.82617L38.5165 14.9056H34.7636L33.0154 7.71969L31.2092 14.9056H27.4784L24.459 3.82617H27.8534L29.4224 11.7483L31.2892 3.82617H34.8822L36.7682 11.707L38.3179 3.82617H41.5138Z" fill="#E2E1FE"/>
<path d="M48.9776 12.0233V14.902H47.2515C46.0216 14.902 45.062 14.6015 44.3727 13.9976C43.6833 13.3965 43.3414 12.4121 43.3414 11.0499V6.64347H41.9902V3.82535H43.3414V1.12305H46.7358V3.82259H48.9583V6.64071H46.7358V11.0885C46.7358 11.4194 46.8158 11.6565 46.973 11.8027C47.1329 11.9488 47.3976 12.0205 47.7671 12.0205H48.9776V12.0233Z" fill="#E2E1FE"/>
<path d="M55.7459 4.23175C56.3415 3.88155 57.0033 3.70508 57.7313 3.70508V7.3008H56.7993C55.9527 7.3008 55.3158 7.48279 54.8939 7.84677C54.4692 8.21075 54.2597 8.85048 54.2597 9.7632V14.9058H50.8652V3.82641H54.2597V5.6739C54.654 5.06174 55.1503 4.58195 55.7459 4.23175Z" fill="#E2E1FE"/>
<path d="M59.3327 6.34626C59.7629 5.48593 60.3475 4.82415 61.0892 4.36089C61.831 3.89764 62.6582 3.66602 63.5709 3.66602C64.3513 3.66602 65.0379 3.82595 65.6252 4.14305C66.2153 4.46016 66.6676 4.87654 66.9847 5.39494V3.82595H70.3791V14.9054H66.9847V13.3364C66.6538 13.852 66.1933 14.2684 65.6059 14.5883C65.0159 14.9054 64.332 15.0653 63.5516 15.0653C62.6527 15.0653 61.831 14.8309 61.0892 14.3594C60.3475 13.8906 59.7629 13.2206 59.3327 12.3547C58.9026 11.4889 58.6875 10.4852 58.6875 9.34637C58.6875 8.20478 58.9026 7.20658 59.3327 6.34626ZM66.2815 7.35824C65.8128 6.87017 65.2392 6.62476 64.5636 6.62476C63.8881 6.62476 63.3173 6.86742 62.8457 7.34997C62.377 7.83253 62.1398 8.49983 62.1398 9.34637C62.1398 10.1929 62.3742 10.8657 62.8457 11.3621C63.3145 11.8584 63.8881 12.1066 64.5636 12.1066C65.2392 12.1066 65.81 11.8612 66.2815 11.3731C66.7503 10.885 66.9874 10.215 66.9874 9.36843C66.9874 8.51637 66.7503 7.84907 66.2815 7.35824Z" fill="#E2E1FE"/>
<path d="M76.2382 0.210938V14.9026H72.8438V0.210938H76.2382Z" fill="#E2E1FE"/>
</svg>
