<svg width="38" height="38" viewBox="0 0 38 38" fill="none" xmlns="http://www.w3.org/2000/svg">
<g filter="url(#filter0_dd_1083_50505)">
<g clip-path="url(#clip0_1083_50505)">
<g clip-path="url(#clip1_1083_50505)">
<path d="M35 18C35 9.16344 27.8366 2 19 2C10.1634 2 3 9.16344 3 18C3 26.8366 10.1634 34 19 34C27.8366 34 35 26.8366 35 18Z" fill="white"/>
<path d="M35 18C35 9.16344 27.8366 2 19 2C10.1634 2 3 9.16344 3 18C3 26.8366 10.1634 34 19 34C27.8366 34 35 26.8366 35 18Z" fill="url(#paint0_linear_1083_50505)"/>
<path d="M20.1829 25.5427H11.9522L15.5963 20.3819H20.2689L23.0046 16.2798H26.36L20.183 25.5427H20.1829Z" fill="#25274C"/>
<path d="M18.1809 10.3978H26.048L19.871 19.6607H11.64L18.1809 10.3978Z" fill="#25274C"/>
</g>
</g>
</g>
<defs>
<filter id="filter0_dd_1083_50505" x="0" y="0" width="38" height="38" filterUnits="userSpaceOnUse" color-interpolation-filters="sRGB">
<feFlood flood-opacity="0" result="BackgroundImageFix"/>
<feColorMatrix in="SourceAlpha" type="matrix" values="0 0 0 0 0 0 0 0 0 0 0 0 0 0 0 0 0 0 127 0" result="hardAlpha"/>
<feOffset dy="1"/>
<feGaussianBlur stdDeviation="1"/>
<feColorMatrix type="matrix" values="0 0 0 0 0.0627451 0 0 0 0 0.0941176 0 0 0 0 0.156863 0 0 0 0.06 0"/>
<feBlend mode="normal" in2="BackgroundImageFix" result="effect1_dropShadow_1083_50505"/>
<feColorMatrix in="SourceAlpha" type="matrix" values="0 0 0 0 0 0 0 0 0 0 0 0 0 0 0 0 0 0 127 0" result="hardAlpha"/>
<feOffset dy="1"/>
<feGaussianBlur stdDeviation="1.5"/>
<feColorMatrix type="matrix" values="0 0 0 0 0.0627451 0 0 0 0 0.0941176 0 0 0 0 0.156863 0 0 0 0.1 0"/>
<feBlend mode="normal" in2="effect1_dropShadow_1083_50505" result="effect2_dropShadow_1083_50505"/>
<feBlend mode="normal" in="SourceGraphic" in2="effect2_dropShadow_1083_50505" result="shape"/>
</filter>
<linearGradient id="paint0_linear_1083_50505" x1="19" y1="2" x2="19" y2="30.928" gradientUnits="userSpaceOnUse">
<stop stop-color="#E1DFF3"/>
<stop offset="1" stop-color="#DBDDEF" stop-opacity="0"/>
</linearGradient>
<clipPath id="clip0_1083_50505">
<rect width="32" height="32" fill="white" transform="translate(3 2)"/>
</clipPath>
<clipPath id="clip1_1083_50505">
<rect width="32" height="32" fill="white" transform="translate(3 2)"/>
</clipPath>
</defs>
</svg>
