<svg width="145" height="38" viewBox="0 0 145 38" fill="none" xmlns="http://www.w3.org/2000/svg">
<g filter="url(#filter0_dd_1894_485083)">
<g clip-path="url(#clip0_1894_485083)">
<g clip-path="url(#clip1_1894_485083)">
<path d="M35 18C35 9.16344 27.8366 2 19 2C10.1634 2 3 9.16344 3 18C3 26.8366 10.1634 34 19 34C27.8366 34 35 26.8366 35 18Z" fill="white"/>
<path d="M35 18C35 9.16344 27.8366 2 19 2C10.1634 2 3 9.16344 3 18C3 26.8366 10.1634 34 19 34C27.8366 34 35 26.8366 35 18Z" fill="url(#paint0_linear_1894_485083)"/>
<path d="M20.1829 25.5427H11.9522L15.5963 20.3819H20.2689L23.0046 16.2798H26.36L20.183 25.5427H20.1829Z" fill="#25274C"/>
<path d="M18.1809 10.3978H26.048L19.871 19.6607H11.64L18.1809 10.3978Z" fill="#25274C"/>
</g>
</g>
</g>
<g clip-path="url(#clip2_1894_485083)">
<path d="M53.2395 10.6388C54.9939 10.6388 56.3902 11.2113 57.4285 12.3564C58.4847 13.4835 59.0127 15.0401 59.0127 17.0261V25.775H54.4479V17.6433C54.4479 16.6414 54.1883 15.8631 53.6691 15.3085C53.15 14.7539 52.4519 14.4765 51.5747 14.4765C50.6975 14.4765 49.9994 14.7539 49.4802 15.3085C48.9611 15.8631 48.7015 16.6414 48.7015 17.6433V25.775H44.1098L44.1098 10.7998H48.7015V12.7858C49.1669 12.1238 49.7935 11.6049 50.5812 11.2292C51.3688 10.8356 52.2549 10.6388 53.2395 10.6388Z" fill="white"/>
<path d="M75.6517 17.965C75.6517 18.3953 75.6248 18.8435 75.571 19.3096H65.1686C65.2403 20.2419 65.5359 20.9589 66.0557 21.4608C66.5932 21.9449 67.2473 22.1869 68.0179 22.1869C69.1647 22.1869 69.9622 21.7029 70.4101 20.7348H75.3022C75.0513 21.7208 74.5944 22.6082 73.9313 23.397C73.2862 24.1857 72.4708 24.8043 71.4853 25.2524C70.4997 25.7007 69.3977 25.9247 68.1791 25.9247C66.7097 25.9247 65.4015 25.611 64.2547 24.9835C63.1079 24.3561 62.2119 23.4597 61.5668 22.2945C60.9216 21.1292 60.5991 19.7667 60.5991 18.207C60.5991 16.6474 60.9126 15.2849 61.5398 14.1196C62.1849 12.9544 63.0809 12.058 64.2279 11.4306C65.3747 10.8031 66.6918 10.4894 68.1791 10.4894C69.6306 10.4894 70.9208 10.7941 72.0497 11.4037C73.1788 12.0132 74.0568 12.8827 74.684 14.0121C75.3291 15.1415 75.6517 16.4592 75.6517 17.965ZM70.9478 16.755C70.9478 15.9662 70.6789 15.3387 70.1413 14.8726C69.6038 14.4065 68.9318 14.1734 68.1253 14.1734C67.3548 14.1734 66.7007 14.3975 66.1631 14.8457C65.6435 15.2939 65.3209 15.9303 65.1954 16.755H70.9478Z" fill="white"/>
<path d="M98.7243 10.7883L94.6686 25.775H89.592L87.2284 16.0524L84.7841 25.775H79.7344L75.6517 10.7883H80.2447L82.3666 21.5045L84.8915 10.7883H89.7532L92.3048 21.4508L94.3999 10.7883H98.7243Z" fill="white"/>
<path d="M109.527 22.0012V25.8948H107.183C105.512 25.8948 104.209 25.4921 103.275 24.6865C102.34 23.863 101.873 22.5293 101.873 20.6853V14.724H100.041V10.9108H101.873V7.25879H106.482V10.9108H109.5V14.724H106.482V20.7391C106.482 21.1866 106.59 21.5088 106.805 21.7058C107.021 21.9027 107.38 22.0012 107.883 22.0012H109.527Z" fill="white"/>
<path d="M115.907 13.4153C116.444 12.5923 117.114 11.9482 117.918 11.483C118.723 11 119.616 10.7584 120.599 10.7584V15.616H119.339C118.195 15.616 117.337 15.8664 116.765 16.3674C116.193 16.8505 115.907 17.7093 115.907 18.9438V25.8947H111.322V10.9194H115.907V13.4153Z" fill="white"/>
<path d="M121.378 18.1653C121.378 16.6265 121.664 15.2756 122.238 14.1126C122.829 12.9496 123.626 12.055 124.63 11.4287C125.633 10.8025 126.753 10.4894 127.989 10.4894C129.047 10.4894 129.969 10.7041 130.758 11.1335C131.564 11.5629 132.182 12.1265 132.612 12.8244V10.7041H137.208V25.6801H132.612V23.5599C132.164 24.2576 131.537 24.8213 130.731 25.2507C129.943 25.6801 129.02 25.8948 127.963 25.8948C126.744 25.8948 125.633 25.5817 124.63 24.9555C123.626 24.3114 122.829 23.4077 122.238 22.2448C121.664 21.0639 121.378 19.704 121.378 18.1653ZM132.612 18.1921C132.612 17.047 132.29 16.1434 131.645 15.4814C131.018 14.8194 130.247 14.4884 129.333 14.4884C128.419 14.4884 127.64 14.8194 126.995 15.4814C126.368 16.1255 126.054 17.0201 126.054 18.1653C126.054 19.3103 126.368 20.2229 126.995 20.9028C127.64 21.5648 128.419 21.8959 129.333 21.8959C130.247 21.8959 131.018 21.5648 131.645 20.9028C132.29 20.2408 132.612 19.3373 132.612 18.1921Z" fill="white"/>
<path d="M143.612 6.0321V25.8946H139.004V6.0321L143.612 6.0321Z" fill="white"/>
</g>
<defs>
<filter id="filter0_dd_1894_485083" x="0" y="0" width="38" height="38" filterUnits="userSpaceOnUse" color-interpolation-filters="sRGB">
<feFlood flood-opacity="0" result="BackgroundImageFix"/>
<feColorMatrix in="SourceAlpha" type="matrix" values="0 0 0 0 0 0 0 0 0 0 0 0 0 0 0 0 0 0 127 0" result="hardAlpha"/>
<feOffset dy="1"/>
<feGaussianBlur stdDeviation="1"/>
<feColorMatrix type="matrix" values="0 0 0 0 0.0627451 0 0 0 0 0.0941176 0 0 0 0 0.156863 0 0 0 0.06 0"/>
<feBlend mode="normal" in2="BackgroundImageFix" result="effect1_dropShadow_1894_485083"/>
<feColorMatrix in="SourceAlpha" type="matrix" values="0 0 0 0 0 0 0 0 0 0 0 0 0 0 0 0 0 0 127 0" result="hardAlpha"/>
<feOffset dy="1"/>
<feGaussianBlur stdDeviation="1.5"/>
<feColorMatrix type="matrix" values="0 0 0 0 0.0627451 0 0 0 0 0.0941176 0 0 0 0 0.156863 0 0 0 0.1 0"/>
<feBlend mode="normal" in2="effect1_dropShadow_1894_485083" result="effect2_dropShadow_1894_485083"/>
<feBlend mode="normal" in="SourceGraphic" in2="effect2_dropShadow_1894_485083" result="shape"/>
</filter>
<linearGradient id="paint0_linear_1894_485083" x1="19" y1="2" x2="19" y2="30.928" gradientUnits="userSpaceOnUse">
<stop stop-color="#E1DFF3"/>
<stop offset="1" stop-color="#DBDDEF" stop-opacity="0"/>
</linearGradient>
<clipPath id="clip0_1894_485083">
<rect width="32" height="32" fill="white" transform="translate(3 2)"/>
</clipPath>
<clipPath id="clip1_1894_485083">
<rect width="32" height="32" fill="white" transform="translate(3 2)"/>
</clipPath>
<clipPath id="clip2_1894_485083">
<rect width="99.6875" height="20" fill="white" transform="translate(44 6)"/>
</clipPath>
</defs>
</svg>
