<svg width="132" height="18" viewBox="0 0 132 18" fill="none" xmlns="http://www.w3.org/2000/svg">
<path d="M1.05682 13V4.27273H4.00568C4.69034 4.27273 5.25 4.39631 5.68466 4.64347C6.12216 4.88778 6.44602 5.21875 6.65625 5.63636C6.86648 6.05398 6.97159 6.51989 6.97159 7.03409C6.97159 7.5483 6.86648 8.01562 6.65625 8.43608C6.44886 8.85653 6.12784 9.19176 5.69318 9.44176C5.25852 9.68892 4.7017 9.8125 4.02273 9.8125H1.90909V8.875H3.98864C4.45739 8.875 4.83381 8.79403 5.1179 8.6321C5.40199 8.47017 5.60795 8.25142 5.7358 7.97585C5.86648 7.69744 5.93182 7.38352 5.93182 7.03409C5.93182 6.68466 5.86648 6.37216 5.7358 6.09659C5.60795 5.82102 5.40057 5.60511 5.11364 5.44886C4.8267 5.28977 4.44602 5.21023 3.97159 5.21023H2.11364V13H1.05682ZM11.1264 13.1364C10.5355 13.1364 10.017 12.9957 9.57102 12.7145C9.12784 12.4332 8.78125 12.0398 8.53125 11.5341C8.28409 11.0284 8.16051 10.4375 8.16051 9.76136C8.16051 9.07955 8.28409 8.48437 8.53125 7.97585C8.78125 7.46733 9.12784 7.07244 9.57102 6.79119C10.017 6.50994 10.5355 6.36932 11.1264 6.36932C11.7173 6.36932 12.2344 6.50994 12.6776 6.79119C13.1236 7.07244 13.4702 7.46733 13.7173 7.97585C13.9673 8.48437 14.0923 9.07955 14.0923 9.76136C14.0923 10.4375 13.9673 11.0284 13.7173 11.5341C13.4702 12.0398 13.1236 12.4332 12.6776 12.7145C12.2344 12.9957 11.7173 13.1364 11.1264 13.1364ZM11.1264 12.233C11.5753 12.233 11.9446 12.1179 12.2344 11.8878C12.5241 11.6577 12.7386 11.3551 12.8778 10.9801C13.017 10.6051 13.0866 10.1989 13.0866 9.76136C13.0866 9.32386 13.017 8.91619 12.8778 8.53835C12.7386 8.16051 12.5241 7.85511 12.2344 7.62216C11.9446 7.3892 11.5753 7.27273 11.1264 7.27273C10.6776 7.27273 10.3082 7.3892 10.0185 7.62216C9.72869 7.85511 9.5142 8.16051 9.375 8.53835C9.2358 8.91619 9.16619 9.32386 9.16619 9.76136C9.16619 10.1989 9.2358 10.6051 9.375 10.9801C9.5142 11.3551 9.72869 11.6577 10.0185 11.8878C10.3082 12.1179 10.6776 12.233 11.1264 12.233ZM16.8878 13L14.8935 6.45455H15.9503L17.3651 11.4659H17.4332L18.831 6.45455H19.9048L21.2855 11.4489H21.3537L22.7685 6.45455H23.8253L21.831 13H20.8423L19.4105 7.97159H19.3082L17.8764 13H16.8878ZM27.6765 13.1364C27.0458 13.1364 26.5018 12.9972 26.0444 12.7188C25.5898 12.4375 25.239 12.0455 24.9918 11.5426C24.7475 11.0369 24.6254 10.4489 24.6254 9.77841C24.6254 9.10795 24.7475 8.51705 24.9918 8.00568C25.239 7.49148 25.5827 7.09091 26.0231 6.80398C26.4663 6.5142 26.9833 6.36932 27.5742 6.36932C27.9151 6.36932 28.2518 6.42614 28.5842 6.53977C28.9165 6.65341 29.2191 6.83807 29.4918 7.09375C29.7646 7.34659 29.9819 7.68182 30.1438 8.09943C30.3058 8.51705 30.3867 9.03125 30.3867 9.64205V10.0682H25.3413V9.19886H29.364C29.364 8.82955 29.2901 8.5 29.1424 8.21023C28.9975 7.92045 28.7901 7.69176 28.5202 7.52415C28.2532 7.35653 27.9379 7.27273 27.5742 7.27273C27.1737 7.27273 26.8271 7.37216 26.5344 7.57102C26.2447 7.76705 26.0217 8.02273 25.8654 8.33807C25.7092 8.65341 25.631 8.99148 25.631 9.35227V9.93182C25.631 10.4261 25.7163 10.8452 25.8867 11.1889C26.06 11.5298 26.3001 11.7898 26.6069 11.9688C26.9137 12.1449 27.2702 12.233 27.6765 12.233C27.9407 12.233 28.1793 12.196 28.3924 12.1222C28.6083 12.0455 28.7944 11.9318 28.9506 11.7812C29.1069 11.6278 29.2276 11.4375 29.3129 11.2102L30.2844 11.483C30.1822 11.8125 30.0103 12.1023 29.7688 12.3523C29.5273 12.5994 29.229 12.7926 28.8739 12.9318C28.5188 13.0682 28.1197 13.1364 27.6765 13.1364ZM31.9165 13V6.45455H32.8881V7.44318H32.9563C33.0756 7.11932 33.2915 6.85653 33.604 6.65483C33.9165 6.45312 34.2688 6.35227 34.6609 6.35227C34.7347 6.35227 34.8271 6.35369 34.9379 6.35653C35.0487 6.35937 35.1325 6.36364 35.1893 6.36932V7.39205C35.1552 7.38352 35.0771 7.37074 34.9549 7.35369C34.8356 7.33381 34.7092 7.32386 34.5756 7.32386C34.2575 7.32386 33.9734 7.39062 33.7234 7.52415C33.4762 7.65483 33.2802 7.83665 33.1353 8.0696C32.9933 8.29972 32.9222 8.5625 32.9222 8.85795V13H31.9165ZM38.9265 13.1364C38.2958 13.1364 37.7518 12.9972 37.2944 12.7188C36.8398 12.4375 36.489 12.0455 36.2418 11.5426C35.9975 11.0369 35.8754 10.4489 35.8754 9.77841C35.8754 9.10795 35.9975 8.51705 36.2418 8.00568C36.489 7.49148 36.8327 7.09091 37.2731 6.80398C37.7163 6.5142 38.2333 6.36932 38.8242 6.36932C39.1651 6.36932 39.5018 6.42614 39.8342 6.53977C40.1665 6.65341 40.4691 6.83807 40.7418 7.09375C41.0146 7.34659 41.2319 7.68182 41.3938 8.09943C41.5558 8.51705 41.6367 9.03125 41.6367 9.64205V10.0682H36.5913V9.19886H40.614C40.614 8.82955 40.5401 8.5 40.3924 8.21023C40.2475 7.92045 40.0401 7.69176 39.7702 7.52415C39.5032 7.35653 39.1879 7.27273 38.8242 7.27273C38.4237 7.27273 38.0771 7.37216 37.7844 7.57102C37.4947 7.76705 37.2717 8.02273 37.1154 8.33807C36.9592 8.65341 36.881 8.99148 36.881 9.35227V9.93182C36.881 10.4261 36.9663 10.8452 37.1367 11.1889C37.31 11.5298 37.5501 11.7898 37.8569 11.9688C38.1637 12.1449 38.5202 12.233 38.9265 12.233C39.1907 12.233 39.4293 12.196 39.6424 12.1222C39.8583 12.0455 40.0444 11.9318 40.2006 11.7812C40.3569 11.6278 40.4776 11.4375 40.5629 11.2102L41.5344 11.483C41.4322 11.8125 41.2603 12.1023 41.0188 12.3523C40.7773 12.5994 40.479 12.7926 40.1239 12.9318C39.7688 13.0682 39.3697 13.1364 38.9265 13.1364ZM45.6381 13.1364C45.0927 13.1364 44.6112 12.9986 44.1935 12.723C43.7759 12.4446 43.4492 12.0526 43.2134 11.5469C42.9776 11.0384 42.8597 10.4375 42.8597 9.74432C42.8597 9.05682 42.9776 8.46023 43.2134 7.95455C43.4492 7.44886 43.7773 7.05824 44.1978 6.78267C44.6183 6.5071 45.104 6.36932 45.6552 6.36932C46.0813 6.36932 46.418 6.44034 46.6651 6.58239C46.9151 6.72159 47.1055 6.88068 47.2362 7.05966C47.3697 7.2358 47.4734 7.38068 47.5472 7.49432H47.6325V4.27273H48.6381V13H47.6665V11.9943H47.5472C47.4734 12.1136 47.3683 12.2642 47.2319 12.446C47.0955 12.625 46.9009 12.7855 46.6481 12.9276C46.3952 13.0668 46.0586 13.1364 45.6381 13.1364ZM45.7745 12.233C46.1779 12.233 46.5188 12.1278 46.7972 11.9176C47.0756 11.7045 47.2873 11.4105 47.4322 11.0355C47.5771 10.6577 47.6495 10.2216 47.6495 9.72727C47.6495 9.23864 47.5785 8.81108 47.4364 8.4446C47.2944 8.07528 47.0842 7.78835 46.8058 7.58381C46.5273 7.37642 46.1836 7.27273 45.7745 7.27273C45.3484 7.27273 44.9933 7.3821 44.7092 7.60085C44.4279 7.81676 44.2163 8.1108 44.0742 8.48295C43.935 8.85227 43.8654 9.26705 43.8654 9.72727C43.8654 10.1932 43.9364 10.6165 44.0785 10.9972C44.2234 11.375 44.4364 11.6761 44.7177 11.9006C45.0018 12.1222 45.354 12.233 45.7745 12.233ZM54.131 13V4.27273H55.1367V7.49432H55.2219C55.2958 7.38068 55.3981 7.2358 55.5288 7.05966C55.6623 6.88068 55.8526 6.72159 56.0998 6.58239C56.3498 6.44034 56.6879 6.36932 57.114 6.36932C57.6651 6.36932 58.1509 6.5071 58.5714 6.78267C58.9918 7.05824 59.32 7.44886 59.5558 7.95455C59.7915 8.46023 59.9094 9.05682 59.9094 9.74432C59.9094 10.4375 59.7915 11.0384 59.5558 11.5469C59.32 12.0526 58.9933 12.4446 58.5756 12.723C58.158 12.9986 57.6765 13.1364 57.131 13.1364C56.7106 13.1364 56.3739 13.0668 56.1211 12.9276C55.8683 12.7855 55.6737 12.625 55.5373 12.446C55.4009 12.2642 55.2958 12.1136 55.2219 11.9943H55.1026V13H54.131ZM55.1197 9.72727C55.1197 10.2216 55.1921 10.6577 55.337 11.0355C55.4819 11.4105 55.6935 11.7045 55.9719 11.9176C56.2504 12.1278 56.5913 12.233 56.9947 12.233C57.4151 12.233 57.766 12.1222 58.0472 11.9006C58.3313 11.6761 58.5444 11.375 58.6864 10.9972C58.8313 10.6165 58.9038 10.1932 58.9038 9.72727C58.9038 9.26705 58.8327 8.85227 58.6907 8.48295C58.5515 8.1108 58.3398 7.81676 58.0558 7.60085C57.7745 7.3821 57.4208 7.27273 56.9947 7.27273C56.5856 7.27273 56.2418 7.37642 55.9634 7.58381C55.685 7.78835 55.4748 8.07528 55.3327 8.4446C55.1907 8.81108 55.1197 9.23864 55.1197 9.72727ZM61.8612 15.4545C61.6907 15.4545 61.5387 15.4403 61.4052 15.4119C61.2717 15.3864 61.1793 15.3608 61.1282 15.3352L61.3839 14.4489C61.6282 14.5114 61.8441 14.5341 62.0316 14.517C62.2191 14.5 62.3853 14.4162 62.5302 14.2656C62.6779 14.1179 62.8129 13.8778 62.935 13.5455L63.1225 13.0341L60.7021 6.45455H61.793L63.5998 11.6705H63.668L65.4748 6.45455H66.5657L63.7873 13.9545C63.6623 14.2926 63.5075 14.5724 63.3228 14.794C63.1381 15.0185 62.9237 15.1847 62.6793 15.2926C62.4379 15.4006 62.1651 15.4545 61.8612 15.4545Z" fill="#9FA6C0"/>
<g clip-path="url(#clip0_462_9787)">
<path d="M79.6966 4.85938C80.6966 4.85938 81.4925 5.18142 82.0844 5.82552C82.6864 6.45955 82.9873 7.33512 82.9873 8.45222V13.3735H80.3854V8.79943C80.3854 8.23584 80.2374 7.79806 79.9415 7.48608C79.6456 7.1741 79.2477 7.0181 78.7477 7.0181C78.2477 7.0181 77.8497 7.1741 77.5538 7.48608C77.2579 7.79806 77.11 8.23584 77.11 8.79942V13.3735H74.4927L74.4927 4.94995H77.11V6.06706C77.3753 5.69469 77.7324 5.40283 78.1814 5.19149C78.6303 4.97008 79.1354 4.85938 79.6966 4.85938Z" fill="#9FA6C0"/>
<path d="M92.4716 8.9785C92.4716 9.2205 92.4563 9.47264 92.4256 9.73483H86.4962C86.5371 10.2592 86.7056 10.6626 87.0018 10.9449C87.3082 11.2172 87.6811 11.3533 88.1203 11.3533C88.774 11.3533 89.2286 11.0811 89.4839 10.5365H92.2724C92.1294 11.0911 91.8689 11.5903 91.491 12.034C91.1233 12.4776 90.6585 12.8256 90.0967 13.0777C89.5349 13.3298 88.9068 13.4558 88.2122 13.4558C87.3746 13.4558 86.629 13.2794 85.9753 12.9264C85.3216 12.5735 84.8109 12.0693 84.4432 11.4138C84.0754 10.7583 83.8916 9.99192 83.8916 9.11462C83.8916 8.23732 84.0703 7.47093 84.4278 6.81546C84.7955 6.16 85.3062 5.65579 85.96 5.30286C86.6137 4.94991 87.3644 4.77344 88.2122 4.77344C89.0396 4.77344 89.775 4.94487 90.4185 5.28773C91.062 5.63059 91.5625 6.11967 91.92 6.75496C92.2877 7.39025 92.4716 8.13144 92.4716 8.9785ZM89.7903 8.29782C89.7903 7.85412 89.6371 7.50118 89.3307 7.23899C89.0243 6.97681 88.6412 6.84571 88.1816 6.84571C87.7423 6.84571 87.3695 6.97177 87.0631 7.22387C86.7669 7.47597 86.583 7.83395 86.5115 8.29782H89.7903Z" fill="#9FA6C0"/>
<path d="M105.623 4.94531L103.311 13.3753H100.418L99.0704 7.90639L97.6772 13.3753H94.7988L92.4717 4.94531H95.0897L96.2992 10.9732L97.7384 4.94531H100.51L101.964 10.943L103.158 4.94531H105.623Z" fill="#9FA6C0"/>
<path d="M111.781 11.2535V13.4437H110.444C109.492 13.4437 108.749 13.2172 108.217 12.764C107.684 12.3008 107.418 11.5506 107.418 10.5134V7.1601H106.374V5.0152H107.418V2.96094H110.045V5.0152H111.765V7.1601H110.045V10.5436C110.045 10.7953 110.106 10.9766 110.229 11.0874C110.352 11.1982 110.557 11.2535 110.844 11.2535H111.781Z" fill="#9FA6C0"/>
<path d="M115.417 6.42418C115.723 5.96124 116.105 5.59894 116.563 5.33727C117.022 5.06555 117.531 4.92969 118.092 4.92969V7.66205H117.373C116.721 7.66205 116.232 7.80295 115.906 8.08474C115.58 8.35647 115.417 8.83954 115.417 9.53394V13.4438H112.804V5.02026H115.417V6.42418Z" fill="#9FA6C0"/>
<path d="M118.536 9.09113C118.536 8.22557 118.699 7.4657 119.026 6.81151C119.363 6.15731 119.817 5.65409 120.389 5.30183C120.961 4.94957 121.6 4.77344 122.304 4.77344C122.907 4.77344 123.433 4.89422 123.882 5.13576C124.342 5.37731 124.694 5.69434 124.939 6.08686V4.89422H127.559V13.3182H124.939V12.1256C124.684 12.5181 124.327 12.8351 123.867 13.0767C123.418 13.3182 122.892 13.439 122.289 13.439C121.595 13.439 120.961 13.2629 120.389 12.9106C119.817 12.5483 119.363 12.04 119.026 11.3859C118.699 10.7216 118.536 9.95665 118.536 9.09113ZM124.939 9.10622C124.939 8.46209 124.756 7.95383 124.388 7.58144C124.03 7.20906 123.591 7.02286 123.07 7.02286C122.549 7.02286 122.105 7.20906 121.738 7.58144C121.38 7.94377 121.201 8.44699 121.201 9.09113C121.201 9.73522 121.38 10.2486 121.738 10.631C122.105 11.0034 122.549 11.1896 123.07 11.1896C123.591 11.1896 124.03 11.0034 124.388 10.631C124.756 10.2586 124.939 9.75038 124.939 9.10622Z" fill="#9FA6C0"/>
<path d="M131.209 2.26563V13.4383H128.583V2.26562L131.209 2.26563Z" fill="#9FA6C0"/>
</g>
<defs>
<clipPath id="clip0_462_9787">
<rect width="56.8219" height="11.25" fill="white" transform="translate(74.4302 2.25)"/>
</clipPath>
</defs>
</svg>
