<svg width="57" height="57" viewBox="0 0 57 57" fill="none" xmlns="http://www.w3.org/2000/svg">
<path d="M26.1621 3.06948C26.0062 3.09175 25.4385 3.16968 24.8818 3.23647C23.5125 3.40347 20.7961 4.10484 19.3266 4.67261C11.1439 7.84546 5.18789 14.9371 3.4623 23.5427C3.13945 25.1904 3.00586 26.6043 3.00586 28.597C3.00586 35.3324 5.67773 41.7449 10.4648 46.532C14.2166 50.2949 18.8145 52.6773 24.2584 53.6681C25.817 53.9576 29.335 54.0689 31.0717 53.8908C41.6701 52.7886 50.4762 45.274 53.1592 35.0095C53.727 32.8609 53.8939 31.6808 53.9607 29.3095C54.0275 27.1498 53.9162 25.5466 53.5934 23.8211C51.7564 14.091 44.3977 6.22007 34.9014 3.80425C32.441 3.18081 30.9047 3.00269 28.333 3.01382C27.2977 3.02495 26.318 3.04721 26.1621 3.06948ZM38.8535 20.7261C39.6885 21.305 39.9445 22.1177 39.5326 22.9527C39.3768 23.2867 37.3617 25.3685 32.8195 29.9107C25.7947 36.9132 25.984 36.7574 24.9709 36.5793C24.6035 36.5013 24.1137 36.0671 21.0521 33.0279C19.1262 31.1019 17.5008 29.3986 17.4117 29.1982C17.3227 28.9978 17.2559 28.6972 17.2559 28.5302C17.2559 28.0515 17.6789 27.3056 18.102 27.0384C18.5695 26.749 19.4045 26.7267 19.8832 26.9716C20.0613 27.0718 21.3527 28.2964 22.7666 29.7103L25.3271 32.282L31.0605 26.5486C34.2111 23.398 36.9498 20.7484 37.1279 20.6593C37.6289 20.3921 38.4193 20.4367 38.8535 20.7261Z" fill="white"/>
</svg>
