<svg width="298" height="408" viewBox="0 0 298 408" fill="none" xmlns="http://www.w3.org/2000/svg">
<line x1="203.24" y1="12.7244" x2="207.5" y2="1.01986" stroke="white" stroke-width="2"/>
<line x1="229.864" y1="12.1797" x2="236.092" y2="1.39274" stroke="white" stroke-width="2"/>
<line x1="256.656" y1="11.6463" x2="264.662" y2="2.10466" stroke="white" stroke-width="2"/>
<line x1="283.65" y1="10.7418" x2="293.192" y2="2.7354" stroke="white" stroke-width="2"/>
<line x1="17.7088" y1="12.2739" x2="8.16716" y2="4.26749" stroke="white" stroke-width="2"/>
<line x1="44.4605" y1="12.9319" x2="36.4542" y2="3.39023" stroke="white" stroke-width="2"/>
<line x1="71.0519" y1="13.1797" x2="64.8241" y2="2.39274" stroke="white" stroke-width="2"/>
<line x1="97.5291" y1="13.4084" x2="93.269" y2="1.7039" stroke="white" stroke-width="2"/>
<line x1="123.937" y1="13.6307" x2="121.774" y2="1.36421" stroke="white" stroke-width="2"/>
<line x1="150.324" y1="13.457" x2="150.324" y2="1.00134" stroke="white" stroke-width="2"/>
<line x1="176.742" y1="13.2834" x2="178.905" y2="1.01692" stroke="white" stroke-width="2"/>
<line x1="175.217" y1="34.5213" x2="179.477" y2="22.8167" stroke="white" stroke-width="2"/>
<line x1="201.837" y1="33.9766" x2="208.065" y2="23.1896" stroke="white" stroke-width="2"/>
<line x1="228.628" y1="33.4431" x2="236.635" y2="23.9015" stroke="white" stroke-width="2"/>
<line x1="255.627" y1="32.5425" x2="265.168" y2="24.5362" stroke="white" stroke-width="2"/>
<line x1="282.859" y1="31.2746" x2="293.646" y2="25.0468" stroke="white" stroke-width="2"/>
<line x1="16.4371" y1="34.7287" x2="8.43071" y2="25.1871" stroke="white" stroke-width="2"/>
<line x1="43.0285" y1="34.9766" x2="36.8007" y2="24.1896" stroke="white" stroke-width="2"/>
<line x1="69.5017" y1="35.2053" x2="65.2416" y2="23.5008" stroke="white" stroke-width="2"/>
<line x1="95.9097" y1="35.4276" x2="93.7468" y2="23.1611" stroke="white" stroke-width="2"/>
<line x1="122.297" y1="35.2539" x2="122.297" y2="22.7982" stroke="white" stroke-width="2"/>
<line x1="148.718" y1="35.0803" x2="150.881" y2="22.8138" stroke="white" stroke-width="2"/>
<line x1="147.189" y1="56.322" x2="151.449" y2="44.6175" stroke="white" stroke-width="2"/>
<line x1="173.814" y1="55.7734" x2="180.042" y2="44.9865" stroke="white" stroke-width="2"/>
<line x1="200.605" y1="55.24" x2="208.611" y2="45.6984" stroke="white" stroke-width="2"/>
<line x1="227.603" y1="54.3394" x2="237.145" y2="46.3331" stroke="white" stroke-width="2"/>
<line x1="254.836" y1="53.0715" x2="265.623" y2="46.8436" stroke="white" stroke-width="2"/>
<line x1="282.33" y1="52.2166" x2="294.034" y2="47.9565" stroke="white" stroke-width="2"/>
<line x1="15.0012" y1="56.7734" x2="8.77331" y2="45.9865" stroke="white" stroke-width="2"/>
<line x1="41.4783" y1="57.0061" x2="37.2182" y2="45.3016" stroke="white" stroke-width="2"/>
<line x1="67.8863" y1="57.2244" x2="65.7234" y2="44.958" stroke="white" stroke-width="2"/>
<line x1="94.2734" y1="57.0508" x2="94.2734" y2="44.5951" stroke="white" stroke-width="2"/>
<line x1="120.691" y1="56.8771" x2="122.854" y2="44.6107" stroke="white" stroke-width="2"/>
<line x1="119.166" y1="78.1189" x2="123.426" y2="66.4144" stroke="white" stroke-width="2"/>
<line x1="145.786" y1="77.5703" x2="152.014" y2="66.7834" stroke="white" stroke-width="2"/>
<line x1="172.578" y1="77.0369" x2="180.584" y2="67.4953" stroke="white" stroke-width="2"/>
<line x1="199.576" y1="76.1363" x2="209.118" y2="68.1299" stroke="white" stroke-width="2"/>
<line x1="226.812" y1="74.8683" x2="237.599" y2="68.6405" stroke="white" stroke-width="2"/>
<line x1="254.306" y1="74.0173" x2="266.011" y2="69.7572" stroke="white" stroke-width="2"/>
<line x1="282.08" y1="72.8043" x2="294.347" y2="70.6413" stroke="white" stroke-width="2"/>
<line x1="13.4509" y1="78.803" x2="9.19083" y2="67.0984" stroke="white" stroke-width="2"/>
<line x1="39.8589" y1="79.0213" x2="37.696" y2="66.7548" stroke="white" stroke-width="2"/>
<line x1="66.2461" y1="78.8477" x2="66.2461" y2="66.392" stroke="white" stroke-width="2"/>
<line x1="92.6675" y1="78.674" x2="94.8304" y2="66.4075" stroke="white" stroke-width="2"/>
<line x1="91.1384" y1="99.9158" x2="95.3985" y2="88.2113" stroke="white" stroke-width="2"/>
<line x1="117.763" y1="99.3672" x2="123.991" y2="88.5802" stroke="white" stroke-width="2"/>
<line x1="144.554" y1="98.8338" x2="152.561" y2="89.2922" stroke="white" stroke-width="2"/>
<line x1="171.553" y1="97.9332" x2="181.094" y2="89.9268" stroke="white" stroke-width="2"/>
<line x1="198.785" y1="96.6652" x2="209.572" y2="90.4374" stroke="white" stroke-width="2"/>
<line x1="226.279" y1="95.8142" x2="237.984" y2="91.5541" stroke="white" stroke-width="2"/>
<line x1="254.053" y1="94.6011" x2="266.319" y2="92.4382" stroke="white" stroke-width="2"/>
<line x1="11.8355" y1="100.818" x2="9.6726" y2="88.5517" stroke="white" stroke-width="2"/>
<line x1="38.2227" y1="100.645" x2="38.2227" y2="88.1888" stroke="white" stroke-width="2"/>
<line x1="64.6402" y1="100.471" x2="66.8031" y2="88.2044" stroke="white" stroke-width="2"/>
<line x1="297.68" y1="95.418" x2="285.224" y2="95.418" stroke="white" stroke-width="2"/>
<line x1="63.115" y1="121.713" x2="67.3751" y2="110.008" stroke="white" stroke-width="2"/>
<line x1="89.7355" y1="121.164" x2="95.9634" y2="110.377" stroke="white" stroke-width="2"/>
<line x1="116.527" y1="120.631" x2="124.533" y2="111.089" stroke="white" stroke-width="2"/>
<line x1="143.525" y1="119.73" x2="153.067" y2="111.724" stroke="white" stroke-width="2"/>
<line x1="170.762" y1="118.462" x2="181.549" y2="112.234" stroke="white" stroke-width="2"/>
<line x1="198.256" y1="117.611" x2="209.96" y2="113.351" stroke="white" stroke-width="2"/>
<line x1="226.029" y1="116.398" x2="238.296" y2="114.235" stroke="white" stroke-width="2"/>
<line x1="10.1953" y1="122.445" x2="10.1953" y2="109.99" stroke="white" stroke-width="2"/>
<line x1="36.6168" y1="122.272" x2="38.7797" y2="110.005" stroke="white" stroke-width="2"/>
<line x1="269.652" y1="117.215" x2="257.197" y2="117.215" stroke="white" stroke-width="2"/>
<line x1="297.365" y1="118.368" x2="285.099" y2="116.205" stroke="white" stroke-width="2"/>
<line x1="35.0877" y1="143.51" x2="39.3478" y2="131.805" stroke="white" stroke-width="2"/>
<line x1="61.7121" y1="142.961" x2="67.9399" y2="132.174" stroke="white" stroke-width="2"/>
<line x1="88.5035" y1="142.431" x2="96.5099" y2="132.89" stroke="white" stroke-width="2"/>
<line x1="115.502" y1="141.531" x2="125.043" y2="133.524" stroke="white" stroke-width="2"/>
<line x1="142.734" y1="140.259" x2="153.521" y2="134.031" stroke="white" stroke-width="2"/>
<line x1="170.228" y1="139.408" x2="181.933" y2="135.148" stroke="white" stroke-width="2"/>
<line x1="198.002" y1="138.195" x2="210.269" y2="136.032" stroke="white" stroke-width="2"/>
<line x1="8.58941" y1="144.069" x2="10.7523" y2="131.802" stroke="white" stroke-width="2"/>
<line x1="241.629" y1="139.012" x2="229.173" y2="139.012" stroke="white" stroke-width="2"/>
<line x1="269.338" y1="140.164" x2="257.072" y2="138.002" stroke="white" stroke-width="2"/>
<line x1="296.775" y1="141.287" x2="285.071" y2="137.027" stroke="white" stroke-width="2"/>
<line x1="7.06421" y1="165.306" x2="11.3243" y2="153.602" stroke="white" stroke-width="2"/>
<line x1="33.6848" y1="164.758" x2="39.9126" y2="153.971" stroke="white" stroke-width="2"/>
<line x1="60.4761" y1="164.228" x2="68.4825" y2="154.687" stroke="white" stroke-width="2"/>
<line x1="87.4744" y1="163.328" x2="97.016" y2="155.321" stroke="white" stroke-width="2"/>
<line x1="114.711" y1="162.056" x2="125.498" y2="155.828" stroke="white" stroke-width="2"/>
<line x1="142.205" y1="161.205" x2="153.909" y2="156.945" stroke="white" stroke-width="2"/>
<line x1="169.979" y1="159.992" x2="182.245" y2="157.829" stroke="white" stroke-width="2"/>
<line x1="295.93" y1="163.788" x2="285.143" y2="157.56" stroke="white" stroke-width="2"/>
<line x1="213.605" y1="160.812" x2="201.15" y2="160.812" stroke="white" stroke-width="2"/>
<line x1="241.315" y1="161.961" x2="229.048" y2="159.798" stroke="white" stroke-width="2"/>
<line x1="268.748" y1="163.084" x2="257.043" y2="158.824" stroke="white" stroke-width="2"/>
<line x1="5.66132" y1="186.559" x2="11.8892" y2="175.772" stroke="white" stroke-width="2"/>
<line x1="32.4527" y1="186.025" x2="40.4591" y2="176.484" stroke="white" stroke-width="2"/>
<line x1="59.451" y1="185.125" x2="68.9926" y2="177.118" stroke="white" stroke-width="2"/>
<line x1="86.6836" y1="183.857" x2="97.4705" y2="177.629" stroke="white" stroke-width="2"/>
<line x1="114.178" y1="183.006" x2="125.882" y2="178.746" stroke="white" stroke-width="2"/>
<line x1="141.951" y1="181.789" x2="154.218" y2="179.626" stroke="white" stroke-width="2"/>
<line x1="267.902" y1="185.589" x2="257.115" y2="179.361" stroke="white" stroke-width="2"/>
<line x1="294.853" y1="186.657" x2="285.312" y2="178.65" stroke="white" stroke-width="2"/>
<line x1="185.578" y1="182.609" x2="173.122" y2="182.609" stroke="white" stroke-width="2"/>
<line x1="213.287" y1="183.758" x2="201.021" y2="181.595" stroke="white" stroke-width="2"/>
<line x1="240.724" y1="184.885" x2="229.02" y2="180.625" stroke="white" stroke-width="2"/>
<line x1="4.42536" y1="207.822" x2="12.4317" y2="198.28" stroke="white" stroke-width="2"/>
<line x1="31.4236" y1="206.921" x2="40.9652" y2="198.915" stroke="white" stroke-width="2"/>
<line x1="58.6602" y1="205.654" x2="69.4471" y2="199.426" stroke="white" stroke-width="2"/>
<line x1="86.1541" y1="204.802" x2="97.8586" y2="200.542" stroke="white" stroke-width="2"/>
<line x1="113.928" y1="203.589" x2="126.194" y2="201.426" stroke="white" stroke-width="2"/>
<line x1="239.879" y1="207.386" x2="229.092" y2="201.158" stroke="white" stroke-width="2"/>
<line x1="266.826" y1="208.454" x2="257.284" y2="200.447" stroke="white" stroke-width="2"/>
<line x1="293.578" y1="209.108" x2="285.571" y2="199.566" stroke="white" stroke-width="2"/>
<line x1="157.555" y1="204.406" x2="145.099" y2="204.406" stroke="white" stroke-width="2"/>
<line x1="185.264" y1="205.559" x2="172.997" y2="203.396" stroke="white" stroke-width="2"/>
<line x1="212.701" y1="206.682" x2="200.996" y2="202.422" stroke="white" stroke-width="2"/>
<line x1="3.40018" y1="228.718" x2="12.9418" y2="220.712" stroke="white" stroke-width="2"/>
<line x1="30.6328" y1="227.45" x2="41.4198" y2="221.223" stroke="white" stroke-width="2"/>
<line x1="58.1267" y1="226.599" x2="69.8313" y2="222.339" stroke="white" stroke-width="2"/>
<line x1="85.9006" y1="225.386" x2="98.167" y2="223.223" stroke="white" stroke-width="2"/>
<line x1="211.852" y1="229.182" x2="201.065" y2="222.955" stroke="white" stroke-width="2"/>
<line x1="238.803" y1="230.25" x2="229.261" y2="222.244" stroke="white" stroke-width="2"/>
<line x1="265.55" y1="230.905" x2="257.544" y2="221.363" stroke="white" stroke-width="2"/>
<line x1="292.146" y1="231.152" x2="285.918" y2="220.365" stroke="white" stroke-width="2"/>
<line x1="129.527" y1="226.203" x2="117.072" y2="226.203" stroke="white" stroke-width="2"/>
<line x1="157.237" y1="227.356" x2="144.97" y2="225.193" stroke="white" stroke-width="2"/>
<line x1="184.674" y1="228.479" x2="172.969" y2="224.219" stroke="white" stroke-width="2"/>
<line x1="2.60938" y1="249.247" x2="13.3963" y2="243.019" stroke="white" stroke-width="2"/>
<line x1="30.1033" y1="248.396" x2="41.8078" y2="244.136" stroke="white" stroke-width="2"/>
<line x1="57.8771" y1="247.183" x2="70.1436" y2="245.02" stroke="white" stroke-width="2"/>
<line x1="183.828" y1="250.979" x2="173.041" y2="244.751" stroke="white" stroke-width="2"/>
<line x1="210.775" y1="252.047" x2="201.234" y2="244.041" stroke="white" stroke-width="2"/>
<line x1="237.527" y1="252.705" x2="229.521" y2="243.164" stroke="white" stroke-width="2"/>
<line x1="264.118" y1="252.949" x2="257.891" y2="242.162" stroke="white" stroke-width="2"/>
<line x1="290.595" y1="253.182" x2="286.335" y2="241.477" stroke="white" stroke-width="2"/>
<line x1="101.504" y1="248" x2="89.0482" y2="248" stroke="white" stroke-width="2"/>
<line x1="129.213" y1="249.153" x2="116.947" y2="246.99" stroke="white" stroke-width="2"/>
<line x1="156.65" y1="250.276" x2="144.946" y2="246.016" stroke="white" stroke-width="2"/>
<line x1="2.07595" y1="270.193" x2="13.7805" y2="265.933" stroke="white" stroke-width="2"/>
<line x1="29.8498" y1="268.98" x2="42.1163" y2="266.817" stroke="white" stroke-width="2"/>
<line x1="155.801" y1="272.78" x2="145.014" y2="266.552" stroke="white" stroke-width="2"/>
<line x1="182.752" y1="273.844" x2="173.21" y2="265.838" stroke="white" stroke-width="2"/>
<line x1="209.503" y1="274.502" x2="201.497" y2="264.961" stroke="white" stroke-width="2"/>
<line x1="236.095" y1="274.746" x2="229.867" y2="263.959" stroke="white" stroke-width="2"/>
<line x1="262.568" y1="274.979" x2="258.308" y2="263.274" stroke="white" stroke-width="2"/>
<line x1="288.976" y1="275.197" x2="286.813" y2="262.931" stroke="white" stroke-width="2"/>
<line x1="73.4766" y1="269.797" x2="61.0209" y2="269.797" stroke="white" stroke-width="2"/>
<line x1="101.186" y1="270.95" x2="88.9193" y2="268.787" stroke="white" stroke-width="2"/>
<line x1="128.623" y1="272.073" x2="116.918" y2="267.812" stroke="white" stroke-width="2"/>
<line x1="1.82635" y1="290.777" x2="14.0928" y2="288.614" stroke="white" stroke-width="2"/>
<line x1="127.777" y1="294.577" x2="116.99" y2="288.349" stroke="white" stroke-width="2"/>
<line x1="154.724" y1="295.641" x2="145.183" y2="287.635" stroke="white" stroke-width="2"/>
<line x1="181.476" y1="296.299" x2="173.47" y2="286.757" stroke="white" stroke-width="2"/>
<line x1="208.068" y1="296.547" x2="201.84" y2="285.76" stroke="white" stroke-width="2"/>
<line x1="234.545" y1="296.776" x2="230.285" y2="285.071" stroke="white" stroke-width="2"/>
<line x1="260.953" y1="296.998" x2="258.79" y2="284.731" stroke="white" stroke-width="2"/>
<line x1="287.34" y1="296.824" x2="287.34" y2="284.369" stroke="white" stroke-width="2"/>
<line x1="45.4531" y1="291.594" x2="32.9974" y2="291.594" stroke="white" stroke-width="2"/>
<line x1="73.1623" y1="292.747" x2="60.8958" y2="290.584" stroke="white" stroke-width="2"/>
<line x1="100.599" y1="293.869" x2="88.8949" y2="289.609" stroke="white" stroke-width="2"/>
<line x1="99.75" y1="316.374" x2="88.9631" y2="310.146" stroke="white" stroke-width="2"/>
<line x1="126.701" y1="317.438" x2="117.159" y2="309.432" stroke="white" stroke-width="2"/>
<line x1="153.453" y1="318.096" x2="145.446" y2="308.554" stroke="white" stroke-width="2"/>
<line x1="180.044" y1="318.344" x2="173.816" y2="307.557" stroke="white" stroke-width="2"/>
<line x1="206.517" y1="318.572" x2="202.257" y2="306.868" stroke="white" stroke-width="2"/>
<line x1="232.925" y1="318.795" x2="230.762" y2="306.528" stroke="white" stroke-width="2"/>
<line x1="259.312" y1="318.621" x2="259.312" y2="306.165" stroke="white" stroke-width="2"/>
<line x1="285.734" y1="318.447" x2="287.897" y2="306.181" stroke="white" stroke-width="2"/>
<line x1="17.4258" y1="313.391" x2="4.97009" y2="313.391" stroke="white" stroke-width="2"/>
<line x1="45.1349" y1="314.547" x2="32.8685" y2="312.384" stroke="white" stroke-width="2"/>
<line x1="72.572" y1="315.666" x2="60.8675" y2="311.406" stroke="white" stroke-width="2"/>
<line x1="284.205" y1="339.685" x2="288.465" y2="327.981" stroke="white" stroke-width="2"/>
<line x1="71.7266" y1="338.171" x2="60.9396" y2="331.943" stroke="white" stroke-width="2"/>
<line x1="98.6736" y1="339.239" x2="89.132" y2="331.232" stroke="white" stroke-width="2"/>
<line x1="125.425" y1="339.893" x2="117.419" y2="330.351" stroke="white" stroke-width="2"/>
<line x1="152.017" y1="340.141" x2="145.789" y2="329.354" stroke="white" stroke-width="2"/>
<line x1="178.494" y1="340.369" x2="174.234" y2="328.665" stroke="white" stroke-width="2"/>
<line x1="204.902" y1="340.592" x2="202.739" y2="328.325" stroke="white" stroke-width="2"/>
<line x1="231.289" y1="340.418" x2="231.289" y2="327.962" stroke="white" stroke-width="2"/>
<line x1="257.707" y1="340.244" x2="259.87" y2="327.978" stroke="white" stroke-width="2"/>
<line x1="17.1115" y1="336.344" x2="4.84504" y2="334.181" stroke="white" stroke-width="2"/>
<line x1="44.5486" y1="337.463" x2="32.8441" y2="333.203" stroke="white" stroke-width="2"/>
<line x1="256.181" y1="361.486" x2="260.441" y2="349.782" stroke="white" stroke-width="2"/>
<line x1="282.802" y1="360.938" x2="289.03" y2="350.151" stroke="white" stroke-width="2"/>
<line x1="43.6992" y1="359.968" x2="32.9123" y2="353.74" stroke="white" stroke-width="2"/>
<line x1="70.6502" y1="361.036" x2="61.1086" y2="353.029" stroke="white" stroke-width="2"/>
<line x1="97.4019" y1="361.69" x2="89.3956" y2="352.148" stroke="white" stroke-width="2"/>
<line x1="123.993" y1="361.938" x2="117.766" y2="351.151" stroke="white" stroke-width="2"/>
<line x1="150.467" y1="362.17" x2="146.206" y2="350.466" stroke="white" stroke-width="2"/>
<line x1="176.875" y1="362.388" x2="174.712" y2="350.122" stroke="white" stroke-width="2"/>
<line x1="203.262" y1="362.215" x2="203.262" y2="349.759" stroke="white" stroke-width="2"/>
<line x1="229.683" y1="362.041" x2="231.846" y2="349.775" stroke="white" stroke-width="2"/>
<line x1="16.5213" y1="359.264" x2="4.81674" y2="355.004" stroke="white" stroke-width="2"/>
<line x1="228.154" y1="383.283" x2="232.414" y2="371.578" stroke="white" stroke-width="2"/>
<line x1="254.779" y1="382.734" x2="261.006" y2="371.947" stroke="white" stroke-width="2"/>
<line x1="281.57" y1="382.201" x2="289.576" y2="372.659" stroke="white" stroke-width="2"/>
<line x1="15.6758" y1="381.764" x2="4.88883" y2="375.537" stroke="white" stroke-width="2"/>
<line x1="42.6228" y1="382.832" x2="33.0812" y2="374.826" stroke="white" stroke-width="2"/>
<line x1="69.3746" y1="383.487" x2="61.3682" y2="373.945" stroke="white" stroke-width="2"/>
<line x1="95.966" y1="383.734" x2="89.7382" y2="372.947" stroke="white" stroke-width="2"/>
<line x1="122.443" y1="383.967" x2="118.183" y2="372.262" stroke="white" stroke-width="2"/>
<line x1="148.851" y1="384.185" x2="146.688" y2="371.919" stroke="white" stroke-width="2"/>
<line x1="175.238" y1="384.012" x2="175.238" y2="371.556" stroke="white" stroke-width="2"/>
<line x1="201.656" y1="383.838" x2="203.819" y2="371.572" stroke="white" stroke-width="2"/>
<line x1="200.131" y1="405.08" x2="204.391" y2="393.375" stroke="white" stroke-width="2"/>
<line x1="226.751" y1="404.531" x2="232.979" y2="393.744" stroke="white" stroke-width="2"/>
<line x1="253.543" y1="403.998" x2="261.549" y2="394.456" stroke="white" stroke-width="2"/>
<line x1="280.541" y1="403.097" x2="290.082" y2="395.091" stroke="white" stroke-width="2"/>
<line x1="14.5994" y1="404.629" x2="5.05778" y2="396.623" stroke="white" stroke-width="2"/>
<line x1="41.3511" y1="405.283" x2="33.3448" y2="395.742" stroke="white" stroke-width="2"/>
<line x1="67.9426" y1="405.531" x2="61.7147" y2="394.744" stroke="white" stroke-width="2"/>
<line x1="94.4158" y1="405.764" x2="90.1557" y2="394.059" stroke="white" stroke-width="2"/>
<line x1="120.824" y1="405.986" x2="118.661" y2="393.72" stroke="white" stroke-width="2"/>
<line x1="147.211" y1="405.812" x2="147.211" y2="393.357" stroke="white" stroke-width="2"/>
<line x1="173.632" y1="405.639" x2="175.795" y2="393.372" stroke="white" stroke-width="2"/>
</svg>
