<svg width="733" height="292" viewBox="0 0 733 292" fill="none" xmlns="http://www.w3.org/2000/svg">
<path fill-rule="evenodd" clip-rule="evenodd" d="M368.828 0.155261C368.349 0.257744 367.799 0.460618 367.609 0.609114C367.416 0.75761 366.649 0.989764 365.902 1.12362C365.155 1.25748 364.321 1.59211 364.047 1.8661C363.773 2.14008 363.266 2.36387 362.919 2.36387C362.574 2.36387 362.095 2.59812 361.857 2.88675C361.618 3.17328 361.202 3.40962 360.93 3.40962C360.66 3.40962 360.349 3.64387 360.24 3.93249C360.129 4.21903 359.863 4.45536 359.65 4.45536C358.27 4.45536 352.444 12.5934 352.444 14.5217C352.444 14.8522 352.275 15.2893 352.07 15.4963C350.589 16.9771 351.532 25.8827 353.63 30.2142C354.601 32.2199 359.855 38.2685 360.627 38.2685C360.763 38.2685 361.273 38.5822 361.76 38.965C362.248 39.3477 362.921 39.6614 363.254 39.6614C363.589 39.6614 364.057 39.8978 364.296 40.1843C364.534 40.4729 365.143 40.7134 365.647 40.7197C366.151 40.726 366.866 40.9602 367.239 41.2426C368.203 41.9704 376.03 41.9537 377 41.2196C377.373 40.9372 378.107 40.7072 378.632 40.7072C379.157 40.7072 379.82 40.4729 380.109 40.1843C380.395 39.8978 380.857 39.6614 381.131 39.6614C381.407 39.6614 382.031 39.3477 382.518 38.965C383.008 38.5822 383.551 38.2685 383.729 38.2685C383.905 38.2685 384.731 37.641 385.561 36.8735C386.392 36.1059 387.203 35.4784 387.362 35.4784C387.521 35.4784 387.653 35.3174 387.653 35.1187C387.653 34.92 388.084 34.326 388.611 33.7969C389.918 32.4855 391.621 28.9614 392.673 25.3933C393.74 21.7771 393.112 16.0422 391.263 12.4971C391.006 12.0056 390.795 11.4054 390.793 11.1649C390.791 10.9264 390.634 10.7298 390.441 10.7298C390.251 10.7298 390.094 10.4935 390.094 10.207C390.094 9.91834 389.78 9.37037 389.395 8.98762C389.013 8.60279 388.699 8.13221 388.699 7.94188C388.699 7.74946 388.463 7.5926 388.176 7.5926C387.887 7.5926 387.653 7.39391 387.653 7.1492C387.653 6.90659 386.869 6.08673 385.911 5.32752C384.951 4.56831 384.166 3.82583 384.166 3.67733C384.166 3.53093 383.951 3.40962 383.687 3.40962C383.422 3.40962 383.012 3.17328 382.773 2.88675C382.535 2.59812 382.056 2.36387 381.709 2.36387C381.363 2.36387 380.849 2.13381 380.567 1.85146C380.284 1.56911 379.37 1.23238 378.538 1.10689C377.703 0.979308 376.833 0.726236 376.603 0.546368C376.132 0.176174 370.161 -0.124999 368.828 0.155261ZM443.195 0.192907C442.929 0.364409 442.695 2.30531 442.534 5.68098C442.396 8.5526 442.132 11.0038 441.946 11.1251C441.758 11.2443 441.499 12.3821 441.367 13.6516C441.235 14.9212 440.94 16.1489 440.71 16.3769C440.482 16.6069 440.294 17.3557 440.294 18.0417C440.294 18.7277 440.072 19.604 439.802 19.9889C439.533 20.3737 439.202 21.4278 439.066 22.3334C438.93 23.237 438.681 23.9752 438.51 23.9752C438.34 23.9752 438.202 24.1405 438.202 24.3434C438.202 25.1967 434.402 32.9436 433.272 34.393C432.914 34.851 432.624 35.3676 432.624 35.5412C432.624 35.9177 431.166 38.0447 430.794 38.2099C430.649 38.2727 430.532 38.5529 430.532 38.8311C430.532 39.1093 430.296 39.4251 430.009 39.5359C429.721 39.6468 429.486 39.9563 429.486 40.2261C429.486 40.4938 429.172 40.9832 428.79 41.3116C428.405 41.64 428.091 42.1085 428.091 42.3532C428.091 42.6 427.857 42.7987 427.568 42.7987C427.282 42.7987 427.045 42.9576 427.045 43.15C427.045 43.6436 420.944 49.9118 419.517 50.8823C418.867 51.3257 418.334 51.8841 418.334 52.1246C418.331 52.363 418.095 52.5596 417.809 52.5596C417.52 52.5596 417.286 52.7207 417.286 52.9152C417.286 53.1118 416.853 53.4611 416.326 53.6932C415.798 53.9233 415.242 54.3123 415.089 54.557C414.935 54.7996 414.583 55.0004 414.305 55.0004C414.027 55.0004 413.799 55.2179 413.799 55.4856C413.799 55.7513 413.408 56.0692 412.927 56.1884C412.448 56.3097 412.056 56.5607 412.056 56.7489C412.056 56.9371 411.845 57.0919 411.586 57.0919C411.329 57.0919 410.762 57.3973 410.331 57.7737C409.898 58.1481 407.873 59.2859 405.832 60.3003C403.79 61.3146 402.042 62.2244 401.945 62.3227C401.849 62.421 400.91 62.787 399.854 63.1384C398.799 63.4898 397.467 63.9792 396.892 64.226C395.026 65.0249 393.437 65.5269 391.943 65.7841C391.138 65.9243 390.274 66.2003 390.025 66.3969C389.774 66.5956 388.4 66.8613 386.971 66.9867C385.534 67.1143 384.254 67.4092 384.108 67.6456C383.723 68.2667 362.187 68.2584 361.438 67.6351C361.15 67.3967 359.909 67.0997 358.684 66.9763C357.456 66.855 356.029 66.5413 355.511 66.2798C354.994 66.0184 354.243 65.8051 353.844 65.8051C353.08 65.8051 349.508 64.6966 347.738 63.9102C347.163 63.655 346.065 63.2346 345.297 62.9753C344.529 62.7159 343.151 62.0696 342.231 61.5405C341.312 61.0114 340.342 60.5763 340.074 60.5763C339.804 60.5763 339.501 60.4404 339.399 60.2731C339.296 60.1078 338.307 59.5201 337.2 58.9701C336.094 58.42 335.063 57.7716 334.908 57.5311C334.755 57.2885 334.402 57.0919 334.123 57.0919C333.845 57.0919 333.619 56.9497 333.619 56.7761C333.619 56.6046 333.149 56.2992 332.573 56.0984C331.998 55.8977 331.528 55.5672 331.528 55.3664C331.528 55.1656 331.291 55.0004 331.005 55.0004C330.716 55.0004 330.482 54.8477 330.482 54.6595C330.482 54.4734 330.049 54.0948 329.522 53.8166C328.995 53.5406 327.779 52.5806 326.821 51.6854C325.861 50.7902 324.098 49.1401 322.9 48.019C321.701 46.9001 320.72 45.8167 320.72 45.6117C320.72 45.4067 320.484 45.2394 320.197 45.2394C319.909 45.2394 319.674 45.0596 319.674 44.84C319.674 44.6183 319.124 43.9051 318.455 43.2525C317.783 42.6021 317.233 41.8366 317.233 41.5521C317.233 41.2677 316.999 40.9435 316.71 40.8347C316.424 40.7239 316.187 40.4144 316.187 40.1487C316.187 39.881 316.045 39.6614 315.872 39.6614C315.324 39.6614 312.232 34.713 310.304 30.7496C309.283 28.6539 308.231 26.5227 307.961 26.0145C307.693 25.5041 307.474 24.7784 307.474 24.3998C307.474 24.0213 307.237 23.5172 306.951 23.2788C306.662 23.0403 306.428 22.4275 306.428 21.9193C306.428 21.4111 306.214 20.6853 305.955 20.3068C305.696 19.9282 305.376 18.9201 305.244 18.0668C305.11 17.2135 304.849 16.3308 304.66 16.1029C304.47 15.877 304.219 14.6137 304.098 13.2982C303.978 11.9805 303.719 10.7989 303.522 10.6692C303.324 10.5416 303.092 8.61743 303.008 6.39418L302.853 2.35342L293.223 2.44544L283.593 2.53747L283.472 4.45536C283.359 6.24568 284.11 12.6122 284.808 15.7912C284.978 16.563 285.229 18.0438 285.367 19.0791C285.505 20.1164 285.827 21.3672 286.084 21.8608C286.342 22.3523 286.553 23.0905 286.555 23.5005C286.555 23.9104 286.791 24.6947 287.078 25.2427C287.364 25.7927 287.599 26.7339 287.601 27.3384C287.601 27.9888 287.814 28.5138 288.126 28.633C288.427 28.7501 288.649 29.2709 288.649 29.867C288.649 30.4338 288.86 31.1093 289.117 31.3666C289.377 31.6259 289.697 32.4207 289.83 33.136C289.964 33.8492 290.217 34.4327 290.391 34.4327C290.565 34.4327 290.809 34.9723 290.933 35.629C291.056 36.2878 291.376 36.909 291.646 37.0136C291.916 37.1161 292.133 37.6724 292.133 38.2559C292.133 38.9629 292.307 39.3142 292.656 39.3142C292.945 39.3142 293.179 39.5443 293.179 39.8267C293.179 40.5399 294.576 43.1479 294.957 43.1479C295.131 43.1479 295.271 43.3236 295.271 43.539C295.271 44.1393 297.616 47.8914 299.958 51.0391C301.119 52.5994 302.305 54.2287 302.592 54.6574C302.88 55.0883 303.861 56.1821 304.771 57.0898C305.681 57.9975 306.428 58.9178 306.428 59.1353C306.428 59.3528 306.547 59.5306 306.695 59.5306C306.844 59.5306 308.637 61.1787 310.678 63.1907C312.722 65.2048 314.483 66.8508 314.594 66.8508C314.704 66.8508 315.146 67.1645 315.579 67.5494C317.242 69.028 317.593 69.2916 317.894 69.2916C318.066 69.2916 318.296 69.5258 318.407 69.8144C318.515 70.101 318.846 70.3373 319.141 70.3373C319.434 70.3373 319.678 70.5339 319.683 70.7723C319.689 71.0129 320.318 71.4981 321.084 71.8516C321.852 72.205 322.669 72.6819 322.906 72.914C323.142 73.1441 324.747 74.1606 326.472 75.1708C328.198 76.1809 329.844 77.1556 330.133 77.3354C330.419 77.5153 330.89 77.7516 331.178 77.8583C331.465 77.9671 331.936 78.2034 332.224 78.3812C332.511 78.5611 332.981 78.7974 333.27 78.9041C333.557 79.0128 334.027 79.2492 334.316 79.4269C334.602 79.6068 335.073 79.839 335.362 79.9435C335.648 80.0481 336.328 80.3597 336.872 80.6379C337.414 80.9161 338.125 81.144 338.449 81.144C338.775 81.144 339.369 81.3741 339.771 81.6544C340.175 81.9367 341.141 82.2693 341.919 82.3927C342.699 82.5182 343.421 82.8361 343.521 83.1017C343.628 83.3778 344.201 83.5827 344.87 83.5827C345.51 83.5827 346.341 83.8128 346.711 84.0951C347.083 84.3775 348.016 84.618 348.784 84.6285C349.549 84.641 350.482 84.8815 350.855 85.1639C351.227 85.4442 352.041 85.6742 352.662 85.6742C353.283 85.6742 354.235 85.8499 354.774 86.0653C359.757 88.0418 385.9 88.1129 390.32 86.1594C390.924 85.8938 391.964 85.6742 392.631 85.6742C393.298 85.6742 394.407 85.44 395.095 85.1513C395.783 84.8648 396.802 84.6285 397.36 84.6285C397.919 84.6285 398.553 84.413 398.772 84.1516C398.99 83.8881 399.891 83.5911 400.774 83.4928C401.659 83.3924 402.479 83.1519 402.6 82.9553C402.721 82.7608 403.407 82.491 404.125 82.3571C404.844 82.2212 405.432 81.9848 405.432 81.8301C405.432 81.6753 405.943 81.4431 406.566 81.3156C407.545 81.1148 409.122 80.4476 411.011 79.4353C411.297 79.2805 412.789 78.5464 414.322 77.8018C415.855 77.0594 417.162 76.3315 417.227 76.183C417.29 76.0345 417.478 75.9153 417.643 75.9153C417.961 75.9153 422.214 73.5038 422.515 73.1546C422.845 72.7697 424.782 71.5106 425.391 71.2827C425.725 71.1593 425.999 70.8937 425.999 70.6971C425.999 70.4984 426.163 70.3373 426.361 70.3373C426.558 70.3373 427.164 69.8835 427.704 69.3313C428.246 68.7771 429.009 68.2228 429.405 68.0973C429.798 67.9718 430.208 67.6414 430.315 67.3611C430.421 67.0809 430.75 66.8508 431.045 66.8508C431.337 66.8508 431.578 66.6166 431.578 66.3279C431.578 66.0414 431.747 65.8051 431.954 65.8051C432.482 65.8051 440.281 58.0582 440.288 57.5269C440.292 57.2864 440.528 57.0919 440.817 57.0919C441.103 57.0919 441.34 56.8556 441.34 56.569C441.34 56.2804 441.574 56.0462 441.863 56.0462C442.149 56.0462 442.385 55.8454 442.385 55.6007C442.385 55.356 442.699 54.8854 443.082 54.557C443.465 54.2287 443.779 53.7413 443.779 53.4715C443.779 53.2038 444.015 52.8922 444.301 52.7813C444.59 52.6726 444.824 52.3421 444.824 52.0472C444.824 51.7544 444.956 51.5139 445.115 51.5139C445.567 51.5139 449.114 46.3584 450.175 44.1602C450.305 43.8904 450.721 43.2002 451.099 42.6251C451.879 41.4392 452.494 40.1216 452.494 39.6384C452.494 39.4606 452.639 39.3142 452.814 39.3142C452.992 39.3142 453.237 38.8541 453.36 38.2915C453.484 37.731 453.81 37.0826 454.086 36.8546C454.36 36.6267 454.586 36.0829 454.586 35.6479C454.586 35.2128 454.82 34.7652 455.109 34.6565C455.396 34.5456 455.632 34.0688 455.632 33.5982C455.632 33.1255 455.847 32.5232 456.113 32.2596C456.377 31.994 456.705 31.1219 456.841 30.3166C456.977 29.5135 457.217 28.8568 457.374 28.8568C457.533 28.8568 457.77 28.2168 457.904 27.4325C458.035 26.6503 458.362 25.592 458.629 25.0796C458.895 24.5692 459.119 23.6803 459.127 23.1052C459.133 22.53 459.37 21.7541 459.652 21.3818C459.935 21.0095 460.165 20.2524 460.165 19.6961C460.165 19.1418 460.393 17.7196 460.675 16.5379C461.436 13.3317 462.34 4.94687 462.202 2.36387L462.081 0.0987897L452.844 0.0130398C447.761 -0.032973 443.421 0.0465026 443.195 0.192907ZM294.062 103.985C290.077 104.416 289.071 104.619 285.511 105.711C284.647 105.976 283.353 106.298 282.635 106.43C281.916 106.56 281.328 106.792 281.328 106.947C281.328 107.099 280.581 107.564 279.671 107.978C278.761 108.392 277.78 108.877 277.492 109.055C277.205 109.235 276.617 109.532 276.184 109.72C275.754 109.906 275.4 110.22 275.4 110.417C275.4 110.611 275.189 110.772 274.932 110.772C274.469 110.772 274.128 111.021 271.451 113.299C269.694 114.794 267.287 117.392 266.337 118.816C266.048 119.249 265.54 119.891 265.203 120.242C264.869 120.594 264.595 121.117 264.595 121.405C264.595 121.692 264.358 121.928 264.072 121.928C263.743 121.928 263.549 122.259 263.549 122.811C263.549 123.296 263.329 123.777 263.059 123.879C262.792 123.982 262.47 124.605 262.346 125.264C262.223 125.921 261.972 126.458 261.79 126.458C261.606 126.458 261.457 126.657 261.457 126.9C261.457 127.142 261.143 127.927 260.759 128.642C260.376 129.357 260.062 130.252 260.062 130.629C260.062 131.007 259.844 131.831 259.577 132.461C257.826 136.585 257.797 137.129 257.797 164.281C257.797 187.854 257.843 189.881 258.428 191.817C260.863 199.876 260.56 199.008 261.746 201.298C262.162 202.103 262.503 202.988 262.503 203.266C262.503 203.542 262.737 203.86 263.026 203.971C263.312 204.08 263.549 204.41 263.549 204.705C263.549 204.998 263.783 205.238 264.072 205.238C264.358 205.238 264.595 205.54 264.595 205.906C264.595 206.272 265.143 207.138 265.814 207.83C266.486 208.52 267.033 209.175 267.033 209.285C267.033 210.156 274.976 216.681 276.942 217.428C277.437 217.616 277.841 217.932 277.841 218.128C277.841 218.323 278.295 218.484 278.849 218.484C279.424 218.484 279.945 218.71 280.058 219.007C280.169 219.295 280.638 219.53 281.1 219.53C281.562 219.53 282.119 219.745 282.336 220.009C282.554 220.272 283.455 220.569 284.34 220.667C285.223 220.768 286.051 221.019 286.178 221.226C286.306 221.433 287.582 221.707 289.011 221.834C290.441 221.962 291.832 222.24 292.1 222.454C292.778 222.991 307.053 222.993 307.398 222.456C307.534 222.244 308.727 221.985 310.044 221.883C311.362 221.78 312.556 221.51 312.697 221.284C312.837 221.056 313.638 220.78 314.476 220.667C315.315 220.554 316.213 220.253 316.47 219.996C316.725 219.741 317.198 219.525 317.52 219.519C317.842 219.513 318.411 219.279 318.783 218.996C319.153 218.714 319.727 218.484 320.053 218.484C320.379 218.484 320.737 218.25 320.846 217.961C320.956 217.674 321.274 217.438 321.555 217.438C321.833 217.438 322.78 216.89 323.659 216.219C324.539 215.547 325.378 214.999 325.525 214.999C325.849 214.999 331.528 209.58 331.528 209.269C331.528 209.15 331.992 208.595 332.561 208.039C333.128 207.485 333.695 206.627 333.818 206.134C333.941 205.642 334.174 205.238 334.335 205.238C334.697 205.238 335.723 203.327 337.798 198.79C339.618 194.808 340.871 188.822 341.304 182.058C341.628 176.987 341.71 159.364 341.417 158.264L341.206 157.477L321.115 157.567L301.023 157.657L300.931 166.521C300.858 173.381 300.937 175.449 301.278 175.667C301.523 175.822 306.043 175.949 311.324 175.951C318.323 175.955 321.042 176.071 321.348 176.376C321.856 176.884 321.883 181.387 321.391 183.627C321.201 184.489 320.952 185.901 320.839 186.764C320.724 187.626 320.438 188.567 320.199 188.856C319.963 189.142 319.678 189.968 319.568 190.688C319.459 191.41 319.124 192.244 318.825 192.543C318.524 192.842 318.279 193.296 318.279 193.549C318.279 193.802 318.045 194.099 317.756 194.21C317.47 194.321 317.233 194.566 317.233 194.754C317.233 195.224 313.889 198.621 312.18 199.886C306.798 203.871 296.474 204.435 288.996 201.156C285.708 199.715 279.933 194.131 279.933 192.395C279.933 192.204 279.772 191.997 279.575 191.932C279.381 191.865 279.123 191.186 279.006 190.42C278.889 189.655 278.54 188.739 278.23 188.383C277.331 187.35 277.377 141.339 278.276 139.963C278.613 139.451 278.887 138.568 278.887 137.999C278.887 137.43 279.102 136.751 279.368 136.485C279.632 136.221 279.958 135.504 280.092 134.893C280.228 134.28 280.481 133.779 280.659 133.779C280.834 133.779 280.979 133.567 280.979 133.31C280.979 133.053 281.292 132.557 281.675 132.21C282.06 131.863 282.374 131.392 282.374 131.162C282.374 130.047 288.126 125.569 290.052 125.185C290.621 125.072 291.088 124.762 291.088 124.499C291.088 124.158 291.579 124.02 292.788 124.02C293.723 124.02 295.053 123.783 295.741 123.497C297.327 122.834 301.496 122.804 302.429 123.449C302.805 123.712 304.031 124.001 305.152 124.091C306.273 124.181 307.292 124.417 307.417 124.614C307.545 124.81 308.032 125.09 308.503 125.239C308.973 125.385 309.572 125.72 309.835 125.981C310.097 126.245 310.519 126.458 310.772 126.458C311.025 126.458 311.324 126.695 311.433 126.981C311.544 127.27 311.874 127.504 312.167 127.504C312.462 127.504 312.703 127.74 312.703 128.027C312.703 128.316 312.906 128.55 313.152 128.55C313.684 128.55 315.957 130.89 316.288 131.775C316.413 132.109 316.677 132.386 316.873 132.386C317.072 132.386 317.233 132.626 317.233 132.919C317.233 133.212 317.47 133.542 317.756 133.653C318.045 133.764 318.279 134.218 318.279 134.663C318.279 135.109 318.507 135.701 318.785 135.979C319.063 136.257 319.394 136.895 319.522 137.397L319.75 138.311H329.997H340.241V137.326C340.241 136.32 338.428 130.474 337.629 128.899C337.384 128.42 336.893 127.362 336.535 126.55C336.177 125.737 335.78 125.072 335.65 125.07C335.523 125.067 335.314 124.595 335.188 124.02C335.06 123.444 334.805 122.974 334.619 122.974C334.433 122.974 334.119 122.516 333.925 121.955C333.73 121.395 333.345 120.851 333.071 120.746C332.797 120.642 332.573 120.389 332.573 120.184C332.573 119.979 332.103 119.351 331.528 118.791C330.952 118.228 330.482 117.661 330.482 117.534C330.482 117.235 325.207 112.167 324.895 112.167C324.767 112.167 324.299 111.853 323.858 111.471C323.416 111.086 322.843 110.772 322.584 110.772C322.326 110.772 322.115 110.622 322.115 110.435C322.115 110.249 321.251 109.689 320.197 109.189C319.143 108.691 318.279 108.137 318.279 107.959C318.279 107.781 318.045 107.635 317.756 107.635C317.467 107.635 316.646 107.321 315.93 106.938C315.215 106.556 314.351 106.242 314.01 106.242C313.669 106.242 313.117 106.091 312.784 105.907C311.623 105.267 308.319 104.546 304.859 104.173C298.85 103.529 298.335 103.521 294.062 103.985ZM659.046 104.157C657.128 104.326 654.931 104.623 654.166 104.816C653.398 105.01 652.221 105.271 651.551 105.397C650.88 105.522 650.173 105.746 649.982 105.893C649.79 106.041 648.966 106.273 648.152 106.407C647.336 106.541 646.669 106.788 646.669 106.953C646.669 107.12 646.128 107.357 645.462 107.482C644.797 107.606 644.074 107.928 643.852 108.195C643.628 108.463 643.147 108.681 642.781 108.681C642.415 108.681 642.026 108.917 641.915 109.203C641.806 109.492 641.348 109.726 640.898 109.726C640.449 109.726 639.955 109.931 639.802 110.182C639.65 110.431 638.901 111.015 638.142 111.477C637.382 111.939 636.495 112.556 636.173 112.851C635.851 113.146 635.203 113.706 634.732 114.098C633.199 115.373 630.024 119.772 628.899 122.185C628.292 123.482 627.673 124.779 627.522 125.07C624.397 131.041 624.517 147.133 627.729 153.292C627.982 153.775 628.19 154.286 628.192 154.428C628.196 154.961 630.476 158.364 631.611 159.533C632.264 160.204 633.034 161.114 633.325 161.558C633.615 162.001 634.069 162.363 634.335 162.363C634.6 162.363 634.818 162.597 634.818 162.886C634.818 163.174 635.029 163.409 635.286 163.409C635.546 163.409 636.119 163.722 636.56 164.105C637.002 164.49 637.558 164.804 637.797 164.804C638.035 164.804 638.319 165.038 638.43 165.327C638.539 165.613 638.93 165.849 639.296 165.849C639.662 165.849 640.156 166.084 640.394 166.372C640.633 166.659 641.112 166.895 641.459 166.895C641.804 166.895 642.323 167.129 642.612 167.418C642.898 167.705 643.385 167.941 643.691 167.941C643.996 167.941 645.14 168.255 646.23 168.637C647.322 169.02 648.638 169.334 649.156 169.334C649.675 169.334 650.152 169.499 650.219 169.7C650.286 169.901 651.279 170.158 652.428 170.271C653.576 170.384 654.816 170.631 655.184 170.821C655.555 171.011 656.732 171.291 657.799 171.442C661.344 171.942 664.609 172.521 665.67 172.837C666.245 173.009 667.734 173.308 668.981 173.5C671.702 173.923 673.995 174.5 675.484 175.138C676.086 175.397 676.9 175.608 677.289 175.608C677.676 175.608 678.222 175.836 678.5 176.114C678.778 176.393 679.418 176.723 679.92 176.851C680.422 176.976 680.834 177.219 680.834 177.39C680.834 177.56 681.033 177.7 681.28 177.7C681.525 177.7 681.972 177.976 682.278 178.311C682.581 178.645 683.313 179.304 683.903 179.77C684.493 180.239 685.066 180.983 685.177 181.427C685.288 181.87 685.532 182.232 685.721 182.232C685.909 182.232 686.064 182.429 686.066 182.667C686.066 182.908 686.321 183.575 686.633 184.15C687.45 185.664 687.463 192.108 686.651 193.562C686.329 194.137 686.066 194.802 686.066 195.042C686.064 195.283 685.917 195.477 685.737 195.477C685.559 195.477 685.321 195.764 685.21 196.115C684.576 198.111 678.425 202.342 675.256 202.961C674.585 203.093 673.566 203.404 672.991 203.653C671.982 204.09 666.463 204.682 663.578 204.661C660.397 204.638 652.702 203.925 652.064 203.595C651.685 203.398 650.635 203.128 649.729 202.996C648.822 202.865 647.989 202.609 647.878 202.43C647.765 202.25 647.276 202.101 646.789 202.101C645.916 202.101 645.126 201.806 641.547 200.15C640.551 199.688 639.321 199.152 638.815 198.96C638.307 198.767 636.803 197.904 635.473 197.044C634.142 196.182 632.9 195.477 632.714 195.477C632.53 195.477 632.377 195.243 632.377 194.955C632.377 194.668 632.136 194.432 631.844 194.432C631.549 194.432 631.218 194.197 631.109 193.909C630.566 192.493 628.003 194.57 626.834 197.377C626.757 197.561 626.554 197.876 626.382 198.077C625.715 198.855 623.661 202.179 623.661 202.48C623.661 202.655 623.5 202.798 623.305 202.798C623.109 202.798 622.797 203.191 622.615 203.67C622.433 204.149 622.14 204.542 621.965 204.542C621.789 204.542 621.546 204.933 621.427 205.412C621.306 205.893 621.055 206.284 620.867 206.284C620.678 206.284 620.524 206.525 620.524 206.818C620.524 207.112 620.302 207.437 620.032 207.541C619.428 207.773 620.413 209.764 621.134 209.769C621.375 209.769 621.569 209.917 621.569 210.095C621.569 210.275 621.864 210.513 622.226 210.628C622.586 210.743 623.253 211.143 623.707 211.517C625.048 212.621 625.19 212.718 626.102 213.159C626.581 213.389 627.915 214.134 629.066 214.813C630.216 215.493 631.745 216.3 632.467 216.608C633.186 216.915 634.358 217.463 635.067 217.827C635.778 218.189 636.7 218.484 637.119 218.484C637.537 218.484 637.962 218.697 638.062 218.959C638.165 219.224 638.968 219.515 639.886 219.617C640.788 219.72 641.626 219.954 641.746 220.138C641.865 220.324 642.729 220.559 643.664 220.661C644.596 220.766 645.469 221.023 645.6 221.234C645.73 221.445 647.32 221.719 649.131 221.843C650.94 221.966 652.643 222.24 652.911 222.454C653.597 222.997 672.393 222.997 672.742 222.454C672.878 222.24 674.223 221.987 675.727 221.893C677.262 221.797 678.575 221.542 678.718 221.314C678.856 221.09 679.818 220.805 680.855 220.682C681.895 220.561 682.953 220.251 683.208 219.994C683.464 219.739 684.192 219.53 684.825 219.53C685.459 219.53 686.172 219.295 686.411 219.007C686.649 218.72 687.145 218.484 687.511 218.484C687.877 218.484 688.266 218.25 688.377 217.961C688.488 217.674 688.846 217.438 689.172 217.438C690.929 217.438 700.356 209.582 700.356 208.118C700.356 207.962 700.67 207.564 701.052 207.236C701.437 206.907 701.751 206.403 701.751 206.113C701.751 205.824 701.904 205.588 702.092 205.588C702.28 205.588 702.531 205.201 702.65 204.73C702.768 204.258 703.086 203.691 703.353 203.467C703.623 203.243 703.843 202.699 703.843 202.258C703.843 201.815 704.052 201.246 704.307 200.991C704.562 200.735 704.876 199.759 705.003 198.822C705.133 197.885 705.432 196.881 705.673 196.592C706.281 195.858 706.296 179.777 705.688 179.045C705.455 178.764 705.156 177.842 705.02 176.991C704.884 176.14 704.562 175.234 704.307 174.979C704.052 174.724 703.843 174.23 703.843 173.885C703.843 173.538 703.606 173.059 703.32 172.82C703.031 172.582 702.797 172.103 702.797 171.756C702.797 171.411 702.56 170.892 702.274 170.603C701.985 170.317 701.751 169.974 701.751 169.844C701.751 167.556 691.801 160.493 686.064 158.707C685.007 158.381 683.702 157.891 683.158 157.624C682.617 157.354 681.916 157.134 681.602 157.134C681.288 157.134 680.399 156.917 679.625 156.651C678.216 156.164 676.337 155.731 672.118 154.915C670.872 154.675 669.412 154.29 668.87 154.062C668.331 153.834 667.134 153.648 666.212 153.648C665.289 153.648 663.971 153.413 663.283 153.125C662.595 152.838 661.497 152.602 660.842 152.602C660.19 152.602 659.458 152.368 659.219 152.079C658.979 151.79 658.219 151.556 657.512 151.556C656.812 151.556 655.929 151.341 655.55 151.079C655.172 150.816 654.352 150.49 653.729 150.354C653.105 150.218 652.597 149.962 652.597 149.787C652.597 149.609 652.39 149.465 652.137 149.465C651.279 149.465 646.669 145.742 646.669 145.047C646.669 144.813 646.469 144.495 646.224 144.341C644.705 143.391 643.496 133.268 644.85 132.818C645.071 132.743 645.356 132.132 645.483 131.461C645.609 130.788 645.927 130.156 646.19 130.054C646.454 129.953 646.669 129.717 646.669 129.531C646.669 129.066 649.453 126.508 650.227 126.262C650.572 126.153 650.853 125.929 650.853 125.766C650.853 125.603 651.311 125.369 651.869 125.245C652.43 125.122 652.974 124.796 653.08 124.519C653.185 124.243 653.724 124.02 654.285 124.02C654.844 124.02 655.477 123.804 655.695 123.543C655.921 123.271 657.088 122.989 658.427 122.88C659.713 122.777 660.824 122.52 660.893 122.311C661.064 121.798 671.485 121.782 671.995 122.292C672.196 122.493 673.495 122.752 674.886 122.867C676.521 123.005 677.473 123.246 677.59 123.549C677.707 123.854 678.37 124.02 679.487 124.02C680.652 124.02 681.265 124.179 681.395 124.515C681.5 124.789 682.2 125.116 682.953 125.243C683.704 125.371 684.319 125.607 684.319 125.768C684.319 125.931 684.673 126.163 685.104 126.285C686.047 126.552 688.26 127.596 688.502 127.889C688.599 128.004 689.069 128.301 689.548 128.552C690.029 128.801 691.349 129.619 692.483 130.367L694.543 131.731L695.334 130.75C695.767 130.213 696.474 129.025 696.905 128.115C697.333 127.205 697.817 126.458 697.976 126.458C698.135 126.458 698.264 126.218 698.264 125.925C698.264 125.632 698.486 125.306 698.756 125.203C699.026 125.099 699.352 124.595 699.482 124.084C699.609 123.572 699.818 123.074 699.948 122.976C700.245 122.75 700.933 121.656 701.487 120.533C701.724 120.054 702.115 119.454 702.355 119.201C702.598 118.948 702.797 118.454 702.797 118.105C702.797 117.756 703.031 117.379 703.32 117.27C703.606 117.16 703.843 116.672 703.843 116.187C703.843 115.635 703.646 115.304 703.32 115.304C703.031 115.304 702.797 115.139 702.797 114.938C702.797 114.735 702.326 114.407 701.751 114.206C701.176 114.006 700.705 113.7 700.705 113.527C700.705 113.355 700.391 113.213 700.007 113.213C699.624 113.213 699.31 113.075 699.31 112.905C699.31 112.736 698.409 112.148 697.306 111.6C696.204 111.05 695.093 110.404 694.84 110.163C694.587 109.923 694.087 109.726 693.727 109.726C693.37 109.726 692.979 109.569 692.861 109.379C692.742 109.187 691.947 108.854 691.096 108.639C690.245 108.425 689.548 108.131 689.548 107.982C689.548 107.836 689.117 107.631 688.59 107.53C688.063 107.428 686.925 107.11 686.064 106.825C678.433 104.293 668.535 103.316 659.046 104.157ZM412.052 104.788C411.391 105.01 411.596 221.504 412.259 221.759C412.939 222.021 429.392 222.033 430.358 221.774C431.047 221.588 431.055 221.332 430.961 198.031C430.892 180.753 430.973 174.349 431.264 173.998C431.584 173.613 433.437 173.517 440.618 173.517H449.575L450.338 174.55C450.756 175.117 451.099 175.736 451.099 175.924C451.099 176.319 452.515 178.833 452.888 179.099C453.024 179.195 453.243 179.706 453.377 180.23C453.509 180.758 453.743 181.186 453.898 181.186C454.055 181.186 454.287 181.667 454.417 182.255C454.546 182.843 454.873 183.41 455.143 183.512C455.412 183.617 455.632 184.081 455.632 184.545C455.632 185.012 455.858 185.478 456.134 185.583C456.41 185.689 456.736 186.233 456.858 186.794C456.981 187.352 457.209 187.81 457.366 187.81C457.521 187.81 457.751 188.22 457.876 188.722C458.004 189.226 458.334 189.864 458.613 190.142C458.891 190.42 459.119 190.949 459.119 191.32C459.119 191.69 459.253 191.993 459.418 191.993C459.583 191.993 460.422 193.365 461.277 195.042C464.461 201.271 465.741 203.68 466.071 204.076C466.258 204.299 466.513 204.887 466.636 205.383C466.762 205.878 466.99 206.284 467.147 206.284C467.301 206.284 467.529 206.742 467.653 207.301C467.776 207.859 468.102 208.405 468.379 208.51C468.653 208.616 468.878 209.001 468.878 209.367C468.878 209.733 469.115 210.229 469.401 210.467C469.69 210.706 469.924 211.201 469.924 211.567C469.924 211.933 470.161 212.322 470.447 212.433C470.736 212.542 470.97 212.906 470.97 213.24C470.97 213.573 471.284 214.209 471.669 214.65C472.051 215.091 472.365 215.734 472.365 216.077C472.365 216.42 472.503 216.786 472.671 216.888C472.838 216.993 473.484 218.101 474.108 219.354C475.519 222.196 474.545 222.01 487.526 221.893C497.49 221.803 498.337 221.749 498.444 221.186C498.517 220.814 498.348 220.575 498.013 220.575C497.66 220.575 497.465 220.264 497.465 219.693C497.465 219.208 497.239 218.724 496.963 218.62C496.687 218.513 496.361 217.969 496.239 217.409C496.116 216.85 495.911 216.392 495.781 216.392C495.654 216.392 495.089 215.451 494.528 214.301C493.968 213.151 493.38 212.209 493.221 212.209C493.062 212.209 492.932 211.961 492.932 211.653C492.932 211.157 491.989 209.175 491.539 208.725C491.286 208.472 490.5 207.083 489.373 204.902C488.831 203.852 488.235 202.842 488.046 202.653C487.858 202.465 487.703 202.036 487.703 201.7C487.703 201.365 487.509 200.966 487.268 200.811C487.028 200.658 486.44 199.748 485.961 198.79C485.482 197.83 484.894 196.921 484.654 196.768C484.413 196.615 484.219 196.195 484.219 195.835C484.219 195.473 484.009 194.971 483.754 194.716C483.499 194.461 483.181 193.821 483.049 193.296C482.918 192.771 482.656 192.34 482.468 192.34C482.28 192.34 482.127 192.116 482.127 191.842C482.127 191.568 481.909 191.129 481.646 190.864C481.38 190.6 480.744 189.529 480.23 188.486C479.717 187.442 479.004 186.118 478.644 185.543C478.287 184.968 477.343 183.213 476.546 181.642C475.752 180.072 474.994 178.739 474.867 178.679C474.737 178.62 474.239 177.813 473.76 176.886C473.281 175.96 472.691 174.862 472.449 174.445C471.79 173.316 472.041 171.632 472.888 171.488C474.599 171.197 480.033 168.236 481.481 166.807C482.014 166.28 482.614 165.849 482.811 165.849C483.01 165.849 483.173 165.613 483.173 165.327C483.173 165.038 483.367 164.795 483.608 164.787C483.848 164.779 484.357 164.375 484.742 163.892C485.124 163.407 485.944 162.434 486.563 161.729C487.183 161.022 487.691 160.336 487.695 160.202C487.701 160.069 488.147 159.284 488.688 158.458C489.565 157.122 490.95 154.018 492.23 150.51C493.656 146.608 493.778 132.793 492.418 128.725C492.163 127.958 491.855 126.893 491.736 126.36C491.498 125.287 489.508 120.809 489.151 120.533C489.025 120.437 488.613 119.732 488.233 118.964C487.852 118.197 487.068 117.042 486.488 116.398C483.681 113.269 481.353 111.115 480.56 110.916C480.079 110.795 479.686 110.479 479.686 110.212C479.686 109.946 479.389 109.726 479.025 109.726C478.663 109.726 478.276 109.492 478.165 109.203C478.055 108.917 477.665 108.681 477.299 108.681C476.933 108.681 476.452 108.463 476.231 108.195C476.009 107.928 475.283 107.606 474.618 107.482C473.955 107.357 473.411 107.12 473.411 106.957C473.411 106.794 472.587 106.495 471.581 106.294C470.575 106.093 469.044 105.746 468.182 105.52C467.111 105.242 460.685 105.071 447.962 104.979C437.704 104.903 425.506 104.805 420.856 104.759C416.204 104.711 412.243 104.726 412.052 104.788ZM70.2441 106.242C70.1144 107.007 69.8844 107.635 69.7317 107.635C69.579 107.635 69.2799 108.331 69.0665 109.183C68.8511 110.034 68.5185 110.829 68.3261 110.948C68.1357 111.065 67.9789 111.533 67.9789 111.985C67.9789 112.437 67.7613 113.253 67.4978 113.794C66.3641 116.124 63.7955 122.821 63.7955 123.447C63.7955 123.672 63.3437 124.768 62.0532 127.68C61.8838 128.062 61.6432 128.887 61.5219 129.51C61.3985 130.133 61.1684 130.641 61.0095 130.641C60.8484 130.641 60.6079 131.3 60.4719 132.103C60.3359 132.906 60.0076 133.781 59.744 134.046C59.4784 134.31 59.2629 134.877 59.2629 135.305C59.2629 135.734 59.0328 136.391 58.7505 136.763C58.4702 137.135 58.2338 137.863 58.2276 138.38C58.2213 138.898 58.0058 139.446 57.7465 139.601C57.4892 139.754 57.1796 140.494 57.0625 141.245C56.9433 141.996 56.7048 142.703 56.5312 142.814C56.3555 142.925 56.0962 143.565 55.9518 144.236C55.8075 144.907 55.5795 145.535 55.4456 145.631C55.1528 145.842 54.0484 148.917 53.7932 150.239C53.6928 150.759 53.3916 151.368 53.1239 151.588C52.8583 151.809 52.6386 152.332 52.6386 152.75C52.6386 153.167 52.4964 153.658 52.3228 153.84C52.1492 154.022 51.848 154.721 51.6535 155.392C51.459 156.061 50.959 157.473 50.5407 158.529C50.1224 159.583 49.6957 160.838 49.5911 161.317C49.4865 161.796 49.1874 162.499 48.928 162.875C48.6687 163.254 48.4553 163.911 48.4553 164.333C48.4553 164.756 48.2399 165.318 47.9763 165.582C47.7107 165.847 47.3823 166.573 47.2464 167.198C47.1083 167.824 46.7757 168.757 46.508 169.271C46.2403 169.786 46.0185 170.493 46.0185 170.842C46.0165 171.191 45.7801 171.712 45.4935 171.998C45.2049 172.287 44.9706 172.965 44.9706 173.504C44.9706 174.059 44.7405 174.577 44.4477 174.69C44.1172 174.816 43.9248 175.349 43.9248 176.131C43.9248 176.913 43.7303 177.449 43.4019 177.574C43.1132 177.685 42.879 178.193 42.879 178.706C42.879 179.218 42.6552 179.954 42.3833 180.341C42.1134 180.73 41.7808 181.628 41.6491 182.337C41.5152 183.046 41.2789 183.627 41.1241 183.627C40.9693 183.627 40.7308 184.135 40.5949 184.759C40.4589 185.382 40.1326 186.202 39.8712 186.58C39.6076 186.959 39.3922 187.595 39.3922 187.994C39.3922 188.394 39.1621 189.027 38.8797 189.398C38.5994 189.77 38.3631 190.416 38.3568 190.83C38.3505 191.246 38.11 192.07 37.8234 192.66C37.5348 193.252 37.0642 194.218 36.7776 194.81C36.489 195.4 36.2547 196.243 36.2547 196.684C36.2547 197.123 36.0183 197.68 35.7318 197.918C35.4431 198.157 35.2089 198.642 35.2089 198.995C35.2089 199.623 34.5835 201.288 33.6067 203.262C33.3368 203.806 33.1172 204.617 33.1172 205.067C33.1172 205.517 32.8725 206.132 32.5734 206.431C32.2743 206.73 31.9354 207.564 31.8225 208.286C31.7095 209.005 31.4062 209.721 31.1469 209.875C30.8875 210.028 30.6762 210.674 30.6762 211.314C30.6762 211.952 30.442 212.67 30.1533 212.908C29.8668 213.146 29.6304 213.703 29.6304 214.146C29.6304 214.587 29.4192 215.16 29.1619 215.418C28.9025 215.677 28.5825 216.472 28.4486 217.187C28.3148 217.9 28.0763 218.484 27.9173 218.484C27.4321 218.484 27.1874 221.404 27.6496 221.696C28.1349 222.006 46.1775 222.058 47.3154 221.753C47.8759 221.602 48.1479 221.197 48.3005 220.276C48.4156 219.578 48.721 218.536 48.9782 217.961C49.2376 217.386 49.7689 215.897 50.1621 214.65C51.2874 211.076 51.9191 209.296 52.2935 208.641C52.4839 208.309 52.6386 207.677 52.6386 207.238C52.6386 206.799 52.8415 206.129 53.0863 205.751C53.3331 205.374 53.8183 204.124 54.1676 202.973C54.5149 201.823 54.9186 200.646 55.065 200.359C55.295 199.903 58.1983 199.824 77.4478 199.746C102.173 199.646 101.096 199.539 101.096 202.072C101.096 202.616 101.33 203.258 101.619 203.496C101.906 203.735 102.142 204.427 102.142 205.038C102.142 205.646 102.286 206.295 102.464 206.477C102.642 206.659 103.43 208.769 104.217 211.164C105.003 213.561 105.878 216.016 106.16 216.62C106.442 217.225 106.675 217.971 106.675 218.281C106.675 218.591 106.831 219.115 107.022 219.448C107.214 219.781 107.524 220.488 107.712 221.017L108.055 221.981L118.258 221.889L128.461 221.797L128.388 220.78C128.348 220.22 128.16 219.666 127.97 219.548C127.779 219.431 127.518 218.683 127.392 217.886C127.265 217.089 126.943 216.353 126.677 216.252C126.393 216.141 126.196 215.56 126.196 214.824C126.196 214.042 126.001 213.508 125.673 213.383C125.355 213.259 125.15 212.732 125.15 212.042C125.15 211.415 124.914 210.706 124.627 210.467C124.339 210.229 124.104 209.691 124.104 209.271C124.104 208.853 123.874 208.204 123.592 207.832C123.312 207.46 123.075 206.924 123.069 206.64C123.058 206.146 122.084 203.459 121.109 201.229C120.856 200.654 120.157 198.772 119.557 197.046C118.955 195.321 118.241 193.493 117.972 192.984C117.702 192.476 117.48 191.761 117.48 191.395C117.48 191.031 117.25 190.427 116.97 190.054C116.687 189.682 116.453 189.044 116.447 188.636C116.44 188.228 116.2 187.699 115.911 187.461C115.625 187.222 115.388 186.492 115.388 185.838C115.388 185.104 115.19 184.575 114.865 184.449C114.579 184.34 114.338 183.914 114.332 183.502C114.326 183.092 114.016 182.127 113.646 181.36C113.276 180.594 112.966 179.706 112.96 179.386C112.954 179.066 112.788 178.752 112.592 178.685C112.395 178.62 112.136 177.94 112.017 177.175C111.895 176.409 111.586 175.658 111.326 175.504C111.069 175.351 110.858 174.799 110.858 174.274C110.858 173.751 110.644 173.015 110.383 172.636C110.124 172.258 109.802 171.36 109.67 170.641C109.538 169.924 109.281 169.334 109.099 169.334C108.915 169.334 108.766 169.112 108.766 168.842C108.766 168.372 106.683 162.614 105.98 161.144C105.798 160.759 105.317 159.426 104.911 158.18C104.503 156.933 103.951 155.419 103.679 154.815C103.409 154.212 103.188 153.466 103.188 153.16C103.188 152.853 103.033 152.602 102.843 152.602C102.654 152.602 102.399 151.979 102.278 151.215C102.154 150.452 101.839 149.649 101.575 149.429C101.312 149.21 101.096 148.59 101.096 148.053C101.096 147.515 100.86 146.84 100.573 146.551C100.285 146.265 100.05 145.637 100.05 145.158C100.05 144.679 99.8264 144.062 99.5524 143.788C99.2784 143.514 98.9417 142.684 98.8015 141.942C98.6635 141.201 98.3372 140.383 98.0799 140.124C97.8205 139.867 97.6093 139.304 97.6093 138.875C97.6093 138.447 97.3792 137.79 97.0989 137.42C96.8165 137.047 96.5823 136.378 96.576 135.933C96.5697 135.487 96.3292 134.889 96.0405 134.6C95.754 134.314 95.5176 133.726 95.5176 133.297C95.5176 132.869 95.2875 132.214 95.0072 131.842C94.7249 131.469 94.4906 130.876 94.4843 130.522C94.4781 130.169 94.2501 129.462 93.9802 128.953C93.7083 128.443 93.1436 127.008 92.7253 125.762C91.8258 123.083 91.441 122.095 90.78 120.765C90.5102 120.224 90.2843 119.596 90.278 119.372C90.2717 119.149 89.9622 118.337 89.5919 117.569C89.2217 116.804 88.908 115.863 88.8954 115.478C88.8829 115.095 88.6423 114.476 88.36 114.104C88.0797 113.734 87.8496 112.983 87.8496 112.439C87.8496 111.881 87.6216 111.36 87.3267 111.247C87.0025 111.123 86.8038 110.594 86.8038 109.864C86.8038 109.045 86.6427 108.681 86.2809 108.681C85.9169 108.681 85.7579 108.315 85.7579 107.474C85.7579 105.031 85.1702 104.847 77.3558 104.847H70.4805L70.2441 106.242ZM144.883 105.399C144.326 106.853 144.661 221.544 145.224 221.759C146.044 222.073 162.555 222.004 163.059 221.684C163.402 221.466 163.513 212.59 163.582 179.975C163.67 139.553 163.779 135.565 164.693 139.21C164.82 139.72 165.115 140.348 165.346 140.607C166.4 141.787 166.621 142.147 166.839 143.015C166.969 143.527 167.289 144.027 167.55 144.127C167.814 144.23 168.029 144.686 168.029 145.146C168.029 145.654 168.232 145.98 168.552 145.98C168.878 145.98 169.075 146.311 169.075 146.863C169.075 147.348 169.297 147.829 169.566 147.934C169.836 148.036 170.163 148.54 170.292 149.051C170.42 149.563 170.629 150.061 170.759 150.159C171.098 150.416 171.777 151.562 172.363 152.863C172.645 153.487 173.039 153.997 173.239 153.997C173.442 153.997 173.608 154.302 173.608 154.672C173.608 155.045 173.762 155.446 173.955 155.566C174.145 155.683 174.701 156.595 175.189 157.59C176.333 159.92 176.919 160.932 177.402 161.415C177.615 161.631 177.791 162.166 177.791 162.608C177.791 163.068 178 163.409 178.284 163.409C178.559 163.409 178.885 163.879 179.01 164.454C179.136 165.03 179.374 165.5 179.537 165.5C179.701 165.5 179.945 165.845 180.079 166.268C180.213 166.69 180.537 167.251 180.799 167.512C181.062 167.776 181.276 168.292 181.276 168.662C181.276 169.033 181.512 169.334 181.798 169.334C182.127 169.334 182.321 169.664 182.321 170.216C182.321 170.702 182.558 171.189 182.844 171.3C183.133 171.411 183.367 171.779 183.367 172.118C183.367 172.456 183.604 172.931 183.89 173.17C184.179 173.408 184.413 173.808 184.413 174.059C184.413 174.309 184.622 174.722 184.877 174.977C185.323 175.422 185.714 176.094 187.074 178.746C187.417 179.417 187.877 180.149 188.094 180.375C188.312 180.599 189.098 182.01 189.843 183.512C190.586 185.012 191.376 186.356 191.6 186.499C191.822 186.639 192.104 187.149 192.225 187.63C192.347 188.113 192.6 188.507 192.788 188.507C192.974 188.507 193.129 188.797 193.129 189.151C193.129 189.504 193.443 190.157 193.826 190.598C194.21 191.039 194.524 191.545 194.524 191.721C194.524 191.899 194.758 192.277 195.047 192.564C195.334 192.853 195.57 193.39 195.57 193.76C195.57 194.131 195.735 194.432 195.936 194.432C196.137 194.432 196.467 194.902 196.668 195.477C196.869 196.053 197.174 196.523 197.346 196.523C197.519 196.523 197.662 196.787 197.662 197.107C197.662 197.427 197.883 197.937 198.157 198.24C198.429 198.542 199.063 199.575 199.565 200.533C200.069 201.49 200.801 202.825 201.197 203.496C201.59 204.166 202.251 205.343 202.663 206.111C203.075 206.876 203.495 207.583 203.594 207.679C203.694 207.773 203.974 208.246 204.219 208.725C204.976 210.218 205.583 211.208 205.986 211.611C206.202 211.827 206.375 212.266 206.375 212.592C206.375 212.916 206.612 213.272 206.898 213.383C207.187 213.491 207.421 213.906 207.421 214.301C207.421 214.696 207.658 215.11 207.944 215.221C208.233 215.332 208.467 215.694 208.467 216.028C208.467 216.361 208.781 216.997 209.166 217.438C209.548 217.882 209.862 218.532 209.862 218.888C209.862 219.241 210.027 219.53 210.228 219.53C210.431 219.53 210.757 219.996 210.956 220.567C211.448 221.975 211.824 222.016 223.109 221.897L232.697 221.797L232.795 164.454C232.85 132.917 232.801 106.6 232.691 105.974L232.488 104.834L223.353 104.928L214.219 105.021L214.046 147.373C213.947 171.34 213.738 189.699 213.567 189.661C213.253 189.594 212.611 188.599 211.977 187.199C211.782 186.768 211.462 186.415 211.266 186.415C211.069 186.415 210.908 186.018 210.908 185.532C210.908 185.047 210.674 184.56 210.385 184.449C210.096 184.34 209.862 183.987 209.862 183.667C209.862 183.347 209.548 182.816 209.166 182.487C208.781 182.159 208.467 181.496 208.467 181.015C208.467 180.471 208.27 180.141 207.944 180.141C207.658 180.141 207.421 179.89 207.421 179.584C207.421 178.89 206.348 176.924 205.767 176.549C205.526 176.397 205.33 175.985 205.33 175.633C205.33 175.284 205.095 174.801 204.807 174.563C204.52 174.324 204.284 173.925 204.284 173.674C204.284 173.423 204.081 173.011 203.832 172.758C203.441 172.36 202.726 171.072 201.019 167.682C200.801 167.251 200.519 166.899 200.391 166.897C200.262 166.895 200.057 166.437 199.933 165.879C199.81 165.318 199.483 164.774 199.207 164.668C198.933 164.563 198.707 164.176 198.707 163.81C198.707 163.444 198.471 162.951 198.185 162.712C197.896 162.474 197.662 161.999 197.662 161.66C197.662 161.321 197.425 160.953 197.139 160.842C196.85 160.732 196.616 160.317 196.616 159.922C196.616 159.527 196.379 159.113 196.093 159.004C195.804 158.893 195.57 158.569 195.57 158.285C195.57 158 195.256 157.368 194.871 156.881C194.489 156.394 194.175 155.798 194.175 155.555C194.175 155.315 193.941 155.026 193.652 154.917C193.363 154.806 193.129 154.319 193.129 153.834C193.129 153.349 192.976 152.951 192.79 152.951C192.604 152.951 192.041 152.127 191.537 151.121C190.012 148.072 189.546 147.208 189.32 147.026C189.203 146.93 188.918 146.459 188.688 145.98C188.458 145.501 187.555 143.853 186.68 142.32C185.806 140.785 184.859 139.022 184.574 138.399C184.29 137.775 183.901 137.265 183.712 137.265C183.522 137.265 183.367 136.97 183.367 136.61C183.367 136.251 183.133 135.761 182.844 135.523C182.558 135.284 182.321 134.789 182.321 134.423C182.321 134.057 182.087 133.668 181.798 133.557C181.512 133.446 181.276 133.084 181.276 132.749C181.276 132.417 180.962 131.781 180.579 131.34C180.196 130.896 179.883 130.323 179.883 130.066C179.883 129.807 179.74 129.596 179.567 129.596C179.395 129.596 179.077 129.165 178.864 128.638C178.36 127.389 176.655 124.243 176.364 124.02C176.161 123.865 175.268 122.254 172.01 116.177C171.495 115.217 170.951 114.353 170.801 114.254C170.648 114.158 170.418 113.648 170.284 113.123C170.152 112.596 169.916 112.167 169.759 112.167C169.602 112.167 169.071 111.314 168.577 110.27C168.083 109.226 167.523 108.277 167.33 108.158C167.14 108.041 166.983 107.633 166.983 107.256C166.983 106.878 166.753 106.48 166.473 106.372C166.193 106.265 165.868 105.878 165.753 105.512C165.454 104.575 145.243 104.464 144.883 105.399ZM365.852 105.282C365.76 105.522 365.726 131.835 365.776 163.758L365.864 221.797H375.452H385.039L385.126 163.321L385.214 104.847H375.616C368.257 104.847 365.979 104.949 365.852 105.282ZM517.503 105.209C516.98 106.052 517.332 183.983 517.873 187.461C518.802 193.436 520.214 198.993 521.069 200.037C521.316 200.34 521.523 200.811 521.53 201.083C521.536 201.355 521.772 201.884 522.053 202.256C522.335 202.626 522.565 203.22 522.565 203.574C522.565 203.925 522.799 204.306 523.088 204.414C523.374 204.525 523.611 204.822 523.611 205.077C523.611 205.33 523.826 205.751 524.088 206.014C524.349 206.276 524.663 206.797 524.782 207.171C524.903 207.545 525.512 208.428 526.135 209.129C526.761 209.831 527.597 210.773 527.997 211.22C529.674 213.105 535.266 217.438 536.019 217.438C536.301 217.438 536.621 217.674 536.732 217.961C536.843 218.25 537.167 218.484 537.451 218.484C537.738 218.484 538.386 218.695 538.897 218.954C541.11 220.08 542.36 220.531 543.82 220.738C544.676 220.858 545.469 221.102 545.577 221.28C545.688 221.458 546.947 221.709 548.376 221.841C549.807 221.97 551.087 222.246 551.223 222.454C551.589 223.018 563.513 223.2 565.659 222.675C566.596 222.447 568.598 222.129 570.11 221.97C571.623 221.811 572.974 221.5 573.11 221.278C573.248 221.054 574.051 220.782 574.894 220.674C575.735 220.563 576.735 220.262 577.113 220.002C577.492 219.743 578.067 219.53 578.396 219.53C578.722 219.53 579.207 219.314 579.471 219.051C579.734 218.785 580.452 218.459 581.064 218.325C581.675 218.191 582.177 217.936 582.177 217.76C582.177 217.582 582.33 217.438 582.514 217.438C583.164 217.438 587.235 214.46 588.969 212.716C591.6 210.068 592.985 208.474 592.985 208.095C592.985 207.907 593.219 207.662 593.508 207.552C593.794 207.443 594.031 207.119 594.031 206.836C594.031 206.552 594.225 206.194 594.466 206.04C594.884 205.772 596.47 202.812 596.47 202.3C596.47 202.164 596.706 201.817 596.992 201.528C597.281 201.242 597.515 200.656 597.515 200.229C597.515 199.801 597.653 199.303 597.823 199.121C597.992 198.939 598.63 197.088 599.241 195.009C601.09 188.709 601.176 186.442 601.176 143.713V105.021L591.694 104.928L582.211 104.836L582.008 105.974C581.897 106.6 581.849 124.804 581.903 146.428C581.985 178.875 581.922 185.792 581.539 186.03C581.274 186.193 580.989 187.247 580.878 188.488C580.755 189.841 580.502 190.728 580.209 190.841C579.95 190.939 579.736 191.474 579.736 192.029C579.736 192.694 579.558 193.039 579.213 193.039C578.927 193.039 578.69 193.327 578.69 193.681C578.69 194.036 578.416 194.649 578.082 195.045C577.538 195.682 577.253 196.065 576.325 197.404C575.898 198.019 573.206 200.01 572.802 200.01C572.589 200.01 572.415 200.148 572.415 200.317C572.415 200.863 568.167 202.821 566.519 203.036C565.641 203.149 564.764 203.358 564.572 203.498C563.43 204.333 556.971 204.157 552.371 203.166C548.403 202.31 543.712 199.468 541.861 196.797C541.359 196.071 540.811 195.477 540.645 195.477C540.48 195.477 540.344 195.252 540.344 194.973C540.344 194.695 540.133 194.342 539.876 194.189C539.616 194.034 539.305 193.39 539.183 192.756C539.06 192.123 538.721 191.366 538.432 191.075C538.127 190.772 537.903 189.925 537.903 189.073C537.903 188.264 537.709 187.404 537.468 187.164C537.127 186.823 536.995 177.905 536.857 145.876L536.684 105.021L527.208 104.928C520.768 104.866 517.658 104.956 517.503 105.209ZM462.101 123.484C462.474 123.767 463.277 124.001 463.886 124.007C464.496 124.013 465.231 124.254 465.517 124.542C465.806 124.829 466.262 125.065 466.529 125.065C467.136 125.065 469.924 127.598 469.924 128.148C469.924 128.37 470.161 128.55 470.447 128.55C470.736 128.55 470.97 128.774 470.97 129.048C470.97 129.322 471.188 129.763 471.451 130.026C471.715 130.292 472.043 131.018 472.181 131.643C472.319 132.268 472.65 133.201 472.919 133.716C473.595 135.012 473.612 143.443 472.938 144.42C472.677 144.799 472.359 145.681 472.231 146.382C472.102 147.082 471.767 147.743 471.485 147.852C471.202 147.961 470.97 148.296 470.97 148.597C470.97 149.341 470.062 150.439 467.73 152.516C467.029 153.139 466.258 153.65 466.013 153.65C465.768 153.652 465.097 153.924 464.522 154.254C462.89 155.195 432.005 155.4 431.329 154.476C430.689 153.602 430.678 125.291 431.316 123.917L431.751 122.978L446.588 122.976C459.098 122.974 461.53 123.053 462.101 123.484ZM79.1441 139.116C79.5269 140.655 80.1879 142.494 80.7505 143.594C81.012 144.102 81.2253 144.817 81.2253 145.183C81.2253 145.547 81.4554 146.152 81.7378 146.522C82.0181 146.894 82.2544 147.697 82.2607 148.308C82.267 148.917 82.5054 149.651 82.7941 149.939C83.0806 150.226 83.317 150.948 83.317 151.544C83.317 152.173 83.5303 152.706 83.8294 152.822C84.1118 152.93 84.436 153.591 84.549 154.292C84.6619 154.992 84.9799 155.982 85.256 156.49C85.5321 157 85.7579 157.883 85.7579 158.452C85.7579 159.023 85.9922 159.684 86.2809 159.922C86.5674 160.161 86.8038 160.788 86.8038 161.317C86.8038 161.846 87.038 162.474 87.3267 162.712C87.6132 162.951 87.8496 163.655 87.8496 164.281C87.8496 164.904 88.0839 165.611 88.3725 165.849C88.6591 166.088 88.8954 166.705 88.8954 167.219C88.8954 167.734 89.1255 168.46 89.4058 168.832C89.6882 169.204 89.9245 169.823 89.9308 170.206C89.9392 170.589 90.1651 171.325 90.4328 171.837C90.7005 172.352 91.031 173.293 91.1691 173.929C91.305 174.567 91.533 175.242 91.6752 175.435C92.1375 176.054 93.4218 180.563 93.2272 180.879C92.9783 181.283 62.5008 181.28 62.2498 180.877C62.0281 180.517 62.5803 178.626 63.2956 177.298C63.5696 176.79 63.7955 176.056 63.7955 175.671C63.7955 175.284 64.0131 174.525 64.2787 173.981C64.9501 172.615 65.5839 170.752 65.7994 169.51C65.8997 168.934 66.1968 168.154 66.4582 167.776C66.7176 167.397 66.933 166.761 66.933 166.36C66.933 165.96 67.1631 165.329 67.4434 164.956C67.7258 164.584 67.96 163.883 67.9663 163.398C67.9726 162.915 68.1922 162.208 68.4516 161.83C68.713 161.453 69.0331 160.554 69.1648 159.836C69.2966 159.117 69.533 158.529 69.6919 158.529C69.8509 158.529 70.0852 157.881 70.2107 157.09C70.3382 156.3 70.6708 155.323 70.9532 154.921C71.2335 154.52 71.4636 153.694 71.4636 153.085C71.4636 152.424 71.6748 151.899 71.9865 151.78C72.3107 151.654 72.5094 151.125 72.5094 150.385C72.5094 149.645 72.7081 149.115 73.0323 148.99C73.3586 148.867 73.5552 148.335 73.5552 147.584C73.5552 146.921 73.7916 146.143 74.0781 145.855C74.3668 145.568 74.6031 144.891 74.6031 144.349C74.6052 143.807 74.919 142.895 75.2997 142.32C75.6803 141.745 75.992 140.841 75.9941 140.314C75.9962 139.787 76.1468 139.357 76.3288 139.357C76.5128 139.357 76.768 138.769 76.8977 138.049C77.0274 137.33 77.2031 136.619 77.2909 136.468C77.5377 136.035 78.8408 137.892 79.1441 139.116ZM77.2742 240.677C77.1466 240.806 77.042 249.885 77.042 260.855V280.8L77.8264 281.009C79.2613 281.394 80.7861 281.237 81.2692 280.653C82.0181 279.75 81.9762 241.26 81.2253 240.785C80.6292 240.409 77.6256 240.327 77.2742 240.677ZM108.867 240.725C108.561 240.917 108.415 243.126 108.344 248.649C108.243 256.29 108.241 256.306 107.459 256.417C107.026 256.478 106.675 256.384 106.675 256.208C106.675 255.288 102.466 253.692 100.036 253.692C95.7874 253.692 90.6796 257.262 90.0709 260.657C89.9496 261.33 89.707 262.062 89.5334 262.282C88.3725 263.75 89.2636 274.77 90.6148 275.646C90.7675 275.745 91.0101 276.203 91.1544 276.665C91.6083 278.114 92.9428 279.097 96.6178 280.681C99.6235 281.977 104.733 280.524 107.434 277.606L108.367 276.598L108.559 277.78C108.666 278.43 108.793 279.353 108.846 279.827C108.965 280.923 110.431 281.513 111.816 281.028L112.774 280.689L112.864 260.782L112.954 240.877L112.167 240.666C111.073 240.373 109.371 240.403 108.867 240.725ZM214.589 240.965C212.749 241.622 211.533 242.561 210.942 243.789C210.672 244.345 210.322 244.889 210.163 244.994C210.004 245.1 209.768 247.024 209.641 249.271C209.381 253.817 209.548 253.573 206.551 253.774C203.84 253.953 204.459 257.522 207.204 257.532C209.592 257.54 209.475 256.963 209.586 269.315C209.697 281.572 209.632 281.212 211.715 281.224C214.14 281.237 214.046 281.708 214.046 269.569C214.046 256.61 213.845 257.526 216.675 257.526C220.055 257.526 220.67 257.179 220.67 255.269V253.692H217.539C213.843 253.692 213.792 253.625 214.205 249.4C214.629 245.058 216.353 243.653 220.042 244.646C222.017 245.18 222.617 244.592 222.092 242.643C221.509 240.476 218.099 239.715 214.589 240.965ZM493.181 240.662C493.045 240.798 492.932 249.885 492.932 260.855V280.8L493.717 281.009C495.681 281.536 497.465 280.369 497.465 278.56C497.465 278.066 497.672 277.744 497.988 277.744C498.275 277.744 498.511 277.945 498.511 278.19C498.511 278.436 498.942 278.823 499.469 279.053C499.996 279.283 500.941 279.788 501.571 280.174C504.809 282.166 513.849 279.972 513.849 277.196C513.849 277.06 514.062 276.774 514.322 276.562C516.296 274.937 517.371 263.729 515.842 260.696C515.514 260.044 515.244 259.324 515.244 259.096C515.244 255.913 505.612 252.111 502.849 254.202C502.477 254.485 501.935 254.725 501.648 254.736C501.36 254.746 500.508 255.223 499.755 255.792C497.427 257.553 497.488 257.733 497.384 248.725L497.292 240.62L495.359 240.518C494.298 240.461 493.317 240.526 493.181 240.662ZM524.569 240.685C523.998 240.836 523.96 242.078 523.96 260.563C523.96 282.586 523.795 281.201 526.399 281.212C529.263 281.226 529.189 281.764 529.189 260.673C529.189 238.771 529.342 239.439 524.569 240.685ZM63.8813 243.057C62.4862 243.663 62.1912 246.455 63.4086 247.558C64.7368 248.76 67.6484 248.198 68.188 246.631C69.2297 243.613 66.9519 241.722 63.8813 243.057ZM122.709 242.766C120.958 243.469 120.41 245.548 121.529 247.254C122.222 248.311 126.196 248.589 126.196 247.581C126.196 247.286 126.43 246.955 126.719 246.847C127.384 246.589 127.405 244.743 126.75 244.086C126.48 243.816 126.202 243.425 126.133 243.218C125.987 242.783 123.489 242.454 122.709 242.766ZM420.381 242.754C419.21 243.097 418.582 244.996 419.128 246.545L419.618 247.94L421.764 248.043C423.462 248.127 423.908 248.041 423.908 247.637C423.908 247.357 424.1 247.062 424.337 246.985C424.943 246.782 424.876 244.052 424.249 243.429C423.705 242.889 421.333 242.473 420.381 242.754ZM0.784371 244.579L0 245.646L0.012551 262.478L0.0251021 279.313L0.838757 280.306L1.65241 281.302L8.82679 281.178C13.9597 281.091 16.1246 280.932 16.4362 280.62C16.6768 280.379 17.2917 280.183 17.8063 280.183C18.3187 280.183 18.9337 279.949 19.1721 279.66C19.4106 279.373 19.8435 279.137 20.1343 279.137C21.1676 279.137 23.7048 275.826 24.5205 273.411C25.5872 270.248 24.9409 266.323 23.004 264.202C22.4309 263.574 21.9624 262.913 21.9624 262.734C21.9624 262.554 21.657 262.405 21.2847 262.405C20.9124 262.405 20.5045 262.24 20.379 262.035C20.2535 261.832 19.7745 261.523 19.3123 261.347C18.2957 260.96 18.2246 260.316 19.1721 260.067C19.557 259.966 19.8707 259.667 19.8707 259.402C19.8707 259.136 20.105 258.921 20.3937 258.921C20.6802 258.921 20.9166 258.737 20.9166 258.511C20.9166 258.287 21.1906 257.8 21.5252 257.43C22.0314 256.869 22.136 256.076 22.136 252.755C22.136 249.348 22.0461 248.689 21.5252 248.309C21.1906 248.064 20.9166 247.729 20.9166 247.568C20.9166 247.047 18.3313 244.979 17.4298 244.776C16.9508 244.667 16.1664 244.406 15.6874 244.192C15.1896 243.971 11.9726 243.741 8.19093 243.659L1.56874 243.515L0.784371 244.579ZM297.538 243.808C297.153 243.912 296.691 244.14 296.509 244.314C296.327 244.487 295.771 244.627 295.273 244.627C293.618 244.627 290.094 247.876 289.803 249.668C289.69 250.356 289.464 251.004 289.299 251.107C288.875 251.368 288.919 255.434 289.345 255.434C289.538 255.434 289.695 255.788 289.697 256.219C289.699 257.442 292.817 261.359 293.788 261.359C293.989 261.359 294.242 261.596 294.353 261.882C294.461 262.171 294.955 262.405 295.447 262.405C295.938 262.405 296.43 262.641 296.541 262.928C296.649 263.217 296.973 263.451 297.26 263.451C297.545 263.451 298.195 263.685 298.703 263.972C299.214 264.258 300.021 264.649 300.5 264.842C301.707 265.327 302.715 265.984 303.046 266.502C303.198 266.741 303.493 266.937 303.702 266.937C305.461 266.937 306.246 272.959 304.662 274.314C304.29 274.632 303.987 275.063 303.987 275.272C303.987 275.481 303.533 275.653 302.979 275.653C302.403 275.653 301.883 275.876 301.77 276.176C301.489 276.903 295.344 276.941 295.064 276.215C294.963 275.952 294.263 275.636 293.508 275.515C292.753 275.393 292.133 275.153 292.133 274.979C292.133 274.804 291.663 274.559 291.088 274.431C290.512 274.306 290.042 274.046 290.042 273.856C290.042 273.668 289.69 273.561 289.257 273.624C288.316 273.758 288.025 275.454 288.613 277.412C289.301 279.712 296.643 281.864 300.619 280.934C301.609 280.702 303.025 280.377 303.767 280.212C304.51 280.047 305.217 279.76 305.336 279.572C305.457 279.386 305.934 279.114 306.398 278.968C310.46 277.7 312.383 269.895 309.714 265.501C309.028 264.373 308.243 263.451 307.971 263.451C307.697 263.451 307.474 263.217 307.474 262.928C307.474 262.641 307.17 262.405 306.8 262.405C306.43 262.405 305.922 262.211 305.668 261.97C304.999 261.339 302.092 259.966 301.42 259.966C301.107 259.966 300.849 259.841 300.849 259.69C300.849 259.538 299.908 258.981 298.758 258.454C297.607 257.925 296.666 257.344 296.666 257.162C296.666 256.978 296.469 256.827 296.231 256.827C295.99 256.825 295.442 256.306 295.009 255.673C293.505 253.462 294.307 249.193 296.231 249.166C296.469 249.162 296.666 248.923 296.666 248.637C296.666 248.206 297.306 248.114 300.337 248.114C303.28 248.114 304.05 248.219 304.209 248.637C304.321 248.928 304.838 249.16 305.376 249.16C305.907 249.16 306.536 249.394 306.775 249.683C307.344 250.367 308.388 250.352 308.655 249.653C309.128 248.421 308.869 246.366 308.166 245.763C306.566 244.395 299.887 243.166 297.538 243.808ZM582.227 244.046C581.644 244.749 581.062 249.427 581.466 250.18C581.652 250.528 581.713 250.904 581.6 251.015C581.366 251.249 581.301 259.902 581.531 260.134C581.615 260.217 581.629 261.508 581.56 263.001C581.345 267.795 581.481 278.93 581.769 280.009C582.022 280.95 582.202 281.063 583.595 281.145C586.237 281.302 586.166 281.526 586.361 272.616L586.534 264.672L593.144 264.576C600.27 264.474 600.291 264.467 600.299 262.547C600.31 260.517 599.741 260.341 592.792 260.236L586.534 260.14L586.44 254.133L586.344 248.129L593.585 248.035L600.828 247.94L601.021 246.719C601.134 246.016 601.019 245.094 600.751 244.542L600.287 243.582H591.45C584.53 243.582 582.529 243.682 582.227 244.046ZM373.231 247.853C373.116 248.283 373.02 249.599 373.016 250.772C373.011 253.299 372.74 253.608 370.389 253.757C367.538 253.937 367.845 257.507 370.713 257.536C372.976 257.559 373.012 257.689 373.014 265.756C373.018 274.494 373.267 277.744 373.934 277.744C374.193 277.744 374.407 278.058 374.407 278.441C374.407 278.823 374.624 279.137 374.892 279.137C375.16 279.137 375.457 279.346 375.555 279.603C375.848 280.367 379.504 281.342 381.2 281.109C384.118 280.71 385.212 279.917 385.212 278.202V276.698H382.075C379.489 276.698 378.937 276.604 378.937 276.163C378.937 275.87 378.703 275.54 378.414 275.429C377.969 275.257 377.891 273.923 377.891 266.377V257.526H380.665C384.465 257.526 385.277 257.12 385.143 255.284L385.039 253.866L381.466 253.767L377.891 253.667L377.887 251.153C377.879 247.175 377.816 247.068 375.452 247.068C373.662 247.068 373.419 247.154 373.231 247.853ZM640.578 247.853C640.478 248.283 640.359 249.735 640.309 251.078L640.221 253.516L638.129 253.692L636.037 253.866L635.933 255.284C635.818 256.85 636.621 257.526 638.6 257.526C640.338 257.526 640.394 257.789 640.407 266.049C640.426 276.721 640.98 278.828 644.166 280.273C645.908 281.063 650.698 281.319 651.15 280.645C651.275 280.459 651.652 280.206 651.986 280.082C652.444 279.913 652.597 279.463 652.597 278.277V276.698H649.633C647.232 276.698 646.669 276.598 646.669 276.176C646.669 275.887 646.445 275.653 646.172 275.653C645.676 275.653 645.245 263.875 645.571 259.241L645.693 257.526H648.554C652.076 257.526 652.691 257.172 652.534 255.246L652.421 253.866L649.022 253.765L645.623 253.667L645.621 252.197C645.619 251.389 645.519 249.904 645.398 248.898L645.178 247.068H642.967C640.961 247.068 640.739 247.141 640.578 247.853ZM14.765 248.637C15.0537 248.923 15.5347 249.16 15.8359 249.16C16.1371 249.16 16.384 249.4 16.384 249.693C16.384 249.988 16.6182 250.318 16.9069 250.427C17.503 250.657 17.6933 256.131 17.1056 256.131C16.9257 256.131 16.6747 256.461 16.5471 256.863C15.9301 258.808 13.4975 259.707 8.71384 259.759L5.75206 259.791L5.65584 253.953L5.55963 248.114H9.9019C13.2946 248.114 14.3571 248.229 14.765 248.637ZM32.5064 253.914C31.9542 254.148 31.8643 274.258 32.4165 274.258C32.6048 274.258 32.862 274.887 32.9833 275.657C33.2427 277.267 35.4138 279.706 36.9115 280.062C37.4135 280.183 37.997 280.415 38.2062 280.58C40.0113 281.99 47.2589 280.323 48.5599 278.198C49.2 277.152 50.1998 277.684 50.1998 279.068C50.1998 280.687 50.6913 281.229 52.1617 281.229C54.4228 281.229 54.3831 281.477 54.3831 267.502C54.3831 253.085 54.4772 253.583 51.7706 253.757C49.5283 253.899 49.5785 253.663 49.5367 264.248C49.5074 271.583 49.4238 272.915 48.9782 273.086C48.6917 273.195 48.4553 273.505 48.4553 273.772C48.4553 274.04 48.2566 274.258 48.0098 274.258C47.7651 274.258 47.2966 274.571 46.9682 274.954C46.6398 275.339 46.1503 275.653 45.8826 275.653C45.6128 275.653 45.3032 275.887 45.1923 276.176C45.0396 276.575 44.385 276.698 42.4293 276.698H39.8649L38.6706 275.278C37.0181 273.316 36.8864 272.482 36.6437 262.581L36.4283 253.866L34.686 253.799C33.728 253.761 32.747 253.813 32.5064 253.914ZM63.4441 254.568C63.2392 255.11 63.0969 260.429 63.0969 267.657C63.0969 281.329 63.0781 281.229 65.6446 281.229C68.096 281.229 67.9977 281.85 67.8952 267.111L67.8032 253.866L65.7973 253.761C63.9127 253.663 63.7704 253.711 63.4441 254.568ZM121.875 254.242C121.76 254.545 121.663 260.567 121.663 267.621C121.663 282.063 121.521 281.341 124.339 281.162L126.022 281.055L126.196 269.901C126.292 263.765 126.317 257.609 126.255 256.219L126.139 253.692H124.113C122.588 253.692 122.036 253.828 121.875 254.242ZM135.621 254.365C135.391 254.794 135.259 259.596 135.259 267.559C135.259 281.557 135.203 281.243 137.727 281.218C140.444 281.191 140.488 281.024 140.488 270.951V262.004L141.829 260.724C144.552 258.12 149.597 256.787 150.175 258.519C150.248 258.739 150.53 258.921 150.802 258.921C151.074 258.921 151.296 259.065 151.296 259.243C151.296 259.423 151.57 259.841 151.907 260.178C152.453 260.722 152.528 261.79 152.62 270.326C152.735 281.137 152.76 281.229 155.402 281.229C157.912 281.229 157.962 281.022 157.807 271.016C157.663 261.635 157.41 259.356 156.335 257.699C153.272 252.996 147.433 252.333 141.804 256.051C140.108 257.172 139.442 256.905 139.442 255.098V253.692H137.713C136.357 253.692 135.903 253.838 135.621 254.365ZM171.34 254.384C170.575 254.757 169.751 255.068 169.51 255.074C169.272 255.081 169.075 255.242 169.075 255.434C169.075 255.627 168.918 255.784 168.726 255.784C168.203 255.784 166.983 257.107 166.983 257.674C166.983 257.948 166.709 258.448 166.372 258.783C165.348 259.808 165.289 265.496 166.287 267.115C167.031 268.318 167.048 270.075 166.314 270.075C165.58 270.075 164.498 272.959 164.726 274.31C164.852 275.048 165.097 275.653 165.27 275.653C165.446 275.653 165.588 275.81 165.588 276C165.588 276.192 165.902 276.663 166.287 277.046C167.157 277.918 167.18 278.656 166.339 278.876C165.986 278.968 165.346 279.771 164.915 280.658C164.486 281.544 164.005 282.35 163.848 282.448C162.771 283.113 165.046 288.865 166.398 288.892C166.557 288.896 166.921 289.132 167.207 289.421C167.496 289.707 168.201 289.944 168.776 289.944C169.351 289.944 170.058 290.178 170.345 290.467C171.093 291.215 179.439 291.224 180.424 290.477C180.797 290.197 181.522 289.961 182.035 289.954C182.549 289.948 183.204 289.707 183.493 289.421C183.779 289.132 184.16 288.898 184.338 288.898C184.882 288.898 186.609 287.127 187.272 285.888C189.22 282.256 186.86 276.698 183.371 276.698C182.742 276.698 182.217 276.483 182.1 276.176C181.934 275.743 180.995 275.653 176.661 275.653C171.964 275.653 171.303 275.577 170.248 274.927C167.77 273.394 169.341 270.2 171.863 271.643C173.083 272.34 178.462 272.348 179.378 271.654C179.751 271.373 180.334 271.137 180.675 271.131C181.342 271.12 184.413 268.243 184.413 267.632C184.413 267.429 184.683 266.852 185.011 266.35C185.84 265.086 185.831 261.598 184.997 259.854C184.179 258.147 184.424 257.526 185.917 257.526C187.463 257.526 188.333 256.568 188.186 255.031L188.073 253.866L180.405 253.786C173.426 253.715 172.61 253.769 171.34 254.384ZM231.467 254.317C229.359 255.112 226.37 257.057 226.121 257.8C225.849 258.607 225.127 259.695 224.569 260.144C224.316 260.347 224.021 261.177 223.91 261.991C223.801 262.805 223.577 263.553 223.412 263.656C223.008 263.905 223.021 271.817 223.425 271.817C223.598 271.817 223.847 272.591 223.977 273.534C224.113 274.513 224.426 275.333 224.707 275.441C224.979 275.544 225.2 275.778 225.2 275.962C225.2 279.016 234.632 282.233 239.221 280.745C240.043 280.478 241.145 280.162 241.672 280.041C242.199 279.919 242.632 279.668 242.632 279.48C242.632 279.292 242.86 279.137 243.141 279.137C244.653 279.137 248.209 274.155 248.209 272.041C248.209 271.566 248.405 271.114 248.646 271.033C249.361 270.794 249.455 264.798 248.767 263.415C248.46 262.8 248.209 261.939 248.209 261.502C248.209 256.3 237.92 251.885 231.467 254.317ZM256.705 254.115C256.561 254.347 256.473 260.347 256.508 267.448C256.579 281.595 256.523 281.235 258.648 281.224C261.219 281.21 261.053 281.833 261.175 271.758C261.271 263.566 261.34 262.673 261.892 262.363C262.227 262.175 262.503 261.876 262.503 261.696C262.503 261.18 263.658 259.966 264.149 259.966C264.394 259.966 264.595 259.768 264.595 259.525C264.595 258.387 267.636 257.685 269.571 258.375C271.121 258.927 271.566 258.471 271.566 256.329C271.566 252.945 266.103 252.607 262.974 255.796C261.704 257.091 260.759 257.149 260.759 255.934C260.759 253.962 257.659 252.571 256.705 254.115ZM318.262 254.999C318.049 270.137 318.319 276.504 319.183 276.836C319.453 276.939 319.674 277.225 319.674 277.472C319.674 279.022 324.732 281.388 327.422 281.095C329.277 280.894 332.573 279.811 332.573 279.405C332.573 279.258 332.768 279.135 333.009 279.131C333.249 279.129 333.82 278.731 334.278 278.248C335.408 277.056 335.866 277.322 335.991 279.24C336.11 281.061 337.303 281.666 339.288 280.913L340.241 280.549V267.795C340.241 253.324 340.306 253.692 337.811 253.692C335.485 253.692 335.558 253.397 335.362 263.627L335.188 272.691L333.705 274.172C332.891 274.985 332.057 275.653 331.85 275.653C331.645 275.653 331.241 275.887 330.955 276.176C330.584 276.546 329.679 276.698 327.842 276.698C325.771 276.698 325.253 276.592 325.253 276.176C325.253 275.887 325.016 275.653 324.73 275.653C324.441 275.653 324.207 275.506 324.207 275.328C324.207 275.151 323.931 274.73 323.596 274.396C323.052 273.854 322.967 272.716 322.812 264.074C322.615 253.171 322.764 253.707 319.936 253.696L318.279 253.692L318.262 254.999ZM353.837 254.045C353.551 254.234 352.766 254.547 352.095 254.744C350.685 255.152 349.765 255.878 348.784 257.352C347.817 258.799 347.755 264.011 348.696 264.538C349.031 264.727 349.307 265.107 349.307 265.386C349.307 265.664 349.541 265.892 349.83 265.892C350.116 265.892 350.353 266.053 350.353 266.249C350.353 266.446 350.704 266.76 351.137 266.946C351.568 267.132 352.156 267.414 352.444 267.575C353.927 268.399 355.333 269.029 355.69 269.029C356.605 269.029 359.859 270.978 360.129 271.685C360.288 272.103 360.585 272.549 360.788 272.676C361.338 273.015 361.238 274.153 360.635 274.383C360.349 274.494 360.112 274.799 360.112 275.065C360.112 275.799 358.939 276.698 357.977 276.698C357.502 276.698 356.952 276.862 356.753 277.06C356.502 277.309 355.908 277.313 354.852 277.069C354.007 276.874 352.8 276.711 352.17 276.707C351.482 276.701 350.947 276.489 350.827 276.176C350.716 275.887 350.426 275.653 350.183 275.653C349.938 275.653 349.545 275.416 349.307 275.13C348.271 273.883 347.215 274.477 347.215 276.305C347.215 278.179 348.92 280.183 350.514 280.183C350.924 280.183 351.447 280.371 351.677 280.601C352.262 281.187 358.535 281.201 359.119 280.62C359.359 280.379 359.798 280.185 360.095 280.185C360.798 280.185 363.599 278.702 363.599 278.33C363.599 278.171 363.833 277.807 364.122 277.52C364.409 277.232 364.645 276.711 364.645 276.362C364.645 276.012 364.879 275.636 365.168 275.525C366.709 274.933 364.701 267.983 362.988 267.983C362.79 267.983 362.536 267.747 362.428 267.46C362.317 267.172 361.838 266.937 361.361 266.937C360.886 266.937 360.372 266.741 360.217 266.502C360.064 266.262 358.805 265.68 357.418 265.21C354.04 264.062 352.444 262.642 352.444 260.784C352.444 257.9 356.23 256.75 360.846 258.235C364.022 259.255 365.62 257.722 363.687 255.512C362.39 254.027 355.442 252.993 353.837 254.045ZM395.147 254.403C391.495 255.631 391.148 255.857 390.778 257.231C390.552 258.063 390.552 258.814 390.776 259.402C391.152 260.391 390.996 260.416 394.33 258.827C399.203 256.499 404.506 257.43 405.466 260.782C406.438 264.168 405.729 265.191 402.406 265.201C395.246 265.227 389.745 267.841 389.745 271.219C389.745 271.708 389.548 272.175 389.31 272.254C388.96 272.371 388.96 272.643 389.31 273.616C389.548 274.283 389.745 275.305 389.745 275.885C389.745 276.464 390.058 277.301 390.441 277.744C390.826 278.185 391.14 278.681 391.14 278.842C391.14 279.005 391.362 279.137 391.634 279.137C391.905 279.137 392.179 279.271 392.242 279.434C392.424 279.896 396.587 281.229 397.852 281.231C399.251 281.233 404.037 279.842 404.037 279.436C404.037 279.271 404.278 279.137 404.573 279.137C404.865 279.137 405.194 278.907 405.302 278.625C405.574 277.916 406.371 278.715 406.534 279.859C406.685 280.921 408.174 281.503 409.528 281.026L410.488 280.689V270.763C410.488 261.761 410.423 260.646 409.791 258.795C409.099 256.76 407.239 254.738 406.062 254.738C405.792 254.738 405.378 254.543 405.141 254.307C404.353 253.518 397.58 253.583 395.147 254.403ZM419.597 254.476C419.262 255.719 419.354 279.957 419.693 280.492C420.289 281.436 423.425 281.429 423.962 280.486C424.646 279.286 424.625 255.079 423.941 254.253C423.155 253.305 419.865 253.475 419.597 254.476ZM433.454 254.46C432.956 255.618 432.833 277.677 433.314 279.459C433.741 281.047 434.579 281.463 436.594 281.086C438.16 280.791 438.202 280.511 438.202 270.365V262.029L439.683 260.619C442.465 257.971 445.835 257.149 448.117 258.559C450.466 260.01 450.8 261.579 450.765 270.98C450.725 281.105 450.951 281.726 454.415 281.078L455.632 280.85V270.625C455.632 261.962 455.552 260.333 455.109 259.966C454.82 259.728 454.586 259.155 454.586 258.693C454.586 258.231 454.364 257.768 454.095 257.664C453.825 257.559 453.511 257.107 453.398 256.656C452.852 254.485 445.324 252.676 443.277 254.225C442.904 254.508 442.379 254.738 442.107 254.738C441.835 254.738 440.917 255.208 440.064 255.784C438.079 257.124 438.008 257.112 437.449 255.346C436.864 253.495 434.128 252.887 433.454 254.46ZM468.705 254.263C464.727 255.47 463.415 256.683 463.808 258.783C464.03 259.966 465.687 260.554 466.245 259.647C466.569 259.126 469.383 257.877 470.297 257.85C470.763 257.837 471.453 257.706 471.83 257.557C474.526 256.503 478.412 258.735 478.841 261.583C479.259 264.38 478.82 265.007 476.367 265.099C472.727 265.237 468.071 265.952 467.569 266.454C467.303 266.72 466.822 266.937 466.498 266.937C465.061 266.937 462.905 270.027 462.482 272.689C461.618 278.116 468.151 282.617 474.177 280.748C476.302 280.089 478.99 278.756 478.99 278.361C478.99 278.213 479.146 278.091 479.337 278.091C479.529 278.091 479.686 278.61 479.686 279.242C479.686 281.331 481.943 282.038 483.459 280.423C484.43 279.39 484.629 264.097 483.704 261.535C483.428 260.768 483.196 259.72 483.187 259.205C483.171 258.145 481.811 255.819 481.196 255.798C480.972 255.79 480.738 255.664 480.673 255.522C479.977 253.953 472.363 253.152 468.705 254.263ZM544.178 254.336C542.314 255.031 540.344 256.173 540.344 256.555C540.344 256.706 540.108 256.829 539.821 256.829C539.533 256.829 539.298 257.04 539.298 257.298C539.298 257.555 538.984 258.051 538.602 258.398C538.217 258.745 537.903 259.251 537.903 259.521C537.903 259.793 537.669 260.251 537.38 260.537C537.094 260.826 536.857 261.569 536.857 262.19C536.857 262.811 536.627 263.622 536.347 263.995C535.638 264.932 535.638 269.989 536.347 270.926C536.627 271.298 536.857 272.204 536.857 272.94C536.857 273.77 537.046 274.352 537.349 274.469C537.621 274.571 537.943 275.065 538.068 275.565C538.263 276.341 539.311 277.497 541.553 279.407C541.84 279.65 542.586 279.946 543.214 280.066C543.839 280.185 544.525 280.417 544.737 280.582C545.416 281.109 550.19 281.319 551.848 280.89C552.71 280.668 553.967 280.367 554.641 280.223C557.901 279.52 558.862 278.782 558.749 277.06L558.646 275.477L557.251 275.59C556.485 275.653 555.622 275.912 555.335 276.165C554.461 276.939 550.024 277.311 546.968 276.868C545.092 276.594 542.436 274.697 542.436 273.63C542.436 273.431 542.245 273.208 542.015 273.13C541.758 273.045 541.538 272.02 541.453 270.487L541.31 267.983H550.012C560.322 267.983 559.866 268.159 559.866 264.204C559.866 262.826 559.719 261.426 559.539 261.094C559.359 260.761 558.849 259.718 558.406 258.774C557.546 256.944 555.216 254.934 553.509 254.55C552.984 254.432 552.463 254.19 552.354 254.014C552.009 253.454 545.897 253.696 544.178 254.336ZM608.323 264.469C608.323 274.065 608.39 275.372 608.934 276.389C609.754 277.926 611.722 279.8 612.801 280.07C613.284 280.191 614.083 280.501 614.575 280.758C615.865 281.431 618.719 281.321 620.35 280.532C621.118 280.162 621.94 279.852 622.18 279.846C622.421 279.84 622.615 279.679 622.615 279.486C622.615 279.294 622.854 279.137 623.142 279.137C623.431 279.137 623.937 278.823 624.266 278.441C625.297 277.238 626.048 277.543 626.169 279.219C626.294 280.946 627.428 281.632 629.152 281.026L630.112 280.689V267.278V253.866H628.02H625.928L625.834 262.982L625.742 272.099L624.073 273.875C623.157 274.852 622.207 275.653 621.963 275.653C621.72 275.653 621.285 275.887 620.998 276.176C620.266 276.905 615.706 276.916 615.426 276.188C615.32 275.908 614.943 275.588 614.59 275.475C614.238 275.364 613.847 274.81 613.724 274.245C613.6 273.682 613.353 273.13 613.178 273.022C612.994 272.909 612.856 268.989 612.856 263.932C612.856 253.556 612.889 253.692 610.228 253.692H608.323V264.469ZM659.801 253.924C659.006 254.719 659.671 276.698 660.489 276.698C660.75 276.698 660.964 276.872 660.964 277.087C660.964 277.66 663.584 280.183 664.181 280.183C664.461 280.183 665.203 280.44 665.831 280.752C667.011 281.342 670.341 281.249 671.677 280.589C672.016 280.423 672.861 280.013 673.557 279.681C674.252 279.346 675.321 278.618 675.932 278.06C677.331 276.784 677.228 276.732 677.429 278.825C677.611 280.72 678.03 281.216 679.46 281.224C681.61 281.237 681.55 281.664 681.449 267.111L681.357 253.866L679.525 253.761C676.959 253.613 676.9 253.834 676.982 263.279C677.019 267.726 676.9 271.336 676.697 271.867C676.344 272.798 673.832 275.653 673.367 275.653C673.229 275.653 672.88 275.887 672.591 276.176C671.694 277.073 667.247 276.882 666.337 275.908C664.266 273.691 664.283 273.775 664.179 264.164C664.066 253.815 664.034 253.692 661.66 253.692C660.765 253.692 659.928 253.797 659.801 253.924ZM690.843 253.91C690.707 254.045 690.594 260.094 690.594 267.354V280.549L691.489 280.89C691.981 281.076 692.805 281.226 693.32 281.224C695.307 281.212 695.286 281.298 695.476 271.744C695.675 261.646 695.668 261.667 699.111 259.115C700.745 257.904 700.998 257.825 702.448 258.057C705.744 258.586 705.748 258.584 705.865 256.76C706.137 252.542 699.49 252.519 696.181 256.725L695.503 257.584L695.323 256.771C695.225 256.323 695.102 255.487 695.047 254.911C694.953 253.872 691.663 253.088 690.843 253.91ZM717.311 254.2C716.761 254.495 716.024 254.738 715.673 254.738C715.32 254.738 714.908 254.934 714.753 255.173C714.6 255.413 714.048 255.83 713.527 256.097C711.073 257.363 708.8 262.667 708.745 267.257C708.716 269.606 709.369 273.559 709.9 274.258C710.118 274.544 710.605 275.387 710.981 276.127C711.358 276.87 711.866 277.552 712.111 277.646C712.356 277.74 712.563 277.997 712.571 278.217C712.584 278.61 714.711 279.685 717.089 280.501C719.507 281.329 722.983 281.356 725.958 280.568C727.478 280.164 728.993 279.836 729.319 279.836C729.645 279.836 730.003 279.599 730.114 279.313C730.225 279.024 730.555 278.79 730.848 278.79C731.423 278.79 731.653 275.86 731.105 275.521C730.591 275.203 727.897 275.741 727.897 276.161C727.897 276.661 720.927 277.43 720.419 276.987C720.237 276.828 719.486 276.698 718.752 276.698C717.886 276.698 717.344 276.514 717.215 276.176C717.106 275.887 716.796 275.653 716.529 275.653C716.261 275.653 716.043 275.452 716.043 275.207C716.043 274.962 715.729 274.492 715.347 274.164C714.962 273.835 714.648 273.283 714.648 272.936C714.648 272.589 714.481 272.137 714.274 271.93C714.067 271.723 713.87 270.79 713.837 269.855L713.778 268.157L723.015 267.969C728.095 267.864 732.293 267.747 732.341 267.707C732.726 267.387 732.36 260.362 731.95 260.205C731.687 260.105 731.367 259.605 731.239 259.092C730.827 257.45 729.398 256.057 726.859 254.821C724.443 253.644 719.001 253.29 717.311 254.2ZM178.824 258.446C179.406 258.789 179.883 259.276 179.883 259.529C179.883 259.78 180.117 260.077 180.405 260.188C180.993 260.414 181.186 264.846 180.606 264.846C180.431 264.846 180.188 265.277 180.067 265.804C179.47 268.404 173.662 269.244 171.468 267.052C169.006 264.591 169.968 258.825 172.995 257.896C174.566 257.415 177.557 257.697 178.824 258.446ZM552.248 258.448C553.99 259.427 554.469 260 554.95 261.665C555.607 263.949 555.532 263.974 548.081 263.974H541.564L541.457 262.665C541.377 261.728 541.503 261.295 541.892 261.146C542.191 261.031 542.436 260.726 542.436 260.466C542.436 258.093 549.154 256.712 552.248 258.448ZM725.514 258.743C726.249 259.23 726.851 259.841 726.851 260.102C726.851 260.364 727.085 260.774 727.374 261.012C728.116 261.627 728.039 263.351 727.25 263.773C726.897 263.961 724.74 264.118 722.458 264.12C720.176 264.122 717.995 264.145 717.612 264.17C714.79 264.354 713.272 263.518 714.152 262.263C714.424 261.872 714.648 261.336 714.648 261.071C714.648 260.479 716.066 258.935 716.616 258.927C716.836 258.923 717.102 258.695 717.206 258.421C717.673 257.204 723.531 257.432 725.514 258.743ZM103.845 258.647C105.248 259.508 105.407 259.628 106.737 260.803C109.417 263.175 108.8 273.515 105.922 274.446C105.604 274.548 105.256 274.862 105.148 275.142C105.041 275.423 104.633 275.653 104.244 275.653C103.847 275.653 103.537 275.881 103.537 276.176C103.537 276.598 102.989 276.696 100.661 276.686C97.5737 276.675 96.7371 276.203 95.1118 273.561C93.7502 271.346 93.7543 261.891 95.1181 261.435C95.3377 261.362 95.5176 261.075 95.5176 260.797C95.5176 260.519 95.754 260.203 96.0405 260.092C96.3292 259.981 96.5634 259.674 96.5634 259.406C96.5634 259.138 96.7998 258.921 97.0864 258.921C97.375 258.921 97.6093 258.774 97.6093 258.597C97.6093 257.62 102.228 257.657 103.845 258.647ZM240.016 258.615C241.624 259.477 242.024 259.927 243.076 262.058C245.13 266.214 243.264 275.653 240.39 275.653C240.131 275.653 239.827 275.887 239.716 276.176C239.432 276.916 232.594 276.945 232.312 276.207C232.207 275.935 231.779 275.63 231.36 275.523C227.8 274.63 227.158 263.273 230.476 259.91C232.578 257.779 237.267 257.143 240.016 258.615ZM508.189 258.498C508.266 258.73 508.553 258.921 508.825 258.921C509.095 258.921 509.319 259.161 509.319 259.454C509.319 259.747 509.544 260.075 509.818 260.18C510.095 260.286 510.427 260.87 510.557 261.477C510.686 262.083 510.971 262.8 511.188 263.07C511.724 263.731 511.726 271.405 511.193 271.744C510.977 271.88 510.693 272.488 510.561 273.095C510.429 273.703 510.095 274.287 509.818 274.391C509.544 274.498 509.319 274.824 509.319 275.117C509.319 275.412 509.099 275.653 508.831 275.653C508.566 275.653 508.256 275.887 508.145 276.176C507.99 276.579 507.311 276.698 505.135 276.698C502.958 276.698 502.278 276.579 502.123 276.176C502.012 275.887 501.728 275.653 501.489 275.653C501.253 275.653 500.697 275.339 500.253 274.954C499.812 274.571 499.239 274.258 498.979 274.258C498.722 274.258 498.511 274.042 498.511 273.777C498.511 273.513 498.275 273.101 497.988 272.863C497.153 272.17 497.229 262.752 498.076 261.947C498.411 261.627 499.212 260.864 499.856 260.253C502.203 258.021 507.649 256.875 508.189 258.498ZM15.2524 264.062C15.3318 264.302 15.6812 264.497 16.0284 264.497C16.7897 264.497 18.8249 266.212 18.8249 266.854C18.8249 267.105 19.078 267.699 19.3897 268.173C20.0381 269.165 19.9147 272.907 19.2265 273.137C19.0048 273.21 18.8249 273.432 18.8249 273.628C18.8249 274.141 17.3357 275.638 16.819 275.646C16.5806 275.648 16.384 275.887 16.384 276.176C16.384 276.617 15.5515 276.698 10.9812 276.698H5.57636V270.047V263.399L10.3412 263.512C13.7589 263.593 15.1478 263.75 15.2524 264.062ZM405.606 271.503C405.606 273.818 404.671 275.628 403.464 275.646C403.246 275.648 402.977 275.887 402.866 276.176C402.755 276.462 402.278 276.698 401.805 276.698C401.333 276.698 400.542 276.851 400.048 277.039C395.085 278.926 391.889 272.007 396.716 269.824C398.291 269.111 398.601 269.071 402.121 269.138L405.606 269.202V271.503ZM478.814 271.503C478.814 273.825 477.879 275.628 476.666 275.646C476.442 275.648 476.193 275.847 476.113 276.084C475.938 276.615 471.514 277.384 470.895 276.991C470.65 276.836 470.096 276.707 469.663 276.703C469.201 276.701 468.878 276.483 468.878 276.176C468.878 275.887 468.653 275.653 468.379 275.653C466.699 275.653 467.577 270.947 469.406 270.148C469.979 269.895 470.684 269.548 470.97 269.374C471.259 269.2 473.141 269.09 475.153 269.129L478.814 269.202V271.503ZM175.496 279.442C175.601 279.61 177.044 279.819 178.703 279.905C180.991 280.026 181.824 280.204 182.148 280.647C182.382 280.967 182.752 281.229 182.97 281.229C183.202 281.229 183.367 281.818 183.367 282.647C183.367 286.068 178.32 287.821 171.876 286.633C169.698 286.231 167.678 283.881 168.663 282.896C168.891 282.67 169.081 282.241 169.092 281.944C169.1 281.647 169.506 281.091 169.995 280.706C170.483 280.323 171.064 279.819 171.286 279.587C171.748 279.102 175.214 278.984 175.496 279.442Z" fill="white" fill-opacity="0.7"/>
</svg>
