<svg width="820" height="306" viewBox="0 0 820 306" fill="none" xmlns="http://www.w3.org/2000/svg">
<path d="M565.066 305.348C558.535 304.366 550.145 302.289 548.492 301.259C546.977 300.302 546.65 299.37 546.65 295.935C546.65 291.209 545.848 291.381 555.654 294.022C562.177 295.772 579.914 296.115 584.383 294.57C588.86 293.024 591.013 290.309 590.702 286.613C590.268 281.543 588.287 280.684 573.742 279.294C561.023 278.076 553.648 276.179 550.456 273.3C546.544 269.776 545.12 262.939 546.961 256.602C549.196 248.915 555.195 245.104 567.415 243.599C579.701 242.095 598.65 244.605 600.827 248.032C601.179 248.58 601.473 250.82 601.473 253.004C601.49 256.937 601.465 256.97 599.239 256.389C574.635 250.011 557.291 252.268 557.291 261.852C557.291 267.273 560.908 268.639 580.913 270.765C595.989 272.36 601.473 276.113 602.145 285.288C602.807 294.48 598.265 300.425 588.279 303.442C583.229 304.972 569.846 306.067 565.066 305.348ZM195.603 303.925C194.94 303.123 194.735 294.439 194.891 273.464L195.103 244.123H218.84C241.545 244.123 242.716 244.196 245.851 245.873C250.09 248.146 251.662 249.945 253.193 254.287C255.484 260.764 254.232 266.243 249.288 271.37L246.669 274.085L248.953 275.753C256.638 281.379 256.229 296.066 248.249 300.989C243.059 304.195 236.691 304.988 215.869 305.012C200.481 305.037 196.339 304.816 195.603 303.925ZM241.267 292.877C244.942 288.641 243.812 281.412 239.213 279.662C238.075 279.229 230.176 278.877 221.647 278.877H206.153V287.104V295.322L222.867 295.077C239.303 294.831 239.605 294.791 241.267 292.877ZM240.596 266.799C244.606 262.318 243.526 256.095 238.369 253.944C235.938 252.922 232.468 252.717 220.944 252.897L206.562 253.118L206.325 261.549L206.096 269.98L222.155 269.727L238.214 269.473L240.596 266.799ZM265.29 304.522C264.496 304.186 264.267 297.268 264.267 273.848V243.599L287.39 243.861C310.193 244.123 310.57 244.147 314.523 246.167C320.834 249.381 322.724 252.954 323.076 262.252C323.338 269.293 323.191 270.16 321.194 273.562C320.007 275.598 318.034 277.863 316.815 278.607C315.603 279.351 313.794 280.455 312.804 281.052C311.02 282.124 311.077 282.246 317.903 292.869C321.701 298.773 324.615 303.925 324.369 304.326C323.682 305.429 313.86 305.184 312.428 304.023C311.732 303.459 308.491 298.495 305.217 292.983L299.266 282.966H287.521H275.775L275.546 293.801L275.317 304.636L270.815 304.792C268.343 304.882 265.855 304.759 265.29 304.522ZM308.204 271.853C313.557 267.895 313.565 258.384 308.22 255.13C305.88 253.699 304.03 253.535 290.664 253.527H275.726V263.798V274.069L290.811 273.815C304.603 273.586 306.092 273.415 308.204 271.853ZM329.927 304.358C329.141 303.859 331.237 298.446 338.39 282.492C343.621 270.839 349.015 258.9 350.39 255.98C351.757 253.061 353.557 249.087 354.392 247.157L355.906 243.649L362.913 243.886L369.919 244.123L374.445 254.345C376.925 259.971 379.823 266.406 380.871 268.655C384.98 277.438 387.042 282.066 387.042 282.492C387.042 282.966 393.672 297.366 395.669 301.234C396.332 302.51 396.668 303.892 396.414 304.301C395.882 305.151 387.877 305.315 385.806 304.522C385.053 304.236 383.203 301.292 381.697 297.98L378.947 291.961H362.553H346.15L344.603 295.028C343.752 296.712 342.778 299.01 342.442 300.139C341.312 303.917 339.635 305.045 335.149 305.029C332.849 305.029 330.508 304.718 329.927 304.358ZM374.765 282.557C374.765 280.922 363.265 255.162 362.536 255.162C362.217 255.162 360.375 258.752 358.436 263.135C356.496 267.519 353.844 273.447 352.559 276.309C351.265 279.172 350.21 282.025 350.21 282.647C350.21 283.563 352.559 283.784 362.487 283.784C372.849 283.784 374.765 283.596 374.765 282.557ZM405.131 304.317C404.19 303.704 403.936 298.699 403.772 276.71C403.658 261.933 403.756 248.465 403.985 246.78L404.411 243.714H408.708H413.013L421.1 252.464C425.553 257.28 429.743 261.786 430.423 262.481C431.102 263.185 434.016 266.325 436.913 269.473C447.513 281.003 454.159 287.823 454.241 287.243C454.29 286.916 454.258 276.988 454.168 265.18L454.012 243.714H459.815H465.618V273.881C465.618 307.343 466.028 305.045 460.077 305.045C456.689 305.045 456.124 304.514 430.578 277.021C422.336 268.148 415.313 260.887 414.978 260.887C414.642 260.887 414.388 270.732 414.413 282.761L414.462 304.636L410.37 304.849C408.119 304.963 405.761 304.726 405.131 304.317ZM478.092 304.366C477.282 303.851 477.102 297.211 477.274 273.913L477.487 244.123L498.768 244.156C518.895 244.188 520.302 244.286 524.698 246.028C530.755 248.432 535.388 253.233 537.81 259.611C539.398 263.798 539.685 266.03 539.627 273.971C539.57 282.295 539.3 284.013 537.286 288.903C533.587 297.898 527.923 301.93 515.907 304.137C510.251 305.176 479.656 305.356 478.092 304.366ZM520.229 292.779C524.788 290.08 527.579 284.937 528.299 277.896C529.118 269.931 528.144 264.109 525.287 259.791C521.702 254.377 518.51 253.527 501.894 253.527H488.536V274.445V295.371L502.656 295.093C515.997 294.84 516.963 294.709 520.229 292.779ZM493.038 203.628C468.565 199.874 452.661 186.651 448.111 166.273C446.989 161.26 446.793 153.753 446.793 115.548V70.6945L442.905 66.9573C435.678 59.9901 422.983 50.9376 412.211 45.0498C408.724 43.1445 405.868 41.2473 405.868 40.8384C405.868 40.4132 414.585 40.0943 426.314 40.0943H446.76L446.981 20.2638L447.202 0.433406L467.435 0.212617L487.661 0L489.126 2.22428C490.386 4.14599 490.615 6.82003 490.845 22.2673L491.107 40.0943H509.875H528.643V60.9142C528.643 81.6605 528.635 81.7423 526.801 82.789C525.508 83.5331 519.877 83.9257 507.943 84.1056L490.926 84.3754L491.164 119.678C491.426 158.954 491.401 158.758 497.016 162.577C501.24 165.447 504.35 166.06 517.389 166.6L529.462 167.091V185.261V203.423L525.664 203.939C520.605 204.634 498.187 204.421 493.038 203.628ZM556.202 203.914C555.424 203.137 555.604 104.95 556.415 91.2036C557.479 72.9514 561.236 63.0894 570.763 53.5217C576.706 47.5521 583.753 43.8886 592.895 42.0078C598.06 40.9447 604.641 40.6422 623.999 40.5849L648.554 40.5031L648.775 58.5591C648.979 75.5192 648.897 76.6967 647.416 78.0378C646.049 79.2726 643.299 79.5507 627.404 80.025C606.859 80.6383 605.861 80.9081 602.963 86.7551C600.205 92.3321 599.869 99.4629 599.861 152.33L599.853 204.462H578.302C566.441 204.462 556.497 204.217 556.202 203.914ZM332.612 203.121C316.659 201.387 297.424 194.06 286.866 185.703C278.427 179.014 270.201 169.021 265.912 160.238C264.504 157.351 262.99 154.334 262.556 153.532C262.122 152.731 260.813 148.683 259.659 144.537C256.507 133.293 256.016 115.613 258.513 103.347C259.503 98.4652 261.255 92.0786 262.401 89.1592C275.521 55.7542 311.224 34.6889 348.425 38.4097C383.293 41.8933 409.567 63.3347 419.119 96.1101C421.133 102.996 421.583 106.299 421.992 117.004C422.328 126.032 422.189 130.243 421.509 131.519L420.543 133.318H361.227H301.918V135.002C301.918 138.412 303.923 144.48 306.493 148.855C311.134 156.754 318.296 162.806 327.562 166.657C331.883 168.456 333.856 168.759 341.206 168.767C348.949 168.784 350.373 168.538 355.563 166.33C360.858 164.073 369.837 158.235 371.073 156.231C371.802 155.053 415.69 155.086 415.69 156.264C415.69 158.3 409.567 169.291 405.819 173.993C395.759 186.602 378.047 197.127 360.76 200.774C351.315 202.761 338.89 203.8 332.612 203.121ZM377.228 100.812C377.237 100.477 376.402 97.8192 375.387 94.9162C371.818 84.7189 361.783 76.7213 349.792 74.5052C334.928 71.7657 320.072 75.3229 311.724 83.6313C307.86 87.4747 303.555 95.6685 303.555 99.1767V101.425H340.388C360.645 101.425 377.22 101.147 377.228 100.812ZM728.767 202.802C704.826 200.512 681.49 187.126 668.476 168.236C659.89 155.749 655.339 143.711 653.776 129.343C648.832 83.7866 680.434 43.6433 725.722 37.9518C735.405 36.7333 737.099 36.7333 746.43 37.9272C765.861 40.4214 781.437 48.0673 795.147 61.8219C807.261 73.9818 814.022 86.7632 817.615 104.32C819.113 111.606 819.35 114.82 818.99 123.014C818.016 145.183 810.527 162.397 795.074 177.967C781.798 191.345 769.913 197.895 752.929 201.191C743.344 203.047 736.256 203.522 728.767 202.802ZM747.101 165.586C763.627 161.694 777.288 148.168 781.658 131.355C786.954 110.993 776.968 88.7831 757.996 78.7329C749.917 74.4561 743.811 73.2785 732.491 73.8183C724.642 74.1862 722.923 74.5542 717.66 76.9748C692.605 88.5132 682.26 116.276 694.021 140.424C703.631 160.148 725.722 170.623 747.101 165.586ZM0.242572 201.755C0.0133912 201.15 -0.06846 172.529 0.0625004 138.159L0.299867 75.6664L2.23153 69.705C6.29949 57.1525 12.2827 49.6701 22.2275 44.69C32.4916 39.5627 34.7506 39.2765 64.9615 39.2765C93.4536 39.2765 97.4397 39.6772 104.479 43.2753C109.316 45.7449 115.005 51.232 116.994 55.3453L118.835 59.1315L120.579 55.7051C123.46 50.0708 129.525 44.5592 135.639 42.016L141.082 39.7508L170.45 39.4646C198.648 39.1947 200.047 39.252 205.646 40.9529C212.898 43.1526 215.247 44.3302 220.747 48.5171C226.051 52.5568 231.396 59.9247 234.228 67.08C238.5 77.8906 238.934 85.7247 238.697 146.811L238.484 202.418L216.982 202.638C200.195 202.802 195.398 202.63 195.136 201.821C194.948 201.248 194.498 175.391 194.129 144.357C193.466 88.2025 193.458 87.9163 191.666 85.0378C190.675 83.4514 188.277 81.2434 186.345 80.1313C182.965 78.2014 182.245 78.1196 168.093 78.1196C153.614 78.1196 153.294 78.1605 149.677 80.2948C146.345 82.2656 144.782 84.31 142.613 89.5681C142.236 90.4676 141.745 116.227 141.508 146.811L141.082 202.418L119.899 202.638C105.322 202.786 98.381 202.573 97.628 201.951C96.744 201.215 96.4902 190.601 96.2938 145.715C96.0237 85.0541 96.1629 86.7551 91.039 82.0939C87.2084 78.6021 82.9359 77.7107 70.1263 77.7189C54.5748 77.7189 49.9584 79.3626 46.3242 86.1581C44.499 89.5681 44.499 89.5926 44.0897 145.993L43.6805 202.418L22.1784 202.638C4.76071 202.81 0.586343 202.647 0.242572 201.755Z" fill="white" fill-opacity="0.7"/>
</svg>
