<svg width="1702" height="253" viewBox="0 0 1702 253" fill="none" xmlns="http://www.w3.org/2000/svg">
<path d="M106.657 251.741C103.507 251.168 100.038 250.415 98.9414 250.079C96.5768 249.342 93.9748 247.246 93.9748 246.067C93.9748 245.6 92.952 244.028 91.7002 242.563C89.7282 240.254 88.91 239.902 85.5635 239.902C83.4361 239.902 81.7015 239.533 81.7015 239.083C81.7015 238.633 79.6805 238.264 77.2012 238.264C74.722 238.264 72.701 238.633 72.701 239.083C72.701 240.475 67.7589 239.984 65.4597 238.371C64.2651 237.528 62.3996 236.561 61.3113 236.226C60.2149 235.882 58.5867 234.916 57.6784 234.072C56.7702 233.221 55.551 232.533 54.9783 232.533C53.0964 232.533 51.2145 227.662 51.7627 224.223C52.0409 222.487 51.9427 221.071 51.5499 221.071C51.1572 221.071 49.5862 219.949 48.0643 218.582C46.5342 217.214 43.7277 215.151 41.8131 213.997C39.8984 212.85 38.3356 211.565 38.3356 211.139C38.3356 210.681 37.6974 210.705 36.7728 211.205C33.4181 213.006 25.2686 207.242 21.2184 200.201C19.181 196.656 18.5919 191.497 20.1711 190.965C20.8747 190.736 21.1529 187.281 21.1529 178.717V166.796L15.4826 167.328C9.59143 167.876 7.24313 166.951 7.24313 164.102C7.24313 163.447 6.90766 162.276 6.49037 161.498C4.4939 157.699 3.15201 153.892 3.15201 152.017C3.15201 150.871 2.78381 149.708 2.33379 149.43C0.54188 148.325 1.61375 145.95 4.5839 144.444C9.90236 141.734 10.7533 139.458 8.47047 133.997C7.79952 132.384 7.24313 129.764 7.24313 128.175C7.24313 125.252 5.23848 122.002 3.43839 122.002C1.18009 122.002 -1.2173 113.773 0.697343 112.586C1.14737 112.308 1.51557 109.68 1.51557 106.74C1.51557 101.934 1.75285 101.173 3.90478 99.0114C5.51668 97.4066 7.12858 96.6206 8.81412 96.6206C11.1379 96.6206 11.3342 96.3996 11.3342 93.8205C11.3342 92.2813 11.7761 90.8812 12.3243 90.6929C12.9298 90.4964 13.4371 88.0811 13.6416 84.454C13.9198 79.6234 13.7153 78.2397 12.5289 76.9297C11.1379 75.3986 11.1461 75.2021 12.6352 72.2628C13.4944 70.5762 14.4762 69.0697 14.8117 68.9223C15.1472 68.7668 15.4254 68.1773 15.4254 67.6123C15.4254 66.1058 17.5609 62.0694 19.3937 60.0962C20.2692 59.1546 21.1202 57.6891 21.2838 56.8294C21.5293 55.5603 22.3639 55.2492 25.8086 55.1591C28.8606 55.0691 30.5461 54.5614 31.888 53.3169C32.9026 52.3672 34.0318 51.5894 34.4 51.5894C34.76 51.5894 35.0627 51.18 35.0627 50.6806C35.0627 50.1893 35.9873 49.0513 37.1083 48.167C38.9657 46.7096 39.1538 45.9891 39.1538 40.4135V34.2728L44.5705 29.0083C47.5488 26.1181 50.3144 23.7519 50.7153 23.7519C51.4026 23.7519 52.0081 23.4817 56.402 21.2465C57.7766 20.5424 58.3903 20.7061 59.5685 22.0653C60.6486 23.3179 62.015 23.7519 64.8215 23.7519C66.908 23.7519 68.6099 23.3834 68.6099 22.9331C68.6099 22.4828 69.8945 22.1144 71.4737 22.1144C75.3439 22.1144 75.0739 23.0396 70.6554 24.8572C68.6263 25.6923 66.9734 26.6994 66.9734 27.1088C66.9734 27.51 66.4171 27.8456 65.7461 27.8456C65.0752 27.8456 64.5188 28.2141 64.5188 28.6726C64.5188 29.9089 61.3032 27.6737 60.7959 26.0771C60.1495 24.0466 57.9812 23.5554 55.8374 24.9636C54.7983 25.6432 53.3746 26.2081 52.6873 26.2081C51.9918 26.2081 51.4272 26.5766 51.4272 27.0269C51.4272 27.4772 51.0263 27.8456 50.5435 27.8456C50.0608 27.8456 48.2198 29.303 46.4524 31.0879C44.1368 33.4295 43.245 35.0261 43.245 36.8191C43.245 38.1865 43.6132 39.3081 44.0632 39.3081C44.5132 39.3081 44.8814 40.2251 44.8814 41.355C44.8814 42.4849 44.5132 43.4019 44.0632 43.4019C43.6132 43.4019 43.245 43.9177 43.245 44.54C43.245 45.1704 42.6968 45.8991 42.0176 46.1529C41.3467 46.4149 40.7903 47.1927 40.7903 47.8805C40.7903 48.5682 40.4221 49.1331 39.9721 49.1331C39.522 49.1331 39.1538 49.4852 39.1538 49.9191C39.1538 50.3449 37.1328 52.7766 34.6536 55.3065C30.3498 59.7196 30.0143 59.8997 26.995 59.3839C23.8122 58.8517 23.5585 58.9745 20.5393 62.577C19.9747 63.2484 19.5165 64.4765 19.5165 65.3116C19.5165 66.1386 19.091 67.2439 18.5755 67.7597C17.2582 69.0779 17.1927 76.332 18.4937 76.7659C19.7047 77.1671 19.852 81.3018 18.731 83.3241C18.2973 84.1101 17.2909 87.0494 16.5054 89.866C15.7117 92.6824 14.6808 94.9913 14.2226 94.9995C13.7562 94.9995 13.928 95.368 14.6071 95.8019C15.4254 96.3341 15.4908 96.5961 14.8117 96.6043C14.2471 96.6124 13.7889 97.5376 13.7889 98.6675C13.7889 100.461 13.4371 100.714 10.9251 100.714C9.35415 100.714 8.06135 101.083 8.06135 101.533C8.06135 101.983 7.51314 102.352 6.83402 102.352C5.8276 102.352 5.60668 103.752 5.60668 110.04C5.60668 117.45 5.68033 117.744 7.54588 118.219C10.1887 118.882 11.1297 121.764 11.7679 131.213C12.0625 135.601 12.6352 139.4 13.0443 139.654C15.2454 141.013 12.3161 147.383 9.49325 147.383C8.12681 147.383 7.10403 150.159 7.79952 151.968C8.56865 153.982 10.4751 153.221 14.1571 149.43C16.1209 147.4 17.9209 145.746 18.1582 145.746C18.3873 145.746 21.8157 142.618 25.7759 138.786C29.7279 134.955 33.4345 131.827 34.0154 131.827C34.5882 131.827 35.0627 131.36 35.0627 130.795C35.0627 130.222 36.0446 129.027 37.2392 128.134C38.4338 127.234 43.6132 122.362 48.7434 117.294C53.8819 112.226 58.603 108.083 59.2494 108.083C59.8958 108.083 60.3377 107.657 60.2231 107.133C59.8794 105.561 63.9788 103.678 66.4171 104.292C68.6017 104.841 68.6099 104.865 68.6099 112.603C68.6099 119.906 68.7081 120.364 70.3036 120.364C71.2364 120.364 72.5128 119.906 73.1428 119.341C75.8512 116.909 76.7758 116.271 77.5776 116.271C78.044 116.271 78.4368 115.812 78.4531 115.247C78.4613 114.682 79.7459 113.307 81.2924 112.177C82.8388 111.047 84.1234 109.672 84.1316 109.107C84.148 108.542 84.6143 108.075 85.1789 108.067C85.7435 108.059 87.3063 106.765 88.6482 105.201C92.4857 100.739 93.7048 101.328 94.3758 107.977C94.6867 111.063 94.8503 114.846 94.7521 116.369C94.2612 123.639 98.4096 123.82 100.463 116.606C100.971 114.846 101.584 105.668 101.83 96.2113C102.263 79.6561 102.738 76.4712 105.168 73.9003C105.7 73.3354 106.944 72.8769 107.942 72.8769C111.387 72.8769 111.918 74.891 111.951 88.0238C111.984 100.248 112.925 109.36 114.291 110.728C114.692 111.129 115.944 111.219 117.081 110.932C119.495 110.318 119.994 108.378 120.616 97.03C121.197 86.3126 121.565 84.7242 123.652 83.7581C129.06 81.2445 130.852 80.9498 140.368 81.048C152.723 81.1626 152.887 81.179 152.887 82.0223C152.887 82.3908 153.803 82.7019 154.932 82.7019C156.062 82.7019 156.978 83.0376 156.978 83.447C156.978 83.8563 158.492 84.454 160.333 84.7651C162.796 85.1745 164.604 84.9289 167.083 83.8236C171.493 81.8668 172.524 80.8188 172.524 78.2561C172.524 77.1016 172.852 76.1519 173.244 76.1519C173.645 76.1519 174.226 74.1214 174.537 71.6488C174.84 69.1679 175.437 67.1456 175.854 67.1456C176.272 67.1456 176.615 66.5889 176.615 65.9175C176.615 65.2461 176.984 64.6894 177.434 64.6894C177.884 64.6894 178.252 64.0016 178.252 63.1501C178.252 62.3068 178.808 61.1524 179.479 60.5956C180.15 60.0389 180.707 59.212 180.707 58.7698C180.707 57.4271 189.429 49.1331 190.844 49.1331C191.573 49.1331 192.162 48.7647 192.162 48.3144C192.162 47.8641 192.718 47.4956 193.389 47.4956C194.06 47.4956 194.616 47.1272 194.616 46.6769C194.616 46.2266 194.895 45.9318 195.23 46.0137C196.515 46.3412 201.53 44.7938 202.578 43.7376C203.494 42.8206 203.118 42.0919 200.221 39.2836C198.323 37.4414 196.416 35.8612 195.991 35.7793C195.557 35.6893 194.076 34.5512 192.693 33.233C190.402 31.047 190.206 30.4493 190.378 26.0689C190.558 21.6559 190.402 21.2056 188.504 20.3377C187.367 19.8219 186.434 19.085 186.434 18.7084C186.434 18.3318 185.698 18.0206 184.798 18.0206C183.898 18.0206 183.161 17.6931 183.161 17.3001C183.161 16.0884 179.046 15.7036 177.998 16.8089C177.466 17.3738 176.329 18.7984 175.478 19.9774C174.022 21.9916 171.354 22.8513 170.749 21.5003C170.323 20.5424 164.473 18.0206 162.681 18.0206C161.789 18.0206 161.069 17.6522 161.069 17.2019C161.069 16.7516 160.243 16.3586 159.228 16.334C157.404 16.2931 149.319 13.2391 150.792 13.1573C151.218 13.1327 150.94 12.6496 150.179 12.0847C149.418 11.5198 148.722 10.046 148.616 8.8097C148.501 7.37689 147.969 6.55814 147.143 6.55814C146.431 6.55814 145.482 6.1897 145.04 5.74757C144.59 5.29726 142.487 4.69958 140.36 4.40483C137.275 3.97908 136.162 4.17557 134.87 5.34638C133.978 6.14876 133.25 7.42601 133.25 8.18745C133.25 8.9407 132.325 10.0542 131.188 10.6601C129.24 11.6999 127.129 11.8964 114.586 12.1748C111.378 12.2484 109.619 12.6005 109.93 13.1081C110.225 13.5912 109.325 13.9269 107.721 13.9269C104.808 13.9269 102.943 12.011 102.133 8.19564C101.715 6.23064 101.478 6.15695 96.4049 6.40257C93.4921 6.53357 90.9883 7.00026 90.841 7.42601C90.6856 7.84357 89.3437 8.19564 87.8545 8.19564C84.7698 8.19564 84.1561 9.17814 84.1561 14.107C84.1561 17.4639 82.6179 19.5763 80.1305 19.6336C79.4923 19.6499 78.314 20.2476 77.5203 20.9681C76.7267 21.6886 75.7039 22.0407 75.2375 21.7541C74.0674 21.0336 76.7839 18.0206 78.6086 18.0206C79.8196 18.0206 80.065 17.2919 80.065 13.6976C80.065 8.44945 81.7833 6.55814 86.529 6.55814C88.5991 6.55814 89.8755 6.13239 90.1783 5.33001C90.5056 4.4867 91.8147 4.10189 94.3594 4.10189C96.3968 4.10189 98.0659 3.73345 98.0659 3.28314C98.0659 1.3427 101.895 2.62814 104.145 5.33001L106.535 8.19564H116.206C121.533 8.19564 125.886 7.86814 125.886 7.47514C125.886 7.07395 126.622 6.55814 127.522 6.3207C128.422 6.08326 129.158 5.2072 129.158 4.3557C129.158 3.51238 130.23 2.18601 131.531 1.41639C134.551 -0.368489 142.905 -0.499489 145.163 1.2117C146.038 1.87489 148.035 2.43163 149.614 2.4562C152.167 2.50532 152.65 2.88195 154.057 5.96863C155.98 10.1688 158.23 12.2894 160.783 12.2894C161.838 12.2894 162.706 12.6578 162.706 13.1081C162.706 13.5584 163.622 13.9269 164.751 13.9269C165.88 13.9269 166.797 14.2953 166.797 14.7456C166.797 15.1959 168.081 15.5644 169.66 15.5644C171.862 15.5644 172.524 15.2287 172.524 14.107C172.524 13.2964 173.613 12.0028 174.946 11.2086C177.164 9.89864 177.614 9.89045 180.363 11.0367C182.016 11.7244 184.053 12.2894 184.896 12.2894C185.739 12.2894 186.434 12.6578 186.434 13.1081C186.434 13.5584 187.105 13.9269 187.931 13.9269C188.75 13.9269 190.288 14.8439 191.343 15.9738C192.399 17.0954 193.782 18.0206 194.412 18.0206C196.719 18.0206 198.282 20.6898 198.364 24.7671C198.437 28.7135 198.56 28.9018 206.554 36.9338C211.014 41.4287 215.489 45.3096 216.504 45.5634C217.518 45.8254 218.345 46.3658 218.345 46.7669C218.345 47.1681 219.629 47.4956 221.209 47.4956C222.788 47.4956 224.072 47.8641 224.072 48.3144C224.072 48.7647 224.727 49.1331 225.529 49.1331C227.632 49.1331 229.8 52.0397 229.8 54.8726C229.8 56.7475 229.432 57.3206 228.213 57.3206C227.337 57.3206 226.412 57.6645 226.151 58.0903C225.529 59.0973 220.857 61.4144 219.449 61.4144C218.844 61.4144 218.345 61.7828 218.345 62.2331C218.345 62.6834 217.788 63.0519 217.117 63.0519C216.447 63.0519 215.89 63.3385 215.89 63.6823C215.89 64.0344 214.605 65.0087 213.026 65.8602C210.465 67.2439 210.163 67.7515 210.187 70.7563C210.203 72.5985 210.752 74.8173 211.414 75.6934C212.077 76.5695 212.617 77.9695 212.617 78.8046C212.617 81.179 216.299 84.3394 219.081 84.3394C220.423 84.3394 221.749 83.9709 222.027 83.5206C222.305 83.0703 223.246 82.7019 224.121 82.7019C224.997 82.7019 225.709 82.3335 225.709 81.8831C225.709 81.4328 226.453 81.0644 227.37 81.0644C228.286 81.0644 229.244 80.5076 229.505 79.8363C229.759 79.1649 230.855 78.6081 231.935 78.6081C233.007 78.6081 233.891 78.2397 233.891 77.7894C233.891 77.3391 234.627 76.9706 235.527 76.9706C236.428 76.9706 237.164 76.6022 237.164 76.1519C237.164 74.9729 240.592 75.1939 242.278 76.4712C243.456 77.3636 243.71 78.8701 243.71 84.8388L243.718 92.1175L247.392 95.6299C250.444 98.5447 251.082 99.6746 251.098 102.18C251.115 103.85 251.663 105.93 252.326 106.806C252.988 107.682 253.528 109.786 253.528 111.481C253.528 114.478 252.8 115.558 248.161 119.456C247.114 120.34 246.884 121.584 247.154 124.917C247.457 128.503 247.981 129.69 250.321 131.958C252.849 134.431 253.136 135.184 253.332 139.834C253.471 143.191 253.111 145.811 252.309 147.367C251.63 148.685 251.074 150.855 251.074 152.197C251.074 154.113 250.526 154.907 248.496 155.923C247.073 156.627 245.502 157.208 244.994 157.208C243.358 157.208 241.255 160.434 241.255 162.948C241.255 164.299 240.887 165.396 240.437 165.396C239.987 165.396 239.619 166.657 239.619 168.196C239.619 169.735 239.201 171.127 238.702 171.299C236.959 171.88 237.467 178.013 239.43 180.125C241.394 182.229 241.746 183.826 240.437 184.636C239.987 184.915 239.61 185.766 239.594 186.528C239.578 187.289 238.293 189.18 236.73 190.736C235.167 192.292 233.891 194.085 233.891 194.715C233.891 195.346 232.754 197.294 231.371 199.054C229.162 201.838 228.417 202.239 225.439 202.248C221.52 202.248 219.384 203.525 214 209.043C210.416 212.719 210.163 213.26 210.163 217.288C210.163 221.546 210.097 221.652 204.73 226.671C201.735 229.463 198.331 231.968 197.161 232.247C195.983 232.533 194.543 233.139 193.954 233.606C193.356 234.072 190.812 234.4 188.283 234.334C185.755 234.269 183.284 234.547 182.785 234.957C182.294 235.366 180.985 235.849 179.872 236.029C175.454 236.733 170.888 239.656 170.888 241.777C170.888 243.48 166.985 247.123 163.589 248.597C161.977 249.293 160.022 250.202 159.236 250.611C157.281 251.651 145.785 251.561 143.796 250.497C142.905 250.022 141.833 248.728 141.415 247.631C140.744 245.879 140.147 245.633 136.514 245.633C134.24 245.633 131.057 246.19 129.445 246.861C127.825 247.533 125.485 248.089 124.233 248.089C122.948 248.089 121.762 248.638 121.483 249.358C120.935 250.791 116.05 253.051 113.841 252.895C113.039 252.838 109.807 252.322 106.657 251.741ZM35.881 205.924C36.4373 205.252 37.771 204.696 38.8429 204.696C39.9148 204.696 40.7903 204.327 40.7903 203.877C40.7903 203.427 41.2894 203.058 41.8949 203.058C42.5004 203.058 43.7441 202.411 44.6687 201.625C48.8907 198.006 51.0426 196.508 52.0163 196.508C52.5891 196.508 53.0636 196.222 53.0636 195.861C53.0636 195.509 55.0847 194.134 57.5639 192.791C60.0349 191.456 62.0559 190.089 62.0641 189.753C62.0641 189.418 62.4159 189.139 62.8578 189.139C63.2914 189.139 64.7397 188.067 66.0816 186.749C67.4317 185.439 69.3545 184.104 70.3691 183.777C71.3837 183.457 72.6765 182.778 73.2492 182.278C75.9248 179.904 76.784 179.314 77.5776 179.314C78.044 179.314 78.4286 178.758 78.4286 178.086C78.4286 177.415 78.985 176.858 79.6559 176.858C80.3269 176.858 80.8832 176.49 80.8832 176.039C80.8832 175.589 81.4887 175.221 82.2251 175.221C82.9533 175.221 84.4098 174.304 85.4571 173.174C86.4963 172.044 87.92 171.127 88.6155 171.127C89.3109 171.127 89.8837 170.758 89.8837 170.308C89.8837 169.858 90.4401 169.489 91.111 169.489C91.782 169.489 92.3384 168.933 92.3384 168.261C92.3384 167.574 93.0666 167.033 94.0075 167.033C94.9321 167.033 96.675 166.116 97.8859 164.986C99.1051 163.856 100.562 162.939 101.126 162.939C101.691 162.939 102.157 162.571 102.157 162.121C102.157 161.67 102.713 161.302 103.384 161.302C104.055 161.302 104.612 160.933 104.612 160.483C104.612 160.033 105.348 159.664 106.248 159.664C107.148 159.664 107.885 159.304 107.885 158.862C107.885 158.42 108.801 157.83 109.93 157.544C111.059 157.265 111.976 156.701 111.976 156.299C111.976 155.898 112.843 155.571 113.899 155.571C114.954 155.571 117.024 154.965 118.497 154.236C120.6 153.18 122.678 152.992 128.209 153.335C132.21 153.581 135.369 154.162 135.541 154.67C135.704 155.169 136.547 155.571 137.406 155.571C138.273 155.571 138.977 155.898 138.977 156.299C138.977 156.701 139.894 157.265 141.023 157.544C142.152 157.83 143.068 158.42 143.068 158.862C143.068 159.304 144.279 159.664 145.752 159.664C147.896 159.664 148.747 159.149 149.941 157.126C152.003 153.63 164.137 141.652 165.618 141.652C166.944 141.652 169.808 140.162 171.526 138.582C172.14 138.017 173.539 137.558 174.627 137.558C175.724 137.558 176.615 137.19 176.615 136.739C176.615 136.248 179.749 135.921 184.389 135.921C188.668 135.921 192.162 136.248 192.162 136.649C192.162 137.673 199.125 138.598 202.029 137.959C203.363 137.665 204.239 137.083 203.985 136.674C203.731 136.256 204.091 135.921 204.795 135.921C205.499 135.921 206.071 135.634 206.071 135.282C206.071 134.922 207.266 133.931 208.731 133.071C210.195 132.212 212.437 130.476 213.705 129.207C214.982 127.938 216.365 127.111 216.774 127.365C217.191 127.619 217.527 127.512 217.527 127.127C217.527 126.734 219.392 125.752 221.667 124.925C226.134 123.32 232.795 123.5 233.875 125.252C234.21 125.793 235.544 126.104 236.845 125.956C239.185 125.686 239.209 125.621 239.447 119.75C239.586 116.484 239.954 113.814 240.265 113.814C240.584 113.814 241.861 112.938 243.096 111.874C245.804 109.549 246.099 105.365 243.759 102.557C241.28 99.5927 238.555 100.207 233.809 104.808C231.494 107.06 229.088 108.902 228.466 108.902C227.853 108.902 227.345 109.27 227.345 109.721C227.345 110.171 226.781 110.539 226.085 110.539C225.39 110.539 224.048 111.26 223.099 112.144C222.15 113.028 219.777 113.995 217.813 114.281C215.857 114.576 214.254 115.149 214.254 115.542C214.254 115.943 211.488 116.271 208.117 116.271C204.574 116.271 201.98 115.927 201.98 115.452C201.98 115.002 201.26 114.633 200.368 114.633C198.577 114.633 192.726 112.111 192.301 111.153C192.145 110.818 191.393 110.539 190.623 110.539C189.846 110.539 188.815 110.138 188.324 109.647C187.678 109 186.966 109 185.755 109.647C184.839 110.138 183.497 110.539 182.768 110.539C182.048 110.539 180.649 111.293 179.667 112.21C178.677 113.127 177.041 114.085 176.018 114.347C174.995 114.6 174.161 115.141 174.161 115.542C174.161 115.943 173.424 116.271 172.524 116.271C171.624 116.271 170.888 116.598 170.888 116.999C170.888 117.401 169.971 117.965 168.842 118.244C167.713 118.53 166.797 119.12 166.797 119.562C166.797 120.004 165.88 120.364 164.751 120.364C163.622 120.364 162.706 120.692 162.706 121.085C162.706 121.486 162.059 122.026 161.274 122.288C160.488 122.559 159.285 123.099 158.614 123.492C155.522 125.293 153.631 126.096 152.486 126.096C151.807 126.096 151.25 126.456 151.25 126.898C151.25 127.34 150.334 127.93 149.205 128.216C148.076 128.495 147.159 129.059 147.159 129.461C147.159 129.862 146.603 130.189 145.932 130.189C145.261 130.189 144.705 130.558 144.705 131.008C144.705 131.458 143.993 131.827 143.126 131.827C142.258 131.827 140.998 132.384 140.319 133.055C139.648 133.726 138.331 134.283 137.398 134.283C136.465 134.283 135.704 134.652 135.704 135.102C135.704 135.552 135.148 135.921 134.477 135.921C133.806 135.921 133.25 136.281 133.25 136.723C133.25 137.165 132.333 137.755 131.204 138.041C130.075 138.32 129.158 138.885 129.158 139.286C129.158 139.687 128.422 140.014 127.522 140.014C126.622 140.014 125.886 140.293 125.886 140.628C125.877 140.964 124.225 141.922 122.204 142.757C120.174 143.592 118.522 144.599 118.522 145.009C118.522 145.41 117.621 145.746 116.525 145.746C115.429 145.746 114.308 146.106 114.038 146.54C113.768 146.982 112.27 147.94 110.716 148.685C109.161 149.422 107.885 150.355 107.885 150.748C107.885 151.149 106.968 151.477 105.839 151.477C104.71 151.477 103.794 151.837 103.794 152.279C103.794 152.721 102.877 153.311 101.748 153.597C100.619 153.876 99.7024 154.367 99.7024 154.67C99.7024 154.981 98.0414 155.923 96.0204 156.758C93.9994 157.593 92.3384 158.584 92.3384 158.968C92.3384 159.353 91.5774 159.664 90.6528 159.664C89.7282 159.664 89.1964 160.033 89.4746 160.483C89.7528 160.933 89.4009 161.302 88.6891 161.302C87.9772 161.302 85.9399 162.219 84.1561 163.349C82.3724 164.479 80.3841 165.396 79.7377 165.396C79.0913 165.396 78.4449 165.707 78.2895 166.092C78.0113 166.82 72.7174 170.071 67.7917 172.551C66.2125 173.346 64.8052 174.271 64.6579 174.607C64.5024 174.942 63.8887 175.221 63.2914 175.221C61.8841 175.221 57.1629 177.898 57.1629 178.7C57.1548 179.036 56.5984 179.314 55.9274 179.314C55.2565 179.314 54.7001 179.683 54.7001 180.133C54.7001 180.583 54.1764 180.952 53.5382 180.952C52.0818 180.952 47.3443 183.605 47.3443 184.432C47.3361 184.767 46.5833 185.046 45.6669 185.046C44.7505 185.046 43.1795 185.807 42.1895 186.74C41.1912 187.674 39.3666 188.64 38.1311 188.886C36.8955 189.139 35.881 189.663 35.881 190.065C35.881 190.458 33.4917 191.907 30.5625 193.29C23.6321 196.574 23.3949 197.908 28.7788 203.525C32.4035 207.307 34.2281 207.922 35.881 205.924ZM748.987 181.951C745.428 179.888 744.463 178.815 744.463 176.915C744.463 175.458 744.97 175.221 748.095 175.221C750.092 175.221 751.957 175.589 752.236 176.039C752.514 176.49 754.379 176.858 756.376 176.858C758.372 176.858 760.009 176.49 760.009 176.039C760.009 175.589 760.557 175.221 761.236 175.221C761.915 175.221 762.463 174.492 762.463 173.583C762.463 171.856 761.277 171.381 760.418 172.764C760.14 173.215 757.939 173.583 755.525 173.583C751.581 173.583 750.812 173.272 747.801 170.464C745.862 168.646 744.463 166.599 744.463 165.551C744.463 164.569 744.094 163.758 743.644 163.758C743.194 163.758 742.826 162.489 742.826 160.942C742.826 159.394 743.194 157.896 743.644 157.618C744.094 157.339 744.463 156.209 744.463 155.112C744.463 154.015 744.806 153.114 745.223 153.114C745.649 153.114 746.197 152.459 746.451 151.665C747.261 149.111 752.072 147.129 756.057 147.719C760.672 148.407 762.333 148.415 765.401 147.768C770.065 146.785 770.646 148.333 770.646 161.711C770.646 171.07 770.392 173.714 769.418 174.697C768.739 175.368 768.191 176.531 768.191 177.268C768.191 178.733 766.317 180.952 765.074 180.952C764.648 180.952 763.838 181.509 763.282 182.18C761.801 183.965 752.187 183.809 748.987 181.951ZM760.819 165.625C762.022 164.593 762.463 163.21 762.463 160.483C762.463 156.062 760.549 153.933 756.589 153.933C752.653 153.933 751.008 155.923 751.008 160.688C751.008 164.045 751.286 164.806 752.645 165.158C753.545 165.396 754.281 165.911 754.281 166.313C754.281 167.59 759.117 167.082 760.819 165.625ZM874.29 182.86C873.333 181.91 873.701 179.552 874.969 178.496C875.648 177.939 876.196 176.604 876.196 175.532C876.196 174.459 876.565 173.583 877.015 173.583C877.465 173.583 877.833 172.478 877.833 171.127C877.833 169.776 877.465 168.671 877.015 168.671C876.565 168.671 876.196 167.95 876.196 167.074C876.196 166.198 875.28 163.75 874.151 161.629C873.022 159.517 872.105 157.282 872.105 156.676C872.105 156.07 871.737 155.571 871.287 155.571C870.837 155.571 870.469 154.539 870.469 153.278C870.469 152.017 870.011 150.527 869.454 149.97C868.644 149.16 868.685 148.791 869.659 148.177C872.212 146.564 876.196 147.571 876.196 149.823C876.196 150.625 876.745 151.739 877.424 152.296C878.103 152.852 878.651 154.187 878.651 155.26C878.651 156.332 879.019 157.208 879.469 157.208C879.919 157.208 880.288 158.125 880.288 159.255C880.288 162.162 882.628 161.875 883.683 158.846C884.158 157.495 884.87 156.389 885.279 156.389C885.68 156.389 886.015 155.849 886.015 155.186C886.015 152.738 888.838 148.136 890.622 147.694C893.224 147.039 896.259 148.104 895.097 149.266C894.607 149.758 894.197 151.01 894.197 152.05C894.197 153.082 893.87 153.933 893.469 153.933C893.068 153.933 892.504 155.219 892.209 156.799C891.906 158.379 891.407 159.664 891.088 159.673C890.311 159.681 888.47 163.75 888.47 165.469C888.47 166.231 887.922 167.074 887.242 167.328C886.563 167.59 886.015 168.548 886.015 169.465C886.015 170.382 885.647 171.127 885.197 171.127C884.747 171.127 884.379 172.044 884.379 173.174C884.379 174.304 884.01 175.221 883.56 175.221C883.11 175.221 882.742 175.655 882.742 176.179C882.742 176.711 882.096 178.545 881.31 180.256C880.108 182.868 879.469 183.367 877.358 183.384C875.967 183.4 874.585 183.163 874.29 182.86ZM1179.37 181.951C1175.81 179.888 1174.85 178.815 1174.85 176.915C1174.85 175.458 1175.36 175.221 1178.48 175.221C1180.48 175.221 1182.34 175.589 1182.62 176.039C1182.9 176.49 1184.77 176.858 1186.76 176.858C1188.76 176.858 1190.39 176.49 1190.39 176.039C1190.39 175.589 1190.94 175.221 1191.62 175.221C1192.33 175.221 1192.85 174.484 1192.85 173.485C1192.85 172.052 1192.53 171.864 1191.01 172.363C1189.99 172.699 1187.51 173.133 1185.48 173.329C1182.1 173.665 1181.52 173.428 1178.33 170.423C1176.39 168.613 1174.85 166.403 1174.85 165.461C1174.85 164.528 1174.48 163.758 1174.03 163.758C1173.58 163.758 1173.21 162.489 1173.21 160.942C1173.21 159.394 1173.58 157.896 1174.03 157.618C1174.48 157.339 1174.85 156.209 1174.85 155.112C1174.85 154.015 1175.19 153.114 1175.61 153.114C1176.03 153.114 1176.58 152.459 1176.84 151.665C1177.65 149.111 1182.46 147.129 1186.44 147.719C1191.06 148.407 1192.72 148.415 1195.79 147.768C1200.45 146.785 1201.03 148.333 1201.03 161.711C1201.03 171.07 1200.78 173.714 1199.8 174.697C1199.12 175.368 1198.58 176.531 1198.58 177.268C1198.58 178.946 1197.01 180.559 1194.65 181.312C1193.66 181.623 1192.85 182.221 1192.85 182.647C1192.85 184.039 1182 183.482 1179.37 181.951ZM1191.2 165.625C1192.41 164.593 1192.85 163.21 1192.85 160.483C1192.85 156.119 1190.94 153.933 1187.12 153.933C1183.12 153.933 1181.39 156.078 1181.39 161.073C1181.39 164.888 1181.59 165.396 1183.08 165.396C1184 165.396 1184.54 165.764 1184.26 166.214C1183.38 167.639 1189.45 167.115 1191.2 165.625ZM286.503 172.216C286.208 171.463 286.593 169.776 287.346 168.466C288.098 167.156 288.712 165.371 288.712 164.511C288.712 163.644 289.08 162.939 289.53 162.939C289.98 162.939 290.348 161.883 290.348 160.581C290.348 159.288 290.905 157.765 291.576 157.208C292.247 156.651 292.803 155.333 292.803 154.293C292.803 153.245 293.171 152.165 293.621 151.886C294.071 151.608 294.44 150.478 294.44 149.381C294.44 148.284 294.808 147.383 295.258 147.383C295.708 147.383 296.076 146.491 296.076 145.394C296.076 144.305 296.632 142.855 297.303 142.176C297.974 141.505 298.531 140.637 298.531 140.252C298.531 139.63 301.264 139.474 305.281 139.875C306.124 139.957 306.713 140.694 306.713 141.652C306.713 142.553 307.081 143.289 307.531 143.289C307.981 143.289 308.349 143.936 308.349 144.722C308.349 146.327 310.951 153.54 311.86 154.441C312.179 154.76 312.44 155.882 312.44 156.938C312.44 157.986 312.809 158.846 313.259 158.846C313.709 158.846 314.077 159.697 314.077 160.737C314.077 161.777 314.617 163.341 315.28 164.217C315.942 165.093 316.491 166.632 316.507 167.647C316.523 168.662 316.9 169.489 317.35 169.489C317.8 169.489 318.168 170.406 318.168 171.536C318.168 173.272 317.792 173.583 315.656 173.583C312.277 173.583 309.986 172.24 309.986 170.243C309.986 169.342 309.299 167.86 308.456 166.959C307.171 165.584 306.075 165.355 301.705 165.559L296.485 165.805L294.505 169.694C292.738 173.174 292.239 173.583 289.776 173.583C287.959 173.583 286.846 173.116 286.503 172.216ZM305.895 158.273C305.895 157.691 305.526 157.208 305.076 157.208C304.626 157.208 304.258 156.185 304.258 154.932C304.258 153.671 303.53 152.034 302.622 151.256C301.051 149.913 300.985 149.938 300.985 151.714C300.985 152.73 300.396 154.408 299.684 155.423C297.688 158.273 298.752 159.763 302.605 159.542C304.667 159.419 305.895 158.944 305.895 158.273ZM342.338 172.077C339.049 170.234 338.403 169.588 335.891 165.6C334.001 162.612 333.714 161.286 333.714 155.587C333.714 151.755 334.058 149.021 334.533 149.021C334.983 149.021 335.351 148.456 335.351 147.768C335.351 147.08 335.907 146.302 336.578 146.04C337.249 145.787 337.805 145.213 337.805 144.78C337.805 143.715 339.925 141.652 341.021 141.652C341.504 141.652 341.897 141.365 341.897 141.021C341.897 140.268 349.621 138.377 352.713 138.377C353.908 138.377 355.119 138.745 355.397 139.196C355.675 139.646 356.911 140.014 358.138 140.014C360.937 140.014 365.928 144.034 365.257 145.746C364.684 147.211 359.897 150.101 359.897 148.98C359.897 148.554 359.341 148.202 358.67 148.202C357.999 148.202 357.443 147.645 357.443 146.974C357.443 146.008 356.305 145.746 352.092 145.746C346.88 145.746 346.659 145.836 343.5 149.152C340.874 151.911 340.26 153.164 340.26 155.718C340.26 160.115 343.607 165.396 346.397 165.396C347.068 165.396 347.624 165.764 347.624 166.214C347.624 166.665 349.67 167.033 352.173 167.033C354.996 167.033 356.526 166.722 356.215 166.214C355.937 165.764 356.469 165.396 357.394 165.396C358.343 165.396 359.079 164.863 359.079 164.168C359.079 163.259 358.13 162.939 355.454 162.939C351.462 162.939 350.275 161.425 351.249 157.56C351.732 155.62 351.952 155.571 359.897 155.571C368.031 155.571 368.047 155.571 368.595 157.74C368.898 158.944 368.718 160.581 368.202 161.417C367.687 162.243 367.261 163.472 367.261 164.159C367.261 164.839 366.893 165.396 366.443 165.396C365.993 165.396 365.625 165.797 365.625 166.296C365.625 167.541 360.773 171.962 358.433 172.854C355.209 174.083 345.039 173.591 342.338 172.077ZM376.213 171.356C374.601 170.161 372.858 168.253 372.326 167.123C371.148 164.626 371.025 155.571 372.171 155.571C372.621 155.571 372.989 154.916 372.989 154.113C372.989 151.182 379.167 147.383 383.937 147.383C387.349 147.383 392.61 149.487 392.618 150.863C392.626 151.199 393.175 151.477 393.854 151.477C394.533 151.477 395.081 152.001 395.081 152.64C395.081 153.278 395.482 153.933 395.973 154.097C397.249 154.523 397.339 166.419 396.063 166.845C395.523 167.025 395.081 167.508 395.081 167.917C395.081 168.892 392.389 171.577 390.286 172.699C389.386 173.19 386.498 173.567 383.888 173.55C380.042 173.526 378.561 173.1 376.213 171.356ZM389.558 164.503C390.344 163.12 390.99 161.146 390.99 160.123C390.99 157.413 387.185 153.933 384.223 153.933C379.731 153.933 376.556 160.123 379.077 163.979C379.78 165.052 380.116 166.182 379.813 166.485C379.51 166.788 381.253 167.033 383.691 167.025C387.783 167.025 388.233 166.828 389.558 164.503ZM409.605 173.035C408.737 172.797 408.173 171.856 408.173 170.66C408.173 169.563 407.804 168.671 407.354 168.671C406.904 168.671 406.536 167.95 406.536 167.074C406.536 166.198 405.62 163.75 404.491 161.629C403.361 159.517 402.445 157.282 402.445 156.676C402.445 156.07 402.077 155.571 401.627 155.571C401.177 155.571 400.809 154.67 400.809 153.573C400.809 152.476 400.44 151.346 399.99 151.068C398.591 150.2 399.09 148.341 400.866 147.776C403.558 146.916 406.536 148.014 406.536 149.856C406.536 150.748 406.888 151.477 407.314 151.477C407.747 151.477 408.336 152.762 408.639 154.343C408.934 155.923 409.498 157.208 409.899 157.208C410.3 157.208 410.627 158.125 410.627 159.255C410.627 160.385 410.996 161.302 411.446 161.302C411.896 161.302 412.264 160.745 412.264 160.074C412.264 159.402 412.632 158.846 413.082 158.846C413.532 158.846 413.9 158.133 413.9 157.265C413.9 156.398 414.448 155.137 415.128 154.457C415.807 153.786 416.355 152.64 416.355 151.911C416.355 149.577 419.26 147.236 421.788 147.522C424.504 147.833 425.29 150.02 423.367 151.944C422.663 152.648 422.082 153.941 422.082 154.809C422.082 155.677 421.714 156.389 421.264 156.389C420.814 156.389 420.446 157.126 420.446 158.027C420.446 158.928 420.078 159.664 419.628 159.664C419.178 159.664 418.81 160.778 418.81 162.145C418.81 163.594 418.302 164.823 417.582 165.101C416.903 165.355 416.355 166.452 416.355 167.533C416.355 168.605 416.011 169.489 415.594 169.489C415.177 169.489 414.718 170.316 414.571 171.332C414.309 173.198 412.493 173.821 409.605 173.035ZM430.87 172.077C429.635 171.332 428.407 170.071 428.162 169.285C427.908 168.499 427.36 167.852 426.935 167.852C426.517 167.852 426.174 166.935 426.174 165.805C426.174 164.675 425.805 163.758 425.355 163.758C424.905 163.758 424.537 162.489 424.537 160.942C424.537 159.394 424.905 157.896 425.355 157.618C425.805 157.339 426.174 156.373 426.174 155.464C426.174 153.728 426.583 153.229 430.944 149.627C433.219 147.752 434.438 147.383 438.406 147.383C442.8 147.383 443.405 147.621 446.531 150.56C448.38 152.312 449.902 154.154 449.902 154.654C449.902 155.161 450.27 155.571 450.72 155.571C451.17 155.571 451.539 157.036 451.539 158.829C451.539 162.243 450.229 163.234 446.22 162.841C445.32 162.751 441.916 162.735 438.651 162.808C432.531 162.948 431.607 163.586 434.045 166.018C435.714 167.688 443.209 167.745 444.273 166.1C444.78 165.314 445.173 165.256 445.606 165.903C445.942 166.403 447.038 167.066 448.036 167.377C449.558 167.852 449.706 168.188 448.92 169.44C448.413 170.267 446.981 171.528 445.754 172.257C442.759 174.033 433.939 173.919 430.87 172.077ZM444.174 156.741C444.174 155.292 441.401 153.933 438.447 153.933C435.493 153.933 432.719 155.292 432.719 156.741C432.719 156.995 435.297 157.208 438.447 157.208C441.597 157.208 444.174 156.995 444.174 156.741ZM455.016 173.043C453.527 172.437 453.625 150.797 455.131 148.816C456.391 147.162 459.41 146.9 459.958 148.407C460.261 149.225 460.547 149.225 461.423 148.407C462.012 147.842 463.714 147.383 465.203 147.383C467.617 147.383 467.903 147.629 467.903 149.676C467.903 152.459 466.569 153.933 464.057 153.933C462.445 153.933 462.159 154.375 462.077 157.003C461.963 160.86 461.766 165.609 461.537 170.103C461.365 173.46 461.267 173.583 458.698 173.518C457.233 173.485 455.581 173.272 455.016 173.043ZM469.539 160.532V147.383H472.403C473.974 147.383 475.267 147.752 475.267 148.202C475.267 148.652 476.183 149.021 477.313 149.021C478.442 149.021 479.358 148.652 479.358 148.202C479.358 146.851 485.585 147.277 488.318 148.816C489.717 149.602 491.075 151.076 491.337 152.091C491.599 153.106 492.073 153.933 492.401 153.933C492.72 153.933 492.99 158.166 492.998 163.341L493.006 172.74L490.281 173.247C485.364 174.173 485.086 173.714 485.086 164.544C485.086 158.469 484.775 155.964 483.916 155.104C479.849 151.035 475.005 158.06 475.357 167.524L475.562 173.174L472.55 173.428L469.539 173.681V160.532ZM496.901 172.519C496.68 171.937 496.598 166.133 496.721 159.623L496.95 147.793L500.018 147.539C501.794 147.391 503.087 147.653 503.087 148.153C503.087 149.25 506.098 149.291 506.769 148.202C507.57 146.9 514.206 147.219 515.36 148.611C515.916 149.283 517.095 149.839 517.962 149.839C518.837 149.839 519.32 150.208 519.042 150.658C518.158 152.099 519.296 151.542 521.57 149.43C525.596 145.705 532.6 147.334 535.406 152.648C536.454 154.629 536.683 157.077 536.478 164.168C536.233 172.912 536.167 173.182 534.302 173.444C533.238 173.6 531.495 173.493 530.415 173.223C528.509 172.748 528.452 172.502 528.452 164.503C528.452 155.98 527.74 153.933 524.77 153.933C521.75 153.933 520.752 156.34 520.408 164.487C520.212 169.055 519.68 172.609 519.148 172.953C518.641 173.288 517.029 173.567 515.565 173.567L512.905 173.583V165.166C512.905 157.749 512.709 156.586 511.261 155.341C510.352 154.572 509.043 153.933 508.34 153.933C506.539 153.933 504.723 155.964 504.723 157.97C504.723 158.903 504.355 159.664 503.905 159.664C503.422 159.664 503.087 162.53 503.087 166.624V173.583H500.198C498.586 173.583 497.13 173.116 496.901 172.519ZM542.566 171.111C541.101 169.784 539.907 168.138 539.907 167.451C539.907 166.771 539.538 166.214 539.088 166.214C538.63 166.214 538.27 163.897 538.27 160.893C538.27 157.888 538.63 155.571 539.088 155.571C539.538 155.571 539.907 154.916 539.907 154.113C539.907 152.607 541.191 151.264 544.996 148.816C547.843 146.974 555.625 146.843 557.089 148.611C557.646 149.283 558.456 149.839 558.881 149.839C559.937 149.839 561.999 151.968 561.999 153.057C561.999 153.54 562.351 153.933 562.776 153.933C563.823 153.933 564.748 159.091 564.077 161.204C563.586 162.743 562.792 162.907 554.79 163.12C546.559 163.332 546.06 163.447 546.33 164.986C546.714 167.238 546.673 167.221 551.419 167.221C554.062 167.221 555.944 166.804 556.435 166.108C557.04 165.24 557.31 165.216 557.629 166.01C557.858 166.575 558.93 167.033 560.019 167.033C562.702 167.033 562.514 168.761 559.552 171.397C557.368 173.346 556.459 173.583 551.165 173.559C545.749 173.534 544.988 173.321 542.566 171.111ZM556.459 155.571C554.381 153.638 549.357 153.368 547.622 155.104C546.976 155.743 546.452 156.479 546.452 156.741C546.452 156.995 549.095 157.208 552.335 157.208H558.219L556.459 155.571ZM568.749 173.059C567.464 172.519 567.26 149.839 568.544 149.839C568.995 149.839 569.363 149.242 569.363 148.521C569.363 147.457 569.895 147.309 572.022 147.752C575.368 148.439 577.267 148.439 580.605 147.752C584.083 147.031 586.824 147.776 589.376 150.142C591.397 152.025 591.455 152.361 591.455 162.882V173.681L588.386 173.428L585.318 173.174L584.86 165.396C584.271 155.341 583.755 153.933 580.662 153.933C576.637 153.933 575.99 155.341 575.737 164.692L575.499 173.174L572.636 173.329C571.065 173.419 569.314 173.297 568.749 173.059ZM597.182 163.807V153.933H595.137C593.402 153.933 593.091 153.548 593.091 151.461C593.091 149.618 593.615 148.75 595.137 148.055C596.986 147.211 597.182 146.646 597.182 142.291V137.46L600.251 137.714L603.319 137.968L603.564 142.675C603.777 146.712 604.039 147.383 605.405 147.383C606.723 147.383 607.001 147.956 607.001 150.658C607.001 153.368 606.723 153.933 605.389 153.933C603.892 153.933 603.761 154.613 603.548 163.553L603.319 173.174L600.251 173.428L597.182 173.681V163.807ZM624.249 170.464C622.359 168.703 620.911 166.591 620.911 165.6C620.911 164.642 620.543 163.627 620.093 163.349C616.951 161.4 623.03 149.021 627.137 149.021C627.759 149.021 628.275 148.652 628.275 148.202C628.275 146.851 635.688 147.277 639.034 148.816C640.753 149.602 642.373 150.896 642.635 151.682C642.896 152.468 643.453 153.114 643.878 153.114C644.296 153.114 644.639 153.851 644.639 154.752C644.639 155.653 645.007 156.389 645.457 156.389C645.907 156.389 646.276 158.42 646.276 160.893C646.276 163.365 645.907 165.396 645.457 165.396C645.007 165.396 644.639 166.313 644.639 167.443C644.639 168.72 644.173 169.489 643.412 169.489C642.733 169.489 642.185 169.768 642.176 170.103C642.168 171.7 636.858 173.583 632.366 173.583C627.972 173.583 627.334 173.338 624.249 170.464ZM636.776 166.01C638.323 164.454 639.763 159.779 638.863 159.222C638.437 158.96 638.093 158.191 638.093 157.511C638.093 155.513 635.95 153.933 633.241 153.933C631.859 153.933 630.729 154.212 630.729 154.555C630.729 154.899 629.903 155.546 628.888 155.988C626.417 157.077 625.91 162.53 628.038 165.183C629.698 167.254 635.033 167.762 636.776 166.01ZM650.342 173.378C650.326 173.264 650.285 168.875 650.244 163.619C650.179 154.261 650.138 154.056 648.231 153.573C647.151 153.303 646.276 152.517 646.276 151.821C646.276 149.807 647.855 147.383 649.172 147.383C650.039 147.383 650.367 146.392 650.367 143.699C650.367 141.668 650.735 140.014 651.185 140.014C651.635 140.014 652.003 139.441 652.003 138.745C652.003 137.722 652.854 137.525 656.283 137.722C660.145 137.943 660.644 138.197 661.364 140.268C662.28 142.872 661.184 144.075 657.878 144.092C655.366 144.108 655.783 146.867 658.353 147.236C659.899 147.457 660.185 148.005 660.185 150.715C660.185 153.606 659.973 153.933 658.14 153.933H656.094V163.758V173.583H653.231C651.66 173.583 650.359 173.493 650.342 173.378ZM672.189 173.035C671.24 172.093 671.649 167.533 672.868 165.396C673.514 164.266 674.054 161.228 674.063 158.641C674.079 156.054 674.464 153.933 674.914 153.933C675.364 153.933 675.732 151.763 675.732 149.07C675.732 146.392 676.1 143.977 676.55 143.699C677 143.42 677.368 142.503 677.368 141.652C677.368 139.482 678.579 138.983 682.31 139.613C685.002 140.064 685.55 140.481 685.55 142.078C685.55 143.126 686.099 144.542 686.778 145.222C687.457 145.893 688.005 147.58 688.005 148.963C688.005 150.347 688.373 151.477 688.823 151.477C689.273 151.477 689.642 152.607 689.642 153.99C689.642 156.701 690.902 159.664 692.055 159.664C692.448 159.664 693.021 158.191 693.324 156.389C693.626 154.588 694.215 153.114 694.625 153.114C695.034 153.114 695.369 151.829 695.369 150.249C695.369 148.669 695.688 147.383 696.081 147.383C696.474 147.383 696.989 145.877 697.235 144.043C697.488 142.2 697.93 140.448 698.233 140.154C698.887 139.499 705.826 139.564 706.497 140.235C706.759 140.489 707.168 142.954 707.422 145.705C707.667 148.456 708.191 150.904 708.575 151.141C708.96 151.379 709.279 154.334 709.279 157.716C709.279 161.384 709.59 163.66 710.056 163.373C710.997 162.792 711.971 167.492 711.594 170.791C711.357 172.92 711.014 173.174 708.461 173.174C706.112 173.174 705.548 172.838 705.335 171.332C705.188 170.316 704.73 169.489 704.312 169.489C703.895 169.489 703.551 166.992 703.551 163.938C703.551 159.476 703.24 158.125 701.98 157.044C700.598 155.865 700.344 155.849 699.935 156.93C699.673 157.609 699.46 159.239 699.46 160.549C699.46 161.867 699.092 162.939 698.642 162.939C698.192 162.939 697.824 163.922 697.824 165.125C697.824 166.329 697.177 168.728 696.392 170.456C695.009 173.485 694.829 173.591 691.278 173.387C687.85 173.19 687.58 173.002 687.326 170.718C687.179 169.367 686.72 167.909 686.303 167.483C685.894 167.058 685.55 165.903 685.55 164.913C685.55 163.93 685.002 162.072 684.331 160.778C683.652 159.492 683.071 157.519 683.03 156.389C682.957 154.58 682.858 154.645 682.179 157.003C681.762 158.469 681.058 159.664 680.617 159.664C680.167 159.664 679.823 162.489 679.823 166.124C679.823 171.266 679.561 172.691 678.53 173.084C676.804 173.747 672.868 173.722 672.189 173.035ZM719.703 172.077C718.468 171.332 717.24 170.071 716.995 169.285C716.741 168.499 716.193 167.852 715.767 167.852C715.35 167.852 715.006 166.951 715.006 165.854C715.006 164.757 714.638 163.627 714.188 163.349C713.738 163.07 713.37 161.785 713.37 160.483C713.37 159.181 713.738 157.896 714.188 157.618C714.638 157.339 715.006 156.373 715.006 155.464C715.006 153.966 716.733 151.477 717.772 151.477C718.001 151.477 719.188 150.56 720.399 149.43C722.19 147.776 723.451 147.383 727.018 147.383C731.551 147.383 734.537 148.693 737.279 151.886C738.048 152.787 738.694 153.982 738.71 154.547C738.727 155.112 739.07 155.571 739.488 155.571C740.658 155.571 741.402 160.254 740.486 161.883C740.036 162.694 739.455 163.259 739.201 163.144C738.948 163.029 734.865 162.939 730.144 162.939C721.282 162.939 720.243 163.39 722.927 166.067C724.612 167.754 732.034 167.77 733.114 166.083C733.621 165.306 734.006 165.248 734.439 165.903C734.775 166.403 735.879 167.074 736.894 167.385C737.909 167.705 738.735 168.327 738.735 168.777C738.735 169.219 738.367 169.358 737.917 169.08C737.467 168.802 737.099 169.137 737.099 169.833C737.099 173.321 724.482 174.95 719.703 172.077ZM733.007 156.553C733.007 154.981 730.782 153.933 727.468 153.933C724.342 153.933 721.552 155.26 721.552 156.741C721.552 156.995 724.13 157.208 727.28 157.208C730.43 157.208 733.007 156.913 733.007 156.553ZM773.919 155.571V137.46L776.987 137.714L780.055 137.968L780.301 143.494C780.505 148.292 780.743 149.021 782.093 149.021C782.944 149.021 783.868 148.652 784.146 148.202C784.801 147.146 791.919 147.129 791.919 148.186C791.919 148.628 792.836 149.217 793.965 149.504C795.43 149.872 796.011 150.568 796.011 151.976C796.011 153.049 796.379 153.933 796.829 153.933C797.328 153.933 797.647 157.609 797.647 163.332C797.647 172.568 797.614 172.74 795.683 173.223C794.603 173.493 792.86 173.6 791.797 173.444C789.939 173.182 789.866 172.895 789.637 164.692C789.399 155.988 788.663 153.933 785.783 153.933C784.146 153.933 782.101 155.857 782.101 157.396C782.101 158.011 781.749 158.87 781.323 159.296C780.89 159.73 780.432 163.029 780.301 166.624L780.055 173.174L776.987 173.428L773.919 173.681V155.571ZM805.625 172.077C804.389 171.332 803.375 170.071 803.375 169.285C803.375 168.499 803.064 167.852 802.687 167.852C802.311 167.852 801.501 166.345 800.895 164.511C799.283 159.623 800.805 154.621 805.142 150.535C807.973 147.866 809.037 147.383 812.081 147.383C814.052 147.383 816.376 147.825 817.243 148.366C818.487 149.143 819.248 149.119 820.852 148.259C822.014 147.637 823.789 147.4 824.992 147.702L827.103 148.235V160.909V173.583H824.706C823.38 173.583 821.367 173.231 820.23 172.797C818.904 172.29 817.988 172.29 817.677 172.797C816.875 174.091 808.096 173.567 805.625 172.077ZM818.618 164.782C819.682 163.545 820.557 161.613 820.557 160.483C820.557 157.126 817.194 153.933 813.66 153.933C811.86 153.933 810.845 154.261 811.148 154.752C811.426 155.202 811.09 155.571 810.403 155.571C807.49 155.571 806.459 162.162 808.898 165.216C811.074 167.942 816.098 167.713 818.618 164.782ZM830.924 173.035C830.245 172.355 830.212 141.922 830.891 139.4C831.276 137.951 831.971 137.558 834.156 137.558H836.922V155.571V173.583H834.197C832.692 173.583 831.219 173.338 830.924 173.035ZM846.74 172.854C846.74 172.453 845.824 171.888 844.695 171.61C843.378 171.274 842.649 170.521 842.649 169.473C842.649 168.581 842.281 167.852 841.831 167.852C841.381 167.852 841.013 166.951 841.013 165.854C841.013 164.757 840.645 163.627 840.195 163.349C839.745 163.07 839.376 161.785 839.376 160.483C839.376 159.181 839.745 157.896 840.195 157.618C840.645 157.339 841.013 156.209 841.013 155.112C841.013 154.015 841.357 153.114 841.774 153.114C842.199 153.114 842.756 152.443 843.009 151.624C843.271 150.806 844.785 149.512 846.364 148.759C849.498 147.26 856.559 146.876 856.559 148.202C856.559 149.299 858.687 149.242 860.536 148.079C861.37 147.563 863.007 147.383 864.209 147.686L866.378 148.235V160.909V173.583H863.98C862.655 173.583 860.642 173.231 859.505 172.797C858.179 172.29 857.263 172.29 856.952 172.797C856.338 173.788 846.74 173.845 846.74 172.854ZM856.878 166.01C857.435 165.445 858.539 163.996 859.333 162.792C860.699 160.696 860.699 160.491 859.284 158.289C858.474 157.02 857.369 155.522 856.829 154.957C855.782 153.851 850.832 153.524 850.832 154.555C850.832 154.899 850.005 155.546 848.991 155.988C846.52 157.077 846.012 162.53 848.14 165.183C849.801 167.254 855.135 167.762 856.878 166.01ZM902.175 172.077C900.94 171.332 899.925 170.112 899.925 169.375C899.925 168.63 899.377 167.811 898.698 167.557C898.018 167.295 897.47 166.395 897.47 165.559C897.47 164.716 897.225 163.791 896.93 163.488C896.169 162.735 896.112 158.027 896.857 158.027C897.192 158.027 897.47 157.167 897.47 156.111C897.47 154.907 898.812 152.942 901.103 150.789C904.122 147.964 905.301 147.383 908.017 147.383C909.826 147.383 912.247 147.809 913.393 148.333C915.021 149.078 915.921 149.053 917.46 148.235C918.581 147.637 920.356 147.408 921.542 147.702L923.653 148.235V160.909V173.583H921.256C919.93 173.583 917.819 173.19 916.568 172.715C914.948 172.101 914.195 172.101 913.99 172.715C913.532 174.091 904.728 173.616 902.175 172.077ZM914.301 165.862C914.948 165.224 915.471 164.299 915.471 163.815C915.471 163.332 915.839 162.939 916.289 162.939C918.302 162.939 916.543 157.233 913.835 154.997C911.928 153.417 908.328 153.753 906.07 155.718C903.542 157.912 903.206 163.21 905.448 165.486C907.207 167.262 912.665 167.5 914.301 165.862ZM943.594 171.291C941.72 169.571 940.934 167.967 940.492 164.945C939.699 159.542 939.298 142.004 939.936 140.964C940.443 140.137 943.225 139.646 945.95 139.883C947.243 140.006 947.382 141.193 947.382 152.353C947.382 161.957 947.644 164.954 948.552 165.862C950.107 167.418 952.103 167.344 953.78 165.658C954.942 164.503 955.155 162.432 955.163 152.5C955.163 139.425 955.54 138.524 960.506 139.613L962.928 140.145V152.648C962.928 166.403 962.298 168.9 958.043 171.929C956.35 173.141 954.427 173.583 950.917 173.583C946.793 173.583 945.754 173.256 943.594 171.291ZM969.237 173.076C968.918 172.756 968.656 166.845 968.656 159.935V147.383H971.47C973.017 147.383 974.514 147.752 974.792 148.202C975.071 148.652 976.012 149.021 976.887 149.021C977.763 149.021 978.474 148.652 978.474 148.202C978.474 147.752 980.315 147.383 982.566 147.383C984.816 147.383 986.657 147.727 986.657 148.145C986.657 148.57 987.393 149.143 988.293 149.43C989.193 149.717 990.15 150.846 990.429 151.944C990.699 153.033 991.239 153.933 991.615 153.933C991.992 153.933 992.311 158.166 992.319 163.341C992.335 172.56 992.294 172.756 990.396 173.231C989.332 173.501 987.598 173.6 986.534 173.444C984.677 173.182 984.603 172.895 984.374 164.692C984.136 155.988 983.4 153.933 980.52 153.933C977.28 153.933 975.823 157.331 975.242 166.214L974.792 173.174L972.305 173.419C970.939 173.55 969.564 173.395 969.237 173.076ZM997.645 170.103C994.07 166.64 994.045 166.591 994.045 160.893C994.045 155.8 994.299 154.883 996.287 152.664C997.515 151.289 999.429 149.545 1000.54 148.775C1003.11 147.007 1009.79 146.9 1011.2 148.611C1013.06 150.846 1013.58 149.905 1013.83 143.903L1014.07 137.968H1016.93H1019.79L1020.02 155.775L1020.24 173.583H1017.52C1016.02 173.583 1014.4 173.182 1013.91 172.691C1013.27 172.044 1012.55 172.044 1011.34 172.691C1010.43 173.182 1007.77 173.583 1005.46 173.583C1001.61 173.583 1000.93 173.28 997.645 170.103ZM1012.52 165.6C1013.12 164.814 1013.62 162.383 1013.63 160.205C1013.65 156.913 1013.38 156.16 1012.02 155.808C1011.12 155.571 1010.39 155.055 1010.39 154.654C1010.39 154.261 1009.09 153.933 1007.52 153.933C1005.95 153.933 1004.66 154.302 1004.66 154.752C1004.66 155.202 1004.17 155.571 1003.56 155.571C1002.04 155.571 999.838 162.284 1001.2 162.743C1001.75 162.923 1002.2 163.431 1002.2 163.865C1002.2 166.992 1010.41 168.376 1012.52 165.6ZM1030.97 172.568C1027.94 169.727 1025.6 166.992 1025.38 166.042C1023.96 160.156 1023.91 158.289 1025.08 156.046C1026.67 153.041 1029.89 149.545 1032.22 148.325C1034.84 146.941 1040.51 147.178 1043.92 148.808C1049.21 151.338 1053.56 161.073 1050 162.44C1049.29 162.718 1045.08 162.939 1040.64 162.939C1032.26 162.939 1030.57 163.603 1032.93 165.969C1034.51 167.549 1042.44 167.819 1042.95 166.304C1043.31 165.207 1045.57 165.076 1045.57 166.157C1045.57 166.583 1046.26 167.148 1047.12 167.418C1048.43 167.836 1048.52 168.196 1047.75 169.858C1047.24 170.93 1046.58 171.651 1046.26 171.463C1045.96 171.274 1045.55 171.577 1045.37 172.134C1044.89 173.575 1032.44 173.96 1030.97 172.568ZM1043.11 156.553C1043.11 153.647 1035.93 152.934 1033.3 155.571L1031.66 157.208H1037.39C1040.54 157.208 1043.11 156.913 1043.11 156.553ZM1053.31 172.576C1053.08 171.962 1052.99 166.133 1053.11 159.623L1053.34 147.793L1055.64 147.531C1056.91 147.383 1058.53 147.752 1059.25 148.349C1060.28 149.201 1060.63 149.209 1060.91 148.407C1061.12 147.776 1062.78 147.383 1065.27 147.383H1069.3V142.896C1069.3 138.827 1069.49 138.361 1071.29 137.91C1072.37 137.632 1074.03 137.656 1074.97 137.951C1076.4 138.401 1076.66 139.155 1076.66 142.847C1076.66 146.81 1076.84 147.252 1078.71 147.719C1080.4 148.145 1080.75 148.726 1080.75 151.084C1080.75 153.581 1080.5 153.933 1078.71 153.933H1076.66V163.758V173.583H1074.27C1069.38 173.583 1069.3 173.411 1069.3 163.357C1069.3 153.139 1069.18 152.934 1063.73 153.737C1061.97 153.99 1061.11 154.572 1061.11 155.497C1061.11 156.258 1060.76 157.233 1060.33 157.667C1059.9 158.092 1059.44 161.76 1059.31 165.813L1059.07 173.174L1056.4 173.428C1054.72 173.591 1053.58 173.28 1053.31 172.576ZM1066.84 151.477C1066.84 151.027 1066.47 150.658 1066.02 150.658C1065.57 150.658 1065.21 151.027 1065.21 151.477C1065.21 151.927 1065.57 152.296 1066.02 152.296C1066.47 152.296 1066.84 151.927 1066.84 151.477ZM1087 172.65C1084.87 171.405 1082.39 168.826 1082.39 167.852C1082.39 167.402 1082.02 167.033 1081.57 167.033C1081.1 167.033 1080.75 164.438 1080.75 160.893C1080.75 157.347 1081.1 154.752 1081.57 154.752C1082.02 154.752 1082.39 154.015 1082.39 153.114C1082.39 152.214 1082.74 151.477 1083.17 151.477C1083.59 151.477 1084.93 150.56 1086.14 149.43C1088.75 147.015 1094.81 146.597 1097.71 148.628C1099.29 149.741 1099.55 149.733 1100.2 148.562C1100.7 147.67 1101.81 147.342 1103.73 147.522L1106.53 147.793V160.483V173.174L1103.74 173.436C1102.08 173.6 1100.7 173.272 1100.31 172.625C1099.78 171.766 1099.43 171.757 1098.62 172.568C1097.38 173.812 1089.11 173.87 1087 172.65ZM1098.75 165.396C1099.9 164.249 1100.39 162.669 1100.39 160.131C1100.39 157.216 1100.06 156.398 1098.75 155.98C1097.85 155.693 1097.12 155.12 1097.12 154.695C1097.12 154.277 1095.77 153.933 1094.15 153.933C1091.91 153.933 1090.69 154.498 1089.24 156.185C1086.82 159.001 1086.78 161.875 1089.15 164.765C1091.45 167.582 1096.25 167.901 1098.75 165.396ZM1111.23 173.059C1110.46 172.732 1110.21 168.589 1110.21 156.324C1110.21 143.83 1110.45 140.014 1111.23 139.998C1112 139.99 1111.98 139.818 1111.17 139.294C1110.29 138.745 1110.35 138.5 1111.44 138.082C1113.58 137.255 1116.34 137.468 1117.41 138.541C1118.04 139.171 1118.39 142.397 1118.39 147.547C1118.39 151.96 1118.6 155.571 1118.86 155.571C1119.12 155.571 1121.15 153.728 1123.37 151.477C1126.88 147.932 1127.86 147.383 1130.68 147.383C1133.03 147.383 1133.94 147.727 1133.94 148.611C1133.94 149.283 1133.59 149.839 1133.18 149.839C1132.75 149.839 1132.19 150.552 1131.91 151.428C1131.63 152.296 1129.79 154.654 1127.81 156.668L1124.21 160.319L1126.2 161.826C1127.31 162.653 1128.21 163.611 1128.21 163.955C1128.21 164.872 1134.26 170.758 1135.82 171.356C1137.03 171.823 1137.19 170.627 1137.39 159.836L1137.62 147.793L1140.69 147.539L1143.76 147.285V160.336V173.395L1136.1 173.436L1128.44 173.477L1123.86 168.613C1121.34 165.944 1119.09 163.758 1118.87 163.758C1118.65 163.758 1118.36 165.879 1118.23 168.466L1117.98 173.174L1115.12 173.329C1113.55 173.419 1111.8 173.297 1111.23 173.059ZM1147.4 172.568C1147.18 171.962 1147.09 166.133 1147.21 159.623L1147.44 147.793L1150.51 147.539C1152.28 147.391 1153.57 147.653 1153.57 148.153C1153.57 149.25 1156.59 149.291 1157.26 148.202C1158.06 146.9 1163.85 147.252 1166.49 148.767C1169.85 150.699 1170.76 153.925 1170.76 163.93C1170.76 173.354 1170.64 173.583 1165.78 173.583H1163.39V164.872C1163.39 157.536 1163.16 155.988 1161.96 155.071C1157.31 151.542 1154.24 156.668 1154.03 168.261L1153.95 173.174L1150.89 173.428C1148.88 173.6 1147.69 173.305 1147.4 172.568ZM1136.6 144.518C1134.3 141.906 1136.8 137.558 1140.61 137.558C1142.28 137.558 1143.13 138.197 1144.14 140.211C1144.97 141.873 1145.15 142.962 1144.61 143.142C1144.14 143.298 1143.76 143.944 1143.76 144.583C1143.76 146.139 1137.98 146.09 1136.6 144.518ZM372.171 115.378C371.295 114.756 371.222 114.396 371.917 114.109C372.457 113.888 372.694 113.176 372.441 112.521C371.459 109.95 373.775 108.902 380.451 108.902H386.899V105.627C386.899 102.622 385.802 101.148 385.107 103.22C384.951 103.703 383.25 104.309 381.327 104.563C377.064 105.136 371.353 102.892 371.353 100.641C371.353 99.8301 370.984 98.9459 370.534 98.6675C369.34 97.9306 369.503 77.6256 370.731 73.6793C372.334 68.5457 377.457 66.7854 384.583 68.9223C387.013 69.651 387.995 69.651 388.723 68.9223C389.247 68.3983 391.252 67.9644 393.166 67.9644C395.785 67.9644 396.873 68.3656 397.503 69.5446C398.747 71.8616 398.616 105.774 397.356 110.032C395.678 115.673 394.443 116.213 383.217 116.23C377.587 116.238 372.874 115.878 372.171 115.378ZM386.899 85.9769V75.3331H384.035H381.171V85.9769V96.6206H384.035H386.899V85.9769ZM526.545 115.722C525.817 114.993 525.866 111.178 526.627 110.048C526.954 109.557 528.648 108.935 530.383 108.656C532.117 108.386 534.024 107.494 534.621 106.691C535.595 105.365 535.439 105.177 533.099 104.808C530.923 104.464 530.456 103.998 530.227 101.943C530.08 100.592 529.622 99.1342 529.204 98.7085C528.795 98.2827 528.452 96.5551 528.452 94.8685C528.452 93.1819 528.124 91.6017 527.731 91.3561C527.331 91.1105 526.758 89.2519 526.455 87.2378C526.152 85.2154 525.555 83.3405 525.13 83.0785C524.704 82.8165 524.36 81.4083 524.36 79.9509C524.36 78.4935 524.041 76.9461 523.649 76.5203C522.626 75.3986 521.938 70.0522 522.667 68.8732C523.068 68.2264 524.868 67.9562 527.707 68.1199L532.134 68.3738L532.395 71.6488C532.534 73.45 532.993 75.2758 533.418 75.7016C533.835 76.1273 534.179 77.6502 534.179 79.0748C534.179 80.5076 534.727 83.2423 535.406 85.1581C536.086 87.074 536.634 89.5139 536.634 90.5864C536.634 91.6508 537.002 92.5269 537.452 92.5269C537.902 92.5269 538.27 91.2414 538.27 89.6613C538.27 88.0811 538.589 86.7956 538.982 86.7956C539.375 86.7956 539.874 84.0119 540.087 80.6141C540.308 77.2081 540.905 74.0068 541.42 73.4909C541.936 72.9751 542.361 71.5014 542.361 70.216C542.361 67.8907 542.378 67.8825 547.066 68.1281C551.591 68.3656 551.779 68.4638 552.041 70.7563C552.188 72.0663 551.943 73.9085 551.484 74.8501C551.026 75.7916 550.429 78.3052 550.143 80.4339C549.864 82.5627 549.284 84.5195 548.858 84.7815C548.433 85.0435 548.089 86.681 548.089 88.4331C548.089 90.1853 547.721 91.8391 547.271 92.1175C546.821 92.3959 546.452 93.7223 546.452 95.0568C546.452 96.3996 545.904 98.8149 545.225 100.428C544.546 102.049 543.998 104.407 543.998 105.676C543.998 106.945 543.63 108.214 543.18 108.493C542.729 108.771 542.353 109.622 542.345 110.384C542.337 111.145 540.897 112.783 539.146 114.019C536.617 115.804 535.046 116.271 531.528 116.271C529.082 116.271 526.84 116.025 526.545 115.722ZM1076.85 92.3222L1077.07 68.3738L1081.24 68.1281C1084.18 67.9562 1085.69 68.2509 1086.42 69.127C1087.34 70.2241 1087.67 70.2159 1089.47 69.0369C1092.98 66.7363 1101.47 68.2018 1102.45 71.2885C1102.73 72.1646 1103.29 72.8769 1103.72 72.8769C1104.16 72.8769 1104.48 78.7309 1104.48 86.7956C1104.48 95.3516 1104.17 100.714 1103.68 100.714C1103.24 100.714 1102.65 101.631 1102.36 102.761C1102.05 104.014 1101.27 104.808 1100.35 104.808C1099.52 104.808 1098.62 105.177 1098.34 105.627C1097.72 106.634 1090.57 106.724 1090.57 105.725C1090.57 105.324 1089.86 104.816 1088.98 104.587C1086.95 104.055 1086.48 105.357 1086.48 111.424V116.271H1081.55H1076.64L1076.85 92.3222ZM1093.49 97.0873C1094.36 96.2195 1094.66 93.6568 1094.66 87.1231C1094.66 77.7484 1093.79 75.3331 1090.38 75.3331C1087.12 75.3331 1086.48 77.1835 1086.48 86.6728C1086.48 91.6181 1086.7 96.2522 1086.98 96.9645C1087.6 98.602 1091.9 98.6839 1093.49 97.0873ZM1359.95 92.3222L1360.18 68.3738L1364.34 68.1281C1367.21 67.9644 1368.81 68.251 1369.48 69.0697C1370.33 70.0931 1370.86 70.0604 1373.42 68.8077C1375.05 68.0135 1377.16 67.5386 1378.1 67.7433C1382.87 68.7913 1385.1 69.8557 1385.56 71.2885C1385.84 72.1646 1386.4 72.8769 1386.83 72.8769C1387.27 72.8769 1387.59 78.7309 1387.59 86.7956C1387.59 94.451 1387.26 100.714 1386.86 100.714C1386.46 100.714 1385.89 101.631 1385.61 102.761C1385.29 104.055 1384.53 104.808 1383.53 104.808C1382.66 104.808 1381.73 105.177 1381.45 105.627C1380.82 106.65 1373.91 106.716 1373.54 105.701C1373.39 105.291 1372.53 104.833 1371.63 104.677C1370.13 104.423 1369.97 104.915 1369.76 110.335L1369.51 116.271H1364.63H1359.74L1359.95 92.3222ZM1376.27 96.9072C1378.38 94.9913 1378.5 79.1321 1376.42 76.8315C1374.86 75.1203 1372.02 74.8664 1370.57 76.3156C1369.51 77.3718 1369.12 96.7025 1370.13 97.7096C1371.16 98.7412 1374.77 98.2581 1376.27 96.9072ZM288.712 81.8831V57.3206H294.382C299.922 57.3206 300.077 57.3779 301.337 59.8997C302.041 61.3243 302.622 63.5349 302.622 64.8122C302.622 66.0976 302.99 67.1456 303.44 67.1456C303.89 67.1456 304.258 68.3656 304.258 69.8557C304.258 71.3458 304.798 73.2781 305.461 74.1541C306.124 75.0302 306.672 76.7741 306.688 78.0268C306.705 79.2877 307.449 81.1053 308.349 82.0714C309.912 83.7499 309.986 83.7581 309.986 82.2434C309.978 80.5895 312.113 73.5073 313.357 71.0429C313.75 70.2651 314.077 68.5129 314.077 67.1538C314.077 65.8029 314.421 64.6894 314.846 64.6894C315.272 64.6894 315.861 63.0191 316.172 60.9723L316.728 57.2551L322.971 57.4926L329.214 57.73L329.435 81.6621L329.648 105.586L327.7 106.077C326.637 106.347 324.509 106.446 322.987 106.298L320.214 106.036L319.788 89.6613C319.502 78.2561 319.158 74.0968 318.667 75.9636C318.274 77.4373 317.636 78.8374 317.243 79.083C316.851 79.3286 316.515 80.5158 316.499 81.7276C316.491 82.9393 315.951 84.847 315.304 85.9769C314.658 87.1068 314.11 88.9408 314.077 90.0706C313.987 93.5421 312.252 94.9831 308.145 94.9831C304.757 94.9831 304.406 94.7948 304.013 92.7316C303.767 91.4953 303.195 89.1946 302.728 87.6144C302.262 86.0342 301.419 83.0867 300.854 81.0644C299.594 76.5449 299.439 76.3156 298.555 77.7403C298.171 78.3707 298.007 84.1511 298.187 90.5864C298.367 97.03 298.154 103.228 297.721 104.374C297.025 106.208 296.469 106.446 292.819 106.446H288.712V81.8831ZM340.996 104.571L338.215 102.696L337.994 87.1149C337.789 73.0406 337.912 71.4031 339.221 70.2978C341.397 68.4474 346.601 67.3831 352.296 67.6123C363.146 68.0463 365.625 70.5516 365.625 81.0644C365.625 90.5455 365.993 90.1853 356.428 90.0051C351.282 89.9151 348.058 90.1853 347.714 90.742C347.411 91.2333 347.305 93.1246 347.477 94.9422L347.796 98.2581H351.396C354.44 98.2581 354.988 98.0125 354.988 96.6206C354.988 95.3598 355.561 94.9668 357.443 94.9095C358.793 94.8685 361.092 94.803 362.557 94.7539C364.741 94.6884 365.265 95.0159 365.494 96.5797C365.879 99.2161 363.44 103.392 360.552 105.054C358.776 106.077 356.207 106.446 350.954 106.446C344.826 106.446 343.369 106.167 340.996 104.571ZM354.824 79.2222L355.078 75.3331H351.388C347.82 75.3331 347.681 75.4314 347.166 78.1906C346.323 82.6773 347.068 83.6516 351.093 83.3651L354.579 83.1113L354.824 79.2222ZM404.9 80.786C404.9 52.1707 404.499 54.0456 410.603 54.0456C414.44 54.0456 414.718 54.6597 414.718 63.1174C414.718 66.6871 414.808 69.6019 414.923 69.5937C415.038 69.5855 416.944 69.0288 419.17 68.3574C422.827 67.2439 423.555 67.2603 426.738 68.4802C429.152 69.3972 430.265 70.306 430.265 71.354C430.265 72.1891 430.633 72.8769 431.083 72.8769C431.598 72.8769 431.901 79.0175 431.901 89.6613V106.446H426.992H422.082V92.0602C422.082 77.0525 421.706 75.3331 418.4 75.3331C415.185 75.3331 414.768 77.1098 414.53 91.8309L414.309 106.036L409.605 106.282L404.9 106.528V80.786ZM444.174 105.823C444.174 105.48 443.389 104.833 442.44 104.391C439.568 103.048 438.471 98.0698 438.463 86.2307C438.455 79.9018 438.782 75.2185 439.265 74.9238C439.715 74.6454 440.083 73.7284 440.083 72.8851C440.083 70.6171 443.945 67.9644 447.259 67.9644C448.83 67.9644 451.555 68.3983 453.314 68.9223C455.744 69.651 456.726 69.651 457.454 68.9223C458.706 67.6696 464.843 67.686 466.103 68.9469C466.807 69.651 467.085 74.9647 467.085 87.6881C467.085 103.13 466.913 105.52 465.792 105.946C463.517 106.822 456.808 106.478 455.777 105.447C454.983 104.653 454.435 104.653 453.167 105.447C451.424 106.536 444.174 106.839 444.174 105.823ZM455.63 86.7956V75.3331H452.766H449.902V86.7956V98.2581H452.766H455.63V86.7956ZM473.631 80.2047V53.9638L478.335 54.2094L483.04 54.455L483.253 80.4503L483.474 106.446H478.548H473.631V80.2047ZM493.857 104.939C492.605 104.194 491.378 102.663 491.141 101.533C490.895 100.403 490.355 98.6429 489.938 97.6031C488.89 95.0241 488.948 75.3331 489.995 75.3331C490.445 75.3331 490.813 74.408 490.813 73.2781C490.813 71.8289 491.607 70.7318 493.472 69.5937C496.565 67.7106 499.118 67.5632 504.437 68.9878C507.505 69.8066 508.34 69.8066 508.61 68.9878C509.084 67.555 515.769 67.6778 517.234 69.1434C518.772 70.6826 519.23 103.515 517.733 105.316C516.636 106.634 507.178 106.921 507.178 105.627C507.178 105.177 506.466 104.808 505.59 104.808C504.715 104.808 503.774 105.177 503.496 105.627C502.71 106.904 496.385 106.446 493.857 104.939ZM506.679 96.9645C506.957 96.2522 507.178 91.6754 507.178 86.7956C507.178 81.9159 506.957 77.3391 506.679 76.6268C506.024 74.9238 501.786 74.9238 501.131 76.6268C500.452 78.3953 500.493 97.03 501.18 97.7096C502.252 98.7821 506.188 98.2499 506.679 96.9645ZM561.999 105.823C561.999 105.48 561.172 104.833 560.158 104.391C559.11 103.932 558.202 102.696 558.047 101.533C557.891 100.403 557.433 99.1342 557.024 98.7085C555.993 97.6359 556.05 75.5624 557.089 74.9238C557.539 74.6454 557.908 73.7284 557.908 72.8851C557.908 70.6171 561.77 67.9644 565.083 67.9644C566.654 67.9644 569.379 68.3983 571.138 68.9223C573.568 69.651 574.55 69.651 575.278 68.9223C576.53 67.6696 582.667 67.686 583.927 68.9469C584.631 69.651 584.909 74.9647 584.909 87.6881C584.909 103.13 584.737 105.52 583.616 105.946C581.341 106.822 574.632 106.478 573.601 105.447C572.807 104.653 572.259 104.653 570.991 105.447C569.248 106.536 561.999 106.839 561.999 105.823ZM573.454 86.7465V75.2267L570.795 75.4887L568.135 75.7425L567.906 87.0003L567.677 98.2581H570.565H573.454V86.7465ZM607.001 81.8831V57.3206H611.91H616.82V81.8831V106.446H611.91H607.001V81.8831ZM625.002 87.3442V68.1691L627.457 67.6778C630.091 67.1538 633.978 68.2755 635.009 69.8557C635.475 70.5762 635.794 70.5926 636.252 69.8966C636.588 69.389 638.257 68.5784 639.959 68.1118C644.034 66.9901 650.367 68.9387 650.367 71.3131C650.367 72.1728 650.735 72.8769 651.185 72.8769C651.701 72.8769 652.003 79.0175 652.003 89.6613V106.446H647.094H642.185V92.0602C642.185 76.8396 641.833 75.3331 638.249 75.3331C635.254 75.3331 634.87 77.0935 634.632 91.7655L634.411 106.036L629.707 106.282L625.002 106.528V87.3442ZM664.277 105.823C664.277 105.48 663.491 104.833 662.542 104.391C661.585 103.94 660.3 102.106 659.686 100.305C658.279 96.1703 658.14 76.9297 659.498 74.3015C660.014 73.2944 660.693 71.9108 661.004 71.2394C662.378 68.2755 669.472 67.1702 674.3 69.1843C675.593 69.7165 675.732 69.1434 675.732 63.2075C675.732 59.5886 675.953 56.0516 676.231 55.3393C676.877 53.6526 684.904 53.5134 686.279 55.1673C686.941 55.9615 687.146 63.494 686.99 81.1626L686.778 106.036L682.073 106.282C679.487 106.413 677.368 106.184 677.368 105.758C677.368 104.284 674.676 103.957 672.778 105.201C670.839 106.47 664.277 106.953 664.277 105.823ZM675.732 86.7956V75.3331H672.868H670.004V86.7956V98.2581H672.868H675.732V86.7956ZM695.983 104.505L693.733 102.573V85.3301V68.0954L695.983 67.6205C697.218 67.3585 699.337 67.4486 700.688 67.817L703.142 68.4884L703.363 83.3733L703.592 98.2581H706.432C708.583 98.2581 709.287 97.9061 709.32 96.8253C709.336 96.0393 709.32 89.7677 709.279 82.882C709.197 68.1773 709.295 67.9644 716.177 67.9644H720.734V87.205V106.446H716.275C712.994 106.446 711.619 106.094 711.063 105.103C710.367 103.858 710.113 103.858 707.626 105.103C703.633 107.092 698.699 106.847 695.983 104.505ZM732.467 105.177C729.718 103.973 727.28 100.084 727.28 96.9072C727.28 95.0732 727.542 94.9831 733.007 94.9831C738.571 94.9831 738.735 95.0405 738.735 97.03C738.735 98.6102 739.152 99.0769 740.576 99.0605C743.685 99.0441 744.593 97.9306 744.315 94.4919L744.053 91.2988L738.53 91.0531C735.495 90.9221 733.007 90.5046 733.007 90.1198C733.007 89.7431 732.165 89.2191 731.134 88.9571C727.697 88.0975 725.905 77.773 728.303 72.664C729.923 69.2171 732.459 68.3738 741.231 68.3738C749.994 68.3738 752.645 69.5446 752.645 73.4091C752.645 74.4653 753.013 75.3331 753.463 75.3331C754.797 75.3331 754.396 78.3871 752.988 78.9274C751.319 79.5743 745.788 79.5743 744.119 78.9274C743.407 78.6573 742.826 77.7321 742.826 76.8806C742.826 75.8981 742.253 75.3331 741.255 75.3331C738.007 75.3331 737.099 76.2419 737.099 79.5006C737.099 83.013 736.452 82.6691 746.287 84.3803C751.188 85.2318 751.933 85.6166 753.037 87.8273C754.396 90.5537 754.772 100.714 753.52 100.714C753.103 100.714 752.645 101.484 752.497 102.434C751.957 105.987 738.506 107.829 732.467 105.177ZM765.532 105.029C763.584 104.227 762.463 103.228 762.463 102.286C762.463 101.476 762.095 100.583 761.645 100.305C761.162 100.01 760.827 95.1305 760.827 88.4413C760.827 79.214 760.59 76.8478 759.542 75.7998C758.831 75.0957 757.914 74.5144 757.497 74.5144C757.08 74.5144 756.736 73.2863 756.736 71.7798C756.736 69.6592 757.194 68.8404 758.781 68.1118C760.393 67.3749 760.827 66.5807 760.827 64.3128C760.827 61.1278 762.365 60.2845 766.964 60.9477C768.314 61.1442 769.86 61.3243 770.392 61.3571C770.924 61.3898 771.48 62.7817 771.619 64.452C771.824 66.9246 772.258 67.5796 773.919 67.9644C775.645 68.3656 776.005 68.9796 776.218 71.8862C776.447 75.0629 776.316 75.3331 774.459 75.3331C771.816 75.3331 771.464 76.5203 771.464 85.5348C771.464 95.5726 772.004 98.1026 774.213 98.4219C775.678 98.6266 776.005 99.3061 776.21 102.557L776.463 106.446L772.528 106.364C770.367 106.323 767.217 105.717 765.532 105.029ZM782.289 87.4097L782.51 68.3738L786.871 68.1199C790.692 67.9071 791.281 68.079 791.674 69.5528C792.091 71.1493 793.556 71.9599 793.556 70.6008C793.556 69.5282 798.473 66.9737 799.652 67.424C800.314 67.6778 800.871 69.4954 801.043 71.9926C801.354 76.5121 800.945 76.9706 796.649 76.9706C792.394 76.9706 791.977 78.4035 791.944 93.1409L791.919 106.446H786.994H782.068L782.289 87.4097ZM803.563 87.4506L803.784 68.3738L808.488 68.1281L813.193 67.8825L813.242 70.5844C813.275 72.0745 813.316 80.655 813.332 89.6613L813.373 106.036L808.358 106.282L803.342 106.528L803.563 87.4506ZM825.467 105.823C825.467 105.48 824.681 104.833 823.732 104.391C820.852 103.048 819.764 98.0698 819.755 86.1734C819.739 75.4723 820.066 73.8021 822.881 70.2733C824.444 68.3165 829.86 67.6041 834.132 68.7995C836.529 69.4709 838.075 69.5446 838.755 69.0042C840.71 67.465 844.793 67.1866 846.618 68.4638C848.328 69.6592 848.377 70.2159 848.377 87.5734C848.377 103.122 848.205 105.52 847.084 105.946C844.842 106.806 838.607 106.487 836.914 105.43C835.621 104.62 834.95 104.62 833.657 105.43C831.898 106.536 825.467 106.839 825.467 105.823ZM836.922 86.7956V75.3331H834.058H831.194V86.7956V98.2581H834.058H836.922V86.7956ZM856.755 80.4503L856.968 54.455L861.673 54.2094L866.378 53.9638V80.2047V106.446H861.46H856.535L856.755 80.4503ZM888.47 81.8831V57.3206H901.594C918.998 57.3206 917.869 56.2153 918.883 74.2524C919.8 90.5537 919.153 100.289 916.993 102.9C914.555 105.84 911.626 106.446 899.966 106.446H888.47V81.8831ZM907.886 83.1113C907.984 75.0056 907.878 67.1784 907.641 65.7128C907.232 63.1747 907.052 63.0519 903.566 63.0519H899.925L899.884 67.7597C899.786 80.4831 900.039 97.7751 900.334 98.25C900.514 98.5447 902.249 98.5775 904.18 98.3155L907.698 97.8488L907.886 83.1113ZM928.481 104.571L925.699 102.696L925.478 87.336C925.233 70.3961 925.282 70.2078 930.404 68.7094C934.233 67.5796 944.199 67.5959 947.636 68.734C949.256 69.2662 950.802 70.4206 951.08 71.2885C951.359 72.1646 951.939 72.8769 952.373 72.8769C952.848 72.8769 953.077 76.2501 952.93 81.2691L952.7 89.6613L944.109 90.0706L935.518 90.48L935.272 94.3691L935.019 98.2581H939.159C942.743 98.2581 943.291 98.0453 943.291 96.6206C943.291 95.1633 943.839 94.9831 948.2 94.9831H953.109V97.8488C953.109 99.4289 952.782 100.714 952.389 100.714C951.989 100.714 951.481 101.402 951.268 102.237C950.548 104.988 946.089 106.446 938.373 106.446C932.318 106.446 930.846 106.167 928.481 104.571ZM942.882 79.4269V75.7425L938.995 75.4969L935.109 75.2431V79.2468C935.109 81.4492 935.289 83.4306 935.51 83.6434C935.722 83.8645 937.473 83.8318 939.396 83.578L942.882 83.1113V79.4269ZM964.205 104.628C963.501 103.629 962.928 101.435 962.928 99.7646C962.928 98.0862 962.584 96.506 962.167 96.244C961.75 95.9902 961.153 93.755 960.842 91.2824C960.539 88.8179 959.958 86.7956 959.557 86.7956C959.164 86.7956 958.837 84.9862 958.837 82.7674C958.837 80.5568 958.493 78.6245 958.076 78.4689C957.659 78.3216 957.201 75.9963 957.053 73.3108C956.791 68.4556 956.808 68.4229 959.246 67.9398C962.658 67.2684 966.136 68.5866 966.586 70.7072C966.79 71.6733 967.158 74.3097 967.412 76.5613C967.657 78.8128 968.14 83.0785 968.468 86.0342C969.089 91.6345 971.241 95.4989 972.256 92.8462C972.526 92.1503 972.747 89.3911 972.747 86.7301C972.747 84.061 973.074 81.8831 973.467 81.8831C973.868 81.8831 974.342 79.5088 974.531 76.6104C974.964 69.7329 976.453 67.9644 981.805 67.9644C986.157 67.9644 986.935 68.8814 985.29 72.0336C984.701 73.1716 984.21 75.284 984.21 76.7168C984.202 78.1578 983.834 79.5579 983.384 79.8363C982.934 80.1146 982.566 81.8013 982.566 83.578C982.566 85.3628 982.214 87.4588 981.788 88.2366C981.363 89.0226 980.79 91.4052 980.512 93.5339C980.242 95.6627 979.669 97.6195 979.244 97.8815C978.818 98.1435 978.474 99.7319 978.474 101.419C978.474 105.701 977.37 106.446 970.996 106.446C966.217 106.446 965.301 106.2 964.205 104.628ZM995.575 104.571L992.793 102.696L992.572 87.3606C992.294 68.4229 992.09 68.8241 1002.44 68.1773C1011.73 67.5959 1016.88 68.8568 1018.78 72.1564C1020.32 74.8501 1020.83 87.0085 1019.48 89.1291C1018.95 89.9642 1016.81 90.1607 1010.56 89.9478L1002.33 89.6613L1002.06 91.7081C1001.92 92.838 1001.91 94.7703 1002.06 96.0066C1002.29 98.0862 1002.59 98.2581 1005.94 98.2581C1009.02 98.2581 1009.57 98.0125 1009.57 96.6206C1009.57 95.1551 1010.12 94.9831 1014.89 94.9831C1019.8 94.9831 1020.2 95.1223 1020.2 96.7598C1020.2 100.084 1017.49 104.767 1015.55 104.784C1014.56 104.8 1013.53 105.177 1013.25 105.627C1012.97 106.077 1009.51 106.446 1005.55 106.446C999.405 106.446 997.948 106.175 995.575 104.571ZM1009.57 79.4269V75.3331H1005.97C1002.38 75.3331 1002.37 75.3413 1002.06 78.559C1001.63 83.1522 1001.92 83.5206 1005.95 83.5206H1009.57V79.4269ZM1025.93 80.6714V54.8971L1027.86 54.4141C1028.93 54.1439 1031.05 54.0456 1032.57 54.193L1035.34 54.455L1035.55 80.4503L1035.77 106.446H1030.85H1025.93V80.6714ZM1046.31 104.571L1043.52 102.696L1043.33 87.5816C1043.07 68.2673 1042.81 68.7422 1054.02 68.1527C1063.55 67.6533 1068.68 68.8159 1070.02 71.7634C1071.44 74.8828 1071.2 100.706 1069.72 102.647C1067.52 105.561 1064.47 106.446 1056.64 106.446C1050.12 106.446 1048.7 106.192 1046.31 104.571ZM1061.11 87.7126C1061.11 75.9636 1060.73 75.0302 1056.06 75.4805L1053.34 75.7425L1053.11 87.0003L1052.88 98.2581H1057H1061.11V87.7126ZM1112.43 105.938C1111.66 105.168 1111.7 70.2815 1112.47 69.0697C1113.61 67.293 1122.48 67.7761 1122.48 69.6183C1122.48 70.0031 1123.5 69.7984 1124.73 69.1516C1128.6 67.1293 1136.5 68.0217 1138.22 70.6744C1138.7 71.4195 1138.99 71.4195 1139.49 70.6499C1140.56 69.0042 1146.41 67.3258 1148.66 68.0135C1149.79 68.3574 1151.63 68.8404 1152.76 69.0861C1156.37 69.8803 1156.9 72.7459 1156.66 90.1607L1156.44 106.036H1151.53H1146.62L1146.16 90.8894C1145.92 82.5545 1145.64 75.6525 1145.55 75.5378C1145.06 74.9074 1141.48 75.4805 1140.65 76.3156C1139.96 77.0034 1139.66 81.6293 1139.66 91.8719V106.446H1134.76H1129.85V92.0602C1129.85 76.8396 1129.49 75.3331 1125.91 75.3331C1122.9 75.3331 1122.51 77.0935 1122.29 91.7736L1122.07 106.036L1117.54 106.274C1115.04 106.413 1112.74 106.257 1112.43 105.938ZM1165.95 104.194L1163.26 101.943L1163.29 87.0085C1163.33 68.21 1163.09 68.603 1174.36 68.1118C1182.92 67.7351 1187.36 68.7586 1189.13 71.5178C1190.08 72.9833 1190.9 83.6926 1190.48 89.0226C1190.42 89.7186 1187.78 90.087 1181.6 90.2508L1172.8 90.48V94.1644V97.8488L1176.69 98.0944C1180.14 98.3236 1180.58 98.1599 1180.58 96.6616C1180.58 95.1551 1181.07 94.9831 1185.48 94.9831C1190.38 94.9831 1190.39 94.9913 1190.39 97.3984C1190.39 100.919 1188.76 103.957 1186.57 104.505C1185.53 104.767 1184.67 105.316 1184.67 105.717C1184.67 106.118 1181.07 106.446 1176.66 106.446C1169.12 106.446 1168.49 106.315 1165.95 104.194ZM1180.73 82.6528C1180.89 82.1697 1180.88 80.3275 1180.71 78.559C1180.4 75.3413 1180.4 75.3331 1176.82 75.3331C1173.69 75.3331 1173.18 75.5869 1172.73 77.38C1172.45 78.5099 1172.45 80.3439 1172.73 81.4738C1173.18 83.2668 1173.69 83.5206 1176.84 83.5206C1178.82 83.5206 1180.57 83.1276 1180.73 82.6528ZM1196.94 87.205V67.9644H1201.4C1204.78 67.9644 1206.06 68.3083 1206.7 69.3972C1207.34 70.478 1207.72 70.5844 1208.22 69.8148C1210.2 66.8263 1222.31 68.1118 1222.31 71.3049C1222.31 72.1646 1222.67 72.8769 1223.12 72.8769C1223.64 72.8769 1223.94 79.0175 1223.94 89.6613V106.446H1219.03H1214.12V92.0602C1214.12 77.0525 1213.75 75.3331 1210.44 75.3331C1207.14 75.3331 1206.76 77.0525 1206.76 92.0602V106.446H1201.85H1196.94V87.205ZM1237.18 104.988C1235.36 104.088 1234.32 102.884 1234.01 101.345C1233.75 100.076 1233.29 98.8804 1232.97 98.6839C1232.65 98.4874 1232.56 94.4755 1232.77 89.7677C1233.24 79.3041 1232.66 75.6688 1230.47 75.0875C1228.08 74.4653 1228.29 70.1668 1230.8 68.1936C1231.99 67.2439 1232.74 65.8029 1232.74 64.411C1232.74 61.4471 1233.18 61.1114 1237.26 60.9886C1242.7 60.8331 1243.46 61.2424 1243.74 64.5584C1243.92 66.7854 1244.41 67.6205 1245.62 67.8498C1247.76 68.2509 1248.32 69.2253 1248.16 72.3529C1248.05 74.5144 1247.68 74.9647 1245.79 75.1858L1243.53 75.4478L1243.76 86.6483C1243.98 97.4066 1244.05 97.8569 1245.75 98.1026C1247.2 98.3073 1247.56 99.0032 1247.81 102.049C1247.96 104.079 1247.94 105.897 1247.75 106.094C1246.88 106.97 1239.64 106.208 1237.18 104.988ZM1271.69 105.308C1267.13 102.778 1267.31 103.736 1267.31 81.5229V60.8904L1269.36 59.1055C1271.23 57.468 1272.29 57.3206 1281.91 57.3206C1291.05 57.3206 1292.6 57.5171 1293.78 58.8189C1294.52 59.6377 1295.13 60.9068 1295.13 61.6355C1295.13 62.3641 1295.51 63.1911 1295.98 63.4858C1296.47 63.7888 1296.69 65.8111 1296.5 68.2428L1296.17 72.4675L1290.77 72.7049L1285.39 72.9506L1285.14 68.2018C1284.91 63.5759 1284.83 63.4531 1282.4 63.2156C1280.75 63.0519 1279.43 63.5022 1278.5 64.5256C1277.25 65.9093 1277.12 67.8989 1277.31 81.965L1277.54 97.8488L1281.38 98.0944L1285.22 98.3482L1285.47 94.0006L1285.72 89.6613L1289.35 89.3993C1294.32 89.0472 1296.76 90.4718 1296.76 93.7304C1296.76 95.1387 1296.36 96.6943 1295.87 97.1856C1295.28 97.7751 1295.26 98.2418 1295.81 98.5856C1297.2 99.4371 1294.64 103.359 1291.68 104.939C1288.47 106.65 1274.56 106.912 1271.69 105.308ZM1307.06 105.373C1302.47 102.507 1302.49 102.606 1302.49 86.853C1302.49 70.9201 1302.61 70.478 1307.33 68.6358C1310.05 67.5632 1321.24 67.6614 1325.44 68.7913C1327.81 69.4299 1328.67 70.0931 1328.67 71.2721C1328.67 72.1564 1329.04 72.8769 1329.49 72.8769C1330.01 72.8769 1330.31 77.9368 1330.31 86.4272C1330.31 101.05 1329.47 104.808 1326.19 104.808C1325.31 104.808 1324.58 105.177 1324.58 105.627C1324.58 106.806 1309 106.585 1307.06 105.373ZM1320.49 87.7781C1320.49 80.7205 1320.17 76.9788 1319.51 76.3156C1318.05 74.8583 1313.4 75.0793 1312.81 76.6268C1312.16 78.3134 1312.18 91.2251 1312.83 95.1878C1313.33 98.1926 1313.42 98.2581 1316.92 98.2581H1320.49V87.7781ZM1336.41 105.406C1336.19 104.833 1336.1 96.2604 1336.23 86.3699L1336.45 68.3738L1341.05 68.1281C1345.22 67.9153 1345.69 68.0544 1346.13 69.7247C1346.55 71.3704 1346.76 71.4359 1348.07 70.3715C1350.81 68.1691 1353.16 67.1702 1354.44 67.6615C1355.43 68.0463 1355.5 68.4147 1354.78 69.2908C1354.1 70.1095 1354.09 70.4206 1354.76 70.4206C1355.26 70.4206 1355.68 71.6733 1355.68 73.1962C1355.68 76.1273 1354.66 76.9706 1351.12 76.9706C1350.04 76.9706 1348.41 77.6093 1347.5 78.3789C1345.98 79.6889 1345.86 80.7778 1345.86 93.1164V106.446H1341.33C1338.42 106.446 1336.66 106.077 1336.41 105.406ZM1396.5 104.571L1393.72 102.696L1393.5 87.0003L1393.28 71.2967L1395.51 69.8393C1398.21 68.0544 1410.86 67.3176 1415.34 68.6767C1420.39 70.2159 1421.13 72.6394 1421.13 87.5571C1421.13 99.257 1420.98 100.641 1419.51 102.336C1416.67 105.602 1414 106.446 1406.43 106.446C1400.33 106.446 1398.87 106.167 1396.5 104.571ZM1410.5 86.7956V75.3331H1406.81H1403.13V86.7956V98.2581H1406.81H1410.5V86.7956ZM1428.87 105.406C1428.64 104.833 1428.56 96.2604 1428.69 86.3699L1428.91 68.3738L1432.96 68.1199C1436.39 67.8989 1437.23 68.1445 1438.46 69.7574C1439.26 70.7973 1439.93 71.2721 1439.94 70.8136C1439.96 69.6919 1445.27 66.8755 1446.56 67.3012C1447.94 67.7597 1448.48 74.3425 1447.27 75.808C1446.74 76.4466 1445.11 76.9706 1443.66 76.9706C1438.77 76.9706 1438.32 78.3625 1438.32 93.2065V106.446H1433.79C1430.88 106.446 1429.12 106.077 1428.87 105.406ZM1455.5 104.972C1453.56 104.022 1452.54 102.909 1452.36 101.525C1452.21 100.403 1451.75 99.1342 1451.34 98.7085C1450.29 97.6277 1450.36 74.5144 1451.41 74.5144C1451.86 74.5144 1452.23 73.8348 1452.23 72.9997C1452.23 69.2416 1458.8 67.0719 1464.98 68.8077C1467.76 69.5855 1468.91 69.6101 1469.61 68.9059C1470.13 68.3901 1472.08 67.9644 1473.93 67.9644C1479.1 67.9644 1479.31 68.8241 1479.05 88.8425L1478.82 106.036L1474.36 106.29C1471.86 106.429 1469.06 106.094 1467.99 105.529C1466.54 104.751 1465.88 104.734 1465.14 105.48C1463.75 106.863 1458.85 106.601 1455.5 104.972ZM1467.77 86.7956V75.3331H1464.91H1462.04V86.7956V98.2581H1464.91H1467.77V86.7956ZM1490.75 104.882C1486.85 102.81 1485.8 98.7658 1485.79 85.8704C1485.77 76.2174 1485.67 75.4969 1484.14 75.0957C1481.79 74.4816 1481.96 70.3961 1484.42 68.079C1485.72 66.8591 1486.23 65.6391 1485.99 64.3455C1485.54 62.0203 1485.98 61.7173 1490.68 61.0623C1495.22 60.4319 1496.69 61.3161 1496.59 64.6403C1496.52 66.8509 1496.85 67.2766 1498.92 67.686C1501.13 68.1281 1501.32 68.4474 1501.32 71.747C1501.32 75.022 1501.15 75.3331 1499.27 75.3331H1497.23V86.7956V98.2581H1499.27C1501.18 98.2581 1501.32 98.5283 1501.32 102.352V106.446L1497.43 106.413C1495.3 106.397 1492.29 105.709 1490.75 104.882ZM1507.41 105.406C1507.19 104.833 1507.11 96.2604 1507.23 86.3699L1507.46 68.3738L1512.16 68.1281L1516.87 67.8825V87.1641V106.446H1512.34C1509.43 106.446 1507.67 106.077 1507.41 105.406ZM1527.71 104.333L1525.05 102.237V86.8611C1525.05 67.8579 1524.61 68.5784 1536.47 68.1036C1551.76 67.4895 1552.79 68.8077 1552.59 88.777C1552.49 98.3728 1552.19 101.893 1551.44 102.147C1550.87 102.336 1550.41 103.007 1550.41 103.646C1550.41 104.284 1549.7 104.808 1548.83 104.808C1547.95 104.808 1547.01 105.177 1546.73 105.627C1546.45 106.085 1542.71 106.446 1538.29 106.437C1531.03 106.429 1530.15 106.249 1527.71 104.333ZM1542.23 86.7956V75.3331H1538.55H1534.87V86.7956V98.2581H1538.55H1542.23V86.7956ZM1560.42 87.4097L1560.64 68.3738L1564.06 67.9153C1566.52 67.5878 1567.98 67.8416 1569.26 68.8077C1570.88 70.0276 1571.37 70.0358 1574.44 68.9305C1576.64 68.1363 1578.91 67.9071 1580.88 68.2755C1583.71 68.8077 1584.41 69.2826 1587.03 72.402C1587.76 73.2863 1588.05 77.8467 1588.05 88.7443C1588.05 97.0546 1587.83 104.44 1587.55 105.152C1587.18 106.11 1585.92 106.446 1582.64 106.446C1578.39 106.446 1578.23 106.364 1578.19 104.194C1578.17 102.958 1578.19 96.6452 1578.23 90.1771C1578.3 80.172 1578.1 78.1824 1576.91 76.8724C1575.34 75.1284 1572.49 74.8583 1571.03 76.3156C1570.34 77.0034 1570.05 81.6293 1570.05 91.8719V106.446H1565.12H1560.2L1560.42 87.4097ZM1607.69 81.8831V57.3206H1612.6H1617.51V77.7894V98.2581H1624.48C1631.12 98.2581 1631.5 98.3564 1632.38 100.305C1633.08 101.836 1633.08 102.868 1632.38 104.399C1631.45 106.446 1631.45 106.446 1619.57 106.446H1607.69V81.8831ZM1641.64 104.89C1640.22 104.055 1639.08 102.622 1638.9 101.468C1638.75 100.379 1638.27 99.0441 1637.82 98.5119C1637.39 97.9798 1637.11 96.506 1637.21 95.2369C1637.31 93.9679 1637.33 89.0145 1637.27 84.2248C1637.14 75.6525 1637.11 75.5051 1635.1 74.9974C1633.51 74.5963 1633.05 73.9576 1633.05 72.14C1633.05 70.5353 1633.71 69.3644 1635.1 68.4474C1636.32 67.6451 1637.14 66.3351 1637.14 65.1806C1637.14 61.9957 1639.38 61.0623 1646.35 61.3243C1648.36 61.4062 1648.6 61.7173 1648.6 64.2964C1648.6 66.6462 1648.99 67.334 1650.69 67.9808C1652.5 68.6685 1652.76 69.2007 1652.54 71.8534C1652.33 74.3179 1651.92 74.9729 1650.44 75.1858C1648.63 75.4396 1648.6 75.6525 1648.6 86.7956C1648.6 97.9388 1648.63 98.1517 1650.44 98.4055C1652.01 98.6266 1652.31 99.2406 1652.53 102.557L1652.78 106.446L1648.44 106.388C1645.88 106.347 1643.09 105.733 1641.64 104.89ZM1662.51 105.823C1662.51 105.48 1661.68 104.833 1660.67 104.391C1659.62 103.932 1658.71 102.696 1658.56 101.533C1658.4 100.403 1657.94 99.1342 1657.53 98.7085C1656.49 97.6277 1656.55 75.3331 1657.6 75.3331C1658.05 75.3331 1658.42 74.4653 1658.42 73.4091C1658.42 72.3611 1659.15 70.83 1660.05 70.0194C1662.07 68.1854 1668.97 67.424 1671.46 68.7586C1672.47 69.2908 1673.44 69.5855 1673.62 69.3972C1673.8 69.2171 1674 66.1468 1674.05 62.577C1674.1 59.0154 1674.5 55.634 1674.97 55.0691C1676.08 53.7018 1683.33 53.7427 1684.48 55.1264C1685.8 56.723 1685.88 103.678 1684.56 105.267C1683.44 106.618 1676.8 106.896 1676.01 105.627C1675.73 105.177 1674.42 104.808 1673.1 104.808C1671.77 104.808 1670.69 105.177 1670.69 105.627C1670.69 106.077 1668.85 106.446 1666.6 106.446C1664.35 106.446 1662.51 106.167 1662.51 105.823ZM1674.28 92.7316C1674.87 85.7231 1674.88 80.4585 1674.29 77.5847C1673.9 75.6606 1673.43 75.3331 1671.04 75.3331H1668.24V86.7956V98.2581H1671.02H1673.8L1674.28 92.7316ZM1691.97 100.714V94.9831H1696.87H1701.78V100.714V106.446H1696.87H1691.97V100.714ZM105.201 68.865C104.424 67.555 103.794 65.7128 103.794 64.7713C103.794 63.8215 103.425 63.0519 102.975 63.0519C102.525 63.0519 102.157 62.3641 102.157 61.529C102.157 60.6939 101.241 59.3184 100.111 58.4669C98.9823 57.6236 98.0659 56.461 98.0659 55.8796C98.0659 55.3065 97.1495 53.3743 96.0204 51.5894C94.8912 49.8045 93.9748 47.7904 93.9748 47.1026C93.9748 46.4149 93.6066 45.8581 93.1566 45.8581C91.9293 45.8581 92.1747 40.176 93.4512 38.8906C94.0648 38.2765 96.184 37.6624 98.1559 37.5151L101.748 37.2613L101.985 30.5066C102.116 26.7894 102.574 23.7519 103.008 23.7519C103.442 23.7519 103.794 22.4583 103.794 20.8863C103.794 18.3727 104.047 18.0206 105.839 18.0206C107.713 18.0206 107.885 18.3236 107.885 21.6395C107.885 23.6291 108.236 25.373 108.662 25.5286C109.087 25.6759 109.693 30.1299 110.012 35.4191C110.323 40.7082 110.896 45.0394 111.28 45.0394C111.665 45.0394 111.976 46.2757 111.976 47.7904C111.976 49.8127 111.411 50.9508 109.84 52.0888C108.662 52.9403 107.238 54.0784 106.674 54.6106C105.569 55.6586 105.954 59.7769 107.165 59.7769C107.557 59.7769 107.885 61.0623 107.885 62.6425C107.885 64.2227 108.253 65.5081 108.703 65.5081C109.93 65.5081 109.685 68.734 108.351 70.0686C106.813 71.6078 106.821 71.616 105.201 68.865ZM803.53 57.9347L803.784 54.455L808.423 54.2094C812.432 54.0047 813.128 54.1848 813.57 55.5767C813.848 56.4609 813.84 58.1312 813.545 59.2938C813.054 61.2752 812.702 61.4144 808.145 61.4144H803.285L803.53 57.9347ZM1507.2 57.9347L1507.46 54.455L1512.16 54.2094L1516.87 53.9638V57.6891V61.4144H1511.91H1506.96L1507.2 57.9347ZM111.82 13.3701C112.409 13.1327 113.121 13.1573 113.391 13.4356C113.661 13.7058 113.179 13.8941 112.319 13.8614C111.362 13.8204 111.166 13.6321 111.82 13.3701Z" fill="#25274C"/>
</svg>
