<svg width="843" height="119" viewBox="0 0 843 119" fill="none" xmlns="http://www.w3.org/2000/svg">
<path d="M152.131 118.042C141.541 116.21 136.747 114.068 130.866 108.564C125.788 103.806 123.009 98.8031 121.514 91.7245C117.233 71.4246 128.021 54.5586 149.2 48.4291C153.817 47.0911 155.806 46.9132 165.961 46.9593C176.202 46.9989 178.184 47.1966 183.743 48.7059C187.187 49.6418 190.519 50.6172 191.152 50.8677C192.146 51.2697 192.304 50.9336 192.298 48.462C192.271 38.7866 186.548 30.146 177.868 26.6594C174.628 25.3544 173.028 25.183 164.315 25.1896C152.355 25.2028 146.988 26.4749 136.549 31.7871C132.802 33.6919 129.733 35.2012 129.726 35.1485C129.153 30.8512 127.797 15.6988 127.783 13.4645L127.764 10.347L131.55 8.44222C144.465 1.94362 162.043 -1.1475 177.21 0.407945C200.47 2.79384 214.617 13.7808 220.109 33.7248C221.512 38.8262 221.571 40.2168 221.782 77.0598L222.006 115.122H208.854C201.623 115.122 195.235 114.944 194.662 114.72C193.806 114.391 193.615 113.086 193.602 107.305L193.582 100.293L192.172 102.27C187.536 108.769 178.751 114.582 170.242 116.783C166.277 117.805 155.213 118.576 152.131 118.042ZM175.794 94.9804C180.502 93.6557 185.257 90.1889 187.753 86.2541C190.243 82.3391 192.456 75.1551 192.186 71.8794C191.975 69.3749 191.955 69.3551 187.036 67.7337C182.695 66.2969 180.898 66.0926 172.218 66.0597C163.254 66.0267 162.036 66.1585 159.053 67.536C152.691 70.469 150.155 74.3378 150.155 81.1132C150.155 83.4596 150.471 86.2146 150.853 87.2296C152.157 90.6898 156.175 94.0182 160.686 95.3957C163.584 96.2723 172.007 96.0416 175.794 94.9804ZM267.876 117.706C259.802 116.711 247.783 113.343 241.862 110.416C238.872 108.94 236.435 107.543 236.435 107.305C236.455 106.337 240.38 84.58 240.578 84.3889C240.69 84.2703 242.995 85.3512 245.688 86.788C256.067 92.3243 268.001 95.0529 279.737 94.5652C291.367 94.0907 296.05 90.8677 295.523 83.71C295.384 81.8448 294.778 79.5578 294.173 78.6285C292.625 76.2623 285.104 72.8746 274.297 69.6715C261.066 65.7433 252.399 61.3801 246.913 55.8834C243.693 52.6538 242.198 50.5382 241.157 47.7436C236.139 34.2719 238.925 20.0949 248.309 11.4015C260.216 0.361809 282.522 -2.96658 306.159 2.76089C313.146 4.45474 322.044 8.07313 322.044 9.21995C322.044 9.60881 321.26 14.7826 320.298 20.721C318.823 29.8758 318.395 31.4707 317.499 31.1807C316.92 30.9962 313.811 29.7571 310.597 28.4258C302.076 24.8996 293.718 23.3442 284.834 23.6276C273.586 23.9901 269.357 26.7583 269.357 33.7776C269.357 36.6182 269.627 37.1719 272.216 39.6632C274.81 42.148 276.312 42.8071 288.318 46.7484C295.595 49.1343 304.012 52.2979 307.021 53.7677C321.866 61.044 327.977 70.7392 327.147 85.6939C326.943 89.4771 326.311 93.0295 325.468 95.2243C321.385 105.809 310.413 113.659 295.391 116.75C288.976 118.068 274.791 118.563 267.876 117.706ZM369.132 117.956C364.68 117.554 355.539 115.775 350.692 114.377C345.192 112.782 335.215 108.123 335.215 107.141C335.215 106.165 338.534 85.9773 338.864 84.9623C339.048 84.3823 340.899 85.0282 344.909 87.0648C355.17 92.2716 364.746 94.6641 375.434 94.6773C383.844 94.6904 388.369 93.5107 391.741 90.413C393.993 88.35 394.158 87.9414 394.158 84.3625C394.158 81.5614 393.802 80.0257 392.84 78.7076C390.911 76.0448 385.017 73.3755 372.754 69.599C348.439 62.1183 340.108 55.0002 337.724 39.683C336.032 28.7817 339.173 18.9613 346.661 11.7706C353.675 5.03474 361.861 1.79862 375.553 0.368399C388.092 -0.949776 405.558 1.69976 416.444 6.56382C420.573 8.40927 420.922 8.71904 420.619 10.2745C420.435 11.2104 419.625 16.2722 418.821 21.5317C418.011 26.7912 417.26 31.1939 417.148 31.3257C417.043 31.4576 414.488 30.5151 411.478 29.2298C401.646 25.0249 396.048 23.8781 385.267 23.8583C376.593 23.8385 375.461 23.9769 372.932 25.328C369.665 27.0746 368.144 29.6385 368.144 33.3953C368.144 40.0521 370.883 41.8382 390.41 47.882C401.711 51.3818 412.341 56.7533 417.201 61.4263C429.082 72.8549 429.082 93.7809 417.201 105.486C407.533 115.01 389.159 119.775 369.132 117.956ZM592.06 117.416C572.026 114.279 554.718 100.919 547.29 82.8598C543.865 74.5289 542.989 69.5462 543.055 58.7702C543.127 47.5195 544.286 41.9173 548.291 33.4546C555.924 17.3333 571.308 5.24565 589.096 1.3768C595.952 -0.106144 610.269 -0.139098 616.835 1.31749C628.064 3.82202 636.856 8.46859 644.93 16.1865C653.169 24.056 658.358 32.7494 661.302 43.6111C663.331 51.1247 663.357 67.0022 661.348 74.3905C653.103 104.676 624.422 122.484 592.06 117.416ZM609.466 89.0882C618.1 87.2559 623.935 82.438 628.15 73.6655C630.296 69.2035 630.52 68.1753 630.79 61.5647C631.271 49.9713 628.828 42.5698 622.4 36.1371C614.451 28.1885 601.122 26.0992 590.472 31.1478C586.396 33.0789 580.442 38.9448 578.309 43.1234C574.95 49.7143 573.922 60.8463 575.944 68.6367C578.625 78.9185 586.178 86.7089 595.715 89.0157C600.819 90.2548 603.888 90.268 609.466 89.0882ZM0 82.8862C0 55.6724 0.204158 46.9461 0.922006 43.1696C5.67034 18.3417 26.264 1.09999 51.1779 1.09999C60.1082 1.09999 65.9959 2.45112 74.1425 6.37928C86.9649 12.5615 96.3694 23.6935 100.861 38.0287C102.409 42.9521 102.409 42.9521 102.409 80.1905V117.429L89.237 117.614C81.9927 117.719 75.4003 117.64 74.5837 117.436L73.1019 117.073V83.5453C73.1019 51.8168 73.0295 49.7802 71.7782 45.7202C70.0988 40.2827 65.9827 35.5175 60.7207 32.9339C57.4871 31.3455 56.1897 31.0885 51.3689 31.1017C46.8906 31.1148 45.1585 31.4246 42.7152 32.6241C37.8022 35.043 34.4962 38.3318 32.1319 43.13L29.9652 47.5327L29.761 82.6489L29.5635 117.759H14.7784H0V82.8862ZM484.382 116.849C464.144 113.507 449.432 103.292 441.549 87.1109C437.261 78.3253 435.773 71.3521 435.766 60.0883C435.766 49.622 436.893 43.1366 440.034 35.5571C447.357 17.9001 462.445 6.02337 483.065 1.6668C488.281 0.566126 504.831 0.566126 511.055 1.6668C517.206 2.7543 529.291 6.68905 531.398 8.29063L532.972 9.48358L531.122 22.2633C530.107 29.2958 529.199 35.1485 529.1 35.2737C529.008 35.3989 527.005 34.7266 524.654 33.7907C516.389 30.4821 509.507 29.1903 500.188 29.2101C493.049 29.2233 490.922 29.4671 487.379 30.6996C474.53 35.1682 467.589 45.16 467.589 59.1656C467.589 78.9053 481.873 90.5382 504.462 89.187C511.957 88.7389 519.504 87.1439 526.373 84.5603L530.726 82.9191L531.069 84.6855C532.044 89.7868 534.184 108.044 533.888 108.802C533.361 110.186 524.095 113.751 516.409 115.531C507.67 117.554 492.437 118.18 484.382 116.849ZM681.244 116.875C681.06 116.388 681 98.8163 681.106 77.8244L681.31 39.6566L683.094 34.3839C685.735 26.6133 689.147 21.2351 695.515 14.8354C700.27 10.057 702.187 8.64654 707.376 6.12883C715.134 2.36543 720.376 1.11976 728.582 1.10658C739.778 1.0934 749.426 4.21747 757.816 10.5843L761.893 13.6754L766.049 10.6172C774.788 4.17133 781.657 1.76567 792.675 1.27794C802.758 0.836352 808.566 2.02271 816.719 6.19473C829.535 12.7461 838.301 24.0362 841.699 38.3582C842.911 43.4464 842.977 46.0234 842.819 80.6057L842.648 117.429H828.159H813.67L813.341 81.1791L813.012 44.9293L811.161 41.1593C804.141 26.844 783.336 27.7799 778.101 42.6489C777.277 44.9755 777.119 51.2631 777.119 81.5944V117.759H761.972H746.825V81.2846V44.8107L744.79 40.7441C741.846 34.8387 736.979 31.5367 730.347 30.9303C723.103 30.2778 716.28 34.1269 712.717 40.8825L710.932 44.2702L710.741 81.0144L710.551 117.759H696.068C684.57 117.759 681.514 117.574 681.244 116.875Z" fill="#25274C"/>
</svg>
