<svg width="1326" height="254" viewBox="0 0 1326 254" fill="none" xmlns="http://www.w3.org/2000/svg">
<path d="M112.477 253.489C109.777 253.161 104.248 252.857 100.182 252.808C93.8752 252.734 92.591 252.48 91.3967 251.077C90.3823 249.887 88.9835 249.436 86.3086 249.436C83.7155 249.436 82.6194 249.099 82.6194 248.304C82.6194 247.114 80.2226 246.187 77.0978 246.162C76.0834 246.162 74.5619 245.456 73.703 244.595C72.8523 243.742 70.9872 242.782 69.5557 242.47C68.1323 242.15 66.7663 241.378 66.529 240.747C66.2836 240.107 65.3756 239.59 64.5086 239.59C63.6415 239.59 62.7335 239.056 62.4881 238.408C62.2345 237.76 60.9175 236.981 59.5514 236.677C58.0953 236.365 56.8928 235.487 56.6556 234.576C56.4348 233.723 55.5758 233.026 54.7415 233.026C53.9071 233.026 52.86 232.336 52.4101 231.491C51.9602 230.646 50.4796 229.735 49.1135 229.465C47.7066 229.177 46.6268 228.447 46.6268 227.766C46.6268 227.11 45.8906 226.338 44.9907 226.051C44.0909 225.764 43.3547 225.001 43.3547 224.353C43.3547 223.705 42.9702 223.179 42.504 223.179C41.416 223.179 32.7205 214.425 32.7205 213.333C32.7205 212.882 32.1316 212.513 31.4199 212.513C30.7 212.513 29.9229 211.774 29.6857 210.872C29.4485 209.969 28.7614 209.231 28.1642 209.231C27.5589 209.231 26.8308 207.975 26.5445 206.433C26.2092 204.652 25.4566 203.487 24.4668 203.233C23.5915 203.003 22.9044 202.101 22.9044 201.198C22.9044 200.263 22.2091 199.393 21.2684 199.147C20.1722 198.859 19.6323 198.031 19.6323 196.619C19.6323 195.356 18.9779 194.166 17.9963 193.641C17.0965 193.157 16.3603 192.082 16.3603 191.245C16.3603 190.408 15.6241 189.538 14.7242 189.301C13.4809 188.972 13.0882 188.185 13.0882 185.977C13.0882 183.803 12.6792 182.958 11.4522 182.564C10.1843 182.162 9.81616 181.325 9.81616 178.806C9.81616 176.591 9.30081 175.13 8.18014 174.17C7.05128 173.202 6.54411 171.733 6.52775 169.461C6.51957 166.695 4.9817 162.01 4.90808 164.513C4.89172 164.964 4.52361 164.775 4.09007 164.103C3.65652 163.43 3.28841 159.918 3.27205 156.308C3.24751 148.661 2.69944 146.051 1.12886 146.051C0.204503 146.051 0 142.827 0 128.041C0 111.737 0.139062 109.957 1.43152 109.227C2.60128 108.57 2.91213 107.011 3.14117 100.644C3.38658 93.8174 3.61562 92.8164 4.9817 92.4636C6.28234 92.119 6.54411 91.2903 6.54411 87.5569C6.54411 83.7497 6.79769 82.9949 8.18014 82.6339C9.5135 82.281 9.81616 81.518 9.81616 78.4821C9.81616 75.799 10.2333 74.4615 11.3295 73.6903C12.1557 73.0995 13.0964 71.2287 13.4072 69.5385C13.759 67.6513 14.4461 66.4615 15.1742 66.4615C15.8286 66.4615 16.3603 65.7641 16.3603 64.919C16.3603 64.0574 17.0883 63.1795 17.9963 62.9415C19.1988 62.6297 19.6323 61.8256 19.6323 59.8974C19.6323 57.9938 20.0659 57.1651 21.2193 56.8615C22.0945 56.6318 22.9289 55.6554 23.0598 54.6872C23.1989 53.719 23.8533 52.9231 24.5077 52.9231C25.2112 52.9231 25.9965 51.6841 26.4137 49.9282C26.8554 48.0328 27.6979 46.7774 28.6959 46.5149C29.5548 46.2851 30.2665 45.5138 30.2665 44.7918C30.2665 44.0779 30.8146 43.4872 31.4935 43.4872C32.1725 43.4872 32.7205 42.921 32.7205 42.24C32.7205 41.5508 33.5876 40.6564 34.6511 40.2462C35.7145 39.8441 36.7861 38.7446 37.0315 37.8092C37.2769 36.8656 38.0213 36.1026 38.6839 36.1026C39.3465 36.1026 40.0908 35.3231 40.3444 34.3795C40.6062 33.3621 41.1706 32.8944 41.7187 33.2308C42.2668 33.5672 42.8312 33.0995 43.093 32.0821C43.3465 31.1385 44.0909 30.359 44.7535 30.359C45.4161 30.359 46.1523 29.6287 46.3814 28.7344C46.6595 27.6759 47.7802 26.9374 49.6289 26.5846C51.6003 26.2154 52.3201 25.7067 52.0093 24.9026C51.7148 24.1231 52.3447 23.5897 53.9316 23.2697C55.265 23.0072 56.4675 22.1456 56.6883 21.3005C56.9501 20.3077 57.9972 19.7251 59.8295 19.5446C61.6128 19.3723 62.578 18.8472 62.578 18.0513C62.578 17.3785 63.4042 16.7056 64.4186 16.5579C65.4329 16.4103 66.2591 15.8031 66.2591 15.1959C66.2591 14.5477 67.617 13.8667 69.5312 13.5385C71.3308 13.2349 73.1222 12.4144 73.5067 11.7169C73.9484 10.9292 75.8135 10.2892 78.4148 10.0431C81.8341 9.71487 82.6194 9.35385 82.6194 8.09846C82.6194 6.76923 83.2738 6.5641 87.5275 6.5641C91.8875 6.5641 92.4355 6.38359 92.4355 4.92308C92.4355 3.39692 92.9836 3.28205 100.1 3.28205C109.516 3.28205 113.131 2.65026 112.55 1.1159C112.199 0.205128 114.563 0 125.704 0C137.704 0 139.414 0.164103 140.338 1.4359C141.23 2.65846 143.071 2.91282 152.903 3.14256C162.989 3.37231 164.527 3.59385 165.214 4.88205C165.762 5.89949 167.292 6.47385 170.229 6.76103C172.969 7.02359 174.72 7.63897 175.21 8.50872C175.701 9.39487 177.043 9.84615 179.186 9.84615C181.869 9.84615 182.417 10.1251 182.417 11.4872C182.417 12.8574 182.965 13.1282 185.689 13.1282C188.339 13.1282 188.961 13.4154 188.961 14.6626C188.961 15.8195 189.771 16.3282 192.233 16.7221C194.352 17.0667 195.505 17.6821 195.505 18.4697C195.505 19.1508 196.241 19.6923 197.166 19.6923C198.082 19.6923 199.039 20.2421 199.301 20.9149C199.554 21.5959 200.094 21.9405 200.495 21.6944C200.904 21.44 201.231 21.6205 201.231 22.0882C201.231 22.5559 202.148 23.1713 203.276 23.4585C204.405 23.7374 205.321 24.4841 205.321 25.1159C205.321 25.7395 206.058 26.2564 206.957 26.2564C208.045 26.2564 208.593 26.8062 208.593 27.8974C208.593 29.0133 209.142 29.5385 210.303 29.5385C211.317 29.5385 212.193 30.1949 212.438 31.1303C212.675 32.0574 213.845 32.9436 215.219 33.2472C216.528 33.5344 217.592 34.2728 217.592 34.88C217.592 35.4954 218.361 36.2338 219.301 36.5374C220.242 36.8328 221.51 38.2441 222.132 39.6718C222.745 41.0913 223.269 41.9528 223.285 41.5836C223.342 40.4021 225.772 43.3149 225.772 44.5621C225.772 45.2185 226.508 45.9487 227.408 46.1867C228.389 46.441 229.044 47.3026 229.044 48.3364C229.044 49.5015 229.567 50.0513 230.68 50.0513C231.735 50.0513 232.316 50.601 232.316 51.5938C232.316 52.4554 233.044 53.3333 233.952 53.5713C235.203 53.8995 235.588 54.6872 235.588 56.9518C235.588 59.3477 235.891 59.8974 237.224 59.8974C238.279 59.8974 238.86 60.4472 238.86 61.44C238.86 62.3015 239.588 63.1795 240.496 63.4174C241.739 63.7456 242.132 64.5333 242.132 66.6995C242.132 68.8656 242.525 69.6533 243.768 69.9815C245.028 70.3097 245.404 71.0974 245.404 73.4359C245.404 75.7744 245.78 76.562 247.04 76.8903C248.414 77.2513 248.676 78.0062 248.676 81.641C248.676 85.2759 248.938 86.0308 250.312 86.3918C251.703 86.7528 251.948 87.5077 251.948 91.3805C251.948 95.0154 252.259 96.1149 253.494 96.7713C254.828 97.4933 255.081 98.798 255.343 106.511C255.58 113.6 255.94 115.709 257.069 116.841C258.263 118.047 258.492 119.861 258.492 128.287C258.492 137.288 258.329 138.445 256.856 139.709C255.4 140.956 255.22 142.129 255.22 150.146C255.22 158.63 255.122 159.179 253.584 159.179C252.128 159.179 251.948 159.729 251.948 164.045C251.948 168.197 251.703 168.993 250.312 169.436C248.979 169.863 248.676 170.675 248.676 173.899C248.676 177.608 247.212 180.414 245.944 179.134C245.649 178.839 245.404 180.111 245.404 181.965C245.404 184.542 245.044 185.444 243.85 185.822C242.885 186.125 242.099 187.397 241.764 189.202C241.469 190.786 240.692 192.287 240.038 192.542C239.392 192.788 238.86 193.698 238.86 194.552C238.86 195.52 238.287 196.103 237.33 196.103C236.177 196.103 235.67 196.915 235.277 199.385C234.933 201.51 234.32 202.667 233.535 202.667C232.864 202.667 232.316 203.405 232.316 204.308C232.316 205.399 231.768 205.949 230.68 205.949C229.592 205.949 229.044 206.498 229.044 207.59C229.044 208.517 228.496 209.231 227.8 209.231C227.113 209.231 226.197 210.15 225.772 211.282C225.346 212.414 224.43 213.333 223.743 213.333C223.064 213.333 222.5 213.727 222.5 214.219C222.5 215.311 218.009 219.897 216.929 219.897C216.504 219.897 215.956 220.636 215.718 221.538C215.481 222.441 214.745 223.179 214.082 223.179C213.42 223.179 212.684 223.918 212.446 224.821C212.193 225.805 211.334 226.462 210.303 226.462C209.142 226.462 208.593 226.987 208.593 228.103C208.593 229.194 208.045 229.744 206.957 229.744C206.058 229.744 205.321 230.269 205.321 230.909C205.321 231.549 204.217 232.32 202.859 232.615C201.509 232.919 200.021 233.871 199.563 234.732C199.096 235.602 198 236.308 197.109 236.308C196.225 236.308 195.505 236.825 195.505 237.448C195.505 238.777 193.763 239.59 190.941 239.59C189.509 239.59 188.961 240.041 188.961 241.231C188.961 242.601 188.413 242.872 185.689 242.872C182.965 242.872 182.417 243.143 182.417 244.513C182.417 245.867 181.869 246.154 179.325 246.154C177.247 246.154 175.775 246.695 174.834 247.795C173.82 248.985 172.421 249.436 169.771 249.436C167.022 249.436 165.91 249.822 165.288 250.987C164.519 252.423 162.875 252.57 142.563 253.071C130.514 253.366 119.921 253.719 119.021 253.842C118.121 253.973 115.176 253.809 112.477 253.489ZM112.371 223.795C112.64 222.777 112.87 213.177 112.878 202.462C112.886 183.524 112.935 182.974 114.522 182.974C115.61 182.974 116.158 182.425 116.158 181.333C116.158 179.717 116.706 179.692 153.664 179.692C189.305 179.692 191.227 179.618 192.552 178.15C193.362 177.255 195.62 176.386 197.992 176.074C200.634 175.721 202.049 175.138 202.049 174.4C202.049 173.727 203.334 173.054 205.24 172.734C207.432 172.357 208.561 171.692 208.847 170.609C209.076 169.739 209.845 169.026 210.565 169.026C211.277 169.026 211.866 168.468 211.866 167.795C211.866 167.122 212.454 166.564 213.166 166.564C213.886 166.564 214.663 165.826 214.9 164.923C215.138 164.021 215.628 163.282 215.996 163.282C217.044 163.282 221.371 158.942 221.943 157.333C222.222 156.546 222.966 155.897 223.604 155.897C224.242 155.897 224.954 155.159 225.191 154.256C225.428 153.354 226.173 152.615 226.852 152.615C227.653 152.615 228.275 151.467 228.635 149.333C228.946 147.495 229.649 146.051 230.238 146.051C230.909 146.051 231.481 144.295 231.841 141.128C232.218 137.83 232.758 136.205 233.494 136.205C235.023 136.205 235.588 134.326 235.588 129.206C235.588 125.858 235.931 124.603 237.019 123.996C238.32 123.266 238.475 121.149 238.696 101.35C238.909 82.1415 238.77 79.1877 237.559 76.882C236.799 75.438 235.891 72.0574 235.547 69.3744C235.13 66.199 234.402 64.1149 233.453 63.4256C232.659 62.8349 231.907 61.719 231.792 60.9395C231.678 60.16 231.154 59.3723 230.631 59.2C229.927 58.9621 229.944 58.7077 230.696 58.2482C231.441 57.7887 231.236 57.3538 229.976 56.6728C229.011 56.1559 228.226 55.2369 228.226 54.6297C228.226 54.0226 227.449 53.3251 226.508 53.0708C225.559 52.8246 225.027 52.2338 225.33 51.7497C225.633 51.2574 224.937 50.5108 223.776 50.0677C222.622 49.6328 221.682 48.7056 221.682 48.0164C221.682 47.3354 221.093 46.7692 220.381 46.7692C219.661 46.7692 218.884 46.0308 218.647 45.1282C218.41 44.2256 217.673 43.4872 217.011 43.4872C216.348 43.4872 215.612 42.7487 215.375 41.8462C215.048 40.599 214.262 40.2051 212.103 40.2051C210.009 40.2051 209.15 39.7949 208.855 38.6708C208.553 37.5138 207.416 37.0133 204.233 36.6359C201.91 36.3569 199.636 35.6267 199.186 35.0113C198.655 34.281 195.636 33.6903 190.524 33.321C186.213 33.001 180.912 32.2051 178.744 31.5487C172.748 29.7436 93.2535 29.7764 93.2535 31.5897C93.2535 32.2708 92.5255 32.8205 91.6175 32.8205C90.5623 32.8205 89.9815 33.3703 89.9815 34.3631C89.9815 35.2246 90.7095 36.1026 91.6175 36.3405C92.5991 36.5949 93.2535 37.4564 93.2535 38.4903C93.2535 39.4338 93.5807 40.2051 93.9816 40.2051C94.3824 40.2051 95.2986 41.6821 96.0184 43.4872C96.7383 45.2923 97.8835 46.7692 98.5625 46.7692C99.2496 46.7692 99.7977 47.4913 99.7977 48.4103C99.7977 49.5015 100.346 50.0513 101.434 50.0513C102.522 50.0513 103.07 50.601 103.07 51.6923C103.07 52.7836 103.618 53.3333 104.706 53.3333C105.606 53.3333 106.342 53.8831 106.342 54.5559C106.342 55.3436 107.495 55.959 109.614 56.3036C112.068 56.6974 112.886 57.2062 112.886 58.3467C112.886 59.7826 114.031 59.881 132.927 60.0862C145.107 60.2256 152.944 60.6195 152.911 61.0954C152.821 62.2523 155.357 63.0564 159.308 63.1221C162.22 63.1713 162.785 63.4421 162.785 64.8205C162.785 66.1908 163.333 66.4615 166.057 66.4615C168.781 66.4615 169.329 66.7323 169.329 68.1026C169.329 69.1938 169.877 69.7436 170.965 69.7436C172.053 69.7436 172.601 70.2933 172.601 71.3846C172.601 72.4759 173.149 73.0256 174.237 73.0256C175.325 73.0256 175.873 73.5754 175.873 74.6667C175.873 75.7579 176.421 76.3077 177.509 76.3077C178.597 76.3077 179.145 76.8574 179.145 77.9487C179.145 79.04 179.693 79.5897 180.781 79.5897C182.18 79.5897 182.417 80.1395 182.417 83.3149C182.417 86.4164 182.662 87.0072 183.849 86.8021C185.174 86.5805 185.296 87.959 185.501 104.821C185.714 122.658 185.681 123.077 184.069 123.077C182.687 123.077 182.417 123.61 182.417 126.359C182.417 129.091 182.147 129.641 180.781 129.641C179.415 129.641 179.145 130.191 179.145 132.923C179.145 135.655 178.875 136.205 177.509 136.205C176.421 136.205 175.873 136.755 175.873 137.846C175.873 138.937 175.325 139.487 174.237 139.487C173.182 139.487 172.601 140.037 172.601 141.022C172.601 142.178 171.791 142.687 169.329 143.081C167.374 143.401 166.057 144.057 166.057 144.722C166.057 145.362 164.813 146.043 163.104 146.314C161.484 146.585 159.701 147.422 159.145 148.185C158.286 149.358 156.036 149.629 144.216 149.973C128.976 150.408 122.702 149.875 122.702 148.127C122.702 147.471 121.36 146.79 119.43 146.462C117.573 146.15 116.158 145.444 116.158 144.837C116.158 144.254 114.833 143.524 113.205 143.221C111.258 142.851 110.113 142.121 109.835 141.071C109.606 140.201 108.771 139.487 107.97 139.487C106.972 139.487 106.366 138.626 106.006 136.706C105.663 134.892 104.918 133.776 103.871 133.497C102.906 133.251 102.252 132.382 102.252 131.356C102.252 130.412 101.745 129.641 101.123 129.641C99.9613 129.641 98.9796 126.228 98.9796 122.158C98.9796 120.648 98.5543 119.795 97.8017 119.795C97.0328 119.795 96.4274 118.482 96.0511 115.971C95.2086 110.326 96.3947 93.6615 97.859 90.5682C98.9469 88.2544 98.9551 87.6636 97.908 85.6123C97.2536 84.3323 96.452 81.6903 96.1329 79.7374C95.8057 77.7846 95.0368 75.9959 94.4233 75.7579C93.8016 75.52 93.0654 74.0759 92.7791 72.5333C92.4028 70.5313 91.822 69.7436 90.7095 69.7436C89.7115 69.7436 89.1635 69.161 89.1635 68.1026C89.1635 67.0113 88.6154 66.4615 87.5275 66.4615C86.4395 66.4615 85.8914 65.9118 85.8914 64.8205C85.8914 63.8687 85.3434 63.1795 84.5908 63.1795C83.8709 63.1795 83.0938 62.441 82.8566 61.5385C82.6194 60.6277 81.7441 59.8974 80.8852 59.8974C79.8954 59.8974 79.3473 59.3149 79.3473 58.2564C79.3473 56.919 78.7992 56.6154 76.4107 56.6154C74.1529 56.6154 73.3676 56.2297 73.0404 54.9744C72.705 53.6862 71.9279 53.3333 69.433 53.3333C66.5618 53.3333 66.2591 53.1282 66.2591 51.1918C66.2591 49.5754 66.5781 49.1733 67.5597 49.559C68.4268 49.8872 69.0076 49.5097 69.2939 48.4103C69.5312 47.5077 70.2428 46.7692 70.8727 46.7692C71.5107 46.7692 72.3778 45.8421 72.8032 44.7179C73.2286 43.5856 74.1448 42.6667 74.8319 42.6667C75.5108 42.6667 76.0753 42.0759 76.0753 41.3621C76.0753 40.64 76.7788 39.8687 77.6377 39.639C78.4966 39.4174 79.38 38.5313 79.6009 37.6697C79.8381 36.759 80.7298 36.1026 81.7277 36.1026C82.6684 36.1026 83.4374 35.5856 83.4374 34.9621C83.4374 34.3303 83.9855 33.6 84.6644 33.3456C85.3434 33.0831 85.8914 32.3036 85.8914 31.6144C85.8914 30.5231 83.511 30.359 67.8951 30.359C52.4428 30.359 49.8988 30.5313 49.8988 31.5897C49.8988 32.2708 49.1708 32.8205 48.2628 32.8205C46.635 32.8205 46.6268 33.3703 46.6268 128C46.6268 212.923 46.7658 223.179 47.8783 223.179C48.5655 223.179 49.3426 223.737 49.6043 224.41C50.0133 225.477 54.2588 225.641 80.9752 225.641H111.88L112.371 223.795ZM294.485 211.282C294.485 210.609 293.929 210.051 293.258 210.051C292.186 210.051 292.031 205.038 292.031 169.846V129.641H809.015H1326V169.846C1326 209.502 1325.98 210.051 1324.36 210.051C1323.46 210.051 1322.73 210.601 1322.73 211.282C1322.73 212.373 1265.06 212.513 808.606 212.513C352.155 212.513 294.485 212.373 294.485 211.282ZM579.972 187.996V176.607L587.947 176.222C592.332 176.008 596.201 175.992 596.536 176.172C596.872 176.353 597.15 181.104 597.15 186.716C597.15 195.241 597.354 196.923 598.377 196.923C599.056 196.923 599.604 197.481 599.604 198.154C599.604 199.122 600.741 199.385 604.921 199.385C609.101 199.385 610.238 199.122 610.238 198.154C610.238 197.481 610.786 196.923 611.465 196.923C612.529 196.923 612.692 193.37 612.692 169.846V142.769L606.762 142.777C596.725 142.802 597.24 142.252 596.97 153.321L596.741 162.872H588.561H580.381L580.152 152.821L579.923 142.769H573.403H566.883V171.077V199.385H573.427H579.972V187.996ZM676.497 198.252C676.497 197.629 677.233 196.923 678.133 196.685C679.434 196.341 679.769 195.569 679.769 192.894C679.769 190.088 680.039 189.538 681.405 189.538C682.493 189.538 683.041 188.989 683.041 187.897C683.041 186.363 683.589 186.256 691.221 186.256C698.854 186.256 699.402 186.363 699.402 187.897C699.402 188.989 699.95 189.538 701.038 189.538C702.404 189.538 702.674 190.088 702.674 192.821C702.674 195.553 702.944 196.103 704.31 196.103C705.398 196.103 705.946 196.652 705.946 197.744C705.946 199.245 706.494 199.385 712.49 199.385H719.034V194.462C719.034 190.088 718.854 189.538 717.398 189.538C715.942 189.538 715.762 188.989 715.762 184.615C715.762 180.242 715.582 179.692 714.126 179.692C712.76 179.692 712.49 179.143 712.49 176.41C712.49 173.678 712.22 173.128 710.854 173.128C709.463 173.128 709.218 172.578 709.218 169.436C709.218 166.293 708.972 165.744 707.582 165.744C706.142 165.744 705.946 165.194 705.946 161.231C705.946 157.268 705.749 156.718 704.31 156.718C702.919 156.718 702.674 156.168 702.674 153.026C702.674 149.883 702.428 149.333 701.038 149.333C699.672 149.333 699.402 148.784 699.402 146.051V142.769H691.221H683.041V146.462C683.041 149.604 682.796 150.154 681.405 150.154C679.966 150.154 679.769 150.704 679.769 154.741C679.769 158.646 679.524 159.401 678.133 159.762C676.939 160.074 676.497 160.886 676.489 162.765C676.473 166.572 675.638 169.026 674.354 169.026C673.577 169.026 673.225 170.068 673.225 172.382C673.225 175.056 672.89 175.828 671.589 176.172C670.452 176.468 669.953 177.288 669.953 178.864C669.953 182.769 668.971 186.256 667.875 186.256C667.286 186.256 666.583 187.701 666.272 189.538C665.953 191.434 665.266 192.821 664.636 192.821C664.006 192.821 663.319 191.434 663 189.538L662.444 186.256H647.793H633.143V181.333C633.143 177.223 633.38 176.394 634.574 176.328C635.359 176.287 641.339 176.197 647.867 176.123L659.728 176L659.965 169.641L660.202 163.282H649.233C643.196 163.282 637.102 163.052 635.695 162.773C633.363 162.297 633.143 161.977 633.143 159.081V155.897H646.231C657.323 155.897 659.319 155.709 659.319 154.667C659.319 153.986 660.047 153.436 660.955 153.436C662.419 153.436 662.591 152.886 662.591 148.103V142.769H641.323H620.054V171.077V199.385H648.276C671.761 199.385 676.497 199.196 676.497 198.252ZM762.389 192.821V186.256H749.3H736.212V164.513V142.769H729.668H723.124L723.018 154.872C722.936 165.186 722.977 193.428 723.091 197.949C723.124 199.278 724.621 199.385 742.756 199.385H762.389V192.821ZM788.565 177.641C788.565 156.447 788.606 155.897 790.201 155.897C791.109 155.897 791.837 155.348 791.837 154.667C791.837 153.904 792.606 153.436 793.882 153.436C795.158 153.436 795.927 153.904 795.927 154.667C795.927 155.52 796.778 155.897 798.692 155.897C801.94 155.897 802.447 154.773 802.463 147.487L802.471 142.769H780.794H759.117V149.301V155.832L765.865 156.07L772.614 156.308L772.835 176.205C773.023 193.141 773.235 196.103 774.266 196.103C774.929 196.103 775.477 196.841 775.477 197.744C775.477 199.245 776.025 199.385 782.021 199.385H788.565V177.641ZM822.104 187.389V175.385L824.656 175.902C826.063 176.181 829.744 176.41 832.836 176.41H838.464L838.472 186.051C838.488 199.967 838.169 199.385 845.924 199.385H852.37V171.077V142.769H845.417H838.464V153.026V163.282H830.284H822.104V152.993V142.704L815.355 142.942L808.606 143.179L808.369 149.949C808.181 155.225 807.87 156.718 806.938 156.718C805.932 156.718 805.743 159.089 805.743 171.487C805.743 184.066 805.923 186.256 806.97 186.256C807.649 186.256 808.197 186.987 808.197 187.897C808.197 188.808 807.649 189.538 806.97 189.538C806.087 189.538 805.743 190.441 805.743 192.722C805.743 195.225 806.095 196.004 807.379 196.341C808.279 196.578 809.015 197.358 809.015 198.08C809.015 199.163 810.12 199.385 815.56 199.385H822.104V187.389ZM894.907 197.744C894.907 196.373 895.455 196.103 898.179 196.103C900.903 196.103 901.451 195.832 901.451 194.462C901.451 193.37 901.999 192.821 903.087 192.821C904.453 192.821 904.723 192.271 904.723 189.538C904.723 186.806 904.993 186.256 906.359 186.256C907.717 186.256 907.995 185.707 907.995 183.048C907.995 179.938 907.889 179.815 904.723 179.282C902.711 178.937 901.451 178.281 901.451 177.567C901.451 176.763 900.453 176.41 898.179 176.41C895.455 176.41 894.907 176.681 894.907 178.051C894.907 179.143 894.359 179.692 893.271 179.692C891.905 179.692 891.635 180.242 891.635 182.974V186.256H885.091C879.095 186.256 878.547 186.117 878.547 184.615C878.547 183.524 877.998 182.974 876.911 182.974C875.544 182.974 875.274 182.425 875.274 179.692C875.274 176.96 875.005 176.41 873.638 176.41C872.174 176.41 872.002 175.861 872.002 171.077C872.002 167.081 872.289 165.744 873.131 165.744C874.416 165.744 875.25 163.29 875.266 159.458C875.274 157.071 875.536 156.816 878.547 156.308C880.559 155.963 881.819 155.307 881.819 154.593C881.819 153.789 882.817 153.436 885.091 153.436C887.455 153.436 888.363 153.781 888.363 154.667C888.363 155.348 889.091 155.897 889.999 155.897C891.111 155.897 891.635 156.447 891.635 157.612C891.635 158.646 892.289 159.508 893.271 159.762C894.171 160 894.907 160.706 894.907 161.329C894.907 162.125 896.003 162.462 898.588 162.462C901.312 162.462 902.269 162.142 902.269 161.231C902.269 160.369 903.136 160 905.132 160C907.913 160 907.995 159.91 907.995 156.816C907.995 154.314 907.643 153.534 906.359 153.198C905.377 152.944 904.723 152.082 904.723 151.048C904.723 149.883 904.199 149.333 903.087 149.333C901.999 149.333 901.451 148.784 901.451 147.692C901.451 146.601 900.903 146.051 899.815 146.051C898.915 146.051 898.179 145.543 898.179 144.919C898.179 143.754 894.776 142.769 890.719 142.769C889.173 142.769 888.363 142.351 888.363 141.538C888.363 140.652 887.455 140.308 885.091 140.308C882.727 140.308 881.819 140.652 881.819 141.538C881.819 142.408 880.927 142.769 878.751 142.777C874.481 142.794 872.002 143.582 872.002 144.919C872.002 145.543 871.234 146.051 870.293 146.051C869.262 146.051 868.403 146.708 868.15 147.692C867.912 148.595 867.209 149.333 866.587 149.333C865.966 149.333 865.458 150.072 865.458 150.974C865.458 152.033 864.91 152.615 863.929 152.615C862.775 152.615 862.268 153.428 861.875 155.897C861.532 158.023 860.918 159.179 860.133 159.179C859.111 159.179 858.914 161.091 858.914 171.077C858.914 180.775 859.127 182.974 860.068 182.974C860.779 182.974 861.434 184.238 861.777 186.256C862.194 188.751 862.71 189.538 863.896 189.538C864.91 189.538 865.458 190.113 865.458 191.179C865.458 192.271 866.006 192.821 867.094 192.821C868.158 192.821 868.73 193.37 868.73 194.388C868.73 195.577 869.516 196.094 872.002 196.513C874.015 196.857 875.274 197.514 875.274 198.228C875.274 199.163 877.18 199.385 885.091 199.385C894.359 199.385 894.907 199.294 894.907 197.744ZM921.901 197.744C921.901 196.841 922.425 196.103 923.055 196.103C923.766 196.103 924.421 194.839 924.764 192.821C925.182 190.326 925.697 189.538 926.883 189.538C927.897 189.538 928.445 188.964 928.445 187.897C928.445 186.363 928.993 186.256 936.625 186.256C944.258 186.256 944.806 186.363 944.806 187.897C944.806 188.989 945.354 189.538 946.442 189.538C947.808 189.538 948.078 190.088 948.078 192.821C948.078 195.553 948.348 196.103 949.714 196.103C950.802 196.103 951.35 196.652 951.35 197.744C951.35 199.245 951.898 199.385 957.894 199.385H964.438V196.103C964.438 193.37 964.168 192.821 962.802 192.821C961.346 192.821 961.166 192.271 961.166 187.897C961.166 183.524 960.986 182.974 959.53 182.974C958.139 182.974 957.894 182.425 957.894 179.282C957.894 176.689 957.558 175.59 956.765 175.59C955.473 175.59 954.646 173.128 954.63 169.231C954.622 167.114 954.286 166.564 952.986 166.564C951.595 166.564 951.35 166.014 951.35 162.872C951.35 159.729 951.104 159.179 949.714 159.179C948.274 159.179 948.078 158.63 948.078 154.667C948.078 150.704 947.881 150.154 946.442 150.154C945.051 150.154 944.806 149.604 944.806 146.462V142.769H936.625H928.445V146.051C928.445 148.784 928.175 149.333 926.809 149.333C925.55 149.333 925.173 149.883 925.173 151.696C925.173 155.766 924.192 159.179 923.03 159.179C922.253 159.179 921.901 160.238 921.901 162.535C921.901 165.136 921.549 165.99 920.363 166.302C919.161 166.613 918.703 167.77 918.277 171.561C917.909 174.835 917.37 176.41 916.617 176.41C915.954 176.41 915.275 177.739 914.948 179.692C914.605 181.711 913.95 182.974 913.239 182.974C912.51 182.974 912.085 183.852 912.085 185.337C912.085 189.407 911.104 192.821 909.942 192.821C909.32 192.821 908.813 193.141 908.813 193.543C908.813 193.936 908.584 195.413 908.306 196.825L907.791 199.385H914.85C921.353 199.385 921.901 199.262 921.901 197.744ZM980.905 197.538C980.962 196.521 981.076 192.181 981.158 187.897C981.404 175.598 981.142 176.41 984.888 176.41C987.612 176.41 988.16 176.681 988.16 178.051C988.16 179.143 988.708 179.692 989.796 179.692C990.884 179.692 991.432 180.242 991.432 181.333C991.432 182.236 991.956 182.974 992.586 182.974C993.298 182.974 993.952 184.238 994.295 186.256C994.713 188.751 995.228 189.538 996.414 189.538C997.428 189.538 997.977 190.113 997.977 191.179C997.977 192.271 998.525 192.821 999.613 192.821C1000.98 192.821 1001.25 193.37 1001.25 196.103V199.385H1009.43H1017.61V196.103C1017.61 193.37 1017.34 192.821 1015.97 192.821C1014.61 192.821 1014.34 192.271 1014.34 189.538C1014.34 186.806 1014.07 186.256 1012.7 186.256C1011.61 186.256 1011.06 185.707 1011.06 184.615C1011.06 183.524 1010.52 182.974 1009.43 182.974C1008.23 182.974 1007.79 182.425 1007.79 180.923C1007.79 179.422 1007.36 178.872 1006.16 178.872C1004.83 178.872 1004.52 178.322 1004.52 176C1004.52 173.678 1004.83 173.128 1006.16 173.128C1007.24 173.128 1007.79 172.578 1007.79 171.487C1007.79 170.396 1008.34 169.846 1009.43 169.846C1010.63 169.846 1011.06 169.296 1011.06 167.795C1011.06 166.293 1011.5 165.744 1012.7 165.744C1014.2 165.744 1014.34 165.194 1014.34 159.179C1014.34 153.165 1014.2 152.615 1012.7 152.615C1011.38 152.615 1011.06 152.066 1011.06 149.817C1011.06 147.192 1010.86 146.978 1007.79 146.462C1005.31 146.043 1004.52 145.526 1004.52 144.336C1004.52 142.843 1003.69 142.769 986.115 142.769H967.71V171.077V199.385H974.254C980.463 199.385 980.806 199.294 980.905 197.538ZM1064.24 192.821V186.256H1049.1H1033.97V181.333C1033.97 176.533 1034.03 176.41 1036.22 176.32C1037.45 176.271 1043.44 176.181 1049.51 176.115L1060.55 176L1060.79 169.657L1061.03 163.323L1047.7 163.093L1034.38 162.872V159.59C1034.38 156.316 1034.39 156.308 1037.85 156.053C1040.22 155.881 1041.33 155.422 1041.33 154.617C1041.33 153.969 1041.88 153.436 1042.56 153.436C1043.24 153.436 1043.79 153.994 1043.79 154.667C1043.79 155.676 1045.22 155.897 1051.87 155.897C1059.27 155.897 1059.99 155.758 1060.38 154.256C1060.64 153.272 1061.5 152.615 1062.53 152.615C1064.05 152.615 1064.24 152.131 1064.24 148.201C1064.24 143.918 1064.16 143.778 1061.68 143.278C1060.28 142.999 1050.52 142.769 1040.01 142.769H1020.88V171.077V199.385H1042.56H1064.24V192.821ZM834.374 101.965C832.803 101.366 831.944 100.07 831.936 98.2564C831.928 97.4687 831.184 96.0821 830.284 95.1795C829.008 93.8995 828.648 92.4472 828.648 88.6154C828.648 84.2421 828.468 83.6923 827.012 83.6923C825.597 83.6923 825.376 83.1426 825.376 79.5897C825.376 76.0369 825.155 75.4872 823.74 75.4872C822.284 75.4872 822.104 74.9374 822.104 70.5641C822.104 66.1908 821.924 65.641 820.468 65.641C819.012 65.641 818.832 65.0913 818.832 60.7179C818.832 56.3446 818.652 55.7949 817.196 55.7949C815.756 55.7949 815.56 55.2451 815.56 51.2082C815.56 47.3026 815.314 46.5477 813.923 46.1867C812.541 45.8256 812.287 45.0708 812.287 41.2636C812.287 37.4564 812.034 36.7015 810.651 36.3405C809.743 36.1026 809.015 35.2246 809.015 34.3631C809.015 33.3703 808.435 32.8205 807.379 32.8205C806.471 32.8205 805.743 32.2708 805.743 31.5897C805.743 30.9087 805.015 30.359 804.107 30.359C802.749 30.359 802.471 29.8092 802.471 27.1754C802.471 24.279 802.692 23.959 805.023 23.4831C806.43 23.2041 813.081 22.9744 819.797 22.9744H832.002L831.83 27.8974L831.65 32.8205H828.517C825.417 32.8205 825.376 32.8615 825.376 36.0041C825.376 38.5067 825.727 39.2862 827.012 39.6226C828.402 39.9918 828.648 40.7385 828.648 44.7179C828.648 48.599 828.909 49.4523 830.186 49.7887C831.364 50.0923 831.822 51.1672 832.124 54.3344C832.378 57.001 833 58.7487 833.858 59.2328C834.856 59.7908 835.192 61.1938 835.192 64.7959C835.192 69.5138 835.241 69.6205 837.728 70.1703C841.049 70.9005 841.605 70.1949 841.842 64.9108C841.998 61.4236 842.358 60.3979 843.527 60.0944C844.746 59.7744 845.008 58.8472 845.008 54.8021C845.008 50.6995 845.262 49.8297 846.538 49.4933C847.757 49.1733 848.182 48.0082 848.607 43.7826C848.91 40.8533 848.918 37.1938 848.624 35.6431L848.1 32.8205H843.192C839.045 32.8205 838.366 32.6236 838.791 31.5159C839.118 30.6462 838.742 30.0636 837.646 29.7764C835.814 29.2923 835.372 26.2564 837.139 26.2564C837.76 26.2564 838.464 25.5097 838.709 24.599C839.127 22.9908 839.675 22.9497 855.364 23.1631L871.593 23.3846L871.708 28.1026L871.831 32.8205L868.845 32.8287C864.755 32.8451 862.186 33.6328 862.186 34.8718C862.186 35.4462 862.922 36.1026 863.822 36.3405C865.197 36.7015 865.458 37.4646 865.475 41.1569C865.483 44.1764 865.72 45.161 866.244 44.3323C867.389 42.519 867.961 43.6513 868.485 48.7303C868.779 51.5774 869.344 53.3333 869.966 53.3333C871.037 53.3333 872.002 56.8862 872.002 60.8164C872.002 62.2851 872.436 63.1795 873.131 63.1795C874.473 63.1795 875.25 65.6656 875.266 70.0062C875.274 72.5497 875.544 73.0913 876.706 72.8697C877.491 72.7138 878.17 72.041 878.219 71.3764C878.26 70.7036 878.35 68.5867 878.424 66.6667C878.522 63.7703 878.825 63.1795 880.183 63.1795C881.639 63.1795 881.819 62.6297 881.819 58.2564C881.819 53.8831 881.999 53.3333 883.455 53.3333C884.919 53.3333 885.091 52.7836 885.091 48.0903C885.091 43.6021 885.295 42.8636 886.522 42.9621C887.725 43.0605 887.995 42.2482 888.199 37.9487L888.445 32.8205H885.132C882.735 32.8205 881.819 32.4841 881.819 31.5897C881.819 30.9087 881.091 30.359 880.183 30.359C878.825 30.359 878.547 29.8092 878.547 27.1836C878.547 24.2708 878.767 23.959 881.099 23.4831C884.363 22.8349 903.717 22.8349 906.154 23.4913C907.66 23.8933 907.995 24.5579 907.995 27.1754C907.995 29.4564 907.651 30.359 906.768 30.359C906.089 30.359 905.541 30.8677 905.541 31.4831C905.541 32.1641 904.249 32.8205 902.302 33.1323C899.332 33.6082 899.03 33.8954 898.555 36.7179C897.713 41.7067 897.312 42.6667 896.077 42.6667C895.193 42.6667 894.907 43.8728 894.907 47.6636C894.907 51.9795 894.678 52.7262 893.271 53.0954C891.872 53.4646 891.635 54.2113 891.635 58.3549C891.635 62.6297 891.447 63.1795 889.999 63.1795C888.543 63.1795 888.363 63.7292 888.363 68.1026C888.363 72.4759 888.183 73.0256 886.727 73.0256C885.271 73.0256 885.091 73.5754 885.091 77.9487C885.091 82.3221 884.911 82.8718 883.455 82.8718C881.99 82.8718 881.819 83.4215 881.819 88.2051C881.819 92.9887 881.647 93.5385 880.183 93.5385C878.816 93.5385 878.547 94.0882 878.547 96.8944C878.547 99.5692 878.211 100.341 876.911 100.685C876.011 100.923 875.274 101.44 875.274 101.842C875.274 103.319 872.182 102.507 871.765 100.923C871.528 100.021 870.751 99.2821 870.031 99.2821C869.139 99.2821 868.73 98.5354 868.73 96.9272C868.73 92.8492 867.749 89.4359 866.587 89.4359C865.892 89.4359 865.458 88.5333 865.458 87.081C865.458 83.0031 864.477 79.5897 863.315 79.5897C862.62 79.5897 862.186 78.6872 862.186 77.2267C862.186 73.2554 861.221 69.7436 860.125 69.7436C859.421 69.7436 858.898 67.6349 858.505 63.1795L857.924 56.6154H855.241H852.558L852.223 62.4492C851.986 66.7323 851.528 68.5538 850.497 69.3087C849.728 69.8749 849.098 71.2615 849.098 72.4021C849.098 76.0779 848.1 79.5897 847.053 79.5897C845.973 79.5897 845.008 83.1262 845.008 87.0728C845.008 88.5908 844.583 89.4359 843.822 89.4359C842.979 89.4359 842.472 90.8472 842.088 94.2851C841.662 98.0759 841.204 99.2328 840.002 99.5446C839.159 99.7662 838.464 100.537 838.464 101.259C838.464 102.556 836.721 102.859 834.374 101.965ZM841.327 72.2051C841.605 71.7456 841 71.3928 839.945 71.401C838.423 71.4092 838.292 71.5651 839.282 72.2051C840.803 73.1897 840.722 73.1897 841.327 72.2051ZM992.864 102.047C992.079 101.817 991.432 101.284 991.432 100.866C991.432 100.447 990.377 100.103 989.077 100.103C985.019 100.103 981.616 99.118 981.616 97.9528C981.616 97.3292 980.847 96.8205 979.907 96.8205C978.909 96.8205 978.017 96.1641 977.78 95.2533C977.526 94.2687 976.365 93.5056 974.622 93.1774C972.283 92.7344 971.784 92.2338 971.342 89.8872C971.015 88.1395 970.254 86.9744 969.272 86.72C968.364 86.4821 967.71 85.5877 967.71 84.5867C967.71 83.4215 967.187 82.8718 966.074 82.8718C964.708 82.8718 964.438 82.3221 964.438 79.5897C964.438 77.3415 964.078 76.3077 963.309 76.3077C961.567 76.3077 961.19 73.5918 961.174 60.9231C961.166 50.3138 961.321 49.0749 962.802 47.5897C963.734 46.6544 964.438 44.8574 964.438 43.4133C964.438 41.559 964.88 40.7549 966.074 40.4431C967.015 40.1969 967.71 39.3272 967.71 38.3918C967.71 37.4564 968.405 36.5867 969.346 36.3405C970.254 36.1026 970.982 35.2246 970.982 34.3631C970.982 33.3703 971.563 32.8205 972.618 32.8205C973.542 32.8205 974.254 32.2708 974.254 31.5733C974.254 30.8841 975.195 29.9569 976.348 29.5221C977.502 29.079 978.221 28.3651 977.952 27.9221C977.502 27.1918 978.712 26.7241 982.68 26.0841C983.49 25.9528 984.119 25.4769 984.062 25.0256C983.915 23.6636 987.293 23.1385 996.848 23.0564C1007.26 22.9662 1011.06 23.5159 1011.06 25.1241C1011.06 25.8954 1012.1 26.2564 1014.34 26.2564C1017 26.2564 1017.61 26.5436 1017.61 27.8072C1017.61 28.9231 1018.39 29.5056 1020.42 29.8831C1022.21 30.2195 1023.43 31.0072 1023.75 32.0246C1024.03 32.919 1024.76 33.641 1025.37 33.641C1025.99 33.641 1026.9 34.9374 1027.43 36.5128C1027.95 38.0882 1028.86 39.3846 1029.46 39.3846C1030.1 39.3846 1030.79 40.7549 1031.11 42.6667C1031.43 44.5538 1032.12 45.9487 1032.73 45.9487C1034.21 45.9487 1035.17 59.3067 1034.41 69.0954C1033.76 77.4236 1033.27 79.4749 1032.31 77.9077C1031.94 77.3169 1031.47 78.2769 1031.12 80.3036C1030.78 82.3385 1030.11 83.6923 1029.44 83.6923C1028.81 83.6923 1028.08 84.9477 1027.78 86.5641C1027.39 88.64 1026.82 89.4359 1025.7 89.4359C1024.7 89.4359 1024.15 90.0185 1024.15 91.0769C1024.15 92.1518 1023.6 92.7179 1022.57 92.7179C1021.7 92.7179 1020.76 93.44 1020.48 94.3344C1020.16 95.3518 1018.94 96.1395 1017.15 96.4759C1015.6 96.7631 1014.34 97.4687 1014.34 98.0431C1014.34 99.1262 1010.84 100.103 1006.94 100.103C1005.68 100.103 1004.53 100.496 1004.37 100.981C1004.05 101.932 995.228 102.745 992.864 102.047ZM1002.76 93.0133C1006.93 92.5785 1007.79 92.2256 1007.79 90.9621C1007.79 89.9856 1008.38 89.4359 1009.43 89.4359C1010.52 89.4359 1011.06 88.8862 1011.06 87.7949C1011.06 86.7036 1011.61 86.1538 1012.7 86.1538C1014.07 86.1538 1014.34 85.6041 1014.34 82.8718C1014.34 80.1395 1014.61 79.5897 1015.97 79.5897C1017.56 79.5897 1017.61 79.04 1017.61 61.5385C1017.61 44.0369 1017.56 43.4872 1015.97 43.4872C1014.61 43.4872 1014.34 42.9374 1014.34 40.2051C1014.34 37.4728 1014.07 36.9231 1012.7 36.9231C1011.64 36.9231 1011.06 36.3733 1011.06 35.3559C1011.06 34.1662 1010.28 33.6492 1007.79 33.2308C1005.78 32.8862 1004.52 32.2297 1004.52 31.5159C1004.52 30.6133 1003.06 30.359 997.977 30.359C992.708 30.359 991.432 30.5969 991.432 31.5897C991.432 32.2708 990.721 32.8205 989.854 32.8205C988.987 32.8205 987.727 33.3703 987.056 34.0431C986.14 34.9621 985.755 35.0113 985.494 34.2482C985.305 33.6903 984.896 34.6174 984.577 36.3077C984.25 38.0472 983.522 39.3846 982.901 39.3846C982.23 39.3846 981.592 40.8123 981.248 43.0769C980.888 45.4892 980.291 46.7692 979.522 46.7692C978.54 46.7692 978.344 49.239 978.344 61.5385C978.344 74.1169 978.524 76.3077 979.571 76.3077C980.332 76.3077 980.847 77.161 980.921 78.5641C980.995 79.8031 981.134 81.1897 981.24 81.641C981.338 82.0923 981.469 83.2903 981.518 84.3077C981.584 85.5713 982.132 86.1538 983.252 86.1538C984.307 86.1538 984.888 86.7036 984.888 87.7046C984.888 88.8287 985.682 89.4031 987.751 89.7887C989.387 90.1005 990.614 90.8144 990.614 91.4708C990.614 92.48 992.226 93.0215 996.422 93.4154C997.15 93.481 999.997 93.3005 1002.76 93.0133ZM1125.38 102.039C1124.6 101.809 1123.95 101.284 1123.95 100.866C1123.95 100.447 1122.9 100.103 1121.59 100.103C1117.54 100.103 1114.13 99.118 1114.13 97.9528C1114.13 97.3292 1113.37 96.8205 1112.42 96.8205C1111.39 96.8205 1110.54 96.1641 1110.28 95.1795C1110.04 94.2769 1109.25 93.5303 1108.51 93.5138C1106.49 93.4728 1104.49 91.6267 1103.89 89.2554C1103.6 88.0903 1102.66 86.9415 1101.8 86.72C1100.92 86.4903 1100.23 85.5959 1100.23 84.6851C1100.23 83.7497 1099.53 82.88 1098.59 82.6339C1097.34 82.3056 1096.96 81.518 1096.96 79.2944C1096.96 77.3826 1096.47 76.119 1095.52 75.5856C1094.29 74.8964 1094.06 73.2062 1093.83 63.0236C1093.59 52.0944 1093.69 51.118 1095.26 49.2964C1096.2 48.2215 1096.96 46.5641 1096.96 45.6205C1096.99 42.601 1097.93 40.2051 1099.1 40.2051C1099.72 40.2051 1100.23 39.4338 1100.23 38.4903C1100.23 37.4892 1100.88 36.5949 1101.79 36.3569C1102.65 36.1354 1103.53 35.2492 1103.75 34.3877C1103.98 33.5262 1104.71 32.8205 1105.37 32.8205C1106.04 32.8205 1106.77 32.0821 1107.01 31.1795C1107.26 30.1949 1108.12 29.5385 1109.15 29.5385C1110.12 29.5385 1110.86 29.0133 1110.86 28.3159C1110.86 27.5282 1112.02 26.9128 1114.13 26.5682C1115.95 26.281 1117.41 25.5836 1117.41 25.0092C1117.41 23.3682 1120.89 22.8923 1132.09 23.0236C1142.15 23.1385 1144.65 23.5569 1144.44 25.1159C1144.39 25.518 1145.74 26.0349 1147.44 26.2564C1149.46 26.5272 1150.54 27.0933 1150.54 27.8974C1150.54 28.6359 1151.75 29.4318 1153.54 29.8749C1155.36 30.3262 1156.7 31.2123 1156.94 32.1313C1157.16 32.96 1157.88 33.641 1158.55 33.641C1159.29 33.641 1159.97 34.7651 1160.3 36.5128C1160.6 38.1046 1161.33 39.3846 1161.93 39.3846C1162.54 39.3846 1163.26 40.599 1163.53 42.0759C1163.81 43.561 1164.76 45.3908 1165.65 46.1538C1167.16 47.4503 1167.25 48.5087 1167.08 62.7938C1166.9 77.3333 1166.81 78.1046 1165.13 79.4338C1164.16 80.1969 1163.22 81.559 1163.04 82.4615C1162.86 83.3641 1162.28 84.0123 1161.77 83.9056C1161.25 83.799 1160.6 84.9723 1160.31 86.4985C1159.98 88.2708 1159.22 89.4359 1158.23 89.6903C1157.37 89.92 1156.67 90.6503 1156.67 91.3149C1156.67 91.9795 1155.93 92.7179 1155.04 92.9559C1154.14 93.1938 1153.4 93.9405 1153.4 94.6215C1153.4 95.4256 1152.25 96.0492 1150.13 96.4103C1148.29 96.7221 1146.85 97.4277 1146.85 98.0185C1146.85 99.1262 1143.37 100.103 1139.46 100.103C1138.2 100.103 1137.03 100.537 1136.86 101.063C1136.52 102.064 1127.96 102.794 1125.38 102.039ZM1135.28 93.0133C1139.45 92.5785 1140.31 92.2256 1140.31 90.9621C1140.31 89.9856 1140.9 89.4359 1141.95 89.4359C1142.9 89.4359 1143.58 88.8862 1143.58 88.1313C1143.58 87.4092 1144.32 86.6297 1145.22 86.3918C1146.46 86.0636 1146.85 85.2759 1146.85 83.1097C1146.85 80.9436 1147.25 80.1559 1148.49 79.8277C1150.06 79.4174 1150.13 78.7118 1150.13 61.44C1150.13 44.0369 1150.08 43.4872 1148.49 43.4872C1147.12 43.4872 1146.85 42.9374 1146.85 40.2051C1146.85 37.4728 1146.59 36.9231 1145.22 36.9231C1144.16 36.9231 1143.58 36.3733 1143.58 35.3559C1143.58 34.1662 1142.8 33.6492 1140.31 33.2308C1138.3 32.8862 1137.04 32.2297 1137.04 31.5159C1137.04 30.6133 1135.58 30.359 1130.49 30.359C1125.23 30.359 1123.95 30.5969 1123.95 31.5897C1123.95 32.2954 1123.21 32.8205 1122.24 32.8205C1121.21 32.8205 1120.35 33.4769 1120.1 34.4615C1119.86 35.3641 1119.12 36.1026 1118.46 36.1026C1117.8 36.1026 1117.06 36.841 1116.83 37.7436C1116.59 38.6462 1115.93 39.3846 1115.36 39.3846C1114.76 39.3846 1114.09 40.9272 1113.77 43.0769C1113.41 45.4892 1112.81 46.7692 1112.04 46.7692C1111.06 46.7692 1110.86 49.239 1110.86 61.5385C1110.86 73.5262 1111.08 76.3077 1111.99 76.3077C1113.15 76.3077 1114.13 79.721 1114.13 83.7908C1114.13 85.6041 1114.51 86.1538 1115.77 86.1538C1116.83 86.1538 1117.41 86.7036 1117.41 87.7046C1117.41 88.8287 1118.2 89.4031 1120.27 89.7887C1121.91 90.1005 1123.13 90.8144 1123.13 91.4708C1123.13 92.48 1124.74 93.0215 1128.94 93.4154C1129.67 93.481 1132.52 93.3005 1135.28 93.0133ZM328.023 98.8718C328.023 98.1662 327.467 97.3785 326.796 97.1159C324.915 96.3938 325.332 93.7928 327.41 93.2349C328.424 92.9641 331.181 92.7344 333.545 92.7262L337.84 92.7179V62.7692V32.8205L335.999 32.6892C334.985 32.6154 332.874 32.5251 331.296 32.4841C329.439 32.4349 328.506 32.041 328.645 31.3682C328.76 30.7938 327.933 29.9733 326.821 29.5467C324.719 28.7508 324.694 26.2564 326.788 26.2564C327.361 26.2564 328.023 25.5179 328.261 24.6154C328.678 23.0236 329.373 22.9744 350.241 22.9826C373.325 22.9908 377.922 23.3518 377.922 25.1323C377.922 25.8954 378.969 26.2564 381.194 26.2564C383.918 26.2564 384.466 26.5272 384.466 27.8974C384.466 29.0133 385.014 29.5385 386.176 29.5385C387.207 29.5385 388.066 30.1949 388.319 31.1795C388.556 32.0821 389.26 32.8205 389.882 32.8205C390.503 32.8205 391.01 33.5918 391.01 34.5354C391.01 35.5692 391.665 36.4308 392.647 36.6851C394.143 37.079 394.283 37.801 394.283 45.2267C394.283 51.6595 394.045 53.3333 393.129 53.3333C392.417 53.3333 391.763 54.5969 391.419 56.6154C390.945 59.4544 390.577 59.8974 388.761 59.8974C387.599 59.8974 386.888 60.1436 387.182 60.439C388.254 61.5139 385.841 63.1795 383.215 63.1795C380.973 63.1795 380.597 63.4421 380.941 64.7467C381.325 66.2318 380.704 66.3138 368.417 66.4205C361.308 66.4779 355.411 66.6092 355.312 66.7077C354.903 67.1262 354.732 73.2472 354.871 82.6667L355.018 92.7179H361.562H368.106V95.9097C368.106 97.8954 367.673 99.2738 366.961 99.5446C366.331 99.7908 357.316 100.029 346.92 100.07C330.289 100.144 328.023 100.004 328.023 98.8718ZM371.141 58.2564C371.378 57.3456 372.253 56.6154 373.112 56.6154C373.955 56.6154 374.65 56.0903 374.65 55.4421C374.65 54.7938 375.386 54.0308 376.286 53.7436C377.775 53.2677 377.922 52.5046 377.922 44.9969C377.922 37.4564 377.783 36.7344 376.286 36.3405C375.386 36.1026 374.65 35.4297 374.65 34.8472C374.65 34.2482 373.243 33.5508 371.444 33.239C369.677 32.9436 368.024 32.1559 367.771 31.4913C367.411 30.5559 366.012 30.3426 361.423 30.5313C354.224 30.8267 354.503 30.0964 354.871 47.3846L355.132 59.8974H362.928C370.028 59.8974 370.748 59.7497 371.141 58.2564ZM448.476 99.561C447.903 99.3231 447.453 97.7313 447.453 95.9344V92.7179H452.361C455.993 92.7179 457.27 92.4226 457.27 91.5856C457.27 90.9621 458.006 90.2564 458.906 90.0185C460.501 89.6 460.542 88.9026 460.542 61.202V32.8205H455.634C452.934 32.8205 450.725 32.4923 450.725 32.0985C450.725 31.6964 449.989 31.1795 449.089 30.9415C447.797 30.6051 447.453 29.8256 447.453 27.2574C447.453 24.2626 447.658 23.959 450.006 23.4831C453.335 22.8185 481.655 22.8185 484.984 23.4913C487.315 23.959 487.536 24.279 487.536 27.1836C487.536 29.8092 487.258 30.359 485.9 30.359C485 30.359 484.354 30.8185 484.469 31.3846C484.608 32.0985 483.119 32.4841 479.56 32.6564L474.448 32.9026V61.5795C474.448 86.5231 474.611 90.2564 475.675 90.2564C476.354 90.2564 476.902 90.7897 476.902 91.4462C476.902 92.3405 478.203 92.7015 482.014 92.882L487.127 93.1282L487.372 96.0903C487.602 98.839 487.43 99.1015 485.025 99.5774C481.99 100.193 449.989 100.168 448.476 99.561ZM542.547 99.52C541.075 99.241 540.707 98.6174 540.707 96.3939C540.707 93.8667 540.969 93.5631 543.57 93.0708C545.206 92.7672 546.433 92.0451 546.433 91.3969C546.433 90.7651 547.014 90.2564 547.726 90.2564C548.429 90.2564 550.09 89.1733 551.407 87.8605L553.795 85.4564V59.9385V34.4205L551.693 33.6246C550.539 33.1815 548.503 32.8205 547.169 32.8205C545.771 32.8205 544.543 32.3036 544.273 31.5897C544.02 30.9087 543.104 30.359 542.253 30.359C541.083 30.359 540.707 29.7682 540.707 27.9467C540.707 23.8605 543.006 22.9744 553.648 22.9744C562.262 22.9744 562.982 23.0974 563.374 24.6154C563.611 25.5262 564.487 26.2564 565.346 26.2564C566.36 26.2564 566.883 26.839 566.883 27.9713C566.883 29.0051 567.538 29.8667 568.519 30.121C569.427 30.359 570.155 31.2369 570.155 32.0985C570.155 33.0667 570.736 33.641 571.701 33.641C572.822 33.641 573.395 34.4369 573.779 36.5128C574.106 38.2359 574.794 39.3846 575.513 39.3846C576.168 39.3846 576.7 40.1231 576.7 41.0256C576.7 42.1169 577.248 42.6667 578.336 42.6667C579.448 42.6667 579.972 43.2164 579.972 44.3815C579.972 45.4154 580.626 46.2769 581.608 46.5313C582.516 46.7692 583.244 47.6472 583.244 48.5087C583.244 49.5015 583.824 50.0513 584.88 50.0513C585.968 50.0513 586.516 50.601 586.516 51.6923C586.516 52.5949 587.007 53.3333 587.612 53.3333C588.733 53.3333 590.606 56.64 590.606 58.6092C590.606 59.2164 591.383 59.9056 592.324 60.16C593.272 60.4062 593.804 60.9969 593.502 61.481C593.199 61.9733 593.911 62.72 595.105 63.1795C596.299 63.639 597.011 64.3856 596.708 64.878C596.414 65.3538 596.913 65.9446 597.829 66.1908C599.007 66.4944 599.645 67.5692 600.037 69.8667C600.561 73.0174 600.667 73.1077 603.571 72.8615C605.338 72.7139 606.524 72.1969 606.475 71.5897C606.426 71.0236 606.336 62.999 606.271 53.7436C606.173 39.7621 605.952 36.9231 604.978 36.9231C604.332 36.9231 603.694 36.0944 603.547 35.0769C603.4 34.0595 602.827 33.1815 602.262 33.1323C601.698 33.0749 600.324 32.9764 599.195 32.919C597.968 32.8615 597.15 32.3282 597.15 31.5897C597.15 30.9087 596.438 30.359 595.563 30.359C593.502 30.359 592.888 29.2759 593.518 26.7733C594.352 23.4256 597.313 22.8349 611.809 23.1221C626.132 23.4092 626.557 23.5487 626.582 28.1026C626.598 29.8174 626.206 30.359 624.962 30.359C624.054 30.359 623.326 30.9087 623.326 31.5897C623.326 32.4759 622.418 32.8205 620.054 32.8205C617.281 32.8205 616.782 33.0831 616.782 34.5354C616.782 35.5692 616.128 36.4308 615.146 36.6851C613.543 37.1036 613.51 37.801 613.51 68.6113V100.103H610.704C606.189 100.103 603.719 98.7815 603.179 96.0903C602.901 94.679 602.058 93.5138 601.15 93.2759C600.291 93.0544 599.604 92.1518 599.604 91.2492C599.604 90.3139 598.909 89.4441 597.968 89.198C597.068 88.96 596.332 88.2215 596.332 87.5569C596.332 86.8923 595.555 86.1456 594.614 85.8913C593.6 85.6287 593.133 85.0626 593.469 84.5128C593.804 83.9631 593.338 83.3969 592.315 83.1262C591.072 82.798 590.45 81.7969 590.09 79.4913C589.706 77.1118 589.191 76.3077 588.045 76.3077C587.064 76.3077 586.516 75.7251 586.516 74.6667C586.516 73.5754 585.968 73.0256 584.88 73.0256C583.792 73.0256 583.244 72.4759 583.244 71.3846C583.244 70.2933 582.696 69.7436 581.608 69.7436C580.552 69.7436 579.972 69.1938 579.972 68.201C579.972 67.3395 579.244 66.4615 578.336 66.2236C577.084 65.8954 576.7 65.1077 576.7 62.8431C576.7 60.4472 576.397 59.8974 575.064 59.8974C573.976 59.8974 573.427 59.3477 573.427 58.2564C573.427 57.1651 572.879 56.6154 571.791 56.6154C570.703 56.6154 570.155 56.0656 570.155 54.9744C570.155 53.8831 569.607 53.3333 568.519 53.3333C567.153 53.3333 566.883 52.7836 566.883 50.0513V46.7692H563.611C560.675 46.7692 560.339 46.9826 560.339 48.7959C560.339 50.1662 560.699 50.6831 561.452 50.3877C563.219 49.7149 563.611 53.6862 563.611 72.238V89.2882L566.883 89.8462C568.74 90.158 570.155 90.8636 570.155 91.4708C570.155 92.0533 571.432 92.7754 572.986 93.0708C574.548 93.3579 576.021 93.9241 576.266 94.3179C576.863 95.2944 575.865 97.7313 575.072 97.239C574.72 97.0174 574.237 97.5754 574.008 98.4697C573.599 100.029 572.912 100.094 558.981 99.9877C550.957 99.9303 543.562 99.7169 542.547 99.52ZM681.61 99.5364C680.146 99.241 679.769 98.6092 679.769 96.4595C679.769 94.0718 680.08 93.678 682.321 93.2267C683.728 92.9477 685.896 92.7179 687.14 92.7179C688.71 92.7179 689.528 92.2174 689.823 91.0769C690.06 90.1744 690.829 89.4359 691.532 89.4359C692.686 89.4359 692.8 86.4082 692.637 61.3333L692.448 33.2308L687.745 32.9846C684.293 32.8041 683.041 32.4185 683.041 31.5487C683.041 30.8923 682.305 30.359 681.405 30.359C680.137 30.359 679.769 29.8092 679.769 27.9467C679.769 23.0646 680.342 22.9744 712.163 22.9744C727.975 22.9744 742.069 23.2041 743.476 23.4913L746.028 24V38.6626V53.3333H742.756C739.697 53.3333 739.484 53.1774 739.484 50.9785C739.484 47.0236 738.519 43.4872 737.439 43.4872C736.883 43.4872 736.188 42.0103 735.901 40.2051C735.582 38.2277 734.928 36.9231 734.249 36.9231C733.635 36.9231 732.948 36.2174 732.719 35.3477C732.179 33.2636 727.852 32.6564 715.762 32.9764L706.355 33.2308L706.126 44.9231L705.905 56.6154H710.911C715.23 56.6154 715.975 56.3938 716.343 54.9744C716.58 54.0718 717.234 53.3333 717.799 53.3333C718.878 53.3333 719.852 49.8133 719.852 45.8831C719.852 43.8974 720.253 43.4872 722.609 43.0441C724.122 42.7569 726.241 42.6503 727.312 42.798L729.259 43.0769L729.504 57.8462C729.635 65.9692 729.521 74.2072 729.243 76.1436L728.736 79.68L725.504 79.4256C723.729 79.2944 722.306 78.8677 722.347 78.4903C722.388 78.1128 721.823 77.3662 721.095 76.8328C720.269 76.2256 719.59 74.0923 719.287 71.1631L718.805 66.4615H715.647C713.038 66.4615 712.49 66.1744 712.49 64.8205C712.49 63.5487 711.942 63.1795 710.085 63.1795C708.76 63.1795 707.443 63.5569 707.156 64.0164C706.878 64.4841 707.083 64.7631 707.623 64.6318C708.162 64.5087 708.784 64.8944 708.997 65.4933C709.25 66.1908 708.85 66.478 707.876 66.3139C706.461 66.0677 706.338 66.8718 706.126 77.8174C705.913 89.0421 705.978 89.6 707.557 90.0103C708.473 90.2482 709.218 90.9621 709.218 91.5856C709.218 92.4718 710.977 92.7179 717.398 92.7179C723.967 92.7179 725.578 92.4882 725.578 91.5364C725.578 90.7651 726.854 90.1662 729.259 89.8051C731.402 89.4851 732.94 88.8123 732.94 88.2051C732.94 87.6308 733.676 86.9744 734.576 86.7364C735.517 86.4903 736.212 85.6205 736.212 84.6851C736.212 83.7908 736.899 82.88 737.75 82.6585C739.01 82.3303 739.345 81.2718 739.631 76.7672C740.024 70.5067 740.67 69.7764 745.824 69.76L749.3 69.7436L749.284 83.4872C749.284 91.0441 748.924 97.7805 748.499 98.4615C747.836 99.52 743.182 99.7087 715.59 99.799C697.913 99.8564 682.624 99.7415 681.61 99.5364ZM688.547 30.6872C688.277 30.4082 687.565 30.3836 686.976 30.6215C686.322 30.8841 686.518 31.0728 687.475 31.1138C688.334 31.1467 688.816 30.958 688.547 30.6872ZM1224.89 99.3395C1223.61 98.7897 1223.2 97.9118 1223.26 95.8687L1223.34 93.1282L1229.68 92.8903C1233.27 92.7508 1236.02 92.2913 1236.02 91.8154C1236.02 91.3559 1235.65 91.2082 1235.2 91.4872C1234.75 91.7662 1234.38 91.6349 1234.38 91.1918C1234.38 90.7569 1234.73 90.2728 1235.15 90.1169C1236.11 89.7805 1236.7 34.0677 1235.76 33.1159C1235.39 32.7385 1233.25 32.4267 1231.02 32.4185C1228.79 32.4185 1226.7 32.0164 1226.37 31.5323C1226.06 31.0482 1225.11 30.3918 1224.26 30.08C1223.04 29.6287 1222.83 28.9887 1223.25 26.921C1223.54 25.4933 1223.98 24.1149 1224.23 23.8523C1224.9 23.1877 1268.44 22.7528 1272.62 23.3764C1274.87 23.7128 1276.1 24.3118 1276.1 25.0749C1276.1 25.9118 1277.08 26.2564 1279.45 26.2564C1282.06 26.2564 1282.89 26.601 1283.21 27.8236C1283.46 28.8 1284.62 29.5713 1286.31 29.8913C1288.04 30.2195 1289.16 30.9744 1289.43 32.0164C1289.66 32.9108 1290.42 33.641 1291.12 33.641C1291.91 33.641 1292.58 34.6831 1292.91 36.439C1293.25 38.2195 1294 39.3846 1294.99 39.639C1295.85 39.8687 1296.55 40.6728 1296.55 41.4359C1296.55 42.199 1297.29 43.7579 1298.19 44.9067C1299.68 46.8021 1299.82 48.2297 1299.82 60.7262C1299.82 75.5856 1299.38 79.5897 1297.75 79.5897C1297.16 79.5897 1296.45 81.0092 1296.16 82.7897C1295.78 84.9887 1295.12 86.121 1294.04 86.4082C1293.17 86.6379 1292.46 87.3682 1292.46 88.0328C1292.46 88.6974 1291.73 89.4359 1290.83 89.6739C1289.93 89.9118 1289.19 90.6913 1289.19 91.4133C1289.19 92.1272 1288.67 92.7179 1288.03 92.7179C1287.38 92.7179 1285.77 93.6369 1284.43 94.7692C1283.1 95.9015 1280.99 96.8205 1279.76 96.8205C1278.52 96.8205 1277.03 97.4687 1276.46 98.2564C1275.51 99.561 1273.18 99.7087 1251.01 99.881C1237.59 99.9877 1225.84 99.7415 1224.89 99.3395ZM1266.29 91.5856C1266.29 90.4205 1269.69 89.4359 1273.75 89.4359C1275.55 89.4359 1276.1 89.0585 1276.1 87.7949C1276.1 86.7364 1276.65 86.1538 1277.65 86.1538C1278.76 86.1538 1279.34 85.3662 1279.72 83.3641C1280 81.8215 1280.72 80.3856 1281.31 80.1559C1282.82 79.5733 1283.63 66.5846 1282.95 53.8338C1282.47 44.841 1282.22 43.5692 1280.89 43.2164C1279.77 42.921 1279.37 42.0513 1279.37 39.8687C1279.37 37.4236 1279.08 36.9231 1277.66 36.9231C1276.66 36.9231 1275.77 36.2667 1275.54 35.3477C1275.19 34.0267 1274.15 33.6903 1269.27 33.3128C1256.55 32.3282 1253.92 32.2954 1253.43 33.1077C1253.05 33.7231 1252.84 78.5887 1253.16 91.2821C1253.19 92.5292 1254.06 92.7179 1259.74 92.7179C1264.75 92.7179 1266.29 92.4554 1266.29 91.5856ZM1168.33 60.3077C1168.34 58.5026 1168.51 57.8626 1168.7 58.88C1168.9 59.9056 1168.89 61.3826 1168.69 62.1621C1168.48 62.9497 1168.32 62.1128 1168.33 60.3077ZM872.82 28.3077C872.82 27.6267 873.189 27.0769 873.638 27.0769C874.088 27.0769 874.456 27.6267 874.456 28.3077C874.456 28.9887 874.088 29.5385 873.638 29.5385C873.189 29.5385 872.82 28.9887 872.82 28.3077ZM187.391 107.832C187.431 106.872 187.62 106.675 187.881 107.331C188.119 107.922 188.094 108.636 187.816 108.907C187.546 109.177 187.358 108.693 187.391 107.832ZM689.585 174.359C689.585 173.678 688.857 173.128 687.949 173.128C686.861 173.128 686.313 172.578 686.313 171.487C686.313 170.396 686.861 169.846 687.949 169.846C689.315 169.846 689.585 169.296 689.585 166.564C689.585 163.832 689.855 163.282 691.221 163.282C692.547 163.282 692.857 163.832 692.857 166.154C692.857 168.476 693.168 169.026 694.494 169.026C695.696 169.026 696.13 169.575 696.13 171.077C696.13 172.578 695.696 173.128 694.494 173.128C693.586 173.128 692.857 173.678 692.857 174.359C692.857 175.04 692.129 175.59 691.221 175.59C690.313 175.59 689.585 175.04 689.585 174.359ZM931.717 171.487C931.717 170.585 932.241 169.846 932.871 169.846C933.583 169.846 934.237 168.583 934.581 166.564C934.998 164.07 935.513 163.282 936.699 163.282C937.975 163.282 938.262 163.881 938.262 166.564C938.262 169.296 938.531 169.846 939.898 169.846C940.986 169.846 941.534 170.396 941.534 171.487C941.534 172.948 940.986 173.128 936.625 173.128C932.266 173.128 931.717 172.948 931.717 171.487ZM981.166 162.059C980.266 156.037 980.463 155.897 989.772 155.897H997.977V159.59C997.977 162.978 997.813 163.282 995.932 163.282C994.655 163.282 993.886 163.75 993.886 164.513C993.886 165.497 992.668 165.744 987.8 165.744H981.714L981.166 162.059Z" fill="white" fill-opacity="0.7"/>
</svg>
