<svg width="1248" height="332" viewBox="0 0 1248 332" fill="none" xmlns="http://www.w3.org/2000/svg">
<path d="M216.574 330.247C210.598 328.994 207.535 327.364 204.379 323.76C200.11 318.903 198.81 314.931 198.81 306.791C198.81 281.769 221.791 253.542 255.346 237.34C266.829 231.794 270.048 230.9 278.844 230.806C285.886 230.736 287.742 230.994 291.768 232.632C313.026 241.281 308.718 272.736 282.761 298.416C278.547 302.584 273.557 307.034 271.685 308.311C269.805 309.588 267.824 311.045 267.283 311.562C265.309 313.419 248.524 323.431 242.03 326.62C237.816 328.688 233.501 330.161 230.281 330.623C223.992 331.532 222.48 331.493 216.574 330.247ZM253.599 313.333C259.2 311.656 265.435 305.24 273.753 292.603C276.573 288.326 277.669 286.148 281.828 276.551C283.505 272.681 283.975 263.264 282.714 258.728C281.374 253.941 275.171 247.54 270.526 246.169C265.482 244.673 253.999 244.971 250.255 246.687C243.895 249.601 229.686 266.625 225.464 276.402C220.592 287.66 219.284 295.62 221.289 301.715C224.571 311.68 230.877 315.19 244.388 314.594C247.631 314.445 251.774 313.881 253.599 313.333ZM316.66 330.247C310.167 329.041 306.619 327.098 302.844 322.687C299.209 318.441 298.16 314.179 298.59 305.365C299.013 296.865 301.919 288.663 308.319 277.961C317.914 261.901 340.644 244.438 363.696 235.421C374.568 231.175 380.004 230.031 387.076 230.524C390.836 230.791 393.288 231.472 395.826 232.961C399.162 234.919 402.601 238.39 402.601 239.8C402.601 240.161 400.925 241.406 398.88 242.581C396.836 243.756 392.293 246.42 388.792 248.504L382.424 252.288L378.421 249.593C371.944 245.229 361.675 244.798 351.054 248.434C346.472 250.008 344.984 251.066 339.156 256.942C329.146 267.04 323.146 278.126 320.373 291.679C319.277 297.045 320.217 302.435 323.154 307.583C325.339 311.398 326.96 312.557 333.493 314.939C340.464 317.477 348.5 316.89 359.129 313.059C363.437 311.508 367.009 310.238 367.064 310.238C367.127 310.238 367.33 311.069 367.526 312.095C367.832 313.678 367.244 314.281 363.508 316.263C361.095 317.54 355.127 320.791 350.231 323.486C345.344 326.181 340.057 328.837 338.482 329.393C333.9 331.007 323.013 331.43 316.66 330.247ZM421.008 330.396C420.828 329.863 419.786 325.727 418.697 321.206C416.927 313.881 410.966 293.998 409.118 289.242C408.381 287.362 409.024 286.148 392.653 320.423C390.695 324.52 388.698 328.124 388.212 328.437C387.327 329.017 368.92 329.307 368.92 328.743C368.92 328.578 370.565 325.5 372.578 321.888C377.419 313.215 406.345 255.32 412.071 242.863L416.567 233.07L426.209 232.53C431.511 232.232 436.031 232.17 436.242 232.381C436.462 232.6 435.467 234.959 434.041 237.622C432.608 240.286 427.196 250.721 422.003 260.804L412.564 279.144L418.352 274.561C421.54 272.038 424.321 269.766 424.532 269.516C424.744 269.265 426.686 267.667 428.84 265.975C430.994 264.275 434.182 261.642 435.921 260.122C440.214 256.378 446.174 251.364 450.091 248.206C455.346 243.976 462.325 238.037 465.262 235.295C467.73 233 468.725 232.655 475.053 231.935C478.931 231.488 482.424 231.12 482.808 231.12C483.857 231.112 481.006 234.12 477.325 236.901C474.458 239.079 454.657 254.873 447.02 261.078C445.391 262.402 442.877 264.4 441.443 265.512C432.929 272.132 427.666 276.739 427.666 277.561C427.673 278.086 431.026 288.365 435.13 300.422C439.227 312.471 442.43 322.726 442.25 323.212C442.062 323.698 438.616 325.218 434.59 326.596C430.564 327.975 426.569 329.409 425.707 329.785C422.48 331.187 421.329 331.336 421.008 330.396ZM673.276 330.38C673.135 329.855 671.873 322.272 670.464 313.513C667.401 294.397 665.482 286.32 664.636 288.976C664.166 290.472 649.989 320.352 646.754 326.69C645.775 328.594 645.501 328.657 636.18 328.868C630.18 329.009 626.616 328.798 626.616 328.304C626.616 327.701 636.673 308.115 640.715 300.837C643.973 294.977 666.007 250.008 671.458 238.092L674.176 232.154L691.745 231.621C711.123 231.041 715.141 231.598 719.77 235.499C722.465 237.763 724.102 242.644 723.413 246.318C722.739 249.922 718.831 257.686 715.768 261.509C710.309 268.317 698.599 276.128 689.669 278.901C687.946 279.434 686.254 280.131 685.91 280.445C685.565 280.758 685.808 283.273 686.442 286.03C687.077 288.788 688.361 295.447 689.301 300.837C690.241 306.227 691.306 311.688 691.667 312.98C692.035 314.273 692.552 316.937 692.826 318.895C693.398 322.969 694.612 322.021 681.21 327.936C676.088 330.2 673.448 331.007 673.276 330.38ZM679.095 275.352C681.899 273.676 684.085 272.884 685.361 273.104C686.724 273.339 688.44 272.61 691.032 270.683C697.823 265.646 702.593 257.302 702.593 250.478C702.593 246.71 699.531 243.467 694.847 242.276C688.682 240.717 688.886 240.474 678.86 260.553C673.824 270.652 669.696 279.269 669.696 279.708C669.696 280.593 672.563 279.262 679.095 275.352ZM995.176 329.628C994.8 328.43 992.348 317.344 989.325 303.188C988.087 297.367 986.349 289.618 985.464 285.952C984.571 282.286 983.294 276.504 982.612 273.096C981.931 269.68 981.226 266.656 981.046 266.366C980.866 266.076 980.529 264.729 980.286 263.366L979.847 260.882H990.328H1000.81L1001.7 265.387C1002.81 270.941 1006.25 289.211 1006.95 293.191C1007.61 297.014 1008.46 296.356 1010.01 290.833C1010.7 288.365 1011.77 284.581 1012.38 282.427C1014.48 275.07 1016.58 267.541 1017.45 264.188L1018.32 260.835L1029.01 261.055L1039.7 261.274L1041.02 265.975C1041.75 268.56 1043.83 276.143 1045.65 282.818C1047.47 289.493 1049.16 295.283 1049.4 295.682C1050.12 296.865 1051 293.598 1053.11 281.823C1054.22 275.697 1055.54 268.56 1056.07 265.975L1057.02 261.274L1067.5 261.055L1077.96 260.835L1077.41 263.013C1077.11 264.212 1076.52 267.283 1076.1 269.837C1075.69 272.391 1075.19 274.741 1074.99 275.062C1074.79 275.384 1074.28 277.35 1073.86 279.426C1071.76 289.665 1068.99 302.404 1065.62 317.289C1064.89 320.517 1064.19 323.698 1064.07 324.34C1063.96 324.983 1063.6 326.667 1063.28 328.085L1062.69 330.647L1051.7 330.435L1040.7 330.216L1039.56 325.907C1038.92 323.541 1037.36 317.892 1036.09 313.372C1034.82 308.852 1033.26 303.203 1032.63 300.837C1032.01 298.471 1031.28 295.996 1031.02 295.353C1030.75 294.711 1030.59 293.927 1030.65 293.614C1030.71 293.308 1030.39 292.078 1029.94 290.872C1028.86 288.059 1028.29 289.047 1026.22 297.312C1025.36 300.759 1023.91 306.227 1023.01 309.455C1021.27 315.621 1018.96 324.183 1018.67 325.515C1018.57 325.946 1018.09 327.27 1017.61 328.453L1016.72 330.608H1006.1C998.301 330.608 995.403 330.349 995.176 329.628ZM1083.26 305.514V280.429L1094.42 280.64L1105.59 280.86L1105.79 305.734L1106 330.608H1094.63H1083.26V305.514ZM1111.46 295.33V260.052L1122.21 260.271L1132.96 260.491L1141.21 272.83C1145.74 279.614 1151.21 287.903 1153.37 291.24L1157.28 297.312L1157.49 278.705L1157.7 260.099H1168.26H1178.82V295.353V330.608H1168.25C1162.44 330.608 1157.67 330.294 1157.67 329.918C1157.67 329.542 1156.18 327.247 1154.34 324.826C1152.51 322.397 1148.9 317.156 1146.32 313.176C1143.73 309.189 1141.41 305.749 1141.16 305.538C1140.91 305.326 1139.06 302.616 1137.06 299.513C1135.04 296.419 1133.05 293.669 1132.62 293.395C1132.09 293.073 1131.83 299.317 1131.83 311.758V330.608H1121.64H1111.46V295.33ZM1204.54 329.769C1198.5 328.876 1193.4 326.33 1190.19 322.585C1187.56 319.499 1184.3 311.57 1184.3 308.217C1184.3 306.196 1185.53 305.898 1197.02 305.099L1204.64 304.574L1205.42 306.815C1207.78 313.552 1211.4 316.506 1217.29 316.506C1220.4 316.506 1221.56 316.075 1223.84 314.077C1226.85 311.421 1227.3 309.236 1225.38 306.494C1223.68 304.065 1220.77 302.71 1214.84 301.613C1205.87 299.944 1196.91 296.043 1192.14 291.734C1184.41 284.761 1185.08 270.769 1193.44 264.361C1198.97 260.122 1204.29 258.924 1217.59 258.932C1228.99 258.932 1229.48 259.002 1233.65 261.172C1236.02 262.402 1238.62 263.985 1239.42 264.69C1241.5 266.531 1244.49 272.743 1245.09 276.488L1245.6 279.685H1242.49C1240.78 279.685 1236.17 279.912 1232.26 280.186L1225.15 280.695L1224.02 278.032C1222.72 274.945 1220.94 273.284 1217.44 271.905C1214.47 270.722 1210.4 271.764 1208.12 274.287C1205.91 276.723 1207.93 279.794 1212.53 280.977C1230.58 285.607 1234.65 287.041 1239.96 290.598C1247.76 295.831 1250.19 306.376 1245.91 316.514C1243.23 322.875 1234.94 328.633 1226.77 329.816C1220.6 330.709 1210.81 330.686 1204.54 329.769ZM534.19 329.182C534.19 329.049 538.169 324.465 543.026 318.997C547.89 313.537 552.73 307.966 553.796 306.627C554.861 305.287 557.97 301.581 560.704 298.401C563.438 295.22 567.315 290.692 569.32 288.341C571.325 285.991 574.396 282.466 576.142 280.507C577.897 278.549 581.508 274.295 584.179 271.067C586.85 267.839 591.314 262.543 594.095 259.315C608.107 243.012 607.857 243.388 608.444 238.061L608.993 233.141L617.217 231.778C621.736 231.026 625.903 230.399 626.467 230.368C627.595 230.321 627.454 233.29 625.457 251.481C624.869 256.871 623.992 265.857 623.514 271.459C623.029 277.06 622.308 284.988 621.901 289.086C620.491 303.391 619.606 313.027 619.128 319.318C618.862 322.797 618.407 325.993 618.125 326.416C617.515 327.325 610.951 328.743 604.011 329.472L599.029 329.996L599.546 325.014C599.828 322.272 600.377 317.563 600.76 314.547C601.144 311.531 601.677 306.509 601.943 303.383L602.429 297.703L587.695 297.719C579.589 297.719 572.594 297.986 572.155 298.307C571.709 298.62 569.954 300.641 568.263 302.796C566.563 304.95 563.931 308.147 562.411 309.894C560.892 311.641 556.733 316.639 553.169 320.995L546.683 328.923L540.433 329.174C537.002 329.315 534.19 329.323 534.19 329.182ZM603.502 285.968C604.011 285.145 605.985 271.247 606.94 261.768C607.512 256.017 607.512 255.994 606.047 257.85C605.241 258.869 602.922 261.634 600.909 263.992C598.896 266.351 595.669 270.229 593.742 272.61C591.815 274.992 589.849 277.295 589.372 277.726C587.954 278.995 582.753 285.678 582.753 286.226C582.753 287.065 602.977 286.806 603.502 285.968ZM935.781 329.338C935.475 329.033 935.225 295.878 935.225 255.657V182.539H937.582H939.932L939.736 255.986C939.533 329.252 939.533 329.432 937.935 329.66C937.057 329.785 936.086 329.644 935.781 329.338ZM93.9924 328.806C93.9924 328.68 94.7209 325.241 95.6138 321.167C97.0863 314.469 99.1463 303.924 101.05 293.395C101.433 291.24 102.319 286.485 103 282.818C105.005 272.101 105.546 269.069 108.013 254.615C110.825 238.178 111.726 233.47 112.109 233.141C112.266 233.008 116.574 232.679 121.681 232.42L130.963 231.942L130.446 234.011C130.164 235.147 129.067 240.333 128.018 245.543C126.96 250.745 125.566 257.474 124.908 260.491C124.25 263.507 122.315 273.206 120.608 282.035C118.908 290.864 117.122 299.975 116.645 302.271C116.175 304.566 115.947 306.611 116.151 306.807C116.355 307.011 122.464 300.994 129.733 293.426C140.417 282.317 143.127 279.042 143.887 276.355C144.654 273.637 146.307 264.188 148.516 249.914C148.688 248.833 148.994 246.898 149.197 245.605C149.409 244.313 149.769 241.845 150.012 240.121C151.108 232.256 150.756 232.679 156.129 232.671C158.785 232.671 162.811 232.444 165.074 232.17L169.186 231.676V234.465C169.186 237.16 168.944 238.586 166.531 250.11C165.92 253.017 165.701 255.398 166.038 255.398C166.382 255.398 171.63 250.275 177.701 244.007L188.752 232.608L194.275 232.843L199.804 233.07L189.473 244.039C183.787 250.071 175.476 258.751 170.996 263.334L162.85 271.654L161.322 280.374C160.476 285.161 159.09 293.034 158.244 297.86C157.398 302.686 156.819 306.752 156.967 306.893C157.226 307.152 162.677 301.127 169.296 293.254C171.176 291.013 175.359 286.132 178.586 282.403C181.813 278.666 186.042 273.746 187.985 271.459C189.927 269.171 193.758 264.713 196.507 261.548C202.984 254.074 203.971 252.93 209.501 246.389C212.055 243.373 215.391 239.549 216.927 237.896C218.454 236.243 219.989 234.394 220.334 233.783C220.78 233 222.535 232.679 226.404 232.679C229.396 232.679 231.848 232.875 231.848 233.117C231.848 233.36 228.762 237.121 224.994 241.469C221.227 245.817 215.908 252.037 213.183 255.289C210.457 258.532 207.762 261.564 207.191 262.018C206.627 262.473 203.392 266.123 200.008 270.135C193.194 278.212 188.651 283.461 178.194 295.345C174.317 299.748 169.625 305.17 167.761 307.387C165.897 309.604 163.069 312.824 161.471 314.547C159.873 316.271 156.638 319.976 154.289 322.773C151.931 325.57 149.652 328.124 149.221 328.437C148.782 328.759 145.524 329.025 141.968 329.025C136.688 329.041 135.506 328.821 135.506 327.842C135.506 327.184 136.375 322.162 137.433 316.678C141.396 296.223 141.615 294.57 140.331 294.57C139.963 294.57 133.391 301.182 125.723 309.259C104.95 331.14 107.653 329.041 100.266 329.041C96.82 329.041 93.9924 328.939 93.9924 328.806ZM451.587 327.364C451.884 326.448 454.516 321.246 457.453 315.809C460.383 310.379 463.602 304.284 464.612 302.271C465.615 300.265 470.001 291.624 474.356 283.077C478.719 274.53 485.487 260.671 489.403 252.265C493.319 243.858 496.977 236.024 497.541 234.841C498.489 232.82 498.857 232.694 503.721 232.687C506.572 232.679 511.06 232.452 513.708 232.177C517.765 231.754 518.525 231.864 518.525 232.89C518.525 233.564 518.219 234.23 517.851 234.379C517.475 234.52 516.12 236.753 514.836 239.338C513.551 241.923 509.102 250.47 504.943 258.328C500.776 266.194 497.377 272.798 497.377 273.018C497.377 273.237 505.311 273.417 515.016 273.417H532.655L539.9 258.728C543.887 250.651 548.242 241.539 549.582 238.476L552.01 232.922L561.699 232.475C567.033 232.224 571.544 232.177 571.732 232.358C571.913 232.546 571.176 234.363 570.103 236.408C562.411 250.972 554.916 265.536 549.245 276.943C534.073 307.449 531.974 311.766 528.692 319.248C526.796 323.557 524.924 327.521 524.533 328.061C524.023 328.751 520.969 329.041 514.123 329.041C504.888 329.041 503.533 328.743 505.123 327.043C505.507 326.636 509.079 319.953 513.05 312.197C517.029 304.441 521.65 295.58 523.318 292.517C524.987 289.446 526.358 286.712 526.358 286.446C526.358 286.171 518.29 285.952 508.428 285.952H490.499L489.309 288.89C488.651 290.504 484.805 298.698 480.756 307.105C476.706 315.511 472.931 323.541 472.351 324.959C471.779 326.377 470.683 327.873 469.907 328.289C469.132 328.704 464.573 329.041 459.78 329.041C451.234 329.041 451.07 329.009 451.587 327.364ZM702.069 328.571C701.45 328.304 702.022 326.565 703.8 323.259C711.985 308.1 719.575 293.175 736.29 259.315C737.888 256.088 741.365 248.684 744.028 242.863L748.861 232.287L769.007 232.35C790.257 232.42 794.306 232.906 801.066 236.181C809.189 240.114 812.588 245.817 812.525 255.398C812.478 262.285 810.168 269.539 805.084 278.823C800.808 286.626 798.599 289.446 789.176 299.129C776.84 311.813 765.278 319.357 747.24 326.518C742.313 328.469 741.514 328.547 722.567 328.759C711.797 328.876 702.57 328.798 702.069 328.571ZM752.331 314.947C764.19 312.001 766.963 310.81 770.511 307.167C778.195 299.286 786.027 286.054 789.059 275.822C790.664 270.401 790.672 262.206 789.082 257.521C787.61 253.197 782.894 248.081 778.782 246.357C777.161 245.676 772.962 244.916 769.461 244.665C761.942 244.133 763.305 242.816 755.057 258.595C741.882 283.805 727.658 313.317 727.658 315.433C727.658 316.568 728.809 316.663 738.036 316.31C743.746 316.098 750.177 315.48 752.331 314.947ZM802.076 328.845C802.076 328.735 804.552 323.894 807.567 318.073C815.917 301.989 845.148 243.717 845.148 243.169C845.148 242.903 839.908 242.942 833.501 243.247C825.817 243.623 821.682 243.545 821.353 243.012C821.079 242.574 823.765 239.957 827.321 237.191L833.791 232.162L863.36 232.522C879.62 232.718 892.92 233.102 892.904 233.368C892.889 233.635 891.393 234.982 889.576 236.361C887.758 237.74 885.142 239.902 883.764 241.171L881.265 243.482L873.103 243.067L864.942 242.652L848.955 274.678C840.167 292.298 830.729 311.468 827.987 317.289C825.238 323.11 822.598 328.124 822.128 328.437C821.361 328.947 802.061 329.338 802.076 328.845ZM0 328.124C0 327.834 5.02076 320.956 11.1459 312.847C29.8661 288.091 41.9363 272.085 52.4164 258.14C57.9307 250.815 64.7138 241.829 67.5022 238.163C70.2828 234.496 74.4107 229.036 76.6665 226.02C82.353 218.42 100.149 194.949 107.7 185.101L113.966 176.922L121.407 174.376C131.871 170.803 143.166 165.727 150.576 161.277C154.054 159.185 156.991 157.469 157.093 157.469C157.539 157.469 173.142 146.783 178.194 143.023C184.844 138.072 185.933 137.398 185.541 138.495C185.189 139.474 117.06 209.716 111.741 214.589C110.527 215.702 94.4311 232.13 75.9772 251.089C29.6389 298.706 0.0078327 328.751 0 328.124ZM8.61597 282.489C8.61597 282.168 11.1694 278.47 14.2947 274.279C17.4199 270.088 21.0308 265.168 22.3232 263.35C23.6156 261.533 26.4354 257.678 28.5972 254.787C30.7512 251.888 33.0462 248.755 33.6885 247.807C35.0357 245.833 46.957 229.373 52.8629 221.319C55.0796 218.303 59.4267 212.31 62.5206 208.001C65.6145 203.692 68.4186 199.814 68.7555 199.383C69.0923 198.952 70.228 197.37 71.2854 195.858C72.3507 194.346 73.6509 192.583 74.1757 191.94C74.7083 191.298 75.9537 189.543 76.9485 188.047C79.2356 184.6 81.2173 183.652 88.5095 182.508C91.7366 181.999 97.0315 181.043 100.259 180.385C111.968 178.003 111.867 177.353 101.433 188.109C96.2639 193.437 91.2353 198.506 90.2562 199.375C89.2771 200.245 77.4106 212.404 63.8835 226.411C30.1794 261.313 8.61597 283.194 8.61597 282.489ZM1083.26 270.37C1083.26 262.59 1083.47 260.968 1084.5 260.577C1086.29 259.887 1105.19 259.989 1105.18 260.686C1105.17 261.008 1101.76 264.267 1097.6 267.933C1093.44 271.6 1088.82 275.736 1087.35 277.138C1085.88 278.541 1084.35 279.685 1083.97 279.685C1083.58 279.685 1083.26 275.493 1083.26 270.37ZM980.654 216.203V180.925L991.424 181.145L1002.19 181.364L1002.4 207.413L1002.61 233.462H1019.04H1035.48V242.472V251.481H1008.07H980.654V216.203ZM1041.75 226.411V201.295L1052.52 201.514L1063.29 201.733V226.411V251.089L1052.52 251.309L1041.75 251.528V226.411ZM1069.16 216.219V180.949L1095.99 181.16L1122.82 181.364V188.415V195.466L1106.96 195.677L1091.1 195.889V202.141V208.392H1104.41H1117.73V215.443V222.494H1104.41H1091.1V236.988V251.481H1080.13H1069.16V216.219ZM1128.69 216.227V180.972H1157.67H1186.65V188.399V195.826L1168.83 196.038L1151.02 196.249L1150.78 201.537L1150.55 206.826H1167.43H1184.3V214.268V221.711H1167.46H1150.62V228.37V235.029H1169.03H1187.44V243.255V251.481H1158.06H1128.69V216.227ZM17.2319 242.237C17.2319 241.743 19.6366 237.536 22.5738 232.898C25.5189 228.252 30.3596 220.481 33.3438 215.624C36.3281 210.758 40.7849 203.535 43.2443 199.563C45.7038 195.583 48.2729 191.235 48.9622 189.896C51.7585 184.412 51.9543 184.341 64.6041 184.224C70.933 184.169 76.4002 183.934 76.7683 183.707C77.1365 183.479 77.6377 183.628 77.8884 184.028C78.139 184.435 77.3871 185.516 76.2122 186.441C75.0451 187.357 64.2125 197.699 52.1423 209.419C19.7932 240.819 17.2319 243.224 17.2319 242.237ZM18.0152 221.115C18.0152 220.794 18.3834 219.29 18.8298 217.786C19.2763 216.282 21.5478 208.087 23.8741 199.571C26.2082 191.063 28.3074 183.777 28.5502 183.393C28.9653 182.719 37.2758 182.915 46.0171 183.801C48.8604 184.09 50.1293 184.561 50.1293 185.336C50.1293 185.955 49.863 186.456 49.5418 186.456C49.2207 186.456 44.9049 191.298 39.9468 197.205C34.9887 203.112 29.4275 209.544 27.5711 211.495C25.7226 213.453 23.0751 216.54 21.6966 218.358C19.3311 221.476 18.0152 222.463 18.0152 221.115ZM1040.97 191.611C1040.97 187.122 1041.18 182.892 1041.44 182.21C1041.84 181.168 1043.57 180.972 1052.41 180.972C1058.17 180.972 1062.9 181.286 1062.9 181.662C1062.9 182.046 1061.75 183.229 1060.35 184.302C1058.95 185.375 1054.45 189.292 1050.37 193.006C1046.28 196.719 1042.49 199.759 1041.95 199.767C1041.22 199.775 1040.97 197.628 1040.97 191.611ZM58.7453 146.979C58.7453 145.655 59.2936 144.966 60.6173 144.637C63.2726 143.971 63.5859 142.388 61.9175 138.103C57.915 127.864 56.3955 123.696 56.3955 122.944C56.3955 122.474 57.633 122.223 59.2701 122.364C62.1212 122.607 62.1682 122.662 64.2282 128.851L66.3038 135.087L68.2228 128.851L70.1418 122.607L73.0634 122.364C74.6613 122.231 75.9772 122.293 75.9772 122.513C75.9772 122.724 74.0504 128.122 71.6927 134.507C67.0871 146.964 65.732 148.852 61.4006 148.852C59.1212 148.852 58.7453 148.585 58.7453 146.979ZM84.8987 141.072C83.9901 140.688 82.4862 139.404 81.5698 138.236C79.2591 135.298 79.2043 127.997 81.4758 125.122C84.7263 120.985 92.8645 120.468 96.3501 124.182C97.4153 125.317 98.2456 127.425 98.4962 129.611L98.8957 133.183H92.1361C88.4155 133.183 85.3764 133.465 85.3764 133.818C85.3764 134.162 85.8464 135.095 86.426 135.886C87.2485 137.006 88.0474 137.202 90.1466 136.779C97.7208 135.259 97.9088 135.267 97.9088 136.998C97.9088 137.899 97.008 139.223 95.9036 139.944C93.5851 141.464 87.3033 142.114 84.8987 141.072ZM92.2379 128.287C90.734 126.015 87.7419 125.553 86.4025 127.386C84.7342 129.666 85.165 130.049 89.3868 130.049C93.3736 130.049 93.3893 130.034 92.2379 128.287ZM104.527 139.881C100.885 136.231 102.648 131.632 108.256 130.183C110.104 129.705 112.321 129.211 113.183 129.086C114.044 128.96 114.749 128.326 114.749 127.691C114.749 126.281 110.629 125.631 109.407 126.853C108.945 127.315 107.574 127.699 106.368 127.699C103.658 127.699 103.384 125.521 105.82 123.312C107.081 122.176 108.655 121.823 112.462 121.823C119.723 121.823 120.436 122.771 120.757 132.987L121.015 141.017H118.517C117.138 141.017 115.799 140.665 115.525 140.226C115.219 139.725 114.42 139.866 113.347 140.618C110.739 142.443 106.76 142.114 104.527 139.881ZM113.613 136.685C115.055 135.941 115.924 134.875 115.924 133.857C115.924 132.4 115.619 132.282 113.002 132.776C108.922 133.536 107.308 134.554 107.308 136.348C107.308 138.26 110.261 138.424 113.613 136.685ZM147.466 141.292C145.563 140.876 142.555 137.531 142.555 135.823C142.555 135.095 143.566 134.75 145.688 134.75C147.936 134.75 148.821 135.079 148.821 135.909C148.821 137.296 151.978 138.228 154.249 137.508C157.617 136.442 155.98 135.103 149.048 133.238C143.143 131.655 141.678 128.146 145.218 124.033C146.887 122.09 147.623 121.847 151.829 121.847C155.745 121.847 156.897 122.176 158.565 123.735C162.842 127.754 159.223 130.433 154.367 126.837C152.534 125.482 151.845 125.349 150.458 126.093C148.093 127.362 148.978 128.216 153.717 129.235C159.513 130.48 161.354 131.875 161.354 135.024C161.354 138.918 158.479 141.229 153.333 141.472C151.069 141.582 148.43 141.495 147.466 141.292ZM126.89 131.616V122.215H129.631C131.566 122.215 132.373 122.568 132.373 123.414C132.373 124.377 132.827 124.276 134.668 122.92C137.566 120.774 139.422 121.408 139.422 124.542C139.422 126.422 139.085 126.916 137.801 126.916C133.869 126.916 133.156 128.122 133.156 134.781V141.017H130.023H126.89V131.616ZM64.2282 114.671C57.9307 113.449 50.1215 109.884 46.7299 106.688C43.8945 104.016 41.6935 99.7463 41.0434 95.649L40.5264 92.4448H49.5575H58.5808L60.4215 96.1661C62.8653 101.086 66.1472 102.817 72.2645 102.426C77.2853 102.104 79.9797 100.553 82.8308 96.3697C85.3764 92.6249 85.2981 85.5584 82.6585 81.0537C78.6325 74.183 67.0793 73.141 61.1107 79.1108C59.5285 80.6933 58.9646 80.7638 51.2337 80.2389C44.2078 79.7689 43.0955 79.5103 43.4323 78.4292C43.6438 77.7398 44.9127 69.5921 46.2521 60.3241C47.5915 51.0561 48.9387 42.2426 49.2442 40.7384L49.8081 37.9964L75.0294 37.7927L100.259 37.5812V44.256V50.923H81.8987C70.6823 50.923 63.3509 51.2207 63.0611 51.6986C62.7948 52.1216 62.2308 54.5032 61.8 56.9867C61.3771 59.4702 60.8131 62.6823 60.5468 64.1394C60.0925 66.7012 60.1238 66.7483 61.9175 65.7846C72.3507 60.2066 88.5174 62.6352 97.2978 71.1041C101.99 75.6324 103.697 80.0039 103.697 87.4622C103.689 93.0637 103.384 94.466 101.159 98.9864C96.1151 109.226 87.2485 114.248 73.2358 114.788C69.3586 114.937 65.3091 114.882 64.2282 114.671ZM133.759 113.997C121.705 110.934 114.53 104.557 113.104 95.649L112.587 92.4448H122.088C130.61 92.4448 131.589 92.5858 131.589 93.8158C131.597 96.3541 134.722 100.357 137.652 101.587C141.451 103.17 148.156 102.645 151.007 100.53C156.756 96.2757 158.471 88.1202 155.04 81.3906C151.539 74.512 139.438 73.0549 133.689 78.8131C131.699 80.7952 131.55 80.8187 123.796 80.2703C116.981 79.7845 115.924 79.5182 115.924 78.3117C115.924 77.0895 116.88 70.446 119.856 50.923C120.279 48.1183 120.898 44.068 121.227 41.9135L121.814 37.9964L147.067 37.7927L172.319 37.5812V44.2403V50.8916L153.748 51.1032L135.185 51.3147L134.26 56.0153C133.759 58.6006 133.117 61.9772 132.85 63.5205L132.349 66.3252L137.652 64.5233C148.876 60.6923 161.565 63.3638 169.852 71.3C177.168 78.296 178.053 93.0558 171.708 102.198C168.356 107.032 162.066 111.709 156.928 113.206C150.631 115.039 139.367 115.423 133.759 113.997ZM103.642 28.2113C101.449 27.3104 99.82 24.4117 100.901 23.3306C101.426 22.8057 102.483 23.0172 104.097 23.973C106.689 25.5085 107.535 25.1403 108.467 22.0849C108.961 20.4475 108.867 20.3614 107.496 21.2153C105.358 22.555 102.256 21.5522 101.175 19.1784C99.5693 15.6451 100.024 9.76154 102.084 7.36425C103.627 5.57019 104.261 5.34299 106.196 5.87573C107.457 6.22827 109.305 6.42413 110.308 6.32228L112.141 6.14209L111.874 15.9663C111.6 26.5113 111.162 27.7021 107.308 28.509C106.227 28.7362 104.582 28.603 103.642 28.2113ZM107.786 16.5539C108.945 14.2506 108.013 9.87122 106.298 9.54218C103.909 9.08779 102.867 14.9243 104.747 18.2539C105.319 19.2724 106.846 18.4184 107.786 16.5539ZM43.3148 21.7794C41.5603 20.9333 39.6256 16.8281 40.3932 15.5824C41.0982 14.4386 43.8631 14.799 43.8631 16.029C43.8631 17.823 46.6986 19.0217 48.5628 18.0189C51.077 16.6714 50.3878 14.94 46.6986 13.3575C42.6647 11.6261 40.73 9.20531 40.73 5.87573C40.73 1.88023 42.6256 0 46.6594 0C49.7612 0 50.3251 0.289869 51.7037 2.54615C53.7558 5.90706 53.6697 7.05087 51.359 7.05087C50.1371 7.05087 49.2755 6.4868 48.9544 5.48401C48.3748 3.65862 45.0459 3.32174 44.3879 5.02179C43.9258 6.22827 46.1424 8.61773 47.7168 8.61773C48.2651 8.61773 49.7377 9.34632 50.9909 10.2394C52.9647 11.6496 53.2624 12.3547 53.2624 15.6686C53.2624 18.8415 52.9256 19.7424 51.2024 21.0978C48.9701 22.8527 46.0563 23.1034 43.3148 21.7794ZM56.0978 21.0508C53.6227 17.5175 54.8994 13.9372 59.1291 12.5349C62.082 11.5634 62.8966 9.40116 60.3118 9.40116C59.4502 9.40116 58.7453 9.75371 58.7453 10.1846C58.7453 10.6155 58.0403 10.968 57.1787 10.968C55.2989 10.968 55.1735 9.59702 56.8341 7.22323C58.3145 5.10797 62.7164 4.8416 64.33 6.77667C64.9801 7.5601 65.5597 10.8113 65.7947 15.0184L66.1863 21.9595L63.8365 21.9125C62.5441 21.8812 60.5625 22.0849 59.4267 22.3591C57.821 22.7508 57.0926 22.4688 56.0978 21.0508ZM61.8783 17.1806C61.8783 16.0603 61.4554 15.6373 60.5155 15.8175C58.4711 16.2092 58.244 18.8023 60.257 18.8023C61.3771 18.8023 61.8783 18.3009 61.8783 17.1806ZM154.359 20.6591C151.884 17.5097 152.056 10.0122 154.657 7.40342C156.623 5.44484 157.899 5.10796 160.147 5.96974C161.878 6.63565 163.703 10.3883 163.703 13.2791C163.703 15.6216 163.633 15.6686 159.787 15.6686C157.633 15.6686 155.871 15.8175 155.871 15.9976C155.871 16.1778 156.082 16.8829 156.349 17.5645C156.866 18.912 159.787 19.2959 159.787 18.0189C159.787 17.0553 162.67 16.9769 163.257 17.9249C163.492 18.3088 162.959 19.5387 162.066 20.6669C159.897 23.4324 156.537 23.4246 154.359 20.6591ZM159.787 10.968C159.787 9.92606 159.262 9.40116 158.221 9.40116C157.359 9.40116 156.654 9.55001 156.654 9.7302C156.654 9.91039 156.443 10.6155 156.176 11.2971C155.824 12.2293 156.208 12.5349 157.743 12.5349C159.262 12.5349 159.787 12.1353 159.787 10.968ZM167.032 21.5287C164.792 19.9461 164.675 17.2355 166.837 17.2355C167.698 17.2355 168.403 17.588 168.403 18.0189C168.403 18.4498 169.28 18.8023 170.361 18.8023C173.032 18.8023 172.883 16.7654 170.165 16.0838C166.923 15.2769 165.27 13.3888 165.27 10.498C165.27 5.99324 170.675 3.83881 173.886 7.05087C176.447 9.61269 175.875 10.4275 171.928 9.83205C167.494 9.16613 167.408 10.1533 171.732 12.1667C176.079 14.1801 177.238 17.0788 174.936 20.1733C173.04 22.7351 169.578 23.3227 167.032 21.5287ZM69.4604 14.9243C66.9539 6.54948 66.9304 6.26744 68.8964 6.26744C70.1105 6.26744 70.745 7.30157 71.865 11.109L73.2906 15.9585L74.6378 11.109C75.7109 7.24673 76.2983 6.26744 77.5437 6.26744C79.5411 6.26744 79.5254 6.51814 76.972 14.9165C75.1704 20.8392 74.583 21.936 73.1966 21.936C71.8102 21.936 71.2306 20.8471 69.4604 14.9243ZM80.8413 14.2976C81.0606 7.05087 81.1625 6.64349 82.8308 6.40846C84.5619 6.1656 84.5932 6.31445 84.5932 14.0469V21.936H82.6037H80.622L80.8413 14.2976ZM86.943 14.0077V6.07158L89.1753 6.51814C90.4051 6.761 91.7914 6.58865 92.2536 6.12642C92.7157 5.6642 93.9924 5.51535 95.0968 5.78955C97.5328 6.40062 98.1829 8.51589 98.2456 16.0603C98.3004 21.1369 98.1751 21.56 96.5694 21.7872C94.9323 22.0222 94.8305 21.7245 94.6112 15.9115C94.4075 10.3883 94.2274 9.79288 92.8175 9.79288C91.4076 9.79288 91.2275 10.3883 91.0238 15.8645C90.8045 21.7324 90.7262 21.936 88.8698 21.936C86.9508 21.936 86.943 21.9047 86.943 14.0077ZM120.968 20.9098C120.749 20.3535 120.671 15.5041 120.796 10.1376C121.007 0.705086 121.07 0.383881 122.778 0.141018C124.516 -0.10968 124.54 0.00783523 124.54 8.91544V17.9406L128.652 18.1756C132.232 18.3793 132.796 18.6378 133.015 20.1733C133.258 21.8655 133.038 21.936 127.313 21.936C123.138 21.936 121.242 21.6305 120.968 20.9098ZM134.722 14.1017C134.722 6.79234 134.824 6.26744 136.289 6.26744C137.754 6.26744 137.856 6.79234 137.856 14.1017C137.856 21.4111 137.754 21.936 136.289 21.936C134.824 21.936 134.722 21.4111 134.722 14.1017ZM141.811 14.4856C140.495 10.3883 139.422 6.86285 139.422 6.65132C139.422 6.4398 140.268 6.26744 141.302 6.26744C142.908 6.26744 143.315 6.83151 144.122 10.1846C144.639 12.339 145.344 14.1017 145.688 14.1017C146.033 14.1017 146.738 12.339 147.255 10.1846C148.069 6.77667 148.445 6.26744 150.161 6.26744C151.578 6.26744 152.001 6.58865 151.672 7.43475C151.43 8.07717 150.31 11.6026 149.189 15.2691C147.576 20.5729 146.855 21.936 145.68 21.936C144.498 21.936 143.714 20.4319 141.811 14.4856ZM80.9823 3.58028C80.2695 1.72355 81.2799 -0.148853 82.8308 0.148851C83.6924 0.313371 84.2015 1.12814 84.2015 2.35029C84.2015 4.58307 81.7264 5.53102 80.9823 3.58028ZM135.263 4.19135C134.965 3.90148 134.722 2.83602 134.722 1.82539C134.722 0.501397 135.169 0 136.344 0C137.636 0 137.91 0.423051 137.715 2.09176C137.464 4.19135 136.273 5.20981 135.263 4.19135Z" fill="#25274C"/>
</svg>
